<?xml version="1.0" encoding="utf-8"?>
<!-- Generator: Adobe Illustrator 16.0.3, SVG Export Plug-In . SVG Version: 6.00 Build 0)  -->
<!DOCTYPE svg PUBLIC "-//W3C//DTD SVG 1.1//EN" "http://www.w3.org/Graphics/SVG/1.1/DTD/svg11.dtd">
<svg version="1.1" id="Calque_1" xmlns="http://www.w3.org/2000/svg" xmlns:xlink="http://www.w3.org/1999/xlink" x="0px" y="0px"
	 width="168px" height="121.5px" viewBox="0 0 168 121.5" enable-background="new 0 0 168 121.5" xml:space="preserve">
<g>
	<g>
		<g>
			<path fill="#FFFFFF" d="M82.53,111.6c-1.971-1.615-5.998-1.95-10.214,0.648C68.218,114.775,65.313,116,62.153,116
				c-3.082,0-6.464-2.857-8.851-5.348c5.398-0.196,9.653-2.736,10.668-7.51c0.625-3.271-0.142-6.444-1.939-9.029
				c-1.209-1.742-3.689-3.667-6.515-4.047c-1.989-0.267-3.462,0.076-5.001,1.369c-2.524,2.102-2.937,4.256-2.927,5.7
				c0.014,1.794,0.531,3.604,1.901,4.713c1.289,1.038,4.477,1.859,6.288,0.348c1.811-1.51,2.171-4.36,0.309-5.663
				c-1.206-0.844-2.225-0.812-3.319,0.005c-0.644,0.481-0.955,1.205-0.842,1.935c0.094,0.61,0.35,1.124,0.857,1.354
				c0.16,0.091,0.454,0.126,0.651,0.126c0.568,0,1.033-0.461,1.033-1.033c0-0.569-0.152-0.897-0.688-1.038
				c-0.541-0.142-0.866,0.34-0.912,0.353c-0.123-1.346,1.776-1.555,2.458-0.872c0.781,0.786,0.675,2.102,0.174,3.264
				c-0.229,0.526-0.826,0.945-1.641,1.145c-1.292,0.313-2.747,0.018-3.707-0.762c-0.836-0.673-1.736-1.99-1.749-3.677
				c-0.013-1.666,0.317-3.629,2.006-5.032c1.27-1.063,3.32-1.706,4.962-1.489c2.426,0.325,4.99,2.633,6.036,4.138
				c1.609,2.316,1.901,4.858,1.281,7.782c-1.049,4.959-4.182,6.778-9.809,7.263c-2.331-2.687-3.541-4.526-7.107-4.611
				c-3.575-0.094-5.16,1.96-7.469,3.749c-3.455,2.722-5.239,2.404-6.711,1.943c-1.339-0.416-2.326-1.636-1.836-2.961
				c0.228,0.37,0.94,0.607,1.075,0.607c0.567,0,1.031-0.459,1.031-1.033c0-0.569-0.464-1.036-1.031-1.036
				c-0.224,0-0.425,0.086-0.593,0.209c0,0-0.096,0.053-0.139,0.094c0,0.005,0,0.008,0,0.008c-0.825,0.769-1.274,1.791-1.191,2.759
				c0.082,1.019,0.814,2.725,3.537,2.9c2.859,0.197,5.785-2.494,5.785-2.494c-1.487,3.959,0.972,7.162,4.307,7.182
				c0.078,0,0.148,0.003,0.219,0.003c1.664,0,2.521-0.431,3.22-1.277c0.704-0.848,1.104-1.57,1.104-2.402
				c0-1.719-1.076-2.401-2.007-2.401c-0.573,0-1.036,0.464-1.036,1.033c0,0.572,0.463,1.036,1.036,1.036
				c0.204,0,0.787-0.234,1.094-0.779c0.384,1.071-0.466,2.321-0.857,2.702c-0.401,0.385-1.426,0.697-2.75,0.574
				c-2.137-0.265-3.646-1.545-3.79-3.964c-0.125-2.071,1.154-3.105,1.823-3.589c1.315-0.904,3.143-1.733,5.75-1.467
				c2.333,0.328,3.785,1.593,6.015,3.944c0,0,0.034,0.053,0.058,0.053c2.765,3.006,5.66,6.641,9.541,6.641
				c3.422,0,6.274-2.049,10.592-4.716c3.646-2.247,7.468-1.859,9.182-0.222c1.453,1.387,2.059,3.286,1.38,4.655
				c-0.884,1.756-2.513,2.079-3.673,1.665c-1.162-0.41-1.949-2.192-0.935-3.119c0.042,0.7,0.737,1.239,1.23,1.239
				c0.706,0,1.276-0.564,1.276-1.272c0-0.703-0.571-1.27-1.276-1.27c-2.864-0.182-3.295,4.052-0.897,5.188
				c2.313,1.096,3.897-0.381,4.834-2.253C84.636,115.38,84.563,113.261,82.53,111.6z"/>
		</g>
		<g>
			<path fill="#FFFFFF" d="M85.744,111.6c1.973-1.615,6-1.95,10.214,0.648c4.1,2.527,7,3.752,10.166,3.752
				c3.08,0,6.461-2.857,8.848-5.348c-5.396-0.196-9.654-2.736-10.665-7.51c-0.625-3.271,0.138-6.444,1.938-9.029
				c1.205-1.742,3.689-3.667,6.512-4.047c1.993-0.267,3.462,0.076,5.005,1.369c2.525,2.102,2.938,4.256,2.923,5.7
				c-0.015,1.794-0.529,3.604-1.9,4.713c-1.29,1.038-4.476,1.859-6.288,0.348c-1.814-1.51-2.169-4.36-0.305-5.663
				c1.205-0.844,2.223-0.812,3.316,0.005c0.645,0.481,0.955,1.205,0.836,1.935c-0.093,0.61-0.35,1.124-0.857,1.354
				c-0.156,0.091-0.448,0.126-0.645,0.126c-0.569,0-1.033-0.461-1.033-1.033c0-0.569,0.146-0.897,0.686-1.038
				c0.539-0.142,0.864,0.34,0.912,0.353c0.126-1.346-1.779-1.555-2.459-0.872c-0.784,0.786-0.68,2.102-0.171,3.264
				c0.229,0.526,0.827,0.945,1.643,1.145c1.285,0.313,2.742,0.018,3.702-0.762c0.839-0.673,1.736-1.99,1.756-3.677
				c0.005-1.666-0.328-3.629-2.014-5.032c-1.268-1.063-3.321-1.706-4.962-1.489c-2.424,0.325-4.995,2.633-6.033,4.138
				c-1.61,2.316-1.902,4.858-1.28,7.782c1.043,4.959,4.179,6.778,9.806,7.263c2.334-2.687,3.543-4.526,7.109-4.611
				c3.571-0.094,5.159,1.96,7.464,3.749c3.458,2.722,5.242,2.404,6.713,1.943c1.338-0.416,2.329-1.636,1.837-2.961
				c-0.229,0.37-0.935,0.607-1.075,0.607c-0.567,0-1.031-0.459-1.031-1.033c0-0.569,0.464-1.036,1.031-1.036
				c0.227,0,0.423,0.086,0.592,0.209c0,0,0.099,0.053,0.139,0.094c0,0.005,0.005,0.008,0.005,0.008
				c0.821,0.769,1.271,1.791,1.185,2.759c-0.081,1.019-0.812,2.725-3.533,2.9c-2.858,0.197-5.784-2.494-5.784-2.494
				c1.487,3.959-0.97,7.162-4.307,7.182c-0.078,0-0.154,0.003-0.222,0.003c-1.664,0-2.518-0.431-3.216-1.277
				c-0.71-0.848-1.106-1.57-1.106-2.402c0-1.719,1.076-2.401,2.006-2.401c0.577,0,1.036,0.464,1.036,1.033
				c0,0.572-0.458,1.036-1.036,1.036c-0.199,0-0.787-0.234-1.094-0.779c-0.381,1.071,0.466,2.321,0.856,2.702
				c0.401,0.385,1.429,0.697,2.752,0.574c2.137-0.265,3.644-1.545,3.788-3.964c0.128-2.071-1.152-3.105-1.82-3.589
				c-1.315-0.904-3.143-1.733-5.75-1.467c-2.336,0.328-3.788,1.593-6.018,3.944c0,0-0.03,0.053-0.056,0.053
				c-2.767,3.006-5.665,6.641-9.543,6.641c-3.42,0-6.272-2.049-10.592-4.716c-3.644-2.247-7.464-1.859-9.178-0.222
				c-1.454,1.387-2.062,3.286-1.381,4.655c0.882,1.756,2.51,2.079,3.674,1.665c1.159-0.41,1.945-2.192,0.932-3.119
				c-0.04,0.7-0.736,1.239-1.229,1.239c-0.706,0-1.275-0.564-1.275-1.272c0-0.703,0.57-1.27,1.275-1.27
				c2.865-0.182,3.296,4.052,0.897,5.188c-2.313,1.096-3.896-0.381-4.836-2.253C83.639,115.38,83.712,113.261,85.744,111.6z"/>
		</g>
	</g>
	<g>
		<polygon fill="#FFFFFF" points="83.882,22.521 83.884,22.521 83.885,22.521 		"/>
		<path fill="#FFFFFF" d="M103.659,11.356c-0.58,1.166-3.301,2.535-4.027,2.918c-0.749,0.401-1.278,0.577-1.013-0.655
			c0.257-1.196,0.521-2.602,1.172-4.292c-0.295-0.058-0.555-0.168-0.789-0.341c-0.766,1.346-2.888,2.828-3.505,3.575
			c-0.665,0.792-1.499,0.922-1.368-0.66c0.126-1.54,0.63-3.412,1.063-5.01c-0.464-0.001-0.872-0.184-1.21-0.448
			c-0.769,1.504-2.169,3.342-2.893,4.448c-0.749,1.141-1.89,1.404-1.845-0.222c0.035-1.534,0.161-3.014,0.393-5.232
			c-0.005,0-0.01,0.003-0.021,0.003c-0.317,0-0.604-0.087-0.869-0.217c-0.282,1.29-0.945,2.829-1.666,4.783
			c-0.789,2.156-1.716,0.617-1.938-0.575c-0.203-1.106-0.596-2.624-0.897-4.847c-0.254,0.116-0.532,0.188-0.828,0.188
			c-0.154,0-0.292-0.054-0.435-0.089c-0.053,1.083-0.365,3.108-0.743,5.235c-0.444,2.468-1.541,1.409-1.982,0.088
			c-0.332-1-1.017-2.752-1.427-4.177c-0.349,0.285-0.776,0.479-1.261,0.479c-0.035,0-0.064-0.017-0.096-0.019
			c0.041,1.381,0.01,3.842,0.01,4.772c0,1.101-0.529,1.5-1.541,0.573c-0.854-0.779-2.174-2.865-2.802-4.19
			c-0.3,0.314-0.709,0.496-1.157,0.563c0.373,1.005,0.816,2.958,1.055,4.287c0.263,1.5-0.663,1.457-1.5,0.708
			c-0.777-0.698-2.567-2.9-3.208-4.345c-0.241,0.421-0.616,0.744-1.085,0.898c1.01,1.672,1.555,4.996,1.211,5.384
			c-0.353,0.393-0.973-0.481-2.157-1.278c-1.188-0.793-2.029-1.631-2.029-2.645l-0.03,0.034c-0.15,0.69-0.629,1.241-1.294,1.464
			l-0.041,0.05c0.82-0.137,1.502,0.709,2.517,1.807c1.012,1.091,2.842,3.143,2.842,3.143c-0.322,0.494-0.682,1.615-0.219,2.351
			c0.465,0.738,1.395,0.388,1.618,0.849c0.218,0.465-0.414,0.658-0.195,1.095c0.22,0.437,0.983-0.029,0.934,0.628
			c-0.057,0.655-0.769,1.56,0.024,2.161c0.796,0.599,2.3,0.41,4.764-0.49c2.455-0.91,6.367-1.59,8.692-1.59l0,0h0.001h-0.001
			c2.321,0,6.232,0.68,8.697,1.59c2.455,0.9,3.964,1.089,4.755,0.49c0.794-0.601,0.085-1.506,0.028-2.161
			c-0.053-0.657,0.71-0.191,0.932-0.628c0.217-0.438-0.413-0.63-0.194-1.095c0.222-0.461,1.154-0.111,1.615-0.849
			c0.466-0.736,0.108-1.857-0.217-2.351c0,0,1.825-2.051,2.843-3.143c1.013-1.096,1.696-1.944,2.515-1.807
			C104.294,12.362,103.855,11.922,103.659,11.356z M70.291,19.958c0.532-0.232,4.434-1.5,5.641-1.762
			c-0.443,0.618-1.149,1.734-1.149,1.734l1.968,0.789c0,0-4.138,1.262-4.816,1.557c0.092-0.38,0.914-1.73,0.914-1.73L70.291,19.958z
			 M91.951,19.388l-1.406,0.616l-1.2-1.075l1.608-0.812L91.951,19.388z M91.925,18.045c0.854,0.172,4.602,1.298,5.216,1.563
			c-0.854,0.237-1.988,0.485-1.988,0.485l1.384,2.063c-1.174-0.589-3.937-1.381-4.995-1.585c0.736-0.328,1.883-0.854,1.883-0.854
			L91.925,18.045z M87.934,18.64l1.676,1.581c-1.116-0.263-3.874-0.557-5.287-0.557c0.263-0.173,1.439-1.26,1.439-1.26l-1.439-1.322
			c1.116-0.029,5.02,0.41,5.577,0.557C89.138,18.085,87.934,18.64,87.934,18.64z M84.582,18.436l-1.036,0.849l-1.143-0.764
			l1.143-0.968L84.582,18.436z M81.301,18.64l1.674,1.173c-1.144,0.054-4.227,0.382-5.11,0.614c0.179-0.292,1.148-1.555,1.148-1.555
			l-2.057-1.028c0.969-0.323,4.609-0.733,6.048-0.733C82.271,17.697,81.301,18.64,81.301,18.64z M77.976,19.126l-0.848,1.008
			l-1.275-0.509l0.788-1.149L77.976,19.126z M70.437,21.565c-0.146-0.234-0.117-0.967-0.117-1.081l1.821,0.378l-0.849,1.499
			C71.291,22.361,70.585,21.8,70.437,21.565z M96.129,24.085c-1.507-0.501-6.016-2.237-12.023-2.329
			c-6.014,0.092-10.522,1.827-12.031,2.329c-1.017,0.328-1.799-0.514-0.813-0.958c1.641-0.731,6.701-2.404,12.331-2.574
			c0.058-0.012,0.087-0.018,0.087-0.018c0.143,0,0.283,0.006,0.426,0.006c0.136,0,0.276-0.006,0.416-0.006
			c0,0,0.031,0.006,0.091,0.018c5.629,0.17,10.69,1.843,12.333,2.574C97.933,23.571,97.147,24.413,96.129,24.085z M97.475,21.043
			c-0.151,0.236-0.706,0.716-0.706,0.716l-0.746-1.344l1.565-0.458C97.588,20.072,97.618,20.807,97.475,21.043z M97.971,19.126
			c-1.746-0.598-6.953-2.664-13.899-2.772c-6.944,0.108-12.137,2.209-13.896,2.772c-1,0.31-1.585-0.501-0.941-0.763
			c1.937-0.782,7.747-2.86,14.251-3.068c0.063-0.011,0.103-0.018,0.103-0.018c0.16,0,0.32,0.006,0.483,0.006
			c0.162,0,0.324-0.006,0.49-0.006c0,0,0.035,0.006,0.095,0.018c6.508,0.208,12.324,2.273,14.255,3.068
			C99.611,18.647,99.148,19.511,97.971,19.126z M97.873,16.498c-1.52-0.068-0.99-2.183-0.892-2.815
			c-1.522,1.058-2.641,2.151-3.705,1.885c-1.058-0.262-1.058-2.349-1.023-3.006c-0.597,0.726-1.358,2.379-2.616,2.18
			c-1.255-0.195-1.558-1.986-1.525-2.845c-0.884,1.127-0.789,2.248-2.112,2.219c-1.323-0.034-1.854-1.523-2.051-2.582
			c-0.367,1.358-0.761,2.747-1.784,2.814c-1.025,0.064-1.819-1.191-2.185-1.887c-0.494,1.719-0.823,2.449-1.996,2.596
			c-1.176,0.146-2.201-0.588-2.762-1.615c-0.202,1.265-0.29,2.318-1.288,2.641c-1.002,0.326-2.085-0.528-2.702-1.202
			c-0.297,1.086-0.761,2.161-1.848,2.278c-1.089,0.12-2.001-1.595-2.339-2.218c1.061,0.529,1.857,1.222,2.583,0.563
			c0.727-0.661-0.196-3.043-0.595-4.137c0.989,1.225,2.249,3.476,4.134,2.683c1.192-0.465,0.297-3.771,0.167-4.401
			c0.792,1.323,2.479,3.443,4.168,3.243c1.684-0.199,1.055-3.969,1.089-4.794c0.76,2.014,1.259,3.998,2.912,3.998
			c1.652,0,2.18-3.738,2.244-4.995c0.434,2.844,0.96,4.502,2.316,4.599c1.361,0.098,2.384-2.515,2.75-3.571
			c-0.033,2.746-0.167,3.898,1.157,4.265c1.32,0.361,3.273-2.15,3.705-3.209c-0.333,3.11-0.464,4.07,0.297,4.466
			c0.761,0.399,3.145-0.661,4.365-2.707c-0.161,1.812-0.69,3.702,0.232,4.328c0.922,0.629,1.787-0.299,2.479-0.757
			C99.924,15.867,99.397,16.562,97.873,16.498z"/>
		<path fill="#FFFFFF" d="M68.192,8.333c0.033,0.098,0.091,0.213,0.14,0.325c0.17-0.293,0.294-0.619,0.294-0.982
			c0-1.109-0.902-2.016-2.01-2.016c-1.112,0-2.011,0.907-2.011,2.016c0,1.108,0.898,2.011,2.011,2.011
			c0.225,0,0.429-0.061,0.63-0.13c-0.024-0.036-0.043-0.085-0.067-0.125C67.619,8.776,68.192,8.333,68.192,8.333z M66.6,9.177
			c-0.847,0-1.535-0.692-1.535-1.545c0-0.844,0.688-1.535,1.535-1.535c0.854,0,1.54,0.69,1.54,1.535
			C68.14,8.485,67.453,9.177,66.6,9.177z"/>
		<path fill="#FFFFFF" d="M68.333,8.657c-0.049-0.112-0.107-0.227-0.14-0.325c0,0-0.573,0.443-1.012,1.099
			c0.024,0.039,0.043,0.088,0.067,0.125C67.716,9.401,68.092,9.078,68.333,8.657z"/>
		<path fill="#FFFFFF" d="M71.943,7.508c-0.092,0.018-0.172,0.055-0.267,0.055c-0.851,0-1.539-0.689-1.539-1.542
			c0-0.844,0.688-1.535,1.539-1.535c0.848,0,1.537,0.69,1.537,1.535c0,0.335-0.131,0.627-0.312,0.879
			c0.064,0.16,0.14,0.343,0.24,0.543c0.345-0.361,0.565-0.848,0.565-1.392c0-1.106-0.899-2.005-2.008-2.005
			c-1.11,0-2.014,0.898-2.014,2.005c0,1.112,0.903,2.015,2.014,2.015c0.1,0,0.189-0.044,0.286-0.059
			c-0.044-0.126-0.093-0.245-0.136-0.338C71.858,7.614,71.912,7.563,71.943,7.508z"/>
		<path fill="#FFFFFF" d="M73.142,7.444c-0.1-0.2-0.175-0.383-0.24-0.543c-0.226,0.317-0.558,0.533-0.959,0.607
			c-0.031,0.055-0.085,0.106-0.094,0.161c0.043,0.093,0.092,0.212,0.136,0.338C72.433,7.939,72.842,7.758,73.142,7.444z"/>
		<path fill="#FFFFFF" d="M64.329,10.636c0-1.111-0.905-2.011-2.011-2.011c-1.11,0-2.013,0.9-2.013,2.011
			c0,1.107,0.902,2.006,2.013,2.006c0.224,0,0.43-0.058,0.63-0.126l1.294-1.464C64.272,10.914,64.329,10.782,64.329,10.636z
			 M62.318,12.172c-0.85,0-1.538-0.689-1.538-1.536c0-0.854,0.688-1.54,1.538-1.54c0.851,0,1.536,0.686,1.536,1.54
			C63.854,11.482,63.169,12.172,62.318,12.172z"/>
		<path fill="#FFFFFF" d="M64.242,11.052l-1.294,1.464C63.613,12.292,64.092,11.742,64.242,11.052z"/>
		<path fill="#FFFFFF" d="M76.042,4.266c0-0.852,0.69-1.536,1.539-1.536c0.849,0,1.539,0.684,1.539,1.536
			c0,0.407-0.167,0.771-0.426,1.048c0.039,0.165,0.085,0.336,0.138,0.514c0.445-0.371,0.748-0.903,0.748-1.531
			c0-1.109-0.898-2.009-2.009-2.009c-1.109,0-2.011,0.9-2.011,2.009c0,1.076,0.851,1.937,1.915,1.991
			c-0.01-0.197-0.019-0.369-0.028-0.514C76.664,5.704,76.042,5.066,76.042,4.266z"/>
		<path fill="#FFFFFF" d="M78.832,5.829c-0.053-0.178-0.099-0.349-0.138-0.514C78.413,5.613,78.021,5.8,77.581,5.8
			c-0.048,0-0.088-0.021-0.134-0.025c0.009,0.145,0.018,0.317,0.028,0.514c0.032,0.002,0.061,0.019,0.096,0.019
			C78.056,6.308,78.483,6.113,78.832,5.829z"/>
		<path fill="#FFFFFF" d="M83.208,4.197c-0.745-0.108-1.326-0.721-1.326-1.492c0-0.854,0.688-1.541,1.54-1.541
			c0.847,0,1.535,0.687,1.535,1.541c0,0.632-0.384,1.179-0.932,1.413c0.093-0.006,0.152-0.009,0.152-0.009
			c0.021,0.174,0.049,0.31,0.069,0.475c0.697-0.316,1.182-1.008,1.182-1.821c0-1.114-0.894-2.011-2.01-2.011
			c-1.106,0-2.007,0.897-2.007,2.011c0,0.953,0.68,1.715,1.572,1.919c0.008-0.173,0.012-0.325,0.008-0.442
			C83.04,4.225,83.124,4.209,83.208,4.197z"/>
		<path fill="#FFFFFF" d="M84.247,4.584c-0.02-0.166-0.048-0.301-0.069-0.475c0,0-0.059,0.002-0.152,0.009
			c-0.187,0.077-0.388,0.124-0.603,0.124c-0.079,0-0.145-0.034-0.214-0.044c-0.084,0.013-0.169,0.028-0.217,0.043
			c0.004,0.117,0,0.27-0.008,0.442c0.143,0.035,0.281,0.089,0.435,0.089C83.715,4.771,83.992,4.7,84.247,4.584z"/>
		<path fill="#FFFFFF" d="M89.68,5.031c-0.018,0.147-0.022,0.263-0.042,0.405c1.099-0.01,1.991-0.902,1.991-2.003
			c0-1.109-0.899-2.009-2.011-2.009c-1.109,0-2.008,0.899-2.008,2.009c0,0.791,0.471,1.461,1.139,1.789
			c0.03-0.134,0.073-0.282,0.098-0.412C89.151,4.9,89.68,5.031,89.68,5.031z M88.08,3.434c0-0.85,0.69-1.542,1.537-1.542
			c0.854,0,1.542,0.692,1.542,1.542c0,0.849-0.688,1.538-1.542,1.538C88.77,4.972,88.08,4.283,88.08,3.434z"/>
		<path fill="#FFFFFF" d="M89.637,5.437c0.02-0.142,0.025-0.258,0.042-0.405c0,0-0.529-0.131-0.834-0.221
			c-0.025,0.13-0.068,0.278-0.098,0.412c0.265,0.13,0.552,0.217,0.869,0.217C89.627,5.439,89.632,5.437,89.637,5.437z"/>
		<path fill="#FFFFFF" d="M95.227,6.75c-0.01,0.044-0.025,0.093-0.035,0.141c0.002,0,0.005,0.003,0.01,0.003
			c1.111,0,2.009-0.897,2.009-2.009c0-1.114-0.897-2.012-2.009-2.012c-1.108,0-2.008,0.898-2.008,2.012
			c0,0.646,0.32,1.189,0.789,1.558c0.03-0.058,0.071-0.121,0.101-0.177C94.48,6.308,95.227,6.75,95.227,6.75z M93.687,4.87
			c0-0.849,0.693-1.537,1.54-1.537c0.849,0,1.537,0.688,1.537,1.537c0,0.85-0.688,1.543-1.537,1.543
			C94.38,6.413,93.687,5.719,93.687,4.87z"/>
		<path fill="#FFFFFF" d="M95.227,6.75c0,0-0.746-0.442-1.144-0.484c-0.03,0.056-0.071,0.119-0.101,0.177
			c0.338,0.265,0.746,0.447,1.21,0.448C95.201,6.843,95.216,6.794,95.227,6.75z"/>
		<path fill="#FFFFFF" d="M99.849,9.168c-0.023,0.057-0.036,0.105-0.058,0.16c0.128,0.028,0.245,0.08,0.378,0.08
			c1.114,0,2.011-0.898,2.011-2.014c0-1.106-0.897-2.007-2.011-2.007c-1.106,0-2.003,0.901-2.003,2.007
			c0,0.667,0.34,1.228,0.836,1.593c0.051-0.086,0.111-0.173,0.146-0.258C100.335,8.861,99.849,9.168,99.849,9.168z M98.677,7.372
			c0-0.849,0.688-1.536,1.535-1.536c0.849,0,1.54,0.687,1.54,1.536c0,0.847-0.69,1.537-1.54,1.537
			C99.365,8.909,98.677,8.219,98.677,7.372z"/>
		<path fill="#FFFFFF" d="M99.849,9.168c0,0,0.486-0.307-0.701-0.44c-0.036,0.085-0.096,0.172-0.146,0.258
			c0.234,0.173,0.494,0.284,0.789,0.341C99.813,9.273,99.826,9.225,99.849,9.168z"/>
		<path fill="#FFFFFF" d="M105.531,8.68c-1.111,0-2.009,0.898-2.009,2.011c0,0.235,0.061,0.455,0.136,0.665
			c0.018-0.041,0.056-0.081,0.065-0.121c0.131-0.349,0.242-0.476,0.333-0.498c-0.002-0.026-0.013-0.049-0.013-0.074
			c0-0.851,0.686-1.536,1.535-1.536c0.852,0,1.54,0.686,1.54,1.536c0,0.849-0.688,1.536-1.54,1.536
			c-0.383,0-0.726-0.151-0.998-0.387l0.277,0.753l0,0c0.211,0.076,0.434,0.138,0.673,0.138c1.109,0,2.011-0.901,2.011-2.012
			C107.542,9.579,106.64,8.68,105.531,8.68z"/>
		<path fill="#FFFFFF" d="M104.581,11.813c-0.302-0.267-0.499-0.643-0.524-1.075c-0.091,0.021-0.202,0.148-0.333,0.498
			c-0.01,0.041-0.048,0.081-0.065,0.121c0.197,0.566,0.635,1.005,1.2,1.209l0,0L104.581,11.813z"/>
	</g>
	<g>
		<polyline fill="#FFFFFF" points="84.208,39.19 95.844,39.19 95.844,46.868 89.083,46.868 89.083,60.151 100.468,60.151 
			100.468,51.816 107.151,51.816 107.151,76.74 100.713,76.74 100.713,68.9 89.161,68.9 89.161,81.528 95.763,81.528 95.763,89.448 
			84.208,89.448 		"/>
		<polygon fill="#FFFFFF" points="96.265,89.95 84.208,89.95 84.208,88.942 95.259,88.942 95.259,82.032 88.659,82.032 
			88.659,68.396 101.217,68.396 101.217,76.233 106.647,76.233 106.647,52.318 100.972,52.318 100.972,60.655 88.574,60.655 
			88.574,46.363 95.343,46.363 95.343,39.693 84.208,39.693 84.208,38.687 96.351,38.687 96.351,47.372 89.582,47.372 
			89.582,59.648 99.964,59.648 99.964,51.312 107.656,51.312 107.656,77.241 100.211,77.241 100.211,69.404 89.662,69.404 
			89.662,81.024 96.265,81.024 		"/>
	</g>
	<path fill="#FFFFFF" d="M111.819,30.805V30.8H56.031c0,0,0,0.823,0,2.204c0,8.629,0,40.046,0,42.763
		c0,15.959,15.114,29.351,27.891,33.31v0.003h0.001l0,0l0.002-0.003c12.773-3.959,27.898-17.351,27.898-33.31
		c0-3.15,0-44.967,0-44.967L111.819,30.805z M110.571,76.168c0,12.832-13.261,27.088-26.648,31.763
		C70.54,103.256,57.275,89,57.275,76.168c0-10.658,0-44.21,0-44.21l-0.014-0.017h53.322l-0.013,0.017
		C110.571,31.958,110.571,65.51,110.571,76.168z"/>
	<g>
		<rect x="82.855" y="31.692" fill="#FFFFFF" width="1.5" height="76.238"/>
	</g>
	<g>
		<rect x="79.552" y="65.745" fill="#FFFFFF" width="0.799" height="40.689"/>
	</g>
	<g>
		<rect x="75.681" y="65.745" fill="#FFFFFF" width="0.799" height="39.125"/>
	</g>
	<g>
		<rect x="71.803" y="65.745" fill="#FFFFFF" width="0.8" height="36.456"/>
	</g>
	<g>
		<rect x="57.05" y="65.395" fill="#FFFFFF" width="26.247" height="1.499"/>
	</g>
	<g>
		<rect x="67.929" y="65.745" fill="#FFFFFF" width="0.803" height="33.351"/>
	</g>
	<g>
		<rect x="64.052" y="65.745" fill="#FFFFFF" width="0.803" height="28.918"/>
	</g>
	<g>
		<rect x="60.179" y="65.745" fill="#FFFFFF" width="0.8" height="23.407"/>
	</g>
	<g>
		<path fill="#FFFFFF" d="M77.018,51.97l-1.89-8.825h1.237v-1.625h0.954v-5.66H74.19v2.027h-2.024v-2.005h-3.962v1.963H66.44v-1.982
			h-3.025v5.662h0.951v1.62h0.896l-1.519,8.688l-1.831,2.189v11.801h6.032v-6c0-1.944,1.076-3.358,2.565-3.358
			c1.487,0,2.565,1.414,2.565,3.358v6h5.747V54.021L77.018,51.97z M63.879,41.063v-4.736h2.097v1.979h2.693v-1.963h3.033v2.005
			h2.949v-2.025h2.204v4.735L63.879,41.063z M64.831,42.684v-1.159l11.075-0.005v1.165H64.831z M65.73,43.145h8.925l1.819,8.5
			H64.247L65.73,43.145z M64.135,52.107h12.357l1.267,1.45H62.887L64.135,52.107z M78.356,65.362h-4.82v-5.54
			c0-2.214-1.276-3.818-3.029-3.818c-1.755,0-3.031,1.604-3.031,3.818v5.54h-5.099v-11.34h15.979V65.362z"/>
	</g>
	<g>
		<path fill="#FFFFFF" d="M73.303,65.591c0,0,0-3.896,0-5.769c0-2.004-1.099-3.587-2.793-3.587h-0.002
			c-1.692,0-2.797,1.583-2.797,3.587c0,1.873,0,5.769,0,5.769"/>
	</g>
	<g>
		<path fill="#FFFFFF" d="M73.303,65.591c0,0,0-3.896,0-5.769c0-2.004-1.099-3.587-2.793-3.587h-0.002
			c-1.692,0-2.797,1.583-2.797,3.587c0,1.873,0,5.769,0,5.769"/>
	</g>
	<g>
		<path fill-rule="evenodd" clip-rule="evenodd" fill="#FFFFFF" d="M78.54,64.384c-1.879,0.202-0.905,0.002-2.016,0.121
			c0,0.232,0.99,0.406,1.967,0.37"/>
	</g>
	<g>
		<path fill-rule="evenodd" clip-rule="evenodd" fill="#FFFFFF" d="M78.604,62.973c-1.875,0.207-0.418-0.232-2.888,0.196
			c0,0.232,0.564,0.52,2.837,0.3"/>
	</g>
	<g>
		<path fill-rule="evenodd" clip-rule="evenodd" fill="#FFFFFF" d="M78.665,61.602c-1.876,0.202-0.662-0.222-3.132,0.204
			c0,0.229,0.815,0.507,3.087,0.29"/>
	</g>
	<g>
		<path fill-rule="evenodd" clip-rule="evenodd" fill="#FFFFFF" d="M78.733,60.219c-1.879,0.207-1.797-0.148-4.268,0.28
			c0,0.229,1.946,0.435,4.217,0.219"/>
	</g>
	<g>
		<path fill-rule="evenodd" clip-rule="evenodd" fill="#FFFFFF" d="M78.69,58.85c-1.875,0.204-1.486-0.181-3.957,0.246
			c0,0.238,1.634,0.47,3.906,0.253"/>
	</g>
	<g>
		<path fill-rule="evenodd" clip-rule="evenodd" fill="#FFFFFF" d="M78.625,57.479c-1.876,0.204-0.963-0.187-3.433,0.237
			c0,0.233,1.11,0.476,3.385,0.262"/>
	</g>
	<g>
		<path fill-rule="evenodd" clip-rule="evenodd" fill="#FFFFFF" d="M78.733,56.108c-1.879,0.203-0.989-0.203-3.461,0.226
			c0,0.23,1.14,0.485,3.412,0.269"/>
	</g>
	<g>
		<path fill-rule="evenodd" clip-rule="evenodd" fill="#FFFFFF" d="M78.757,54.733c-1.877,0.201-1.486-0.183-3.958,0.248
			c0,0.232,1.633,0.464,3.906,0.248"/>
	</g>
	<g>
		<path fill-rule="evenodd" clip-rule="evenodd" fill="#FFFFFF" d="M76.479,50.415c-1.167,0.058-1.854,0.058-3.571,0.241
			c0,0.229,1.249,0.47,3.521,0.252"/>
	</g>
	<g>
		<path fill-rule="evenodd" clip-rule="evenodd" fill="#FFFFFF" d="M76.066,49.093c-1.877,0.204-2.185-0.113-4.654,0.311
			c0,0.234,2.331,0.403,4.605,0.187"/>
	</g>
	<g>
		<path fill-rule="evenodd" clip-rule="evenodd" fill="#FFFFFF" d="M75.834,47.797c-1.41,0.116-1.637-0.082-3.575,0.196
			c0,0.237,1.255,0.514,3.526,0.297"/>
	</g>
	<g>
		<path fill-rule="evenodd" clip-rule="evenodd" fill="#FFFFFF" d="M77.068,40.055c-1.413,0.118-2.302-0.005-2.526,0.174
			c0,0.234,0.348,0.345,2.476,0.32"/>
	</g>
	<g>
		<path fill-rule="evenodd" clip-rule="evenodd" fill="#FFFFFF" d="M77.049,38.903c-0.583-0.005-0.021-0.204-1.962,0.078
			c0,0.232,0.141,0.383,1.913,0.416"/>
	</g>
	<g>
		<path fill-rule="evenodd" clip-rule="evenodd" fill="#FFFFFF" d="M75.439,46.484c-0.916,0.32-1.756-0.192-4.226,0.237
			c0,0.23,1.905,0.475,4.177,0.257"/>
	</g>
	<g>
		<path fill-rule="evenodd" clip-rule="evenodd" fill="#FFFFFF" d="M75.211,45.173c-1.876,0.199-3.799,0.065-3.955,0.242
			c0,0.236,1.631,0.466,3.905,0.25"/>
	</g>
	<g>
		<path fill-rule="evenodd" clip-rule="evenodd" fill="#FFFFFF" d="M75.066,43.847c-1.876,0.201-4.561-0.047-4.725,0.281
			c0.042,0.343,2.403,0.431,4.673,0.214"/>
	</g>
	<g>
		<g>
			<g>
				<path fill-rule="evenodd" clip-rule="evenodd" fill="#FFFFFF" d="M35.308,13.796c0.884,0.229,1.697,0.533,2.329,1.009
					c0.82,0.297,1.923,0.308,2,1.342c-0.938,0.449-2.956-0.643-3.336,0.988c-0.724-0.736-1.73-1.388-3.004-0.678
					c0.105-1.558,1.416-0.905,2.008-1.326C34.92,14.638,34.92,14.289,35.308,13.796z"/>
			</g>
			<g>
				<path fill-rule="evenodd" clip-rule="evenodd" fill="#FFFFFF" d="M64.952,28.229c-3.603,0.469-6.57-0.402-9.344,0.638
					c-1.306,1.476-2.104,4.986-4.01,5.858c0.147-1.159,0.077-2.729-0.337-3.537c0.853-0.034,0.472-1.667,0.152-1.954
					c-0.324-0.288-0.75,0.111-0.807-0.383c-0.493-1.589-0.96-3.832-2.184-6.822c-1.22-2.972-2.689-4.406-3.611-5.466
					c1.868-0.091,4.371,1.698,5.833,0.945c-0.985-2.681-4.413-2.936-6.665-4.361c1.271-0.732,3.386-0.659,4.079-1.158
					c0.695-0.496,0.718-1.265,0.721-1.708c-1.838-0.133-5.108-0.451-7.122,0.189c-1.04,0.334-1.421,1.708-2.344,1.665
					c-1.441-0.004-2.89-0.013-4.335-0.02c-1.328,1.122-2.52,2.377-4.352,2.995c-2.806,0.527-4.754,0.527-6.43,0.858
					c0.873,3.568,6.745,2.526,8.698,4.668c1.002,0.004,2.431,0.262,3.618,0.681c1.185,0.423,2.188,1.744,2.673,2.797
					c0.485,1.053,0.927,2.625,0.927,2.625c-0.799,0.779,0.765,2.334,0.799,3.921c-0.674,0.106-0.427,0.038-0.667,0.33
					c-0.238,0.295-0.117,1.586-0.247,2.557c-0.367,2.693-1.704,5.305-2.897,6.702c-1.61,1.9-5.813,5.395-6.684,6.014
					c-0.868,0.631-5.896,3.202-6.975,3.88c-1.075,0.67-5.324,3.626-6.449,4.876c-1.125,1.258-2.098,2.079-2.655,3.315
					c-0.562,1.233-0.722,2.112-1.542,2.741c-0.671,0.506-1.099,0.68-2.003,0.325c-1.929-0.96-3.03-2.407-3.985-4.334
					c-0.694-2.59-1.057-5.526-0.305-8.346c0.116-0.438,1.128-3.153,1.338-3.662c0.163-0.36,1.22-2.452,1.348-2.668
					c0.198-0.331,1.7-2.294,2.011-2.66c1.79-2.141,4.765-4.012,7.123-4.032c0.868-0.007,3.018,0.345,4.319,1.303
					c0.331-0.396,0.24-0.92-0.303-1.37c-1.015-0.825-2.179-1.484-3.513-1.546c-3.136-0.151-5.515,1.662-6.575,2.518
					c-1.063,0.859-2.809,2.601-4.061,4.45c-1.249,1.851-2.877,5.603-3.358,7.664c-0.478,2.059-0.304,3.263-0.458,5.01
					c0.14,2.961,1.354,5.282,2.511,6.756c1.154,1.478,3.535,3.117,5.574,2.603c0.333,0.716,1.088,1.303,1.747,3.123
					c0.654,1.814,0.461,4.531,0.218,7.893c-0.698,3.09-3.289,4.294-5.25,6.114c-0.266,0.214-1.381,0.741-1.748,1.285
					c-0.362,0.54-0.738,2.888-1.291,4.345c-1.061,2.833-2.509,5.282-3.792,7.903c0.655,2.12-0.077,5.809,1.315,7.193
					c1.597,0.769,3.547-0.126,5.34-0.162c0.417-2.638-1.846-2.603-2.994-3.684c0.343-3.783,4.047-10.768,4.047-11.998
					c0.64-0.463,5.617-3.929,8.587-6.058c2.969-2.135,4.929-4.499,6.096-7.232c0.513,0.118,5.978,2.268,7.204,3.82
					c1.232,1.55,0.364,7.553-0.206,10.876c0.318,0.013,1.236,1.187,2.282,1.981c1.041,0.799,6.097,5.093,8.356,9.064
					c0.777,0.111,1.249,0.532,2.33,0.343c0,0,0-0.005,0-0.015c0.937,0.126,2.265-0.776,3.018-0.641
					c-0.321-0.862-1.579-2.484-2.684-2.676c0.008,0,0.008,0,0.013-0.007c-3.281-1.84-6.414-5.509-8.792-8.241
					c0.245-0.91,1.067-2.53,1.489-3.458c1-2.561,1.725-3.8,2.142-6.948c0.167-1.126-0.006-3.294-0.479-4.793
					c-0.47-1.502-2.455-3.762-3.941-5.609c-1.757-1.946-4.659-3.264-5.28-3.863c-0.065-1.958-0.198-2.442,0.812-3.324
					c1.858-1.205,4.645-0.941,7.445-1.535c2.795-0.596,5.547-1.806,6.894-2.819c1.351-1.007,3.902-3.638,4.547-4.5
					c0.332,0.664,1.413,0.744,2.021,0.953c1.572-0.098,1.743-0.887,2.393-1.802c0,0,1.128-5.855,1.602-9.504
					c0.474-3.648,1.135-7.555,1.135-7.555l1.056-0.321l3.281,0.281l3.572-0.949C65.413,30.121,65.425,28.674,64.952,28.229z
					 M50.445,32.422c0,0-4.61-0.456-5.194,0.078c-1.549,0.428-4.255,1.606-4.336-1.016c2.465,1.142,7.895-0.683,8.875-0.997
					C49.734,30.875,50.445,32.422,50.445,32.422z M41.431,28.798c0.471,0.031,2.859-0.096,3.384-0.31
					c1.362-0.093,3.093-0.625,3.814-0.884c0.754,0.359,0.886,1.237,1.002,2.229c-2.282,0.422-4.829,1.856-7.715,1.324
					C41.592,30.34,41.647,30.088,41.431,28.798z M45.968,26.212l1.312-0.579c0,0,0.762-0.475,1.331-0.46
					c-0.438,1.326-5.404,2.956-7.342,2.313C43.168,26.814,45.968,26.212,45.968,26.212z M42.043,12.244
					c-0.045-1.512,2.539-0.961,3.976-1.348C45.415,12.515,43.395,12.262,42.043,12.244z M39.058,20.781
					c-0.034-0.159-0.12-0.441-0.106-0.646c-0.011-0.546-0.373-0.471-1.452-0.483c-1.072-0.016-0.827-1.017-1.881-0.859
					c0.156,1.374-2.129,0.666-2.399,0.895c-0.083-0.474-2.63-1.507-5.292-1.833c-0.872-0.095-2.508-0.523-2.302-1.491
					c4.469-0.25,7.957-0.964,9.682-3.579c2.236,0.106,5.025-0.337,6.339,0.688c-0.501,0.499-1.904,0.093-1.673,1.332
					c1.179,0.857,2.059-0.901,3.34-0.992c1.6,0.789,4.009,1.164,5.664,2.689c-1.511-0.28-2.59-0.975-4.003-1.348
					c-1.154-0.272-1.41,0.363-2.002,0.655c-0.139-0.417-0.427-0.681-1.003-0.666c0.29,1.183,0.043,0.816,0.333,1.999
					c1.277-0.048,1.151-0.068,1.366,0.658c1.535,1.474,2.815,3.029,2.994,5.35c-0.23,1.023,0.738,0.282,0.967,1.315
					c0.111,0.358-1.375,0.948-2.69,1.361c-1.315,0.418-1.861,0.799-3.334,0.655C40.744,26.449,39.596,22.843,39.058,20.781z
					 M34.197,65.782c0.591,0.522,2.849,2.894,3.936,5.965c1.089,3.074-0.461,7.666-1.503,10.443
					c-1.041,2.775-1.727,4.486-1.727,4.486c-0.683,0.976-1.425,0.406-2.037-0.373c-0.456-0.731-0.049-1.641,0.043-2.122
					c0,0,0.743-5.68,0.593-7.049c-0.213-1.956-1.14-3.772-3.316-5.027c-2.176-1.26-4.113-1.525-4.173-1.903
					c2.756-2.49,3.344-5.884,3.887-7.361C30.821,63.149,33.633,65.301,34.197,65.782z M60.845,30.708
					c-1.32,0.441-3.372-1.311-5.012,0.232c0.234,2.466-2.58,17.6-4.679,16.148c-0.374-0.258-1.294-1.537-2.611-1.229
					c0.513,3.689-6.771,8.828-13.475,9.06c-6.702,0.236-6.754,3.41-7.609,4.167c-0.639,0.135-1.185-0.165-1.64-1.291
					c-1.076,1.008,0.107,3.461,0.315,5.009c0.585,6.179-3.077,7.948-3.698,7.991c0.96,3.21-5.253,8.263-7.697,9.622
					c-2.441,1.361-4.286,3.258-5.125,3.631c-0.362,0.832-3.546,9.508-3.813,10.133c-0.438,1.091-0.701,2.817-0.466,3.246
					c0.604,0.514,1.453,0.738,2.556,1.56c-0.105,1.113-1.817,0.854-2.974,0.914c-2.11-0.15-0.545-2.121-1.585-2.482
					c-0.128-1.341-0.232-2.069-0.217-3.48c0.243-1.651,1.308-2.775,1.976-4.201l1.61-3.273c0.589-1.288,0.865-3.473,1.681-4.773
					c0.844-0.426,4.539-3.352,5.255-4.262c0.712-0.91,1.81-3.238,2.259-5.229c0.446-1.996,0.429-3.609,0.355-4.708
					c-0.078-1.104-0.877-3.468-1.356-4.261c0.041-0.633,1.103-0.229,1.007-1.001c-2.594,0.058,0.9-5.771,1.132-5.951
					c0.128-0.102,2.623-2.39,4.424-3.726c1.795-1.332,7.345-3.848,8.727-4.423c1.472-0.821,3.973-3.034,5.144-4.201
					c1.744-1.572,3.025-3.496,3.847-4.425c0.692-0.861,1.884-4.526,2.404-5.683c0.389,0.386,1.175,0.386,2,0.343
					c0.813-0.001,1.508-0.674,1.792-0.608c1.121-0.679,5.743-0.123,4.929,0.265c0.352,2.656-3.622,7.314-3.756,7.255
					c-0.217-0.105,0.512,0.757,1.443,0.326c-0.161-1.053,4.387-5.268,4.856-6.126c0.469-0.862,1.542-3.377,1.753-3.746
					c0.736-1.342,1.589-2.748,3.648-2.67c2.056,0.078,3.824,0.041,4.975,0.048c1.157,0.005,1.485-0.005,1.503,0.973
					C63.815,30.708,61.129,30.771,60.845,30.708z"/>
			</g>
		</g>
		<g>
			<path fill-rule="evenodd" clip-rule="evenodd" fill="#FFFFFF" d="M32.298,63.142c-1.449,3.024-2.213,3.747-2.998,6.242
				c0.499-0.965,2.177-3.034,3.435-5.963"/>
		</g>
		<g>
			<path fill-rule="evenodd" clip-rule="evenodd" fill="#FFFFFF" d="M33.243,64.147c-1.45,3.027-2.815,3.937-2.661,4.919
				c0.497-0.971,1.841-1.711,3.097-4.64"/>
		</g>
		<g>
			<path fill-rule="evenodd" clip-rule="evenodd" fill="#FFFFFF" d="M34.25,64.913c-1.454,3.024-1.476,1.825-2.26,4.324
				c0.217,0,1.133-1.366,2.69-4.04"/>
		</g>
		<g>
			<path fill-rule="evenodd" clip-rule="evenodd" fill="#FFFFFF" d="M35.306,65.954c-1.453,3.024-0.812,0.501-1.594,2.996
				c0.212,0,0.375,0.091,1.936-2.585"/>
		</g>
		<g>
			<path fill-rule="evenodd" clip-rule="evenodd" fill="#FFFFFF" d="M30.998,62.804c-1.453,3.024-2.368,4.324-3.149,6.817
				c0.498-0.963,2.55-3.523,3.804-6.452"/>
		</g>
		<g>
			<path fill-rule="evenodd" clip-rule="evenodd" fill="#FFFFFF" d="M42.546,18.456c0.593-0.316,2.542,0.31,2.417-0.776
				C44.34,18.385,42.418,17.324,42.546,18.456z"/>
		</g>
		<g>
			<path fill-rule="evenodd" clip-rule="evenodd" fill="#FFFFFF" d="M43.132,19.494c0.593-0.316,2.544,0.312,2.417-0.773
				C44.926,19.421,43.007,18.37,43.132,19.494z"/>
		</g>
		<g>
			<path fill-rule="evenodd" clip-rule="evenodd" fill="#FFFFFF" d="M43.719,20.535c0.596-0.315,2.546,0.315,2.418-0.772
				C45.512,20.46,43.592,19.411,43.719,20.535z"/>
		</g>
		<g>
			<path fill-rule="evenodd" clip-rule="evenodd" fill="#FFFFFF" d="M44.306,21.578c0.591-0.318,2.545,0.31,2.421-0.776
				C46.102,21.502,44.18,20.449,44.306,21.578z"/>
		</g>
		<g>
			<path fill-rule="evenodd" clip-rule="evenodd" fill="#FFFFFF" d="M48.309,34.302c0.591-0.317,2.543,0.31,2.419-0.773
				C50.097,34.229,48.183,33.173,48.309,34.302z"/>
		</g>
		<g>
			<path fill-rule="evenodd" clip-rule="evenodd" fill="#FFFFFF" d="M44.893,22.616c0.596-0.315,2.548,0.313,2.419-0.774
				C46.688,22.543,44.767,21.488,44.893,22.616z"/>
		</g>
		<g>
			<path fill-rule="evenodd" clip-rule="evenodd" fill="#FFFFFF" d="M45.652,23.658c0.592-0.317,2.2,0.308,2.075-0.775
				C47.097,23.581,45.527,22.528,45.652,23.658z"/>
		</g>
		<g>
			<path fill-rule="evenodd" clip-rule="evenodd" fill="#FFFFFF" d="M46.243,24.7c0.588-0.316,2.198,0.308,2.068-0.776
				C47.686,24.63,46.114,23.572,46.243,24.7z"/>
		</g>
		<g>
			<path fill-rule="evenodd" clip-rule="evenodd" fill="#FFFFFF" d="M15.588,80.724c-0.852,0.045-3.284-0.706-3.673,0.423
				C13.064,80.522,15.914,81.825,15.588,80.724z"/>
		</g>
		<g>
			<path fill-rule="evenodd" clip-rule="evenodd" fill="#FFFFFF" d="M16.617,79.464c-0.852,0.05-3.285-0.706-3.677,0.423
				C14.095,79.265,16.939,80.565,16.617,79.464z"/>
		</g>
		<g>
			<path fill-rule="evenodd" clip-rule="evenodd" fill="#FFFFFF" d="M18.158,78.153c-0.852,0.053-3.285-0.703-3.675,0.424
				C15.631,77.955,18.48,79.257,18.158,78.153z"/>
		</g>
		<g>
			<path fill-rule="evenodd" clip-rule="evenodd" fill="#FFFFFF" d="M19.977,76.846c-0.854,0.048-3.282-0.703-3.674,0.431
				C17.453,76.646,20.304,77.947,19.977,76.846z"/>
		</g>
		<g>
			<path fill-rule="evenodd" clip-rule="evenodd" fill="#FFFFFF" d="M20.632,75.354c-0.852,0.048-3.282-0.706-3.674,0.426
				C18.107,75.152,20.956,76.455,20.632,75.354z"/>
		</g>
		<g>
			<path fill-rule="evenodd" clip-rule="evenodd" fill="#FFFFFF" d="M21.847,73.91c-0.853,0.045-3.286-0.706-3.677,0.421
				C19.321,73.706,22.169,75.006,21.847,73.91z"/>
		</g>
		<g>
			<path fill-rule="evenodd" clip-rule="evenodd" fill="#FFFFFF" d="M22.688,72.319c-0.854,0.048-3.285-0.706-3.676,0.424
				C20.161,72.115,23.009,73.421,22.688,72.319z"/>
		</g>
		<g>
			<path fill-rule="evenodd" clip-rule="evenodd" fill="#FFFFFF" d="M22.966,70.823c-0.853,0.048-3.284-0.701-3.675,0.426
				C20.443,70.624,23.29,71.924,22.966,70.823z"/>
		</g>
		<g>
			<path fill-rule="evenodd" clip-rule="evenodd" fill="#FFFFFF" d="M44.144,52.377c-0.037-0.677,1.354-2.184,0.313-2.522
				C44.832,50.714,43.065,52.01,44.144,52.377z"/>
		</g>
		<g>
			<path fill-rule="evenodd" clip-rule="evenodd" fill="#FFFFFF" d="M45.763,51.428c-0.035-0.672,1.354-2.177,0.315-2.521
				C46.449,49.771,44.685,51.069,45.763,51.428z"/>
		</g>
		<g>
			<path fill-rule="evenodd" clip-rule="evenodd" fill="#FFFFFF" d="M36.567,75.522c0.605-0.302,2.534,0.386,2.446-0.701
				C38.361,75.502,36.478,74.389,36.567,75.522z"/>
		</g>
		<g>
			<path fill-rule="evenodd" clip-rule="evenodd" fill="#FFFFFF" d="M36.394,76.566c0.609-0.3,2.539,0.388,2.445-0.698
				C38.192,76.546,36.307,75.437,36.394,76.566z"/>
		</g>
		<g>
			<path fill-rule="evenodd" clip-rule="evenodd" fill="#FFFFFF" d="M36.207,77.697c0.602-0.295,2.535,0.391,2.438-0.7
				C38.002,77.68,36.114,76.566,36.207,77.697z"/>
		</g>
		<g>
			<path fill-rule="evenodd" clip-rule="evenodd" fill="#FFFFFF" d="M38.443,78.353c-0.607,0.3-2.536-0.386-2.443,0.701
				C36.646,78.37,38.532,79.484,38.443,78.353z"/>
		</g>
		<g>
			<path fill-rule="evenodd" clip-rule="evenodd" fill="#FFFFFF" d="M35.52,80.24c0.607-0.297,2.538,0.388,2.445-0.696
				C37.319,80.223,35.43,79.106,35.52,80.24z"/>
		</g>
		<g>
			<path fill-rule="evenodd" clip-rule="evenodd" fill="#FFFFFF" d="M37.761,80.896c-0.607,0.297-2.54-0.391-2.443,0.7
				C35.964,80.916,37.848,82.029,37.761,80.896z"/>
		</g>
		<g>
			<path fill-rule="evenodd" clip-rule="evenodd" fill="#FFFFFF" d="M34.967,82.78c0.604-0.3,2.534,0.388,2.442-0.695
				C36.763,82.765,34.876,81.649,34.967,82.78z"/>
		</g>
		<g>
			<path fill-rule="evenodd" clip-rule="evenodd" fill="#FFFFFF" d="M37.205,83.436c-0.606,0.302-2.539-0.388-2.442,0.701
				C35.406,83.453,37.292,84.57,37.205,83.436z"/>
		</g>
		<g>
			<path fill-rule="evenodd" clip-rule="evenodd" fill="#FFFFFF" d="M34.072,85.384c0.501-0.25,2.09,0.317,2.018-0.58
				C35.554,85.366,34.001,84.449,34.072,85.384z"/>
		</g>
		<g>
			<path fill-rule="evenodd" clip-rule="evenodd" fill="#FFFFFF" d="M35.914,85.923c-0.497,0.242-2.088-0.32-2.007,0.572
				C34.438,85.938,35.991,86.853,35.914,85.923z"/>
		</g>
		<g>
			<path fill-rule="evenodd" clip-rule="evenodd" fill="#FFFFFF" d="M32.798,55.568c0.329-0.785,2.062-2.651,1.22-3.493
				C34.08,53.384,31.668,55.383,32.798,55.568z"/>
		</g>
		<g>
			<path fill-rule="evenodd" clip-rule="evenodd" fill="#FFFFFF" d="M25.869,58.794c0.109-0.844,1.311-3.088,0.276-3.688
				C26.542,56.355,24.728,58.908,25.869,58.794z"/>
		</g>
		<g>
			<path fill-rule="evenodd" clip-rule="evenodd" fill="#FFFFFF" d="M27.307,59.275c0.112-0.849,1.279-4.292,0.24-4.891
				C27.885,55.551,26.164,59.387,27.307,59.275z"/>
		</g>
		<g>
			<path fill-rule="evenodd" clip-rule="evenodd" fill="#FFFFFF" d="M34.607,55.644c0.328-0.791,2.063-2.65,1.213-3.498
				C35.886,53.457,33.472,55.458,34.607,55.644z"/>
		</g>
		<g>
			<path fill-rule="evenodd" clip-rule="evenodd" fill="#FFFFFF" d="M36.443,55.328c0.328-0.793,2.062-2.65,1.215-3.497
				C37.721,53.142,35.312,55.138,36.443,55.328z"/>
		</g>
		<g>
			<path fill-rule="evenodd" clip-rule="evenodd" fill="#FFFFFF" d="M38.221,54.984c0.329-0.792,2.06-2.652,1.217-3.497
				C39.5,52.798,37.087,54.796,38.221,54.984z"/>
		</g>
		<g>
			<path fill-rule="evenodd" clip-rule="evenodd" fill="#FFFFFF" d="M51.052,34.748c-0.844,0.136-3.097-0.059-3.668,0.639
				C48.429,35.073,51.495,35.8,51.052,34.748z"/>
		</g>
		<g>
			<path fill-rule="evenodd" clip-rule="evenodd" fill="#FFFFFF" d="M50.412,35.814c-0.844,0.142-2.928-0.014-3.563,0.407
				C47.701,36.375,50.859,36.868,50.412,35.814z"/>
		</g>
		<g>
			<path fill-rule="evenodd" clip-rule="evenodd" fill="#FFFFFF" d="M49.646,37.137c-0.849,0.145-3.345-0.33-3.61,0.832
				C47.113,37.223,50.089,38.195,49.646,37.137z"/>
		</g>
		<g>
			<path fill-rule="evenodd" clip-rule="evenodd" fill="#FFFFFF" d="M48.81,38.437c-0.844,0.145-3.342-0.329-3.606,0.837
				C46.277,38.525,49.255,39.496,48.81,38.437z"/>
		</g>
		<g>
			<path fill-rule="evenodd" clip-rule="evenodd" fill="#FFFFFF" d="M44.718,40.423c0.845-0.144,3.341,0.33,3.608-0.834
				C47.248,40.34,44.272,39.368,44.718,40.423z"/>
		</g>
		<g>
			<path fill-rule="evenodd" clip-rule="evenodd" fill="#FFFFFF" d="M47.851,41.044c-0.844,0.145-3.343-0.327-3.607,0.834
				C45.319,41.131,48.296,42.099,47.851,41.044z"/>
		</g>
		<g>
			<path fill-rule="evenodd" clip-rule="evenodd" fill="#FFFFFF" d="M39.997,54.367c0.33-0.79,2.062-2.646,1.217-3.497
				C41.275,52.182,38.864,54.179,39.997,54.367z"/>
		</g>
		<g>
			<path fill-rule="evenodd" clip-rule="evenodd" fill="#FFFFFF" d="M41.922,53.723c0.333-0.79,2.065-2.647,1.217-3.494
				C43.202,51.539,40.789,53.538,41.922,53.723z"/>
		</g>
		<g>
			<path fill-rule="evenodd" clip-rule="evenodd" fill="#FFFFFF" d="M32.276,52.092c-0.655,0.851-2.046,3.756-1.606,4.802
				C31.017,55.391,32.386,53.822,32.276,52.092z"/>
		</g>
		<g>
			<path fill-rule="evenodd" clip-rule="evenodd" fill="#FFFFFF" d="M29.935,53.041c-0.544,0.933-1.509,3.475-1.021,4.559
				C29.245,57.134,29.972,54.695,29.935,53.041z"/>
		</g>
	</g>
	<g>
		<g>
			<g>
				<path fill-rule="evenodd" clip-rule="evenodd" fill="#FFFFFF" d="M132.662,13.796c-0.887,0.229-1.696,0.533-2.331,1.009
					c-0.816,0.297-1.92,0.308-1.996,1.342c0.938,0.449,2.954-0.643,3.336,0.988c0.726-0.736,1.729-1.388,3.007-0.678
					c-0.108-1.558-1.422-0.905-2.009-1.326C133.053,14.638,133.053,14.289,132.662,13.796z"/>
			</g>
			<g>
				<path fill-rule="evenodd" clip-rule="evenodd" fill="#FFFFFF" d="M103.023,30.564l3.571,0.949l3.284-0.281l1.058,0.321
					c0,0,0.661,3.907,1.132,7.555c0.476,3.649,1.605,9.504,1.605,9.504c0.65,0.915,0.819,1.704,2.394,1.802
					c0.607-0.209,1.688-0.289,2.021-0.953c0.643,0.862,3.195,3.493,4.546,4.5c1.346,1.013,4.098,2.223,6.893,2.819
					c2.802,0.593,5.587,0.33,7.447,1.535c1.013,0.882,0.877,1.366,0.809,3.324c-0.623,0.6-3.526,1.917-5.28,3.863
					c-1.482,1.847-3.467,4.107-3.941,5.609c-0.474,1.5-0.64,3.667-0.479,4.793c0.418,3.147,1.144,4.387,2.142,6.948
					c0.426,0.927,1.25,2.548,1.492,3.458c-2.381,2.732-5.511,6.401-8.792,8.241c0.005,0.007,0.005,0.007,0.013,0.007
					c-1.104,0.192-2.364,1.814-2.687,2.676c0.756-0.136,2.082,0.767,3.021,0.641c0,0.01,0,0.013,0,0.013
					c1.079,0.191,1.547-0.229,2.326-0.341c2.263-3.972,7.318-8.266,8.359-9.064c1.046-0.794,1.963-1.968,2.286-1.981
					c-0.577-3.324-1.441-9.327-0.206-10.876c1.225-1.552,6.688-3.702,7.197-3.82c1.169,2.734,3.13,5.098,6.099,7.232
					c2.968,2.129,7.948,5.595,8.591,6.058c0,1.23,3.699,8.215,4.045,11.998c-1.149,1.082-3.415,1.046-2.994,3.684
					c1.789,0.036,3.742,0.931,5.337,0.162c1.396-1.384,0.661-5.073,1.318-7.193c-1.28-2.621-2.731-5.07-3.793-7.903
					c-0.554-1.457-0.927-3.805-1.29-4.345c-0.363-0.544-1.486-1.071-1.744-1.285c-1.966-1.819-4.551-3.024-5.252-6.114
					c-0.241-3.362-0.438-6.078,0.217-7.893c0.66-1.82,1.411-2.407,1.749-3.123c2.036,0.514,4.421-1.125,5.569-2.603
					c1.159-1.474,2.374-3.795,2.51-6.756c-0.15-1.747,0.023-2.951-0.458-5.01c-0.474-2.062-2.112-5.813-3.356-7.664
					c-1.25-1.85-2.999-3.591-4.058-4.45c-1.062-0.855-3.44-2.669-6.577-2.518c-1.334,0.062-2.498,0.721-3.514,1.546
					c-0.544,0.45-0.63,0.974-0.302,1.37c1.3-0.958,3.449-1.311,4.314-1.303c2.363,0.02,5.34,1.892,7.129,4.032
					c0.308,0.365,1.814,2.329,2.006,2.66c0.134,0.216,1.192,2.308,1.349,2.668c0.217,0.509,1.227,3.224,1.343,3.662
					c0.751,2.82,0.386,5.756-0.305,8.346c-0.958,1.928-2.059,3.375-3.987,4.334c-0.907,0.355-1.333,0.182-2.006-0.325
					c-0.816-0.629-0.978-1.507-1.537-2.741c-0.56-1.236-1.529-2.058-2.656-3.315c-1.126-1.25-5.373-4.206-6.451-4.876
					c-1.073-0.678-6.108-3.249-6.973-3.88c-0.875-0.62-5.073-4.114-6.686-6.014c-1.192-1.397-2.53-4.009-2.896-6.702
					c-0.128-0.97-0.008-2.262-0.245-2.557c-0.242-0.292,0.005-0.224-0.67-0.33c0.036-1.587,1.598-3.143,0.799-3.921
					c0,0,0.441-1.572,0.93-2.625c0.481-1.054,1.489-2.374,2.671-2.797c1.187-0.418,2.616-0.677,3.619-0.681
					c1.95-2.142,7.822-1.1,8.694-4.668c-1.674-0.331-3.624-0.331-6.432-0.858c-1.832-0.618-3.019-1.874-4.35-2.995
					c-1.446,0.007-2.893,0.016-4.334,0.02c-0.922,0.044-1.305-1.331-2.343-1.665c-2.016-0.64-5.282-0.322-7.12-0.189
					c0,0.443,0.023,1.212,0.718,1.708c0.696,0.499,2.805,0.426,4.078,1.158c-2.253,1.425-5.68,1.68-6.663,4.361
					c1.464,0.753,3.961-1.036,5.832-0.945c-0.922,1.06-2.394,2.494-3.611,5.466c-1.217,2.99-1.691,5.233-2.185,6.822
					c-0.055,0.494-0.479,0.096-0.806,0.383c-0.318,0.287-0.696,1.92,0.156,1.954c-0.418,0.808-0.486,2.378-0.338,3.537
					c-1.905-0.872-2.707-4.382-4.009-5.858c-2.775-1.04-5.746-0.169-9.345-0.638C102.545,28.674,102.552,30.121,103.023,30.564z
					 M118.182,30.487c0.98,0.314,6.411,2.139,8.873,0.997c-0.081,2.622-2.787,1.444-4.337,1.016
					c-0.577-0.534-5.194-0.078-5.194-0.078S118.237,30.875,118.182,30.487z M126.052,31.157c-2.88,0.532-5.428-0.902-7.711-1.324
					c0.113-0.992,0.247-1.87,1.003-2.229c0.723,0.259,2.452,0.791,3.815,0.884c0.519,0.214,2.908,0.341,3.382,0.31
					C126.324,30.088,126.38,30.34,126.052,31.157z M126.705,27.486c-1.938,0.644-6.913-0.987-7.346-2.313
					c0.567-0.015,1.335,0.46,1.335,0.46l1.311,0.579C122.005,26.212,124.802,26.814,126.705,27.486z M121.955,10.896
					c1.437,0.387,4.017-0.164,3.972,1.348C124.575,12.262,122.56,12.515,121.955,10.896z M126.37,26.482
					c-1.477,0.144-2.021-0.237-3.334-0.655c-1.318-0.413-2.802-1.003-2.689-1.361c0.224-1.033,1.194-0.292,0.96-1.315
					c0.179-2.321,1.464-3.876,2.992-5.35c0.216-0.726,0.096-0.706,1.371-0.658c0.29-1.182,0.041-0.815,0.333-1.999
					c-0.575-0.015-0.867,0.249-1.003,0.666c-0.59-0.292-0.85-0.928-2.001-0.655c-1.412,0.373-2.493,1.068-4.007,1.348
					c1.656-1.525,4.067-1.9,5.668-2.689c1.28,0.091,2.165,1.849,3.341,0.992c0.225-1.239-1.174-0.833-1.676-1.332
					c1.315-1.025,4.105-0.582,6.338-0.688c1.721,2.615,5.214,3.329,9.685,3.579c0.202,0.968-1.437,1.396-2.306,1.491
					c-2.661,0.326-5.214,1.359-5.284,1.833c-0.277-0.229-2.561,0.479-2.404-0.895c-1.056-0.157-0.807,0.843-1.885,0.859
					c-1.071,0.012-1.437-0.063-1.446,0.483c0.015,0.205-0.073,0.487-0.108,0.646C128.373,22.843,127.227,26.449,126.37,26.482z
					 M138.068,62.842c0.544,1.477,1.131,4.871,3.891,7.361c-0.061,0.378-1.998,0.643-4.176,1.903
					c-2.175,1.255-3.103,3.072-3.314,5.027c-0.151,1.369,0.594,7.049,0.594,7.049c0.091,0.481,0.499,1.391,0.038,2.122
					c-0.612,0.778-1.351,1.348-2.036,0.373c0,0-0.683-1.711-1.724-4.486c-1.046-2.777-2.593-7.369-1.504-10.443
					c1.088-3.072,3.347-5.443,3.934-5.965C134.335,65.301,137.15,63.149,138.068,62.842z M103.246,29.881
					c0.02-0.978,0.348-0.967,1.507-0.973c1.149-0.007,2.918,0.03,4.977-0.048c2.057-0.078,2.911,1.328,3.646,2.67
					c0.207,0.369,1.278,2.884,1.751,3.746c0.471,0.858,5.018,5.073,4.859,6.126c0.927,0.431,1.656-0.431,1.439-0.326
					c-0.136,0.059-4.108-4.6-3.757-7.255c-0.812-0.387,3.808-0.944,4.929-0.265c0.285-0.065,0.975,0.607,1.797,0.608
					c0.821,0.043,1.608,0.043,2.001-0.343c0.514,1.157,1.708,4.822,2.401,5.683c0.819,0.929,2.099,2.853,3.848,4.425
					c1.169,1.167,3.669,3.38,5.139,4.201c1.384,0.575,6.928,3.091,8.727,4.423c1.802,1.335,4.295,3.624,4.426,3.726
					c0.236,0.181,3.722,6.009,1.134,5.951c-0.096,0.771,0.965,0.368,1.003,1.001c-0.474,0.793-1.275,3.157-1.354,4.261
					c-0.072,1.099-0.093,2.711,0.355,4.708c0.451,1.991,1.545,4.319,2.258,5.229c0.716,0.91,4.41,3.835,5.255,4.262
					c0.813,1.3,1.096,3.485,1.681,4.773l1.613,3.273c0.665,1.426,1.729,2.55,1.976,4.201c0.015,1.411-0.091,2.139-0.215,3.48
					c-1.046,0.361,0.52,2.332-1.587,2.482c-1.157-0.061-2.871,0.199-2.977-0.914c1.104-0.822,1.956-1.046,2.556-1.56
					c0.236-0.429-0.028-2.155-0.464-3.246c-0.268-0.625-3.452-9.302-3.815-10.133c-0.834-0.373-2.682-2.271-5.121-3.631
					c-2.444-1.358-8.659-6.411-7.698-9.622c-0.623-0.043-4.282-1.812-3.697-7.991c0.207-1.547,1.391-4,0.315-5.009
					c-0.462,1.125-1.001,1.425-1.641,1.291c-0.854-0.757-0.907-3.931-7.611-4.167c-6.704-0.232-13.981-5.37-13.473-9.06
					c-1.315-0.308-2.238,0.971-2.616,1.229c-2.094,1.452-4.909-13.683-4.675-16.148c-1.641-1.542-3.692,0.209-5.012-0.232
					C106.844,30.771,104.153,30.708,103.246,29.881z"/>
			</g>
		</g>
		<g>
			<path fill-rule="evenodd" clip-rule="evenodd" fill="#FFFFFF" d="M135.674,63.142c1.451,3.024,2.215,3.747,2.996,6.242
				c-0.496-0.965-2.175-3.034-3.435-5.963"/>
		</g>
		<g>
			<path fill-rule="evenodd" clip-rule="evenodd" fill="#FFFFFF" d="M134.727,64.147c1.451,3.027,2.817,3.937,2.666,4.919
				c-0.499-0.971-1.84-1.711-3.1-4.64"/>
		</g>
		<g>
			<path fill-rule="evenodd" clip-rule="evenodd" fill="#FFFFFF" d="M133.718,64.913c1.457,3.024,1.479,1.825,2.263,4.324
				c-0.217,0-1.132-1.366-2.691-4.04"/>
		</g>
		<g>
			<path fill-rule="evenodd" clip-rule="evenodd" fill="#FFFFFF" d="M132.662,65.954c1.454,3.024,0.817,0.501,1.595,2.996
				c-0.207,0-0.373,0.091-1.933-2.585"/>
		</g>
		<g>
			<path fill-rule="evenodd" clip-rule="evenodd" fill="#FFFFFF" d="M136.975,62.804c1.456,3.024,2.368,4.324,3.145,6.817
				c-0.494-0.963-2.548-3.523-3.8-6.452"/>
		</g>
		<g>
			<path fill-rule="evenodd" clip-rule="evenodd" fill="#FFFFFF" d="M125.427,18.456c-0.595-0.316-2.545,0.31-2.419-0.776
				C123.63,18.385,125.553,17.324,125.427,18.456z"/>
		</g>
		<g>
			<path fill-rule="evenodd" clip-rule="evenodd" fill="#FFFFFF" d="M124.837,19.494c-0.592-0.316-2.545,0.312-2.419-0.773
				C123.046,19.421,124.963,18.37,124.837,19.494z"/>
		</g>
		<g>
			<path fill-rule="evenodd" clip-rule="evenodd" fill="#FFFFFF" d="M124.248,20.535c-0.589-0.315-2.54,0.315-2.414-0.772
				C122.461,20.46,124.379,19.411,124.248,20.535z"/>
		</g>
		<g>
			<path fill-rule="evenodd" clip-rule="evenodd" fill="#FFFFFF" d="M123.663,21.578c-0.587-0.318-2.545,0.31-2.417-0.776
				C121.869,21.502,123.789,20.449,123.663,21.578z"/>
		</g>
		<g>
			<path fill-rule="evenodd" clip-rule="evenodd" fill="#FFFFFF" d="M119.664,34.302c-0.592-0.317-2.545,0.31-2.419-0.773
				C117.875,34.229,119.787,33.173,119.664,34.302z"/>
		</g>
		<g>
			<path fill-rule="evenodd" clip-rule="evenodd" fill="#FFFFFF" d="M123.079,22.616c-0.597-0.315-2.545,0.313-2.419-0.774
				C121.284,22.543,123.202,21.488,123.079,22.616z"/>
		</g>
		<g>
			<path fill-rule="evenodd" clip-rule="evenodd" fill="#FFFFFF" d="M122.32,23.658c-0.592-0.317-2.205,0.308-2.074-0.775
				C120.876,23.581,122.443,22.528,122.32,23.658z"/>
		</g>
		<g>
			<path fill-rule="evenodd" clip-rule="evenodd" fill="#FFFFFF" d="M121.73,24.7c-0.592-0.316-2.203,0.308-2.069-0.776
				C120.286,24.63,121.861,23.572,121.73,24.7z"/>
		</g>
		<g>
			<path fill-rule="evenodd" clip-rule="evenodd" fill="#FFFFFF" d="M152.385,80.724c0.854,0.045,3.278-0.706,3.672,0.423
				C154.907,80.522,152.06,81.825,152.385,80.724z"/>
		</g>
		<g>
			<path fill-rule="evenodd" clip-rule="evenodd" fill="#FFFFFF" d="M151.356,79.464c0.852,0.05,3.281-0.706,3.677,0.423
				C153.879,79.265,151.031,80.565,151.356,79.464z"/>
		</g>
		<g>
			<path fill-rule="evenodd" clip-rule="evenodd" fill="#FFFFFF" d="M149.813,78.153c0.854,0.053,3.284-0.703,3.672,0.424
				C152.337,77.955,149.491,79.257,149.813,78.153z"/>
		</g>
		<g>
			<path fill-rule="evenodd" clip-rule="evenodd" fill="#FFFFFF" d="M147.992,76.846c0.856,0.048,3.281-0.703,3.677,0.431
				C150.517,76.646,147.667,77.947,147.992,76.846z"/>
		</g>
		<g>
			<path fill-rule="evenodd" clip-rule="evenodd" fill="#FFFFFF" d="M147.337,75.354c0.854,0.048,3.281-0.706,3.679,0.426
				C149.861,75.152,147.014,76.455,147.337,75.354z"/>
		</g>
		<g>
			<path fill-rule="evenodd" clip-rule="evenodd" fill="#FFFFFF" d="M146.122,73.91c0.852,0.045,3.286-0.706,3.68,0.421
				C148.647,73.706,145.802,75.006,146.122,73.91z"/>
		</g>
		<g>
			<path fill-rule="evenodd" clip-rule="evenodd" fill="#FFFFFF" d="M145.28,72.319c0.859,0.048,3.289-0.706,3.68,0.424
				C147.806,72.115,144.963,73.421,145.28,72.319z"/>
		</g>
		<g>
			<path fill-rule="evenodd" clip-rule="evenodd" fill="#FFFFFF" d="M145.003,70.823c0.854,0.048,3.286-0.701,3.675,0.426
				C147.528,70.624,144.681,71.924,145.003,70.823z"/>
		</g>
		<g>
			<path fill-rule="evenodd" clip-rule="evenodd" fill="#FFFFFF" d="M123.824,52.377c0.043-0.677-1.351-2.184-0.307-2.522
				C123.139,50.714,124.903,52.01,123.824,52.377z"/>
		</g>
		<g>
			<path fill-rule="evenodd" clip-rule="evenodd" fill="#FFFFFF" d="M122.207,51.428c0.041-0.672-1.351-2.177-0.315-2.521
				C121.521,49.771,123.285,51.069,122.207,51.428z"/>
		</g>
		<g>
			<path fill-rule="evenodd" clip-rule="evenodd" fill="#FFFFFF" d="M131.405,75.522c-0.605-0.302-2.538,0.386-2.444-0.701
				C129.608,75.502,131.496,74.389,131.405,75.522z"/>
		</g>
		<g>
			<path fill-rule="evenodd" clip-rule="evenodd" fill="#FFFFFF" d="M131.576,76.566c-0.61-0.3-2.54,0.388-2.444-0.698
				C129.779,76.546,131.667,75.437,131.576,76.566z"/>
		</g>
		<g>
			<path fill-rule="evenodd" clip-rule="evenodd" fill="#FFFFFF" d="M131.765,77.697c-0.602-0.295-2.538,0.391-2.442-0.7
				C129.968,77.68,131.858,76.566,131.765,77.697z"/>
		</g>
		<g>
			<path fill-rule="evenodd" clip-rule="evenodd" fill="#FFFFFF" d="M129.527,78.353c0.607,0.3,2.538-0.386,2.442,0.701
				C131.322,78.37,129.441,79.484,129.527,78.353z"/>
		</g>
		<g>
			<path fill-rule="evenodd" clip-rule="evenodd" fill="#FFFFFF" d="M132.453,80.24c-0.61-0.297-2.54,0.388-2.447-0.696
				C130.654,80.223,132.542,79.106,132.453,80.24z"/>
		</g>
		<g>
			<path fill-rule="evenodd" clip-rule="evenodd" fill="#FFFFFF" d="M130.21,80.896c0.61,0.297,2.538-0.391,2.439,0.7
				C132.007,80.916,130.12,82.029,130.21,80.896z"/>
		</g>
		<g>
			<path fill-rule="evenodd" clip-rule="evenodd" fill="#FFFFFF" d="M133.002,82.78c-0.605-0.3-2.535,0.388-2.439-0.695
				C131.208,82.765,133.096,81.649,133.002,82.78z"/>
		</g>
		<g>
			<path fill-rule="evenodd" clip-rule="evenodd" fill="#FFFFFF" d="M130.767,83.436c0.605,0.302,2.538-0.388,2.442,0.701
				C132.564,83.453,130.676,84.57,130.767,83.436z"/>
		</g>
		<g>
			<path fill-rule="evenodd" clip-rule="evenodd" fill="#FFFFFF" d="M133.895,85.384c-0.497-0.25-2.086,0.317-2.014-0.58
				C132.416,85.366,133.97,84.449,133.895,85.384z"/>
		</g>
		<g>
			<path fill-rule="evenodd" clip-rule="evenodd" fill="#FFFFFF" d="M132.055,85.923c0.494,0.242,2.087-0.32,2.011,0.572
				C133.532,85.938,131.979,86.853,132.055,85.923z"/>
		</g>
		<g>
			<path fill-rule="evenodd" clip-rule="evenodd" fill="#FFFFFF" d="M135.172,55.568c-0.33-0.785-2.061-2.651-1.217-3.493
				C133.895,53.384,136.304,55.383,135.172,55.568z"/>
		</g>
		<g>
			<path fill-rule="evenodd" clip-rule="evenodd" fill="#FFFFFF" d="M142.103,58.794c-0.111-0.844-1.313-3.088-0.274-3.688
				C141.432,56.355,143.246,58.908,142.103,58.794z"/>
		</g>
		<g>
			<path fill-rule="evenodd" clip-rule="evenodd" fill="#FFFFFF" d="M140.666,59.275c-0.116-0.849-1.282-4.292-0.242-4.891
				C140.084,55.551,141.808,59.387,140.666,59.275z"/>
		</g>
		<g>
			<path fill-rule="evenodd" clip-rule="evenodd" fill="#FFFFFF" d="M133.363,55.644c-0.325-0.791-2.059-2.65-1.217-3.498
				C132.085,53.457,134.5,55.458,133.363,55.644z"/>
		</g>
		<g>
			<path fill-rule="evenodd" clip-rule="evenodd" fill="#FFFFFF" d="M131.531,55.328c-0.333-0.793-2.062-2.65-1.22-3.497
				C130.25,53.142,132.66,55.138,131.531,55.328z"/>
		</g>
		<g>
			<path fill-rule="evenodd" clip-rule="evenodd" fill="#FFFFFF" d="M129.751,54.984c-0.33-0.792-2.064-2.652-1.22-3.497
				C128.472,52.798,130.883,54.796,129.751,54.984z"/>
		</g>
		<g>
			<path fill-rule="evenodd" clip-rule="evenodd" fill="#FFFFFF" d="M116.919,34.748c0.847,0.136,3.095-0.059,3.664,0.639
				C119.54,35.073,116.476,35.8,116.919,34.748z"/>
		</g>
		<g>
			<path fill-rule="evenodd" clip-rule="evenodd" fill="#FFFFFF" d="M117.56,35.814c0.847,0.142,2.928-0.014,3.566,0.407
				C120.271,36.375,117.111,36.868,117.56,35.814z"/>
		</g>
		<g>
			<path fill-rule="evenodd" clip-rule="evenodd" fill="#FFFFFF" d="M118.331,37.137c0.842,0.145,3.336-0.33,3.604,0.832
				C120.858,37.223,117.882,38.195,118.331,37.137z"/>
		</g>
		<g>
			<path fill-rule="evenodd" clip-rule="evenodd" fill="#FFFFFF" d="M119.162,38.437c0.844,0.145,3.342-0.329,3.609,0.837
				C121.692,38.525,118.714,39.496,119.162,38.437z"/>
		</g>
		<g>
			<path fill-rule="evenodd" clip-rule="evenodd" fill="#FFFFFF" d="M123.252,40.423c-0.844-0.144-3.339,0.33-3.601-0.834
				C120.722,40.34,123.701,39.368,123.252,40.423z"/>
		</g>
		<g>
			<path fill-rule="evenodd" clip-rule="evenodd" fill="#FFFFFF" d="M120.12,41.044c0.847,0.145,3.347-0.327,3.611,0.834
				C122.65,41.131,119.676,42.099,120.12,41.044z"/>
		</g>
		<g>
			<path fill-rule="evenodd" clip-rule="evenodd" fill="#FFFFFF" d="M127.975,54.367c-0.33-0.79-2.062-2.646-1.222-3.497
				C126.697,52.182,129.106,54.179,127.975,54.367z"/>
		</g>
		<g>
			<path fill-rule="evenodd" clip-rule="evenodd" fill="#FFFFFF" d="M126.052,53.723c-0.333-0.79-2.066-2.647-1.22-3.494
				C124.772,51.539,127.186,53.538,126.052,53.723z"/>
		</g>
		<g>
			<path fill-rule="evenodd" clip-rule="evenodd" fill="#FFFFFF" d="M135.696,52.092c0.65,0.851,2.044,3.756,1.605,4.802
				C136.954,55.391,135.583,53.822,135.696,52.092z"/>
		</g>
		<g>
			<path fill-rule="evenodd" clip-rule="evenodd" fill="#FFFFFF" d="M138.037,53.041c0.545,0.933,1.51,3.475,1.021,4.559
				C138.723,57.134,137.997,54.695,138.037,53.041z"/>
		</g>
	</g>
</g>
</svg>
