<?xml version="1.0" encoding="utf-8"?>
<!-- Generator: Adobe Illustrator 19.0.0, SVG Export Plug-In . SVG Version: 6.00 Build 0)  -->
<svg version="1.1" id="blason" xmlns="http://www.w3.org/2000/svg" xmlns:xlink="http://www.w3.org/1999/xlink" x="0px" y="0px"
	 viewBox="-269 381.7 56.7 79.2" style="enable-background:new -269 381.7 56.7 79.2;" xml:space="preserve">
<style type="text/css">
	.stblason0{fill:#C6A04B;}
	.stblason1{fill:#1D1D1B;}
	.stblason2{fill:#FFFFFF;}
	.stblason3{fill:#E5332A;}
</style>
<g id="grille">
	<path id="XMLID_3_" class="stblason0" d="M-241.3,418.3l-26.7,0v0.2v9c0,15.5,14.3,28.4,26.9,32.2l0.5,0.2l0,0l-0.3-0.1l0.1,0"/>
	<polygon id="XMLID_372_" class="stblason1" points="-244.9,417.6 -244.1,417.6 -244.1,457.6 -244.9,457.4 	"/>
	<rect id="XMLID_371_" x="-248.7" y="417.6" class="stblason1" width="0.8" height="38.3"/>
	<rect id="XMLID_370_" x="-252.6" y="417.6" class="stblason1" width="0.8" height="35.6"/>
	<rect id="XMLID_368_" x="-256.4" y="417.6" class="stblason1" width="0.8" height="32.7"/>
	<rect id="XMLID_367_" x="-260.2" y="417.6" class="stblason1" width="0.8" height="28.3"/>
	<rect id="XMLID_366_" x="-264.1" y="417.6" class="stblason1" width="0.8" height="22.9"/>
	<g id="blasonbasgauche">
		<rect id="barre_gauche_bas" x="-267.2" y="417.6" class="stblason1" width="25.9" height="0.7"/>
		<path id="blason_gauche" class="stblason1" d="M-268.2,427.2c0,15.8,14.9,29,27.6,32.9l0,0l0,0l0,0l0,0c0-16.1-0.3-33.1-0.3-33.1
			l-0.1-9.3l0,0l0,0l-27.2-0.1 M-240.6,458.9c-13.2-4.6-26.3-18.7-26.3-31.4v-9.7l0,0h25.2"/>
		<polygon id="barre_verticale_gauche_haut_1_" class="stblason1" points="-241.7,417.6 -240.9,417.6 -240.6,459.1 -241.7,459.1 		"/>
	</g>
</g>
<g id="tour">
	<path id="XMLID_5_" class="stblason0" d="M-241.7,382.3l-26.3,0.1v2.2l-0.2,32.6l26.9-0.2"/>
	<path id="XMLID_379_" class="stblason2" d="M-245.9,405.4v11.7h-5.2v-5.7c0-2-1.1-3.5-2.8-3.5c-1.7,0-2.8,1.6-2.8,3.5v5.7h-5.4v-11.7
		l1.6-1.9l1.7-8.8h-0.9v-1.6h-0.9v-5.2h2.5v2h2.2v-2h3.5v2h2.4v-2h2.6v5.1h-0.9v1.6h-1.3l1.9,8.8L-245.9,405.4z"/>
	<path id="XMLID_359_" class="stblason1" d="M-247.4,403.6l-1.9-8.7h1.2v-1.6h0.9v-5.6h-3.1v2h-2v-2h-3.9v1.9h-1.7v-1.9h-3v5.6h0.9v1.6
		h0.9l-1.5,8.6l-1.8,2.2v11.7h6v-5.9c0-1.9,1.1-3.3,2.5-3.3c1.5,0,2.5,1.4,2.5,3.3v5.9h5.7v-11.8L-247.4,403.6z M-260.4,392.8v-4.7
		h2.1v2h2.7v-2h3v2h2.9v-2h2.2v4.7H-260.4z M-259.5,394.4v-1.1h10.9v1.2h-10.9V394.4z M-258.6,394.9h8.8l1.8,8.4h-12.1L-258.6,394.9
		z M-260.2,403.7h12.2l1.2,1.4h-14.6L-260.2,403.7z M-246.1,416.8h-4.8v-5.5c0-2.2-1.3-3.8-3-3.8c-1.7,0-3,1.6-3,3.8v5.5h-5v-11.2
		h15.8C-246.1,405.6-246.1,416.8-246.1,416.8z"/>
	<path id="XMLID_358_" class="stblason1" d="M-251.1,417.1v-5.7c0-2-1.1-3.5-2.8-3.5c-1.7,0-2.8,1.6-2.8,3.5v5.7"/>
	<path id="XMLID_357_" class="stblason1" d="M-245.9,415.9c-1.9,0.2-0.9,0-2,0.1c0,0.2,1,0.4,1.9,0.4"/>
	<path id="XMLID_356_" class="stblason1" d="M-245.9,414.5c-1.9,0.2-0.4-0.2-2.9,0.2c0,0.2,0.6,0.5,2.8,0.3"/>
	<path id="XMLID_355_" class="stblason1" d="M-245.8,413.1c-1.9,0.2-0.7-0.2-3.1,0.2c0,0.2,0.8,0.5,3.1,0.3"/>
	<path id="XMLID_354_" class="stblason1" d="M-245.7,411.8c-1.9,0.2-1.8-0.1-4.2,0.3c0,0.2,1.9,0.4,4.2,0.2"/>
	<path id="XMLID_353_" class="stblason1" d="M-245.8,410.4c-1.9,0.2-1.5-0.2-3.9,0.2c0,0.2,1.6,0.5,3.9,0.2"/>
	<path id="XMLID_352_" class="stblason1" d="M-245.8,409c-1.9,0.2-1-0.2-3.4,0.2c0,0.2,1.1,0.5,3.3,0.3"/>
	<path id="XMLID_351_" class="stblason1" d="M-245.7,407.7c-1.9,0.2-1-0.2-3.4,0.2c0,0.2,1.1,0.5,3.4,0.3"/>
	<path id="XMLID_350_" class="stblason1" d="M-245.7,406.3c-1.9,0.2-1.5-0.2-3.9,0.2c0,0.2,1.6,0.5,3.9,0.2"/>
	<path id="XMLID_349_" class="stblason1" d="M-248,402.1c-1.2,0.1-1.8,0.1-3.5,0.2c0,0.2,1.2,0.5,3.5,0.3"/>
	<path id="XMLID_348_" class="stblason1" d="M-248.4,400.8c-1.9,0.2-2.2-0.1-4.6,0.3c0,0.2,2.3,0.4,4.6,0.2"/>
	<path id="XMLID_347_" class="stblason1" d="M-248.6,399.5c-1.4,0.1-1.6-0.1-3.5,0.2c0,0.2,1.2,0.5,3.5,0.3"/>
	<path id="XMLID_346_" class="stblason1" d="M-247.4,391.8c-1.4,0.1-2.3,0-2.5,0.2c0,0.2,0.3,0.3,2.4,0.3"/>
	<path id="XMLID_345_" class="stblason1" d="M-247.4,390.7c-0.6,0,0-0.2-1.9,0.1c0,0.2,0.1,0.4,1.9,0.4"/>
	<path id="XMLID_344_" class="stblason1" d="M-249,398.2c-0.9,0.3-1.7-0.2-4.2,0.2c0,0.2,1.9,0.5,4.1,0.3"/>
	<path id="XMLID_343_" class="stblason1" d="M-249.2,396.9c-1.9,0.2-3.8,0.1-3.9,0.2c0,0.2,1.6,0.5,3.9,0.2"/>
	<path id="XMLID_342_" class="stblason1" d="M-249.4,395.6c-1.9,0.2-4.5,0-4.7,0.3c0,0.3,2.4,0.4,4.6,0.2"/>
	<g id="blason_haut_gauche">
		<rect id="barre_gauche_haut" x="-267.2" y="416.9" class="stblason1" width="25.9" height="0.7"/>
		<rect id="barre_verticale_gauche_haut" x="-241.7" y="382.7" class="stblason1" width="0.8" height="35"/>
		<path id="blason_gauche_1_" class="stblason1" d="M-268.2,417.6l27.3,0l0-0.5l0-0.2l0-0.4l0-0.4l0-2.1l0-31.3l0,0l0,0h-27.2
			 M-240.9,416.9h-26v-33.1l0,0h25.2l0,0"/>
	</g>
</g>
<g id="croix">
	<path id="XMLID_1_" class="stblason0" d="M-240.5,459.9L-240.5,459.9L-240.5,459.9L-240.5,459.9L-240.5,459.9
		c12.5-3.9,27.4-17.1,27.4-32.8v-44.3l0,0l0,0h-27.6"/>
	<polyline id="XMLID_378_" class="stblason3" points="-240.3,391 -228.8,391 -228.8,398.5 -235.5,398.5 -235.5,411.7 -224.2,411.7 
		-224.2,403.4 -217.6,403.4 -217.6,428.1 -224,428.1 -224,420.3 -235.4,420.3 -235.4,432.8 -228.9,432.8 -228.9,440.6 -240.3,440.6 
			"/>
	<polygon id="XMLID_377_" class="stblason1" points="-228.4,441.1 -240.3,441.1 -240.3,440.2 -229.3,440.2 -229.3,433.3 -235.9,433.3 
		-235.9,419.9 -223.5,419.9 -223.5,427.6 -218.1,427.6 -218.1,403.9 -223.8,403.9 -223.8,412.1 -236,412.1 -236,398.1 -229.3,398.1 
		-229.3,391.4 -240.3,391.4 -240.3,390.5 -228.4,390.5 -228.4,399 -235,399 -235,411.2 -224.7,411.2 -224.7,403 -217.2,403 
		-217.2,428.5 -224.4,428.5 -224.4,420.8 -235,420.8 -235,432.4 -228.4,432.4 	"/>
	<g id="blason_droit">
		<path id="blason_droit_1_" class="stblason1" d="M-240.6,460.1L-240.6,460.1L-240.6,460.1L-240.6,460.1L-240.6,460.1
			c12.6-4,27.6-17.2,27.6-33v-44.4l0,0l0,0h-27.2 M-240.9,383.8L-240.9,383.8h26.7l0,0v43.7c0,12.7-13.1,26.8-26.4,31.4"/>
		<polygon id="barre_vertical_droite" class="stblason1" points="-241,382.7 -240.2,382.7 -240.2,460 -240.6,460.1 -241,460 		"/>
	</g>
</g>
</svg>
