<?xml version="1.0" encoding="utf-8"?>
<!-- Generator: Adobe Illustrator 19.0.0, SVG Export Plug-In . SVG Version: 6.00 Build 0)  -->
<svg version="1.1" id="chien" xmlns="http://www.w3.org/2000/svg" xmlns:xlink="http://www.w3.org/1999/xlink" x="0px" y="0px"
	 viewBox="0 0 99.5 142.8" style="enable-background:new 0 0 99.5 142.8;" xml:space="preserve">
<style type="text/css">
	.stchien0{fill-rule:evenodd;clip-rule:evenodd;fill:#FFFFFF;}
	.stchien1{fill-rule:evenodd;clip-rule:evenodd;fill:#1D1D1B;}
</style>
<g id="XMLID_354_">
	<g id="XMLID_471_">
		<g id="XMLID_472_">
			<path id="XMLID_473_" class="stchien0" d="M1.4,32.5l5.5,1.5l5.1-0.4l1.6,0.5c0,0,1,6.1,1.8,11.7c0.7,5.7,2.5,14.8,2.5,14.8
				c1,1.4,1.3,2.6,3.7,2.8c0.9-0.3,2.6-0.4,3.1-1.5c1,1.3,5,5.4,7.1,7c2.1,1.6,6.4,3.5,10.7,4.4c4.3,0.9,8.7,0.5,11.6,2.4
				c1.6,1.4,1.4,2.1,1.3,5.2c-1,0.9-5.5,3-8.2,6c-2.3,2.9-5.4,6.4-6.1,8.7c-0.7,2.3-1,5.7-0.7,7.4c0.6,4.9,1.8,6.8,3.3,10.8
				c0.7,1.4,1.9,4,2.3,5.4c-3.7,4.2-8.6,9.9-13.7,12.8c0,0,0,0,0,0c-1.7,0.3-3.7,2.8-4.2,4.2c1.2-0.2,3.2,1.2,4.7,1c0,0,0,0,0,0
				c1.7,0.3,2.4-0.4,3.6-0.5c3.5-6.2,11.4-12.8,13-14.1c1.6-1.2,3-3.1,3.5-3.1c-0.9-5.2-2.2-14.5-0.3-16.9
				c1.9-2.4,10.4-5.7,11.2-5.9c1.8,4.2,4.9,7.9,9.5,11.2c4.6,3.3,12.3,8.7,13.3,9.4c0,1.9,5.7,12.7,6.3,18.6
				c-1.8,1.7-5.3,1.6-4.6,5.7c2.8,0.1,5.8,1.4,8.3,0.3c2.2-2.2,1-7.9,2-11.2c-2-4.1-4.2-7.9-5.9-12.3c-0.9-2.3-1.4-5.9-2-6.7
				c-0.6-0.8-2.3-1.7-2.7-2c-3-2.8-7.1-4.7-8.1-9.5c-0.4-5.2-0.7-9.4,0.3-12.3c1-2.8,2.2-3.7,2.7-4.8c3.2,0.8,6.9-1.7,8.6-4
				c1.8-2.3,3.7-5.9,3.9-10.5c-0.2-2.7,0-4.6-0.7-7.8c-0.7-3.2-3.3-9-5.2-11.9c-1.9-2.9-4.7-5.6-6.3-6.9c-1.6-1.3-5.3-4.1-10.2-3.9
				c-2.1,0.1-3.9,1.1-5.5,2.4c-0.8,0.7-1,1.5-0.5,2.1c2-1.5,5.4-2,6.7-2c3.7,0,8.3,2.9,11.1,6.3c0.5,0.6,2.8,3.6,3.1,4.1
				c0.2,0.3,1.8,3.6,2.1,4.1c0.3,0.8,1.9,5,2.1,5.7c1.2,4.4,0.6,8.9-0.5,13c-1.5,3-3.2,5.2-6.2,6.7c-1.4,0.6-2.1,0.3-3.1-0.5
				c-1.3-1-1.5-2.3-2.4-4.3c-0.9-1.9-2.4-3.2-4.1-5.1c-1.7-1.9-8.3-6.5-10-7.6c-1.7-1-9.5-5-10.8-6c-1.4-1-7.9-6.4-10.4-9.3
				c-1.9-2.2-3.9-6.2-4.5-10.4c-0.2-1.5,0-3.5-0.4-4c-0.4-0.5,0-0.3-1-0.5c0.1-2.5,2.5-4.9,1.2-6.1c0,0,0.7-2.4,1.4-4.1
				c0.8-1.6,2.3-3.7,4.2-4.3c1.8-0.7,4.1-1.1,5.6-1.1c3-3.3,12.1-1.7,13.5-7.2C62,9.3,59,9.3,54.6,8.5c-2.8-1-4.7-2.9-6.8-4.6
				c-2.2,0-4.5,0-6.7,0c-1.4,0.1-2-2.1-3.6-2.6c-3.1-1-8.2-0.5-11-0.3c0,0.7,0,1.9,1.1,2.7c1.1,0.8,4.4,0.7,6.3,1.8
				c-3.5,2.2-8.8,2.6-10.3,6.8c2.3,1.2,6.1-1.6,9.1-1.5c-1.4,1.6-3.7,3.9-5.6,8.5c-1.9,4.6-2.6,8.1-3.4,10.6
				c-0.1,0.8-0.7,0.1-1.3,0.6c-0.5,0.4-1.1,3,0.2,3c-0.6,1.3-0.8,3.7-0.5,5.5c-3-1.3-4.2-6.8-6.2-9.1c-4.3-1.6-8.9-0.3-14.5-1
				C0.6,29.5,0.7,31.8,1.4,32.5z"/>
		</g>
	</g>
	<g id="XMLID_355_">
		<g id="XMLID_458_">
			<g id="XMLID_469_">
				<path id="XMLID_470_" class="stchien1" d="M47.4,6.4C46,6.8,44.8,7.3,43.8,8c-1.3,0.5-3,0.5-3.1,2.1c1.5,0.7,4.6-1,5.2,1.5
					c1.1-1.1,2.7-2.2,4.7-1c-0.2-2.4-2.2-1.4-3.1-2.1C48,7.7,48,7.2,47.4,6.4z"/>
			</g>
			<g id="XMLID_459_">
				<path id="XMLID_460_" class="stchien1" d="M1.4,32.5l5.5,1.5l5.1-0.4l1.6,0.5c0,0,1,6.1,1.8,11.7c0.7,5.7,2.5,14.8,2.5,14.8
					c1,1.4,1.3,2.6,3.7,2.8c0.9-0.3,2.6-0.4,3.1-1.5c1,1.3,5,5.4,7.1,7c2.1,1.6,6.4,3.5,10.7,4.4c4.3,0.9,8.7,0.5,11.6,2.4
					c1.6,1.4,1.4,2.1,1.3,5.2c-1,0.9-5.5,3-8.2,6c-2.3,2.9-5.4,6.4-6.1,8.7c-0.7,2.3-1,5.7-0.7,7.4c0.6,4.9,1.8,6.8,3.3,10.8
					c0.7,1.4,1.9,4,2.3,5.4c-3.7,4.2-8.6,9.9-13.7,12.8c0,0,0,0,0,0c-1.7,0.3-3.7,2.8-4.2,4.2c1.2-0.2,3.2,1.2,4.7,1c0,0,0,0,0,0
					c1.7,0.3,2.4-0.4,3.6-0.5c3.5-6.2,11.4-12.8,13-14.1c1.6-1.2,3-3.1,3.5-3.1c-0.9-5.2-2.2-14.5-0.3-16.9
					c1.9-2.4,10.4-5.7,11.2-5.9c1.8,4.2,4.9,7.9,9.5,11.2c4.6,3.3,12.3,8.7,13.3,9.4c0,1.9,5.7,12.7,6.3,18.6
					c-1.8,1.7-5.3,1.6-4.6,5.7c2.8,0.1,5.8,1.4,8.3,0.3c2.2-2.2,1-7.9,2-11.2c-2-4.1-4.2-7.9-5.9-12.3c-0.9-2.3-1.4-5.9-2-6.7
					c-0.6-0.8-2.3-1.7-2.7-2c-3-2.8-7.1-4.7-8.1-9.5c-0.4-5.2-0.7-9.4,0.3-12.3c1-2.8,2.2-3.7,2.7-4.8c3.2,0.8,6.9-1.7,8.6-4
					c1.8-2.3,3.7-5.9,3.9-10.5c-0.2-2.7,0-4.6-0.7-7.8c-0.7-3.2-3.3-9-5.2-11.9c-1.9-2.9-4.7-5.6-6.3-6.9c-1.6-1.3-5.3-4.1-10.2-3.9
					c-2.1,0.1-3.9,1.1-5.5,2.4c-0.8,0.7-1,1.5-0.5,2.1c2-1.5,5.4-2,6.7-2c3.7,0,8.3,2.9,11.1,6.3c0.5,0.6,2.8,3.6,3.1,4.1
					c0.2,0.3,1.8,3.6,2.1,4.1c0.3,0.8,1.9,5,2.1,5.7c1.2,4.4,0.6,8.9-0.5,13c-1.5,3-3.2,5.2-6.2,6.7c-1.4,0.6-2.1,0.3-3.1-0.5
					c-1.3-1-1.5-2.3-2.4-4.3c-0.9-1.9-2.4-3.2-4.1-5.1c-1.7-1.9-8.3-6.5-10-7.6c-1.7-1-9.5-5-10.8-6c-1.4-1-7.9-6.4-10.4-9.3
					c-1.9-2.2-3.9-6.2-4.5-10.4c-0.2-1.5,0-3.5-0.4-4c-0.4-0.5,0-0.3-1-0.5c0.1-2.5,2.5-4.9,1.2-6.1c0,0,0.7-2.4,1.4-4.1
					c0.8-1.6,2.3-3.7,4.2-4.3c1.8-0.7,4.1-1.1,5.6-1.1c3-3.3,12.1-1.7,13.5-7.2C62,9.3,59,9.3,54.6,8.5c-2.8-1-4.7-2.9-6.8-4.6
					c-2.2,0-4.5,0-6.7,0c-1.4,0.1-2-2.1-3.6-2.6c-3.1-1-8.2-0.5-11-0.3c0,0.7,0,1.9,1.1,2.7c1.1,0.8,4.4,0.7,6.3,1.8
					c-3.5,2.2-8.8,2.6-10.3,6.8c2.3,1.2,6.1-1.6,9.1-1.5c-1.4,1.6-3.7,3.9-5.6,8.5c-1.9,4.6-2.6,8.1-3.4,10.6
					c-0.1,0.8-0.7,0.1-1.3,0.6c-0.5,0.4-1.1,3,0.2,3c-0.6,1.3-0.8,3.7-0.5,5.5c-3-1.3-4.2-6.8-6.2-9.1c-4.3-1.6-8.9-0.3-14.5-1
					C0.6,29.5,0.7,31.8,1.4,32.5z M24.9,32.3c1.5,0.5,10,3.3,13.8,1.5c-0.1,4.1-4.3,2.2-6.7,1.6c-0.9-0.8-8.1-0.1-8.1-0.1
					S25,32.9,24.9,32.3z M37.1,33.4c-4.5,0.8-8.4-1.4-12-2.1c0.2-1.5,0.4-2.9,1.6-3.5c1.1,0.4,3.8,1.2,5.9,1.4
					c0.8,0.3,4.5,0.5,5.3,0.5C37.5,31.7,37.6,32.1,37.1,33.4z M38.1,27.7c-3,1-10.7-1.5-11.4-3.6c0.9,0,2.1,0.7,2.1,0.7l2,0.9
					C30.8,25.7,35.2,26.6,38.1,27.7z M30.8,1.9C33,2.5,37,1.7,36.9,4C34.8,4.1,31.7,4.4,30.8,1.9z M37.6,26.1
					c-2.3,0.2-3.1-0.4-5.2-1c-2-0.6-4.3-1.6-4.2-2.1c0.3-1.6,1.9-0.5,1.5-2c0.3-3.6,2.3-6,4.6-8.3c0.3-1.1,0.1-1.1,2.1-1
					c0.5-1.8,0.1-1.3,0.5-3.1c-0.9,0-1.3,0.4-1.6,1c-0.9-0.5-1.3-1.4-3.1-1c-2.2,0.6-3.9,1.7-6.2,2.1c2.6-2.4,6.3-2.9,8.8-4.2
					c2,0.1,3.4,2.9,5.2,1.5c0.4-1.9-1.8-1.3-2.6-2.1c2-1.6,6.4-0.9,9.8-1.1c2.7,4.1,8.1,5.2,15,5.6c0.3,1.5-2.2,2.2-3.6,2.3
					c-4.1,0.5-8.1,2.1-8.2,2.8c-0.4-0.4-4,0.7-3.7-1.4c-1.6-0.2-1.2,1.3-2.9,1.3c-1.7,0-2.2-0.1-2.2,0.8c0,0.3-0.1,0.8-0.2,1
					C40.7,20.5,38.9,26.1,37.6,26.1z M55.8,82.6c0.8,2.3,1.8,7.6,6,11.4c-0.1,0.6-3.1,1-6.5,3c-3.4,1.9-4.8,4.8-5.1,7.8
					c-0.2,2.1,0.9,10.9,0.9,10.9c0.1,0.7,0.8,2.2,0.1,3.3c-1,1.2-2.1,2.1-3.2,0.6c0,0-1.1-2.7-2.7-7c-1.6-4.3-4-11.4-2.3-16.2
					c1.7-4.8,5.2-8.4,6.1-9.3C50,86.4,54.4,83,55.8,82.6z M1.7,31.4c0-1.5,0.5-1.5,2.3-1.5c1.8,0,4.5,0,7.7-0.1
					c3.2-0.1,4.5,2.1,5.7,4.1c0.3,0.6,2,4.5,2.7,5.8c0.7,1.3,7.8,7.9,7.5,9.5c1.4,0.7,2.6-0.7,2.2-0.5c-0.2,0.1-6.4-7.1-5.8-11.3
					c-1.3-0.6,5.9-1.5,7.7-0.4c0.4-0.1,1.5,0.9,2.8,0.9c1.3,0.1,2.5,0.1,3.1-0.5c0.8,1.8,2.7,7.5,3.7,8.8c1.3,1.4,3.3,4.4,6,6.9
					c1.8,1.8,5.7,5.2,8,6.5c2.1,0.9,10.8,4.8,13.5,6.9c2.8,2.1,6.7,5.6,6.9,5.8c0.4,0.3,5.8,9.3,1.8,9.2c-0.1,1.2,1.5,0.6,1.6,1.6
					c-0.7,1.2-2,4.9-2.1,6.6c-0.1,1.7-0.1,4.2,0.5,7.3c0.7,3.1,2.4,6.7,3.5,8.1c1.1,1.4,6.8,6,8.2,6.6c1.3,2,1.7,5.4,2.6,7.4
					l2.5,5.1c1,2.2,2.7,4,3.1,6.5c0,2.2-0.1,3.3-0.3,5.4c-1.6,0.6,0.8,3.6-2.5,3.9c-1.8-0.1-4.5,0.3-4.6-1.4c1.7-1.3,3-1.6,4-2.4
					c0.4-0.7,0-3.3-0.7-5c-0.4-1-5.4-14.4-5.9-15.7c-1.3-0.6-4.2-3.5-7.9-5.6c-3.8-2.1-13.4-9.9-11.9-14.9c-1-0.1-6.6-2.8-5.7-12.4
					c0.3-2.4,2.2-6.2,0.5-7.8c-0.7,1.7-1.6,2.2-2.5,2c-1.3-1.2-1.4-6.1-11.8-6.5c-10.4-0.4-21.7-8.3-20.9-14.1
					c-2-0.5-3.5,1.5-4.1,1.9c-3.2,2.3-7.6-21.2-7.3-25.1c-2.5-2.4-5.7,0.3-7.8-0.4C7.3,32.8,3.1,32.7,1.7,31.4z"/>
			</g>
		</g>
		<g id="XMLID_456_">
			<path id="XMLID_457_" class="stchien1" d="M52.1,83c2.2,4.7,3.4,5.8,4.7,9.7c-0.8-1.5-3.4-4.7-5.3-9.3"/>
		</g>
		<g id="XMLID_454_">
			<path id="XMLID_455_" class="stchien1" d="M50.6,84.6c2.2,4.7,4.4,6.1,4.1,7.6c-0.8-1.5-2.9-2.7-4.8-7.2"/>
		</g>
		<g id="XMLID_452_">
			<path id="XMLID_453_" class="stchien1" d="M49,85.8c2.3,4.7,2.3,2.8,3.5,6.7c-0.3,0-1.8-2.1-4.2-6.3"/>
		</g>
		<g id="XMLID_450_">
			<path id="XMLID_451_" class="stchien1" d="M47.4,87.4c2.3,4.7,1.3,0.8,2.5,4.7c-0.3,0-0.6,0.1-3-4"/>
		</g>
		<g id="XMLID_448_">
			<path id="XMLID_449_" class="stchien1" d="M54.1,82.5c2.3,4.7,3.7,6.7,4.9,10.6c-0.8-1.5-4-5.5-5.9-10"/>
		</g>
		<g id="XMLID_446_">
			<path id="XMLID_447_" class="stchien1" d="M36.2,13.7c-0.9-0.5-4,0.5-3.8-1.2C33.4,13.6,36.4,11.9,36.2,13.7z"/>
		</g>
		<g id="XMLID_444_">
			<path id="XMLID_445_" class="stchien1" d="M35.2,15.3c-0.9-0.5-4,0.5-3.8-1.2C32.5,15.2,35.4,13.5,35.2,15.3z"/>
		</g>
		<g id="XMLID_442_">
			<path id="XMLID_443_" class="stchien1" d="M34.3,16.9c-0.9-0.5-3.9,0.5-3.8-1.2C31.6,16.8,34.5,15.1,34.3,16.9z"/>
		</g>
		<g id="XMLID_440_">
			<path id="XMLID_441_" class="stchien1" d="M33.4,18.5c-0.9-0.5-4,0.5-3.8-1.2C30.6,18.4,33.6,16.8,33.4,18.5z"/>
		</g>
		<g id="XMLID_438_">
			<path id="XMLID_439_" class="stchien1" d="M27.2,38.3c-0.9-0.5-4,0.5-3.8-1.2C24.4,38.1,27.4,36.5,27.2,38.3z"/>
		</g>
		<g id="XMLID_436_">
			<path id="XMLID_437_" class="stchien1" d="M32.5,20.1c-0.9-0.5-4,0.5-3.8-1.2C29.7,20,32.7,18.4,32.5,20.1z"/>
		</g>
		<g id="XMLID_434_">
			<path id="XMLID_435_" class="stchien1" d="M31.3,21.7c-0.9-0.5-3.4,0.5-3.2-1.2C29.1,21.6,31.5,20,31.3,21.7z"/>
		</g>
		<g id="XMLID_432_">
			<path id="XMLID_433_" class="stchien1" d="M30.4,23.4c-0.9-0.5-3.4,0.5-3.2-1.2C28.2,23.2,30.6,21.6,30.4,23.4z"/>
		</g>
		<g id="XMLID_430_">
			<path id="XMLID_431_" class="stchien1" d="M78,110.3c1.3,0.1,5.1-1.1,5.7,0.7C81.9,110,77.5,112,78,110.3z"/>
		</g>
		<g id="XMLID_428_">
			<path id="XMLID_429_" class="stchien1" d="M76.4,108.3c1.3,0.1,5.1-1.1,5.7,0.7C80.3,108,75.9,110.1,76.4,108.3z"/>
		</g>
		<g id="XMLID_426_">
			<path id="XMLID_427_" class="stchien1" d="M74,106.3c1.3,0.1,5.1-1.1,5.7,0.7C77.9,106,73.5,108,74,106.3z"/>
		</g>
		<g id="XMLID_424_">
			<path id="XMLID_425_" class="stchien1" d="M71.2,104.3c1.3,0.1,5.1-1.1,5.7,0.7C75.1,104,70.7,106,71.2,104.3z"/>
		</g>
		<g id="XMLID_422_">
			<path id="XMLID_423_" class="stchien1" d="M70.2,102c1.3,0.1,5.1-1.1,5.7,0.7C74.1,101.7,69.7,103.7,70.2,102z"/>
		</g>
		<g id="XMLID_420_">
			<path id="XMLID_421_" class="stchien1" d="M68.3,99.7c1.3,0.1,5.1-1.1,5.7,0.7C72.2,99.4,67.8,101.4,68.3,99.7z"/>
		</g>
		<g id="XMLID_418_">
			<path id="XMLID_419_" class="stchien1" d="M67,97.3c1.3,0.1,5.1-1.1,5.7,0.7C70.9,96.9,66.5,99,67,97.3z"/>
		</g>
		<g id="XMLID_416_">
			<path id="XMLID_417_" class="stchien1" d="M66.5,94.9c1.3,0.1,5.1-1.1,5.7,0.7C70.5,94.6,66,96.6,66.5,94.9z"/>
		</g>
		<g id="XMLID_414_">
			<path id="XMLID_415_" class="stchien1" d="M33.7,66.3c0.1-1.1-2.1-3.4-0.5-3.9C32.6,63.7,35.3,65.7,33.7,66.3z"/>
		</g>
		<g id="XMLID_412_">
			<path id="XMLID_413_" class="stchien1" d="M31.2,64.8c0.1-1-2.1-3.4-0.5-3.9C30.1,62.3,32.8,64.3,31.2,64.8z"/>
		</g>
		<g id="XMLID_410_">
			<path id="XMLID_411_" class="stchien1" d="M45.4,102.2c-0.9-0.5-3.9,0.6-3.8-1.1C42.6,102.2,45.6,100.5,45.4,102.2z"/>
		</g>
		<g id="XMLID_408_">
			<path id="XMLID_409_" class="stchien1" d="M45.7,103.8c-0.9-0.5-3.9,0.6-3.8-1.1C42.9,103.8,45.8,102.1,45.7,103.8z"/>
		</g>
		<g id="XMLID_406_">
			<path id="XMLID_407_" class="stchien1" d="M46,105.6c-0.9-0.5-3.9,0.6-3.8-1.1C43.2,105.6,46.1,103.8,46,105.6z"/>
		</g>
		<g id="XMLID_404_">
			<path id="XMLID_405_" class="stchien1" d="M42.5,106.6c0.9,0.5,3.9-0.6,3.8,1.1C45.3,106.6,42.4,108.4,42.5,106.6z"/>
		</g>
		<g id="XMLID_402_">
			<path id="XMLID_403_" class="stchien1" d="M47.1,109.6c-0.9-0.5-3.9,0.6-3.8-1.1C44.3,109.5,47.2,107.8,47.1,109.6z"/>
		</g>
		<g id="XMLID_398_">
			<path id="XMLID_401_" class="stchien1" d="M43.6,110.6c0.9,0.5,3.9-0.6,3.8,1.1C46.4,110.6,43.4,112.3,43.6,110.6z"/>
		</g>
		<g id="XMLID_394_">
			<path id="XMLID_395_" class="stchien1" d="M47.9,113.5c-0.9-0.5-3.9,0.6-3.8-1.1C45.1,113.5,48.1,111.7,47.9,113.5z"/>
		</g>
		<g id="XMLID_392_">
			<path id="XMLID_393_" class="stchien1" d="M44.4,114.5c0.9,0.5,3.9-0.6,3.8,1.1C47.2,114.5,44.3,116.3,44.4,114.5z"/>
		</g>
		<g id="XMLID_390_">
			<path id="XMLID_391_" class="stchien1" d="M49.3,117.5c-0.8-0.4-3.2,0.5-3.1-0.9C47,117.5,49.4,116.1,49.3,117.5z"/>
		</g>
		<g id="XMLID_388_">
			<path id="XMLID_389_" class="stchien1" d="M46.4,118.4c0.8,0.4,3.2-0.5,3.1,0.9C48.7,118.4,46.3,119.8,46.4,118.4z"/>
		</g>
		<g id="XMLID_386_">
			<path id="XMLID_387_" class="stchien1" d="M51.3,71.3c-0.5-1.2-3.2-4.1-1.9-5.4C49.3,67.9,53,71,51.3,71.3z"/>
		</g>
		<g id="XMLID_384_">
			<path id="XMLID_385_" class="stchien1" d="M62,76.3c-0.2-1.3-2-4.8-0.4-5.7C61,72.5,63.8,76.4,62,76.3z"/>
		</g>
		<g id="XMLID_382_">
			<path id="XMLID_383_" class="stchien1" d="M59.8,77c-0.2-1.3-2-6.7-0.4-7.6C58.9,71.2,61.6,77.2,59.8,77z"/>
		</g>
		<g id="XMLID_380_">
			<path id="XMLID_381_" class="stchien1" d="M48.5,71.4c-0.5-1.2-3.2-4.1-1.9-5.4C46.5,68,50.2,71.1,48.5,71.4z"/>
		</g>
		<g id="XMLID_378_">
			<path id="XMLID_379_" class="stchien1" d="M45.6,70.9c-0.5-1.2-3.2-4.1-1.9-5.4C43.6,67.5,47.4,70.6,45.6,70.9z"/>
		</g>
		<g id="XMLID_376_">
			<path id="XMLID_377_" class="stchien1" d="M42.9,70.4c-0.5-1.2-3.2-4.1-1.9-5.4C40.9,67,44.6,70.1,42.9,70.4z"/>
		</g>
		<g id="XMLID_374_">
			<path id="XMLID_375_" class="stchien1" d="M23,38.9c1.3,0.2,4.8-0.1,5.7,1C27,39.5,22.3,40.6,23,38.9z"/>
		</g>
		<g id="XMLID_372_">
			<path id="XMLID_373_" class="stchien1" d="M23.9,40.6c1.3,0.2,4.5,0,5.5,0.6C28.2,41.5,23.2,42.2,23.9,40.6z"/>
		</g>
		<g id="XMLID_370_">
			<path id="XMLID_371_" class="stchien1" d="M25.1,42.7c1.3,0.2,5.2-0.5,5.6,1.3C29.1,42.8,24.4,44.3,25.1,42.7z"/>
		</g>
		<g id="XMLID_368_">
			<path id="XMLID_369_" class="stchien1" d="M26.4,44.7c1.3,0.2,5.2-0.5,5.6,1.3C30.4,44.8,25.7,46.3,26.4,44.7z"/>
		</g>
		<g id="XMLID_366_">
			<path id="XMLID_367_" class="stchien1" d="M32.8,47.8c-1.3-0.2-5.2,0.5-5.6-1.3C28.9,47.6,33.5,46.1,32.8,47.8z"/>
		</g>
		<g id="XMLID_364_">
			<path id="XMLID_365_" class="stchien1" d="M27.9,48.7c1.3,0.2,5.2-0.5,5.6,1.3C31.8,48.9,27.2,50.4,27.9,48.7z"/>
		</g>
		<g id="XMLID_362_">
			<path id="XMLID_363_" class="stchien1" d="M40.1,69.4c-0.5-1.2-3.2-4.1-1.9-5.4C38.1,66,41.9,69.1,40.1,69.4z"/>
		</g>
		<g id="XMLID_360_">
			<path id="XMLID_361_" class="stchien1" d="M37.1,68.4c-0.5-1.2-3.2-4.1-1.9-5.4C35.1,65,38.9,68.1,37.1,68.4z"/>
		</g>
		<g id="XMLID_358_">
			<path id="XMLID_359_" class="stchien1" d="M52.1,65.9c1,1.3,3.2,5.8,2.5,7.5C54,71,51.9,68.6,52.1,65.9z"/>
		</g>
		<g id="XMLID_356_">
			<path id="XMLID_357_" class="stchien1" d="M55.7,67.3c0.8,1.4,2.3,5.4,1.6,7.1C56.8,73.7,55.7,69.9,55.7,67.3z"/>
		</g>
	</g>
</g>
</svg>
