<?xml version="1.0" encoding="utf-8"?>
<!-- Generator: Adobe Illustrator 19.0.0, SVG Export Plug-In . SVG Version: 6.00 Build 0)  -->
<svg version="1.1" id="Courone" xmlns="http://www.w3.org/2000/svg" xmlns:xlink="http://www.w3.org/1999/xlink" x="0px" y="0px"
	 viewBox="0 0 89.3 46.8" style="enable-background:new 0 0 89.3 46.8;" xml:space="preserve">
<style type="text/css">
	.stcourone0{fill:#1D1D1B;}
	.stcourone1{fill:#C6A04B;}
</style>
<g id="XMLID_341_">
	<path id="XMLID_372_" class="stcourone0" d="M8.4,20.1c0,1.9,1.6,3.4,3.7,4.9c2.2,1.5,3.3,3.1,4,2.4c0.7-0.7-0.4-7.2-2.4-10.2
		c0.8-1.2,1.9-2,1.9-2c0.9,2.6,4.6,7.2,6.2,8.6c1.6,1.4,3.3,1.5,2.8-1.3c-0.5-2.8-1.5-7-2.2-8.6c0.2-0.8,1.9-1.6,1.9-1.6
		c0.7,2.1,3.8,7.3,5.7,9c1.9,1.7,2.9,1,2.9-1.1c0-2,0.1-8.1-0.1-10c-0.2-2,2-2,2-2c0.4,2.7,2.4,7.6,3.2,10c0.8,2.4,2.9,4.4,3.7-0.2
		c0.8-4.6,1.5-8.9,1.4-10.5c0.5-0.2,2.2-0.2,2.2-0.2c0.6,4.6,1.4,7.6,1.8,9.9c0.4,2.2,2.1,5,3.6,1.1c1.5-4,2.9-7.1,3.3-9.6
		c0.6,0.2,1.5,0.4,1.5,0.4c-0.5,4.6-0.7,7.4-0.8,10.4c-0.1,3,2,2.5,3.4,0.4c1.4-2.1,4.2-5.7,5.5-8.6c0.7,0.1,2.1,0.9,2.1,0.9
		c-0.8,3-1.8,6.6-2,9.5c-0.2,2.9,1.3,2.7,2.5,1.2c1.2-1.5,5.6-4.5,6.8-7.1c2.2,0.2,1.3,0.8,1.3,0.8c-1.3,3.3-1.8,6-2.3,8.2
		c-0.5,2.3,0.5,2,1.9,1.2c1.4-0.7,6.8-3.4,7.6-5.6c0.8-2.2,1.2,0.1,1.2,0.1l0.9,2.4c-1.5-0.3-2.8,1.3-4.7,3.3
		c-1.9,2-5.3,5.8-5.3,5.8c0.6,0.9,1.3,3,0.4,4.3c-0.9,1.4-2.6,0.7-3,1.6c-0.4,0.9,0.8,1.2,0.4,2c-0.4,0.8-1.8-0.1-1.7,1.2
		c0.1,1.2,1.4,2.9-0.1,4c-1.5,1.1-4.3,0.8-8.8-0.9c-4.6-1.7-11.8-2.9-16.1-2.9h0c-4.3,0-11.5,1.3-16.1,2.9c-4.6,1.7-7.3,2-8.8,0.9
		c-1.5-1.1-0.2-2.8,0-4c0.1-1.2-1.3-0.4-1.7-1.2c-0.4-0.8,0.8-1.2,0.4-2c-0.4-0.9-2.1-0.2-3-1.6c-0.9-1.4-0.2-3.4,0.4-4.3
		c0,0-3.4-3.8-5.3-5.8c-1.9-2-3.1-3.6-4.7-3.3"/>
	<path id="XMLID_371_" class="stcourone0" d="M16.5,14c0,2.1-1.7,3.7-3.7,3.7C10.7,17.7,9,16,9,14c0-2.1,1.7-3.7,3.7-3.7
		C14.8,10.2,16.5,11.9,16.5,14"/>
	<path id="XMLID_370_" class="stcourone0" d="M25.9,11c0,2.1-1.7,3.7-3.7,3.7c-2.1,0-3.7-1.7-3.7-3.7c0-2,1.7-3.7,3.7-3.7
		C24.2,7.3,25.9,8.9,25.9,11"/>
	<path id="XMLID_369_" class="stcourone0" d="M8.5,19.4c0,2.1-1.7,3.7-3.7,3.7c-2.1,0-3.7-1.7-3.7-3.7c0-2.1,1.7-3.7,3.7-3.7
		C6.8,15.7,8.5,17.4,8.5,19.4"/>
	<path id="XMLID_368_" class="stcourone0" d="M36.7,7.7c0,2.1-1.7,3.7-3.7,3.7c-2.1,0-3.7-1.7-3.7-3.7C29.3,5.7,31,4,33,4
		C35.1,4,36.7,5.7,36.7,7.7"/>
	<path id="XMLID_367_" class="stcourone0" d="M47.5,4.9c0,2.1-1.7,3.7-3.7,3.7c-2.1,0-3.7-1.7-3.7-3.7c0-2.1,1.7-3.7,3.7-3.7
		C45.9,1.2,47.5,2.8,47.5,4.9"/>
	<path id="XMLID_366_" class="stcourone0" d="M59,6.1c0,2.1-1.7,3.7-3.7,3.7c-2.1,0-3.7-1.7-3.7-3.7c0-2,1.7-3.7,3.7-3.7
		C57.4,2.4,59,4.1,59,6.1"/>
	<path id="XMLID_365_" class="stcourone0" d="M69.4,8.8c0,2.1-1.7,3.7-3.7,3.7c-2.1,0-3.7-1.7-3.7-3.7c0-2.1,1.7-3.7,3.7-3.7
		C67.7,5.1,69.4,6.7,69.4,8.8"/>
	<path id="XMLID_364_" class="stcourone0" d="M78.5,13.4c0,2.1-1.7,3.7-3.7,3.7c-2.1,0-3.7-1.7-3.7-3.7c0-2,1.7-3.7,3.7-3.7
		C76.9,9.7,78.5,11.4,78.5,13.4"/>
	<path id="XMLID_363_" class="stcourone0" d="M88.5,19.5c0,2.1-1.7,3.7-3.7,3.7c-2.1,0-3.7-1.7-3.7-3.7c0-2.1,1.7-3.7,3.7-3.7
		C86.8,15.8,88.5,17.5,88.5,19.5"/>
	<path id="XMLID_362_" class="stcourone1" d="M13.5,27.4c2,1,3.4,2.3,4.8,1c1.3-1.2-0.4-5.6-1.1-7.6c1.8,2.3,4.2,6.4,7.6,5
		c2.2-0.9,0.6-7,0.3-8.1c1.5,2.5,4.6,6.4,7.7,6c3.1-0.4,2-7.3,2-8.9c1.4,3.7,2.3,7.4,5.4,7.4c3.1,0,4-6.9,4.2-9.2
		c0.8,5.3,1.8,8.3,4.3,8.5c2.5,0.2,4.4-4.7,5.1-6.6c-0.1,5.1-0.3,7.2,2.1,7.9c2.4,0.7,6.1-4,6.9-5.9c-0.6,5.8-0.9,7.5,0.5,8.3
		c1.4,0.7,5.8-1.2,8.1-5c-0.3,3.4-1.3,6.9,0.4,8c1.7,1.2,3.3-0.6,4.6-1.4c-2.1,2.5-3.1,3.8-5.9,3.7c-2.8-0.1-1.8-4-1.7-5.2
		c-2.8,2-4.9,4-6.9,3.5c-2-0.5-2-4.3-1.9-5.6c-1.1,1.3-2.5,4.4-4.8,4c-2.3-0.4-2.9-3.7-2.8-5.3c-1.6,2.1-1.5,4.2-3.9,4.1
		c-2.4-0.1-3.4-2.8-3.8-4.8c-0.7,2.5-1.4,5.1-3.3,5.2c-1.9,0.1-3.4-2.2-4-3.5c-0.9,3.2-1.5,4.5-3.7,4.8c-2.2,0.3-4.1-1.1-5.1-3
		c-0.4,2.3-0.5,4.3-2.4,4.9c-1.8,0.6-3.9-1-5-2.2c-0.5,2-1.4,4-3.4,4.2C15.9,31.7,14.2,28.6,13.5,27.4"/>
	<path id="XMLID_361_" class="stcourone1" d="M7.6,19.4c0,1.6-1.3,2.8-2.8,2.8c-1.6,0-2.8-1.3-2.8-2.8c0-1.6,1.3-2.8,2.8-2.8
		C6.4,16.6,7.6,17.9,7.6,19.4"/>
	<path id="XMLID_360_" class="stcourone1" d="M15.6,13.9c0,1.6-1.3,2.9-2.8,2.9c-1.6,0-2.8-1.3-2.8-2.9c0-1.6,1.3-2.8,2.8-2.8
		C14.3,11,15.6,12.3,15.6,13.9"/>
	<path id="XMLID_359_" class="stcourone1" d="M77.7,13.4c0,1.6-1.3,2.9-2.9,2.9c-1.6,0-2.8-1.3-2.8-2.9s1.3-2.8,2.8-2.8
		C76.5,10.6,77.7,11.8,77.7,13.4"/>
	<path id="XMLID_358_" class="stcourone1" d="M87.7,19.5c0,1.6-1.3,2.8-2.8,2.8c-1.6,0-2.8-1.3-2.8-2.8c0-1.6,1.3-2.8,2.8-2.8
		C86.4,16.6,87.7,17.9,87.7,19.5"/>
	<path id="XMLID_357_" class="stcourone1" d="M72.5,33.7c-3.6-1.5-14.3-5.3-26.4-5.7c-0.1,0-0.2,0-0.2,0c-0.3,0-0.6,0-0.9,0
		c-0.3,0-0.6,0-0.9,0c0,0-0.1,0-0.2,0c-12,0.4-22.8,4.2-26.4,5.7c-1.2,0.5-0.1,2,1.7,1.4c3.3-1,12.9-4.9,25.7-5.1
		c12.9,0.2,22.5,4,25.7,5.1C72.9,35.9,73.8,34.3,72.5,33.7"/>
	<path id="XMLID_356_" class="stcourone1" d="M68.9,42.6c-3-1.4-12.4-4.4-22.8-4.8c-0.1,0-0.2,0-0.2,0c-0.3,0-0.5,0-0.8,0
		c-0.3,0-0.5,0-0.8,0c0,0-0.1,0-0.2,0c-10.4,0.3-19.8,3.4-22.8,4.8c-1.8,0.8-0.4,2.4,1.5,1.8c2.8-0.9,11.1-4.1,22.3-4.3
		c11.1,0.2,19.5,3.4,22.2,4.3C69.2,44.9,70.7,43.4,68.9,42.6"/>
	<path id="XMLID_355_" class="stcourone1" d="M19.5,36.7c1-0.4,8.2-2.8,10.4-3.3c-0.8,1.1-2.1,3.2-2.1,3.2l3.6,1.5c0,0-7.7,2.3-8.9,2.9
		c0.2-0.7,1.7-3.2,1.7-3.2L19.5,36.7z"/>
	<path id="XMLID_354_" class="stcourone1" d="M31.9,32.8c1.8-0.6,8.5-1.4,11.2-1.4c-1.4,1.1-3.2,2.8-3.2,2.8l3.1,2.2
		c-2.1,0.1-7.8,0.7-9.5,1.1c0.3-0.5,2.1-2.9,2.1-2.9L31.9,32.8z"/>
	<path id="XMLID_353_" class="stcourone1" d="M45.5,31.4c2.1-0.1,9.3,0.8,10.3,1c-1.4,0.8-3.6,1.9-3.6,1.9l3.1,2.9c-2.1-0.5-7.2-1-9.8-1
		c0.5-0.3,2.7-2.3,2.7-2.3L45.5,31.4z"/>
	<path id="XMLID_352_" class="stcourone1" d="M59.6,33.2c1.6,0.3,8.5,2.4,9.6,2.9c-1.6,0.4-3.7,0.9-3.7,0.9l2.6,3.8
		c-2.2-1.1-7.3-2.6-9.2-2.9c1.4-0.6,3.5-1.6,3.5-1.6L59.6,33.2z"/>
	<path id="XMLID_351_" class="stcourone1" d="M19.6,37.7c0,0.2-0.1,1.6,0.2,2c0.3,0.4,1.6,1.5,1.6,1.5l1.6-2.8L19.6,37.7z"/>
	<path id="XMLID_350_" class="stcourone1" d="M70.1,36.7c0,0.2,0.1,1.6-0.2,2c-0.3,0.4-1.3,1.3-1.3,1.3l-1.4-2.5L70.1,36.7z"/>
	<polygon id="XMLID_349_" class="stcourone1" points="31.3,33.9 29.8,36.1 32.2,37 33.8,35.2 	"/>
	<polygon id="XMLID_348_" class="stcourone1" points="42,34 44.1,32.2 46,33.9 44.1,35.4 	"/>
	<polygon id="XMLID_347_" class="stcourone1" points="54.8,34.8 57.8,33.3 59.6,35.6 57,36.8 	"/>
	<path id="XMLID_346_" class="stcourone1" d="M24.9,10.9c0,1.6-1.3,2.9-2.8,2.9c-1.6,0-2.8-1.3-2.8-2.9c0-1.6,1.3-2.8,2.8-2.8
		C23.7,8.1,24.9,9.3,24.9,10.9"/>
	<path id="XMLID_345_" class="stcourone1" d="M35.9,7.7c0,1.6-1.3,2.8-2.8,2.8c-1.6,0-2.8-1.3-2.8-2.8c0-1.6,1.3-2.8,2.8-2.8
		C34.6,4.8,35.9,6.1,35.9,7.7"/>
	<path id="XMLID_344_" class="stcourone1" d="M46.7,4.8c0,1.6-1.3,2.8-2.8,2.8c-1.6,0-2.8-1.3-2.8-2.8c0-1.6,1.3-2.9,2.8-2.9
		C45.4,1.9,46.7,3.2,46.7,4.8"/>
	<path id="XMLID_343_" class="stcourone1" d="M58.2,6.1c0,1.6-1.3,2.9-2.9,2.9c-1.6,0-2.8-1.3-2.8-2.9c0-1.6,1.3-2.8,2.8-2.8
		C56.9,3.3,58.2,4.5,58.2,6.1"/>
	<path id="XMLID_342_" class="stcourone1" d="M68.5,8.8c0,1.6-1.3,2.9-2.8,2.9c-1.6,0-2.8-1.3-2.8-2.9c0-1.6,1.3-2.8,2.8-2.8
		C67.3,5.9,68.5,7.2,68.5,8.8"/>
</g>
</svg>
