<?xml version="1.0" encoding="utf-8"?>
<!-- Generator: Adobe Illustrator 19.0.0, SVG Export Plug-In . SVG Version: 6.00 Build 0)  -->
<svg version="1.1" id="fleche" xmlns="http://www.w3.org/2000/svg" xmlns:xlink="http://www.w3.org/1999/xlink" x="0px" y="0px"
	 viewBox="0 0 11 19.1" style="enable-background:new 0 0 11 19.1;" xml:space="preserve">
<style type="text/css">
	.st0{fill:#579FB8;}
</style>
<g>
	<path class="st0" d="M6.3,15.6c-1.9-2-3.5-3.7-5-5.3C1,9.9,0.9,9.7,0.9,9.5c0-0.2,0.4-0.7,1.2-1.5c0.8-0.8,1.7-1.8,2.8-2.9
		C5.2,4.7,6,3.8,7.2,2.5c1.2-1.3,1.9-2,2.1-2c0.2,0,0.3,0.1,0.6,0.4c0.2,0.3,0.3,0.6,0.3,0.8c0,0.3-0.9,1.6-2.6,3.9
		C5.8,8.1,5,9.4,5,9.6c0,0.2,0.9,1.5,2.6,3.8c1.7,2.3,2.6,3.6,2.6,3.8c0,0.2-0.1,0.5-0.3,0.8c-0.2,0.3-0.4,0.4-0.6,0.4
		C9.1,18.6,8.1,17.6,6.3,15.6z"/>
</g>
</svg>
