<?xml version="1.0" encoding="utf-8"?>
<!-- Generator: Adobe Illustrator 19.0.0, SVG Export Plug-In . SVG Version: 6.00 Build 0)  -->
<svg version="1.1" id="Calque_1" xmlns="http://www.w3.org/2000/svg" xmlns:xlink="http://www.w3.org/1999/xlink" x="0px" y="0px"
	 viewBox="0 0 81.5 44.7" style="enable-background:new 0 0 81.5 44.7;" xml:space="preserve">
<style type="text/css">
	.st0{fill:#3C3C3B;}
</style>
<g id="XMLID_54_">
	<path id="XMLID_55_" class="st0" d="M78.2,31.9c-2.8-2.3-8.6-2.8-14.7,0.9c-5.9,3.6-10.1,5.4-14.6,5.4c-4.4,0-9.3-4.1-12.8-7.7
		c7.8-0.3,13.9-3.9,15.4-10.8c0.9-4.7-0.2-9.3-2.8-13c-1.7-2.5-5.3-5.3-9.4-5.8c-2.9-0.4-5,0.1-7.2,2c-3.6,3-4.2,6.1-4.2,8.2
		c0,2.6,0.8,5.2,2.7,6.8c1.9,1.5,6.4,2.7,9.1,0.5c2.6-2.2,3.1-6.3,0.4-8.2c-1.7-1.2-3.2-1.2-4.8,0C34.4,10.9,34,12,34.1,13
		c0.1,0.9,0.5,1.6,1.2,1.9c0.2,0.1,0.7,0.2,0.9,0.2c0.8,0,1.5-0.7,1.5-1.5c0-0.8-0.2-1.3-1-1.5c-0.8-0.2-1.2,0.5-1.3,0.5
		c-0.2-1.9,2.6-2.2,3.5-1.3c1.1,1.1,1,3,0.2,4.7c-0.3,0.8-1.2,1.4-2.4,1.6c-1.9,0.5-4,0-5.3-1.1c-1.2-1-2.5-2.9-2.5-5.3
		c0-2.4,0.5-5.2,2.9-7.2c1.8-1.5,4.8-2.5,7.1-2.1c3.5,0.5,7.2,3.8,8.7,6c2.3,3.3,2.7,7,1.8,11.2c-1.5,7.1-6,9.8-14.1,10.5
		c-3.4-3.9-5.1-6.5-10.2-6.6c-5.1-0.1-7.4,2.8-10.8,5.4c-5,3.9-7.5,3.5-9.7,2.8c-1.9-0.6-3.4-2.4-2.6-4.3c0.3,0.5,1.4,0.9,1.5,0.9
		c0.8,0,1.5-0.7,1.5-1.5c0-0.8-0.7-1.5-1.5-1.5c-0.3,0-0.6,0.1-0.9,0.3c0,0-0.1,0.1-0.2,0.1c0,0,0,0,0,0c-1.2,1.1-1.8,2.6-1.7,4
		c0.1,1.5,1.2,3.9,5.1,4.2c4.1,0.3,8.3-3.6,8.3-3.6c-2.1,5.7,1.4,10.3,6.2,10.3c0.1,0,0.2,0,0.3,0c2.4,0,3.6-0.6,4.6-1.8
		c1-1.2,1.6-2.3,1.6-3.5c0-2.5-1.6-3.5-2.9-3.5c-0.8,0-1.5,0.7-1.5,1.5c0,0.8,0.7,1.5,1.5,1.5c0.3,0,1.1-0.3,1.6-1.1
		c0.6,1.5-0.7,3.3-1.2,3.9c-0.6,0.6-2.1,1-4,0.8c-3.1-0.4-5.3-2.2-5.5-5.7c-0.2-3,1.7-4.5,2.6-5.2c1.9-1.3,4.5-2.5,8.3-2.1
		c3.4,0.5,5.5,2.3,8.7,5.7c0,0,0,0.1,0.1,0.1c4,4.3,8.2,9.6,13.7,9.6c4.9,0,9-2.9,15.3-6.8c5.2-3.2,10.8-2.7,13.2-0.3
		c2.1,2,3,4.7,2,6.7c-1.3,2.5-3.6,3-5.3,2.4c-1.7-0.6-2.8-3.2-1.3-4.5c0.1,1,1.1,1.8,1.8,1.8c1,0,1.8-0.8,1.8-1.8
		c0-1-0.8-1.8-1.8-1.8c-4.1-0.3-4.7,5.8-1.3,7.5c3.3,1.6,5.6-0.5,7-3.2C81.2,37.4,81.1,34.3,78.2,31.9z"/>
</g>
</svg>
