<?xml version="1.0" encoding="utf-8"?>
<!-- Generator: Adobe Illustrator 19.0.0, SVG Export Plug-In . SVG Version: 6.00 Build 0)  -->
<svg version="1.1" id="loading" xmlns="http://www.w3.org/2000/svg" xmlns:xlink="http://www.w3.org/1999/xlink" x="0px" y="0px"
	 viewBox="0 0 69.5 69.5" style="enable-background:new 0 0 69.5 69.5;" xml:space="preserve">
<style type="text/css">
	.stlodin0{fill:#FFFFFF;}
	.stlodin1{fill:none;stroke:#FFFFFF;stroke-width:2;stroke-miterlimit:10;}
	.stlodin2{fill:none;stroke:#FFFFFF;stroke-width:2;stroke-miterlimit:10;stroke-dasharray:0.9998,3.9991;}
</style>
<g id="XMLID_218_">
	<path id="XMLID_219_" class="stlodin0" d="M41,33.7c-2,1.9-3.7,3.5-5.3,5c-0.3,0.3-0.6,0.4-0.7,0.4c-0.2,0-0.7-0.4-1.5-1.2
		c-0.8-0.8-1.8-1.7-2.9-2.8c-0.4-0.4-1.3-1.2-2.6-2.4c-1.3-1.2-2-1.9-2-2.1c0-0.2,0.1-0.3,0.4-0.6c0.3-0.2,0.6-0.3,0.8-0.3
		c0.3,0,1.6,0.9,3.9,2.6c2.4,1.7,3.7,2.6,3.9,2.6c0.2,0,1.5-0.9,3.8-2.6c2.3-1.7,3.6-2.6,3.8-2.6c0.2,0,0.5,0.1,0.8,0.3
		c0.3,0.2,0.4,0.4,0.4,0.6C44,30.9,43,31.9,41,33.7z"/>
</g>
<g id="XMLID_212_">
	<g id="XMLID_63_">
		<path id="XMLID_66_" class="stlodin1" d="M4.2,34.5c0,0.2,0,0.3,0,0.5"/>
		<path id="XMLID_65_" class="stlodin2" d="M4.5,39c2.2,14.9,15,26.3,30.4,26.3c17,0,30.8-13.8,30.8-30.8c0-16.2-12.4-29.4-28.3-30.7"/>
		<path id="XMLID_64_" class="stlodin1" d="M35.5,3.7c-0.2,0-0.3,0-0.5,0"/>
	</g>
</g>
</svg>
