<?xml version="1.0" encoding="utf-8"?>
<!-- Generator: Adobe Illustrator 19.0.0, SVG Export Plug-In . SVG Version: 6.00 Build 0)  -->
<svg version="1.1" id="Calque_1" xmlns="http://www.w3.org/2000/svg" xmlns:xlink="http://www.w3.org/1999/xlink" x="0px" y="0px"
	 viewBox="-178 329.6 239 182.3" style="enable-background:new -178 329.6 239 182.3;" xml:space="preserve">
<style type="text/css">
	.stlogomenu0{fill:#3C3C3B;}
	.stlogomenu1{fill:#C6A14B;}
	.stlogomenu2{fill:#FFFFFF;}
	.stlogomenu3{fill:#E6332A;}
</style>
<g id="titremenu">
	<g>
		<g>
			<path class="stlogomenu0" d="M-106,464.7c0.2-0.2,0.3-0.4,0.5-0.7c0.2-0.3,0.4-0.5,0.5-0.5c0.2,0,0.3,0,0.3,0.1s0.1,0.3,0.1,0.7l0.2,3.6
				v0.5c0,0.3-0.1,0.5-0.4,0.5c-0.2,0-0.3-0.1-0.4-0.4c-0.3-0.8-0.9-1.7-1.7-2.7c-0.8-1-1.9-1.5-3.1-1.5c-0.9,0-1.7,0.3-2.3,0.8
				c-0.6,0.5-1.1,1.3-1.5,2.2s-0.5,2.1-0.5,3.4c0,2.2,0.5,4,1.5,5.3c1,1.3,2.2,2,3.7,2c1.6,0,3-1,4.4-2.9c0.2-0.2,0.3-0.3,0.5-0.3
				s0.4,0.1,0.4,0.4c0,0.5-0.6,1.3-1.8,2.4c-1.2,1.1-2.7,1.7-4.6,1.7c-2.4,0-4.3-0.7-5.7-2.2c-1.4-1.5-2.1-3.3-2.1-5.5
				c0-2.2,0.7-4.1,2.1-5.7c1.4-1.6,3.2-2.4,5.4-2.4C-109.1,463.5-107.5,463.9-106,464.7z"/>
		</g>
		<g>
			<path class="stlogomenu0" d="M-89.9,470.7l0.1-3.5c0-1-0.1-1.7-0.3-2.1c-0.2-0.4-0.6-0.6-1.3-0.7c-0.5,0-0.8-0.1-0.8-0.4
				c0-0.2,0.2-0.4,0.5-0.4c0.4,0,0.9,0,1.6,0.1c0.9,0,1.5,0.1,1.6,0.1c1.3,0,2.5,0,3.4-0.1c0.2,0,0.3,0,0.4,0c0.3,0,0.4,0.1,0.4,0.3
				c0,0.2-0.2,0.4-0.5,0.4c-0.5,0-0.9,0.1-1.2,0.2c-0.2,0.1-0.4,0.4-0.5,0.6c-0.1,0.3-0.2,1.3-0.2,3.1c-0.1,1.7-0.1,3-0.1,3.6
				c0,2.7,0,4.4,0.1,5c0,0.6,0.2,1,0.4,1.3c0.2,0.2,0.7,0.4,1.2,0.4c0.4,0,0.5,0.1,0.5,0.3c0,0.2-0.1,0.3-0.4,0.3
				c-0.1,0-0.3,0-0.6,0l-3.2-0.1c-0.2,0-0.6,0-1.1,0c-1,0.1-1.7,0.1-2,0.1s-0.4-0.1-0.4-0.3c0-0.2,0.1-0.3,0.3-0.3
				c0.6,0,1-0.1,1.2-0.3c0.3-0.2,0.4-0.6,0.6-1.3c0.1-0.7,0.2-2.1,0.2-4.2c0-0.2,0-0.5,0-1c-1.4,0-2.5-0.1-3.6-0.1
				c-1.2,0-2.1,0-2.8,0.1c-0.1,1.5-0.1,3-0.1,4.2c0,0.9,0.1,1.5,0.3,1.9c0.2,0.3,0.6,0.5,1.2,0.6c0.3,0,0.5,0.1,0.5,0.3
				c0,0.2-0.2,0.3-0.5,0.3c-0.1,0-0.3,0-0.5,0c-0.9-0.1-1.9-0.1-2.9-0.1c-0.5,0-1.1,0-1.9,0.1c-0.6,0-0.9,0.1-1.1,0.1
				c-0.4,0-0.6-0.1-0.6-0.3c0-0.2,0.2-0.3,0.5-0.3c0.6-0.1,1-0.2,1.2-0.4c0.2-0.2,0.4-0.6,0.5-1.1s0.2-2.1,0.2-4.6s0-3.9,0-4.1
				c0-1.1,0-2-0.1-2.5s-0.2-0.9-0.4-1c-0.2-0.2-0.5-0.3-0.9-0.3c-0.3,0-0.5-0.1-0.6-0.1s-0.1-0.1-0.1-0.3c0-0.2,0.1-0.3,0.4-0.3
				s0.9,0,1.7,0.1c0.4,0,0.9,0,1.5,0l3.3-0.1c0.4,0,0.6,0.1,0.6,0.4c0,0.2-0.2,0.3-0.5,0.3c-0.5,0-0.9,0.1-1.1,0.2
				c-0.2,0.1-0.3,0.4-0.4,0.7c-0.1,0.4-0.1,1.1-0.1,2.1v3.3c1,0.1,2,0.1,3.2,0.1C-92,470.8-90.9,470.8-89.9,470.7z"/>
		</g>
		<g>
			<path class="stlogomenu0" d="M-75.1,463.3h0.8c1,2.2,2.5,5.7,4.3,10.4c0.9,2.2,1.4,3.5,1.8,4c0.3,0.5,0.8,0.7,1.5,0.8
				c0.2,0,0.3,0.1,0.3,0.3c0,0.2-0.1,0.4-0.4,0.4c-0.2,0-0.6,0-1.3-0.1c-0.8-0.1-1.5-0.1-2-0.1s-1.2,0-2.1,0.1
				c-0.6,0-1.1,0.1-1.3,0.1c-0.4,0-0.5-0.1-0.5-0.3c0-0.2,0.1-0.3,0.4-0.3c0.9-0.1,1.4-0.5,1.4-1.1c0-0.3-0.1-0.9-0.4-1.7
				c-0.3-0.8-0.6-1.6-0.9-2.3c-0.5,0-0.9,0-1.2,0c-1.6,0-2.8,0-3.6,0c-0.7,1.8-1,3-1,3.6c0,0.4,0.2,0.8,0.5,1
				c0.3,0.2,0.7,0.4,1.1,0.4c0.3,0,0.4,0.2,0.4,0.4c0,0.2-0.2,0.3-0.5,0.3c-0.1,0-0.4,0-1-0.1c-0.7-0.1-1.2-0.1-1.5-0.1
				c-0.6,0-1.2,0-1.7,0.1c-0.1,0-0.3,0-0.3,0c-0.3,0-0.4-0.1-0.4-0.3c0-0.2,0.1-0.3,0.3-0.3c0.5-0.1,0.8-0.3,1.1-0.5
				c0.3-0.2,0.5-0.6,0.9-1.1c0.3-0.5,0.7-1.4,1.1-2.6C-78.4,471.5-77,467.9-75.1,463.3z M-75.9,467.3l-2,5.2l4.1-0.1
				c-0.2-0.6-0.5-1.4-1-2.5S-75.6,467.9-75.9,467.3z"/>
		</g>
		<g>
			<path class="stlogomenu0" d="M-66.5,463.6c4,0.1,7,0.2,8.9,0.2c1.5,0,3.1,0,4.8-0.1c0.6,0,1.1,0,1.5,0c0.2,0,0.4,0,0.8,0
				c0.1,0.3,0.1,1,0.2,2l0.2,1.8c0,0.3-0.1,0.5-0.4,0.5c-0.2,0-0.4-0.2-0.6-0.6c-0.3-0.6-0.7-1.2-1.1-1.6c-0.5-0.4-1-0.7-1.6-0.9
				c-0.6-0.1-1.6-0.2-3-0.2c-0.1,1.2-0.2,2.7-0.2,4.4c0,1.8,0,3.6,0.1,5.2c0.1,1.7,0.2,2.7,0.3,3.1c0.1,0.3,0.3,0.6,0.5,0.8
				c0.2,0.2,0.8,0.3,1.7,0.3c0.3,0,0.5,0.1,0.5,0.3c0,0.2-0.1,0.3-0.4,0.3h-0.3L-57,479c-1.9,0-3,0-3.4,0l-1.5,0.1
				c-0.1,0-0.4,0-0.7,0c-0.2,0-0.3-0.1-0.3-0.3c0-0.2,0.1-0.3,0.4-0.3c0.7,0,1.2-0.1,1.6-0.4c0.3-0.3,0.6-0.7,0.6-1.4
				c0.1-0.6,0.1-2,0.1-4c0-3.3-0.1-5.9-0.3-8c-1.3,0-2.2,0.1-2.8,0.2c-0.6,0.1-1.1,0.4-1.6,0.9s-1,1.1-1.3,1.8
				c-0.1,0.3-0.3,0.4-0.5,0.4c-0.3,0-0.4-0.1-0.4-0.3c0-0.1,0-0.6,0.1-1.5C-66.7,465-66.6,464.2-66.5,463.6z"/>
		</g>
		<g>
			<path class="stlogomenu0" d="M-35.1,463.8c0.2,1.2,0.5,2.4,0.7,3.6c0,0.2-0.1,0.3-0.3,0.3c-0.1,0-0.3-0.1-0.4-0.3
				c-0.8-1.2-1.5-1.9-2.2-2.3s-1.6-0.6-2.9-0.6c-0.7,0-1.4,0.1-2,0.2c-0.1,1.4-0.2,2.9-0.2,4.5c0,0.3,0,0.7,0,1.4h0.9
				c0.5,0,1-0.1,1.4-0.2c0.4-0.2,0.7-0.5,1-1s0.4-0.8,0.5-0.9c0.1-0.2,0.2-0.4,0.4-0.4s0.3,0.1,0.3,0.3c0,0.1,0,0.1,0,0.2
				c-0.1,0.5-0.1,1.9-0.1,4.3c0,0.3,0,0.6,0.1,0.9c0,0.1,0,0.1,0,0.2c0,0.2-0.1,0.3-0.4,0.3c-0.2,0-0.3-0.2-0.4-0.6
				c-0.2-0.7-0.5-1.3-1.1-1.6c-0.5-0.4-1.4-0.6-2.6-0.6c0,1.3-0.1,2.1-0.1,2.6c0,1.8,0,2.8,0.1,3.1c0.1,0.3,0.2,0.6,0.6,0.8
				c0.3,0.2,0.9,0.3,1.7,0.3c2.9,0,4.9-0.9,5.8-2.8c0.1-0.3,0.3-0.4,0.4-0.4c0.2,0,0.3,0.1,0.3,0.3c0,0.1,0,0.3-0.1,0.5l-0.7,3.3
				h-4.2c-1.2,0-2.3,0-3.3-0.1c-1,0-1.8-0.1-2.4-0.1c-0.6,0-1.6,0-2.9,0.1c-0.2,0-0.3,0-0.4,0c-0.4,0-0.5-0.1-0.5-0.4
				c0-0.2,0.1-0.3,0.4-0.3c0.7,0,1.2-0.2,1.5-0.6c0.3-0.4,0.4-1.2,0.4-2.5l0.1-6c0-2,0-3.3-0.1-3.8c0-0.5-0.2-0.8-0.4-0.9
				c-0.2-0.2-0.6-0.3-1.2-0.4c-0.2,0-0.4-0.1-0.4-0.3c0-0.2,0.1-0.3,0.4-0.3l2.8,0.1L-35.1,463.8z"/>
		</g>
		<g>
			<path class="stlogomenu0" d="M-24,463.3h0.8c1,2.2,2.5,5.7,4.3,10.4c0.9,2.2,1.4,3.5,1.8,4c0.3,0.5,0.8,0.7,1.5,0.8
				c0.2,0,0.3,0.1,0.3,0.3c0,0.2-0.1,0.4-0.5,0.4c-0.2,0-0.6,0-1.3-0.1c-0.8-0.1-1.5-0.1-2-0.1s-1.2,0-2.1,0.1
				c-0.6,0-1.1,0.1-1.3,0.1c-0.4,0-0.5-0.1-0.5-0.3c0-0.2,0.1-0.3,0.4-0.3c0.9-0.1,1.4-0.5,1.4-1.1c0-0.3-0.1-0.9-0.4-1.7
				c-0.3-0.8-0.6-1.6-0.9-2.3c-0.5,0-0.9,0-1.2,0c-1.6,0-2.8,0-3.6,0c-0.7,1.8-1,3-1,3.6c0,0.4,0.2,0.8,0.5,1
				c0.3,0.2,0.7,0.4,1.1,0.4c0.3,0,0.4,0.2,0.4,0.4c0,0.2-0.2,0.3-0.5,0.3c-0.1,0-0.4,0-1-0.1c-0.7-0.1-1.2-0.1-1.5-0.1
				c-0.6,0-1.2,0-1.7,0.1c-0.1,0-0.3,0-0.3,0c-0.3,0-0.4-0.1-0.4-0.3c0-0.2,0.1-0.3,0.3-0.3c0.5-0.1,0.8-0.3,1.1-0.5
				c0.3-0.2,0.5-0.6,0.9-1.1c0.3-0.5,0.7-1.4,1.1-2.6C-27.4,471.5-25.9,467.9-24,463.3z M-24.9,467.3l-2,5.2l4.1-0.1
				c-0.2-0.6-0.5-1.4-1-2.5C-24.3,468.8-24.6,467.9-24.9,467.3z"/>
		</g>
		<g>
			<path class="stlogomenu0" d="M-14.6,463.6l3.7,0.1c0.4,0,0.8,0,1.2-0.1c0.7-0.1,1.3-0.1,1.7-0.1s0.6,0.1,0.6,0.3c0,0.2-0.2,0.3-0.5,0.3
				c-0.6,0-1,0.2-1.2,0.6c-0.3,0.4-0.4,1.1-0.5,2.3c-0.1,1.1-0.1,2.4-0.1,3.8c0,2.2,0.1,3.7,0.3,4.4c0.2,0.8,0.7,1.4,1.3,1.8
				c0.7,0.4,1.6,0.7,2.7,0.7c1.1,0,2-0.2,2.6-0.7s1-1.3,1.2-2.3c0.2-1.1,0.3-3,0.3-5.8c0-1.7-0.1-2.8-0.4-3.5
				c-0.3-0.6-0.7-1-1.3-1.1c-0.5,0-0.7-0.2-0.7-0.4c0-0.2,0.2-0.3,0.6-0.3c0.2,0,0.5,0,0.9,0.1c0.4,0,0.9,0.1,1.4,0.1
				c0.4,0,0.9,0,1.4-0.1c0.4,0,0.7,0,0.8,0c0.4,0,0.6,0.1,0.6,0.3c0,0.2-0.1,0.3-0.4,0.3c-0.4,0-0.7,0.2-1,0.5
				c-0.3,0.3-0.5,0.8-0.6,1.6c-0.1,0.7-0.1,2.6-0.1,5.7c0,2-0.2,3.5-0.6,4.4c-0.4,0.9-1.1,1.6-2.1,2.1s-2.2,0.7-3.7,0.7
				c-1.2,0-2.1-0.1-3-0.3c-0.8-0.2-1.5-0.5-2-0.9s-0.9-0.9-1.1-1.5c-0.2-0.6-0.3-1.4-0.3-2.5v-6.2c0-0.9,0-1.6-0.1-2.1
				c-0.1-0.6-0.2-0.9-0.5-1.1c-0.2-0.2-0.5-0.3-0.9-0.3c-0.3,0-0.4-0.1-0.5-0.1c-0.1-0.1-0.1-0.1-0.1-0.2
				C-15.1,463.7-14.9,463.6-14.6,463.6z"/>
		</g>
	</g>
	<g>
		<g>
			<path class="stlogomenu0" d="M-161.3,494.7l0.6,3.5v0.2c0,0.2-0.1,0.3-0.2,0.3c-0.1,0-0.2-0.1-0.3-0.3c-0.6-0.9-1.3-1.6-2-2.2
				c-0.7-0.5-2-0.8-3.6-0.8c-1.2,0-1.8,0.1-1.9,0.4c-0.1,0.2-0.2,2.1-0.2,5.7c0.9,0,1.5-0.1,2-0.2s0.8-0.3,1.1-0.6
				c0.3-0.3,0.5-0.9,0.7-1.7c0.1-0.2,0.1-0.3,0.3-0.3s0.3,0.1,0.3,0.4l-0.1,3.7c0,1.3-0.1,2-0.1,2.1s-0.1,0.1-0.3,0.1
				s-0.3-0.2-0.3-0.5c-0.1-0.7-0.3-1.3-0.7-1.7s-1.3-0.6-2.8-0.6v4.3c0,0.8,0.1,1.4,0.2,1.8c0.1,0.4,0.3,0.6,0.5,0.7
				c0.2,0.1,0.6,0.2,1.1,0.2c0.4,0,0.6,0,0.7,0.1c0.1,0,0.1,0.1,0.1,0.3c0,0.2-0.2,0.4-0.5,0.4s-0.9,0-1.8-0.1
				c-0.8,0-1.3-0.1-1.7-0.1l-3.8,0.2c-0.4,0-0.6-0.1-0.6-0.3c0-0.2,0.2-0.3,0.7-0.3c0.8,0,1.3-0.4,1.4-1.1c0.2-0.7,0.2-3.1,0.2-7.3
				c0-2.7-0.1-4.4-0.3-4.9c-0.2-0.5-0.7-0.8-1.4-0.8h-0.3c-0.3,0-0.4-0.1-0.4-0.3c0-0.2,0.2-0.3,0.7-0.3L-161.3,494.7L-161.3,494.7z
				"/>
		</g>
		<g>
			<path class="stlogomenu0" d="M-150,494.4c1.6,0,2.9,0.3,4.1,0.9c1.2,0.6,2.1,1.5,2.8,2.7c0.7,1.2,1.1,2.5,1.1,3.9c0,2.2-0.8,4.1-2.4,5.7
				c-1.6,1.7-3.6,2.5-6,2.5c-2.2,0-4-0.7-5.6-2.1c-1.5-1.4-2.3-3.2-2.3-5.6c0-2.2,0.8-4.1,2.4-5.7
				C-154.3,495.2-152.3,494.4-150,494.4z M-145.9,502.3c0-2.3-0.4-4.1-1.2-5.3c-0.8-1.2-1.8-1.8-3-1.8c-1.2,0-2.2,0.6-3,1.8
				c-0.8,1.2-1.2,2.9-1.2,5.3c0,2.2,0.4,4,1.1,5.2c0.8,1.2,1.8,1.9,3.1,1.9c1.1,0,2.1-0.6,3-1.7
				C-146.3,506.5-145.9,504.7-145.9,502.3z"/>
		</g>
		<g>
			<path class="stlogomenu0" d="M-138.8,494.5l3.7,0.1c0.4,0,0.8,0,1.2-0.1c0.7-0.1,1.3-0.1,1.7-0.1s0.6,0.1,0.6,0.3c0,0.2-0.2,0.3-0.5,0.3
				c-0.6,0-1,0.2-1.2,0.6c-0.3,0.4-0.4,1.1-0.5,2.3c-0.1,1.1-0.1,2.4-0.1,3.8c0,2.2,0.1,3.7,0.3,4.4c0.2,0.8,0.7,1.4,1.3,1.8
				c0.7,0.4,1.6,0.7,2.7,0.7c1.1,0,2-0.2,2.6-0.7s1-1.3,1.2-2.3c0.2-1,0.3-3,0.3-5.8c0-1.7-0.1-2.8-0.4-3.5c-0.3-0.6-0.7-1-1.3-1.1
				c-0.5,0-0.7-0.2-0.7-0.4c0-0.2,0.2-0.3,0.6-0.3c0.2,0,0.5,0,0.9,0.1c0.4,0,0.9,0.1,1.4,0.1c0.4,0,0.9,0,1.4-0.1
				c0.4,0,0.7,0,0.8,0c0.4,0,0.6,0.1,0.6,0.3c0,0.2-0.1,0.3-0.4,0.3c-0.4,0-0.7,0.2-1,0.5c-0.3,0.3-0.5,0.8-0.6,1.6
				c-0.1,0.7-0.1,2.6-0.1,5.7c0,2-0.2,3.5-0.6,4.4c-0.4,0.9-1.1,1.6-2.1,2.1s-2.2,0.7-3.7,0.7c-1.2,0-2.1-0.1-3-0.3
				c-0.8-0.2-1.5-0.5-2-0.9s-0.9-0.9-1.1-1.5c-0.2-0.6-0.3-1.4-0.3-2.5v-6.2c0-0.9,0-1.6-0.1-2.1c-0.1-0.6-0.2-0.9-0.5-1.1
				c-0.2-0.2-0.5-0.3-0.9-0.3c-0.3,0-0.4-0.1-0.5-0.1c-0.1-0.1-0.1-0.1-0.1-0.2C-139.3,494.6-139.2,494.5-138.8,494.5z"/>
		</g>
		<g>
			<path class="stlogomenu0" d="M-111.5,502.1c1,0.1,1.9,0.5,2.6,0.9c0.7,0.5,1.2,1.4,1.5,2.9c0.3,1.3,0.7,2.2,1,2.7
				c0.4,0.4,0.9,0.7,1.5,0.7c0.4,0,0.5,0.1,0.5,0.3c0,0.2-0.3,0.3-0.9,0.3l-4.5-0.1c-0.5-0.5-0.8-1.3-0.9-2.5
				c-0.2-1.5-0.4-2.6-0.7-3.2c-0.2-0.6-0.6-1.1-1-1.3c-0.5-0.3-1-0.4-1.6-0.4c-0.2,0-0.4,0-0.7,0c0,2.7,0,4.4,0,5s0.1,1.1,0.4,1.4
				c0.2,0.3,0.7,0.4,1.3,0.5c0.3,0,0.5,0.1,0.5,0.3c0,0.2-0.1,0.3-0.4,0.3l-3.6-0.1c-0.5,0-1.1,0-1.8,0.1c-0.7,0-1.1,0.1-1.3,0.1
				c-0.3,0-0.5-0.1-0.5-0.3c0-0.2,0.1-0.3,0.4-0.3c0.4,0,0.8-0.1,1.2-0.3c0.4-0.2,0.6-1.1,0.6-2.7v-2.2V500c0-2.1-0.1-3.5-0.3-3.9
				c-0.2-0.5-0.7-0.7-1.5-0.7c-0.3,0-0.5-0.1-0.5-0.3c0-0.2,0.2-0.3,0.6-0.3c2.2,0,4,0,5.5-0.1c0.7,0,1.3-0.1,1.8-0.1
				c1.8,0,3.1,0.3,4.1,1c1,0.7,1.5,1.6,1.5,2.7c0,0.8-0.2,1.4-0.7,2s-1.1,1-1.8,1.3C-109.8,501.8-110.6,502-111.5,502.1z
				 M-114.7,501.6c0.2,0,0.4,0,0.5,0c0.7,0,1.3-0.1,2-0.4c0.7-0.2,1.2-0.7,1.4-1.2c0.3-0.6,0.4-1.1,0.4-1.8c0-1-0.3-1.7-0.9-2.3
				c-0.6-0.5-1.3-0.8-2.2-0.8c-0.4,0-0.8,0.1-1.3,0.2L-114.7,501.6L-114.7,501.6z"/>
		</g>
		<g>
			<path class="stlogomenu0" d="M-90.6,495.7c0.2-0.2,0.3-0.4,0.5-0.7c0.2-0.3,0.4-0.5,0.5-0.5c0.2,0,0.3,0,0.3,0.1s0.1,0.3,0.1,0.7l0.2,3.6
				v0.5c0,0.3-0.1,0.5-0.4,0.5c-0.2,0-0.3-0.1-0.4-0.4c-0.3-0.8-0.9-1.7-1.7-2.7c-0.8-1-1.9-1.5-3.1-1.5c-0.9,0-1.7,0.3-2.3,0.8
				c-0.6,0.5-1.1,1.3-1.5,2.2s-0.5,2.1-0.5,3.4c0,2.2,0.5,4,1.5,5.3c1,1.3,2.2,2,3.7,2c1.6,0,3-1,4.4-2.9c0.2-0.2,0.3-0.3,0.5-0.3
				s0.4,0.1,0.4,0.4c0,0.5-0.6,1.3-1.8,2.4c-1.2,1.1-2.7,1.7-4.6,1.7c-2.4,0-4.3-0.7-5.7-2.2c-1.4-1.5-2.1-3.3-2.1-5.5
				c0-2.2,0.7-4.1,2.1-5.7c1.4-1.6,3.2-2.4,5.4-2.4C-93.8,494.4-92.2,494.8-90.6,495.7z"/>
		</g>
		<g>
			<path class="stlogomenu0" d="M-79.2,494.2h0.8c1,2.2,2.5,5.7,4.3,10.4c0.9,2.2,1.4,3.5,1.8,4c0.3,0.5,0.8,0.7,1.5,0.8
				c0.2,0,0.3,0.1,0.3,0.3c0,0.2-0.1,0.4-0.4,0.4c-0.2,0-0.6,0-1.3-0.1c-0.8-0.1-1.5-0.1-2-0.1s-1.2,0-2.1,0.1
				c-0.6,0-1.1,0.1-1.3,0.1c-0.4,0-0.5-0.1-0.5-0.3c0-0.2,0.1-0.3,0.4-0.3c1-0.1,1.4-0.5,1.4-1.1c0-0.3-0.1-0.9-0.4-1.7
				c-0.3-0.8-0.6-1.6-0.9-2.3c-0.5,0-0.9,0-1.2,0c-1.6,0-2.8,0-3.6,0c-0.7,1.8-1,3-1,3.6c0,0.4,0.2,0.8,0.5,1
				c0.3,0.2,0.7,0.4,1.1,0.4c0.3,0,0.4,0.1,0.4,0.4c0,0.2-0.2,0.3-0.5,0.3c-0.1,0-0.4,0-1-0.1c-0.7-0.1-1.2-0.1-1.5-0.1
				c-0.6,0-1.2,0-1.7,0.1c-0.1,0-0.3,0-0.3,0c-0.3,0-0.4-0.1-0.4-0.3c0-0.2,0.1-0.3,0.3-0.3c0.5-0.1,0.8-0.3,1.1-0.5
				c0.3-0.2,0.5-0.6,0.9-1.1c0.3-0.5,0.7-1.4,1.1-2.6C-82.5,502.4-81.1,498.8-79.2,494.2z M-80,498.2l-2,5.2l4.1-0.1
				c-0.2-0.6-0.5-1.4-1-2.5C-79.4,499.7-79.7,498.8-80,498.2z"/>
		</g>
		<g>
			<path class="stlogomenu0" d="M-59.6,495.1c0.1-0.1,0.2-0.3,0.3-0.5c0.1-0.2,0.2-0.4,0.4-0.4c0.2,0,0.3,0.2,0.4,0.5l0.4,3.2v0.4
				c0,0.2-0.1,0.3-0.3,0.3c-0.2,0-0.3,0-0.3-0.1c-0.1-0.1-0.2-0.3-0.4-0.7c-0.3-0.7-0.9-1.3-1.6-1.9c-0.8-0.6-1.5-0.8-2.3-0.8
				c-0.7,0-1.4,0.2-1.9,0.6c-0.5,0.4-0.7,1-0.7,1.6c0,0.5,0.2,1,0.7,1.4s1.4,0.8,2.7,1.2c2.1,0.6,3.5,1.3,4.2,2.2s1.1,1.8,1.1,2.9
				s-0.3,2-0.8,2.7c-0.5,0.7-1.2,1.3-1.9,1.7c-0.7,0.4-1.7,0.6-2.8,0.6c-0.7,0-1.3-0.1-2-0.3c-0.7-0.2-1.4-0.5-2.2-0.9
				c-0.2,0.2-0.3,0.4-0.4,0.7c-0.1,0.3-0.3,0.5-0.5,0.5s-0.3-0.2-0.3-0.6l-0.3-4.2c0-0.2,0-0.3,0-0.3c0-0.2,0.1-0.3,0.3-0.3
				c0.2,0,0.3,0.2,0.5,0.6c0.5,1.2,1.1,2.1,1.9,2.9c0.8,0.8,1.7,1.2,2.8,1.2c0.9,0,1.6-0.3,2.2-0.8s0.8-1.2,0.8-1.8
				c0-0.7-0.3-1.3-0.8-1.7c-0.5-0.5-1.4-0.9-2.8-1.4c-1.3-0.4-2.3-0.8-2.9-1.2s-1.1-0.9-1.5-1.6s-0.6-1.4-0.6-2.1
				c0-1.2,0.5-2.2,1.4-3.1c0.9-0.8,2.2-1.3,3.8-1.3C-62.2,494.3-61,494.6-59.6,495.1z"/>
		</g>
		<g>
			<path class="stlogomenu0" d="M-35.3,501.6l0.1-3.5c0-1-0.1-1.7-0.3-2.1s-0.6-0.6-1.3-0.7c-0.5,0-0.8-0.1-0.8-0.4c0-0.2,0.2-0.4,0.5-0.4
				c0.4,0,0.9,0,1.6,0.1c0.9,0,1.5,0.1,1.6,0.1c1.3,0,2.5,0,3.4-0.1c0.2,0,0.3,0,0.4,0c0.3,0,0.4,0.1,0.4,0.3c0,0.2-0.2,0.4-0.5,0.4
				c-0.5,0-0.9,0.1-1.1,0.2c-0.2,0.1-0.4,0.4-0.5,0.6c-0.1,0.3-0.2,1.3-0.2,3.1c-0.1,1.8-0.1,3-0.1,3.6c0,2.7,0,4.4,0.1,5
				c0,0.6,0.2,1,0.4,1.3c0.2,0.2,0.7,0.4,1.2,0.4c0.4,0,0.5,0.1,0.5,0.3c0,0.2-0.1,0.3-0.4,0.3c-0.1,0-0.3,0-0.6,0l-3.2-0.1
				c-0.2,0-0.6,0-1.1,0c-1.1,0.1-1.7,0.1-2,0.1s-0.4-0.1-0.4-0.3c0-0.2,0.1-0.3,0.3-0.3c0.6,0,1-0.1,1.2-0.3
				c0.3-0.2,0.4-0.6,0.6-1.3c0.1-0.7,0.2-2.1,0.2-4.2c0-0.2,0-0.5,0-1c-1.3,0-2.5-0.1-3.6-0.1c-1.2,0-2.1,0-2.8,0.1
				c-0.1,1.5-0.1,3-0.1,4.2c0,0.9,0.1,1.5,0.3,1.9c0.2,0.3,0.6,0.5,1.2,0.6c0.3,0,0.5,0.1,0.5,0.3c0,0.2-0.2,0.3-0.5,0.3
				c-0.1,0-0.3,0-0.5,0c-0.9-0.1-1.9-0.1-2.9-0.1c-0.5,0-1.1,0-1.9,0.1c-0.6,0-0.9,0.1-1.1,0.1c-0.4,0-0.6-0.1-0.6-0.3
				c0-0.2,0.2-0.3,0.5-0.3c0.6-0.1,1-0.2,1.2-0.4c0.2-0.2,0.4-0.6,0.5-1.1s0.2-2.1,0.2-4.6s0-3.9,0-4.1c0-1.1,0-2-0.1-2.5
				s-0.2-0.9-0.4-1c-0.2-0.2-0.5-0.3-0.9-0.3c-0.3,0-0.5-0.1-0.6-0.1s-0.1-0.1-0.1-0.3c0-0.2,0.1-0.3,0.4-0.3c0.3,0,0.9,0,1.7,0.1
				c0.4,0,0.9,0,1.5,0l3.3-0.1c0.4,0,0.6,0.1,0.6,0.4c0,0.2-0.2,0.4-0.5,0.4c-0.5,0-0.9,0.1-1.1,0.2c-0.2,0.1-0.3,0.4-0.4,0.7
				c-0.1,0.4-0.1,1.1-0.1,2.1v3.3c1,0.1,2,0.2,3.2,0.2C-37.4,501.7-36.3,501.7-35.3,501.6z"/>
		</g>
		<g>
			<path class="stlogomenu0" d="M-18.8,494.4c1.6,0,2.9,0.3,4.1,0.9c1.2,0.6,2.1,1.5,2.8,2.7c0.7,1.2,1.1,2.5,1.1,3.9c0,2.2-0.8,4.1-2.4,5.7
				c-1.6,1.7-3.6,2.5-6,2.5c-2.2,0-4-0.7-5.6-2.1c-1.5-1.4-2.3-3.2-2.3-5.6c0-2.2,0.8-4.1,2.4-5.7
				C-23.2,495.2-21.2,494.4-18.8,494.4z M-14.8,502.3c0-2.3-0.4-4.1-1.2-5.3c-0.8-1.2-1.8-1.8-3-1.8s-2.2,0.6-3,1.8
				c-0.8,1.2-1.2,2.9-1.2,5.3c0,2.2,0.4,4,1.1,5.2c0.8,1.2,1.8,1.9,3.1,1.9c1.1,0,2.1-0.6,3-1.7C-15.2,506.5-14.8,504.7-14.8,502.3z
				"/>
		</g>
		<g>
			<path class="stlogomenu0" d="M0.8,495.1c0.1-0.1,0.2-0.3,0.3-0.5c0.1-0.2,0.2-0.4,0.4-0.4s0.3,0.2,0.4,0.5l0.4,3.2v0.4
				c0,0.2-0.1,0.3-0.3,0.3s-0.3,0-0.3-0.1c-0.1-0.1-0.2-0.3-0.4-0.7c-0.3-0.7-0.9-1.3-1.6-1.9c-0.8-0.6-1.5-0.8-2.3-0.8
				s-1.4,0.2-1.9,0.6c-0.5,0.4-0.7,1-0.7,1.6c0,0.5,0.2,1,0.7,1.4s1.4,0.8,2.7,1.2c2.1,0.6,3.5,1.3,4.2,2.2s1.1,1.8,1.1,2.9
				s-0.3,2-0.8,2.7c-0.5,0.7-1.2,1.3-1.9,1.7S-0.9,510-2,510c-0.7,0-1.3-0.1-2-0.3c-0.7-0.2-1.4-0.5-2.2-0.9
				c-0.2,0.2-0.3,0.4-0.4,0.7c-0.1,0.3-0.3,0.5-0.5,0.5s-0.3-0.2-0.3-0.6l-0.3-4.2c0-0.2,0-0.3,0-0.3c0-0.2,0.1-0.3,0.3-0.3
				s0.3,0.2,0.5,0.6c0.5,1.2,1.1,2.1,1.9,2.9c0.8,0.8,1.7,1.2,2.8,1.2c0.9,0,1.6-0.3,2.2-0.8c0.6-0.5,0.8-1.2,0.8-1.8
				c0-0.7-0.3-1.3-0.8-1.7c-0.5-0.5-1.4-0.9-2.8-1.4c-1.3-0.4-2.3-0.8-2.9-1.2c-0.6-0.4-1.1-0.9-1.5-1.6s-0.6-1.4-0.6-2.1
				c0-1.2,0.5-2.2,1.4-3.1c0.9-0.8,2.2-1.3,3.8-1.3C-1.8,494.3-0.6,494.6,0.8,495.1z"/>
		</g>
		<g>
			<path class="stlogomenu0" d="M6.2,494.5c4,0.1,7,0.2,8.9,0.2c1.5,0,3.1,0,4.8-0.1c0.6,0,1.1,0,1.5,0c0.2,0,0.4,0,0.8,0
				c0.1,0.3,0.1,1,0.2,2l0.2,1.8c0,0.3-0.1,0.5-0.4,0.5c-0.2,0-0.4-0.2-0.6-0.6c-0.3-0.6-0.7-1.2-1.1-1.6c-0.5-0.4-1-0.7-1.6-0.9
				c-0.6-0.1-1.6-0.2-3-0.2c-0.1,1.2-0.2,2.7-0.2,4.4c0,1.8,0,3.6,0.1,5.2c0.1,1.7,0.2,2.7,0.3,3c0.1,0.3,0.3,0.6,0.5,0.8
				c0.2,0.2,0.8,0.3,1.7,0.3c0.3,0,0.5,0.1,0.5,0.3c0,0.2-0.1,0.3-0.4,0.3h-0.3l-2.4-0.1c-1.9,0-3,0-3.4,0l-1.5,0.1
				c-0.1,0-0.4,0-0.7,0c-0.2,0-0.3-0.1-0.3-0.3c0-0.2,0.1-0.3,0.4-0.3c0.7,0,1.2-0.1,1.5-0.4c0.3-0.3,0.6-0.7,0.6-1.4
				c0.1-0.6,0.1-2,0.1-4c0-3.3-0.1-5.9-0.3-8c-1.3,0-2.2,0.1-2.8,0.2c-0.6,0.1-1.1,0.4-1.6,0.9s-1,1.1-1.3,1.8
				c-0.1,0.3-0.3,0.4-0.4,0.4c-0.3,0-0.4-0.1-0.4-0.3c0-0.1,0-0.6,0.1-1.5C6,495.9,6.1,495.1,6.2,494.5z"/>
		</g>
		<g>
			<path class="stlogomenu0" d="M37.6,494.7c0.2,1.2,0.5,2.4,0.7,3.6c0,0.2-0.1,0.3-0.3,0.3c-0.1,0-0.3-0.1-0.4-0.3
				c-0.8-1.2-1.5-1.9-2.2-2.3c-0.7-0.4-1.6-0.6-2.9-0.6c-0.7,0-1.4,0.1-2,0.2c-0.1,1.4-0.2,2.9-0.2,4.5c0,0.3,0,0.7,0,1.4h0.9
				c0.5,0,1-0.1,1.4-0.2c0.4-0.2,0.7-0.5,1-1s0.4-0.8,0.5-0.9c0.1-0.2,0.2-0.4,0.4-0.4s0.3,0.1,0.3,0.3c0,0.1,0,0.1,0,0.2
				c-0.1,0.5-0.1,1.9-0.1,4.3c0,0.3,0,0.6,0.1,0.9c0,0.1,0,0.1,0,0.2c0,0.2-0.1,0.3-0.4,0.3c-0.2,0-0.3-0.2-0.4-0.6
				c-0.2-0.7-0.5-1.3-1.1-1.6c-0.5-0.4-1.4-0.6-2.6-0.6c0,1.3-0.1,2.1-0.1,2.6c0,1.8,0,2.8,0.1,3.1c0.1,0.3,0.2,0.6,0.6,0.8
				c0.3,0.2,0.9,0.3,1.7,0.3c2.9,0,4.9-0.9,5.8-2.8c0.1-0.3,0.3-0.4,0.4-0.4c0.2,0,0.3,0.1,0.3,0.3c0,0.1,0,0.3-0.1,0.5l-0.8,3.3H34
				c-1.2,0-2.3,0-3.3-0.1c-1,0-1.8-0.1-2.4-0.1c-0.6,0-1.6,0-2.9,0.1c-0.2,0-0.3,0-0.4,0c-0.4,0-0.5-0.1-0.5-0.4
				c0-0.2,0.1-0.3,0.4-0.3c0.7,0,1.3-0.2,1.5-0.6c0.3-0.4,0.4-1.2,0.4-2.5l0.1-6c0-2,0-3.3-0.1-3.8s-0.2-0.8-0.4-0.9
				c-0.2-0.2-0.6-0.3-1.2-0.4c-0.2,0-0.4-0.1-0.4-0.3c0-0.2,0.1-0.3,0.4-0.3l2.8,0.1L37.6,494.7z"/>
		</g>
		<g>
			<path class="stlogomenu0" d="M45.8,494.6c3.7,4.2,6.8,7.6,9.2,10.1c0-0.5,0-0.9,0-1v-4.6c0-1.1-0.1-1.8-0.2-2.3c-0.1-0.5-0.4-0.8-0.8-1.1
				c-0.4-0.3-0.9-0.4-1.4-0.5c-0.3,0-0.4-0.1-0.4-0.4c0-0.2,0.1-0.3,0.4-0.3c0.2,0,0.3,0,0.6,0c0.4,0,1.1,0.1,1.9,0.1
				c1.1,0,1.9,0,2.4-0.1c0.2,0,0.4,0,0.6,0c0.3,0,0.4,0.1,0.4,0.3c0,0.2-0.2,0.3-0.6,0.4c-0.5,0-0.9,0.3-1.4,0.6
				c-0.4,0.4-0.6,1.1-0.6,2.1l0.1,6.5l-0.1,4.9c0,0.4-0.1,0.6-0.4,0.6c-0.1,0-0.1,0-0.2-0.1c-0.1,0-0.6-0.6-1.6-1.6
				s-2.4-2.6-4.3-4.8c-1.9-2.1-3.2-3.7-4-4.6c0,0.2,0,2.1,0,5.8c0,1.1,0,2,0.1,2.7c0.1,0.6,0.4,1.1,0.9,1.4s1,0.4,1.4,0.4
				c0.3,0,0.4,0.1,0.4,0.3c0,0.2-0.1,0.3-0.4,0.3c-0.2,0-0.4,0-0.7,0c-0.5-0.1-1.1-0.1-1.8-0.1c-1.1,0-2,0-2.5,0.1
				c-0.3,0-0.6,0.1-0.7,0.1c-0.3,0-0.5-0.1-0.5-0.4c0-0.2,0.2-0.3,0.7-0.3c0.9-0.1,1.4-0.4,1.6-0.9c0.2-0.5,0.3-1.3,0.3-2.2
				c0-4,0-6.4-0.1-7.3c0-0.9-0.3-1.7-0.8-2.4c-0.5-0.7-1.1-1.1-1.9-1.3c-0.3-0.1-0.5-0.2-0.5-0.4c0-0.3,0.2-0.4,0.5-0.4
				c0.1,0,0.2,0,0.3,0c0.2,0,0.5,0,1,0C44,494.6,45,494.6,45.8,494.6z"/>
		</g>
	</g>
</g>
<g id="blasonmenu">
	<path d="M-59.3,427.2c-1.8-1.4-5.4-1.7-9.1,0.6c-3.7,2.3-6.2,3.3-9.1,3.3c-2.7,0-5.8-2.5-7.9-4.8c4.8-0.2,8.6-2.4,9.5-6.7
		c0.6-2.9-0.1-5.7-1.7-8.1c-1.1-1.6-3.3-3.3-5.8-3.6c-1.8-0.2-3.1,0.1-4.5,1.2c-2.3,1.9-2.6,3.8-2.6,5.1c0,1.6,0.5,3.2,1.7,4.2
		c1.1,0.9,4,1.7,5.6,0.3c1.6-1.3,1.9-3.9,0.3-5c-1.1-0.8-2-0.7-3,0c-0.6,0.4-0.8,1.1-0.7,1.7c0.1,0.5,0.3,1,0.8,1.2
		c0.1,0.1,0.4,0.1,0.6,0.1c0.5,0,0.9-0.4,0.9-0.9s-0.1-0.8-0.6-0.9c-0.5-0.1-0.8,0.3-0.8,0.3c-0.1-1.2,1.6-1.4,2.2-0.8
		c0.7,0.7,0.6,1.9,0.2,2.9c-0.2,0.5-0.7,0.8-1.5,1c-1.2,0.3-2.4,0-3.3-0.7c-0.7-0.6-1.5-1.8-1.6-3.3c0-1.5,0.3-3.2,1.8-4.5
		c1.1-0.9,3-1.5,4.4-1.3c2.2,0.3,4.4,2.3,5.4,3.7c1.4,2.1,1.7,4.3,1.1,6.9c-0.9,4.4-3.7,6-8.7,6.5c-2.1-2.4-3.2-4-6.3-4.1
		c-3.2-0.1-4.6,1.8-6.7,3.3c-3.1,2.4-4.7,2.1-6,1.7c-1.2-0.4-2.1-1.5-1.6-2.6c0.2,0.3,0.8,0.5,1,0.5c0.5,0,0.9-0.4,0.9-0.9
		s-0.4-0.9-0.9-0.9c-0.2,0-0.4,0.1-0.5,0.2c0,0-0.1,0-0.1,0.1l0,0c-0.7,0.7-1.1,1.6-1.1,2.5c0.1,0.9,0.7,2.4,3.2,2.6
		c2.6,0.2,5.2-2.2,5.2-2.2c-1.3,3.5,0.9,6.4,3.8,6.4c0.1,0,0.1,0,0.2,0c1.5,0,2.2-0.4,2.9-1.1c0.6-0.8,1-1.4,1-2.1
		c0-1.5-1-2.1-1.8-2.1c-0.5,0-0.9,0.4-0.9,0.9s0.4,0.9,0.9,0.9c0.2,0,0.7-0.2,1-0.7c0.3,1-0.4,2.1-0.8,2.4c-0.4,0.3-1.3,0.6-2.5,0.5
		c-1.9-0.2-3.2-1.4-3.4-3.5c-0.1-1.8,1-2.8,1.6-3.2c1.2-0.8,2.8-1.5,5.1-1.3c2.1,0.3,3.4,1.4,5.4,3.5c0,0,0,0.1,0.1,0.1
		c2.5,2.7,5,5.9,8.5,5.9c3,0,5.6-1.8,9.4-4.2c3.2-2,6.7-1.7,8.2-0.2c1.3,1.2,1.8,2.9,1.2,4.1c-0.8,1.6-2.2,1.9-3.3,1.5
		c-1-0.4-1.7-2-0.8-2.8c0,0.6,0.7,1.1,1.1,1.1c0.6,0,1.1-0.5,1.1-1.1s-0.5-1.1-1.1-1.1c-2.6-0.2-2.9,3.6-0.8,4.6s3.5-0.3,4.3-2
		C-57.5,430.6-57.5,428.7-59.3,427.2"/>
	<path d="M-56.5,427.2c1.8-1.4,5.4-1.7,9.1,0.6c3.7,2.3,6.2,3.3,9.1,3.3c2.7,0,5.8-2.5,7.9-4.8c-4.8-0.2-8.6-2.4-9.5-6.7
		c-0.6-2.9,0.1-5.7,1.7-8.1c1.1-1.6,3.3-3.3,5.8-3.6c1.8-0.2,3.1,0.1,4.5,1.2c2.2,1.9,2.6,3.8,2.6,5.1c0,1.6-0.5,3.2-1.7,4.2
		c-1.1,0.9-4,1.7-5.6,0.3c-1.6-1.3-1.9-3.9-0.3-5c1.1-0.8,2-0.7,3,0c0.6,0.4,0.8,1.1,0.7,1.7c-0.1,0.5-0.3,1-0.8,1.2
		c-0.1,0.1-0.4,0.1-0.6,0.1c-0.5,0-0.9-0.4-0.9-0.9s0.1-0.8,0.6-0.9c0.5-0.1,0.8,0.3,0.8,0.3c0.1-1.2-1.6-1.4-2.2-0.8
		c-0.7,0.7-0.6,1.9-0.2,2.9c0.2,0.5,0.7,0.8,1.5,1c1.1,0.3,2.4,0,3.3-0.7c0.7-0.6,1.5-1.8,1.6-3.3c0-1.5-0.3-3.2-1.8-4.5
		c-1.1-0.9-3-1.5-4.4-1.3c-2.2,0.3-4.4,2.3-5.4,3.7c-1.4,2.1-1.7,4.3-1.1,6.9c0.9,4.4,3.7,6,8.7,6.5c2.1-2.4,3.2-4,6.3-4.1
		c3.2-0.1,4.6,1.8,6.7,3.3c3.1,2.4,4.7,2.1,6,1.7c1.2-0.4,2.1-1.5,1.6-2.6c-0.2,0.3-0.8,0.5-1,0.5c-0.5,0-0.9-0.4-0.9-0.9
		s0.4-0.9,0.9-0.9c0.2,0,0.4,0.1,0.5,0.2c0,0,0.1,0,0.1,0.1l0,0c0.7,0.7,1.1,1.6,1.1,2.5c-0.1,0.9-0.7,2.4-3.2,2.6
		c-2.5,0.2-5.2-2.2-5.2-2.2c1.3,3.5-0.9,6.4-3.8,6.4c-0.1,0-0.1,0-0.2,0c-1.5,0-2.2-0.4-2.9-1.1c-0.6-0.8-1-1.4-1-2.1
		c0-1.5,1-2.1,1.8-2.1c0.5,0,0.9,0.4,0.9,0.9s-0.4,0.9-0.9,0.9c-0.2,0-0.7-0.2-1-0.7c-0.3,1,0.4,2.1,0.8,2.4
		c0.4,0.3,1.3,0.6,2.4,0.5c1.9-0.2,3.3-1.4,3.4-3.5c0.1-1.8-1-2.8-1.6-3.2c-1.2-0.8-2.8-1.5-5.1-1.3c-2.1,0.3-3.4,1.4-5.4,3.5
		c0,0,0,0.1-0.1,0.1c-2.5,2.7-5,5.9-8.5,5.9c-3,0-5.6-1.8-9.4-4.2c-3.2-2-6.7-1.7-8.2-0.2c-1.3,1.2-1.8,2.9-1.2,4.1
		c0.8,1.6,2.2,1.9,3.3,1.5c1-0.4,1.7-2,0.8-2.8c0,0.6-0.7,1.1-1.1,1.1c-0.6,0-1.1-0.5-1.1-1.1s0.5-1.1,1.1-1.1
		c2.6-0.2,2.9,3.6,0.8,4.6s-3.5-0.3-4.3-2C-58.4,430.6-58.3,428.7-56.5,427.2"/>
	<g>
		<path d="M-75.6,340.8c0,0.9,0.7,1.6,1.8,2.4c1.1,0.7,1.6,1.5,1.9,1.1s-0.2-3.5-1.1-4.9c0.4-0.6,0.9-1,0.9-1c0.4,1.3,2.2,3.5,3,4.2
			c0.7,0.7,1.6,0.7,1.3-0.6c-0.2-1.3-0.7-3.4-1.1-4.1c0.1-0.4,0.9-0.8,0.9-0.8c0.4,1,1.8,3.5,2.8,4.3c0.9,0.8,1.4,0.5,1.4-0.5
			s0-3.9,0-4.8c-0.1-0.9,1-0.9,1-0.9c0.2,1.3,1.1,3.7,1.5,4.8c0.4,1.2,1.4,2.1,1.8-0.1s0.7-4.3,0.7-5.1c0.2-0.1,1.1-0.1,1.1-0.1
			c0.3,2.2,0.7,3.7,0.9,4.7c0.2,1.1,1,2.4,1.7,0.5s1.4-3.4,1.6-4.6c0.3,0.1,0.7,0.2,0.7,0.2c-0.2,2.2-0.4,3.6-0.4,5
			c0,1.5,1,1.2,1.6,0.2c0.7-1,2-2.8,2.7-4.1c0.4,0,1,0.4,1,0.4c-0.4,1.5-0.9,3.2-1,4.6c-0.1,1.4,0.6,1.3,1.2,0.6
			c0.6-0.7,2.7-2.2,3.3-3.4c1.1,0.1,0.6,0.4,0.6,0.4c-0.6,1.6-0.9,2.9-1.1,4c-0.2,1.1,0.2,0.9,0.9,0.6c0.7-0.4,3.3-1.6,3.7-2.7
			c0.4-1.1,0.6,0,0.6,0l0.4,1.1c-0.7-0.1-1.3,0.6-2.2,1.6s-2.5,2.8-2.5,2.8c0.3,0.4,0.6,1.4,0.2,2.1c-0.4,0.7-1.2,0.3-1.4,0.8
			c-0.2,0.4,0.4,0.6,0.2,1s-0.9,0-0.8,0.6c0,0.6,0.7,1.4,0,1.9s-2,0.4-4.2-0.4c-2.2-0.8-5.7-1.4-7.8-1.4l0,0c-2.1,0-5.6,0.6-7.8,1.4
			c-2.2,0.8-3.5,1-4.2,0.4c-0.7-0.5-0.1-1.3,0-1.9c0-0.6-0.6-0.2-0.8-0.6c-0.2-0.4,0.4-0.6,0.2-1c-0.2-0.4-1-0.1-1.4-0.8
			c-0.4-0.7-0.1-1.7,0.2-2.1c0,0-1.6-1.8-2.5-2.8s-1.5-1.7-2.2-1.6"/>
		<path d="M-71.7,337.8c0,1-0.8,1.8-1.8,1.8s-1.8-0.8-1.8-1.8s0.8-1.8,1.8-1.8S-71.7,336.8-71.7,337.8"/>
		<path d="M-67.2,336.3c0,1-0.8,1.8-1.8,1.8s-1.8-0.8-1.8-1.8s0.8-1.8,1.8-1.8S-67.2,335.3-67.2,336.3"/>
		<path d="M-75.6,340.4c0,1-0.8,1.8-1.8,1.8s-1.8-0.8-1.8-1.8s0.8-1.8,1.8-1.8S-75.6,339.4-75.6,340.4"/>
		<path d="M-62,334.8c0,1-0.8,1.8-1.8,1.8s-1.8-0.8-1.8-1.8s0.8-1.8,1.8-1.8S-62,333.8-62,334.8"/>
		<path d="M-56.8,333.4c0,1-0.8,1.8-1.8,1.8s-1.8-0.8-1.8-1.8s0.8-1.8,1.8-1.8C-57.6,331.6-56.8,332.4-56.8,333.4"/>
		<path d="M-51.2,334c0,1-0.8,1.8-1.8,1.8s-1.8-0.8-1.8-1.8s0.8-1.8,1.8-1.8S-51.2,333-51.2,334"/>
		<path d="M-46.3,335.3c0,1-0.8,1.8-1.8,1.8s-1.8-0.8-1.8-1.8s0.8-1.8,1.8-1.8S-46.3,334.3-46.3,335.3"/>
		<path d="M-41.8,337.5c0,1-0.8,1.8-1.8,1.8s-1.8-0.8-1.8-1.8s0.8-1.8,1.8-1.8S-41.8,336.5-41.8,337.5"/>
		<path d="M-37,340.5c0,1-0.8,1.8-1.8,1.8s-1.8-0.8-1.8-1.8s0.8-1.8,1.8-1.8S-37,339.5-37,340.5"/>
		<path class="stlogomenu1" d="M-73.1,344.3c0.9,0.5,1.7,1.1,2.3,0.5c0.6-0.6-0.2-2.7-0.5-3.7c0.9,1.1,2,3.1,3.7,2.4
			c1.1-0.4,0.3-3.4,0.1-3.9c0.7,1.2,2.2,3.1,3.7,2.9c1.5-0.2,0.9-3.5,1-4.3c0.7,1.8,1.1,3.6,2.6,3.6s1.9-3.3,2-4.5
			c0.4,2.5,0.9,4,2.1,4.1s2.1-2.2,2.4-3.2c0,2.4-0.1,3.5,1,3.8c1.2,0.3,2.9-1.9,3.3-2.9c-0.3,2.8-0.4,3.6,0.3,4
			c0.7,0.4,2.8-0.6,3.9-2.4c-0.1,1.6-0.6,3.3,0.2,3.9c0.8,0.6,1.6-0.3,2.2-0.7c-1,1.2-1.5,1.8-2.8,1.8c-1.4-0.1-0.9-1.9-0.8-2.5
			c-1.4,0.9-2.4,1.9-3.3,1.7c-0.9-0.2-0.9-2.1-0.9-2.7c-0.5,0.6-1.2,2.1-2.3,1.9c-1.1-0.2-1.4-1.8-1.4-2.5c-0.8,1-0.7,2-1.9,2
			c-1.2,0-1.7-1.4-1.8-2.3c-0.3,1.2-0.7,2.5-1.6,2.5c-0.9,0.1-1.6-1.1-1.9-1.7c-0.4,1.5-0.7,2.2-1.8,2.3c-1,0.1-2-0.5-2.5-1.4
			c-0.2,1.1-0.3,2.1-1.1,2.4c-0.9,0.3-1.9-0.5-2.4-1.1c-0.3,1-0.7,1.9-1.6,2C-72,346.3-72.8,344.8-73.1,344.3"/>
		<path class="stlogomenu1" d="M-76,340.4c0,0.8-0.6,1.4-1.4,1.4s-1.4-0.6-1.4-1.4s0.6-1.4,1.4-1.4S-76,339.7-76,340.4"/>
		<path class="stlogomenu1" d="M-72.2,337.7c0,0.8-0.6,1.4-1.4,1.4s-1.4-0.6-1.4-1.4c0-0.8,0.6-1.4,1.4-1.4C-72.8,336.4-72.2,337-72.2,337.7
			"/>
		<path class="stlogomenu1" d="M-42.2,337.5c0,0.8-0.6,1.4-1.4,1.4c-0.8,0-1.4-0.6-1.4-1.4c0-0.8,0.6-1.4,1.4-1.4S-42.2,336.7-42.2,337.5"/>
		<path class="stlogomenu1" d="M-37.4,340.4c0,0.8-0.6,1.4-1.4,1.4c-0.8,0-1.4-0.6-1.4-1.4s0.6-1.4,1.4-1.4C-38,339.1-37.4,339.7-37.4,340.4
			"/>
		<path class="stlogomenu1" d="M-44.7,347.3c-1.7-0.7-6.9-2.6-12.7-2.7c-0.1,0-0.1,0-0.1,0c-0.1,0-0.3,0-0.4,0s-0.3,0-0.4,0c0,0,0,0-0.1,0
			c-5.8,0.2-11,2-12.7,2.7c-0.6,0.2-0.1,1,0.8,0.7c1.6-0.5,6.2-2.4,12.4-2.5c6.2,0.1,10.8,1.9,12.4,2.5
			C-44.5,348.3-44.1,347.6-44.7,347.3"/>
		<path class="stlogomenu1" d="M-46.5,351.6c-1.5-0.7-6-2.1-11-2.3h-0.1c-0.1,0-0.3,0-0.4,0s-0.3,0-0.4,0c0,0,0,0-0.1,0
			c-5,0.2-9.5,1.6-11,2.3c-0.9,0.4-0.2,1.1,0.7,0.9c1.3-0.4,5.4-2,10.7-2.1c5.4,0.1,9.4,1.6,10.7,2.1
			C-46.3,352.7-45.6,351.9-46.5,351.6"/>
		<path class="stlogomenu1" d="M-70.3,348.7c0.5-0.2,4-1.3,5-1.6c-0.4,0.5-1,1.5-1,1.5l1.8,0.7c0,0-3.7,1.1-4.3,1.4c0.1-0.3,0.8-1.5,0.8-1.5
			L-70.3,348.7z"/>
		<path class="stlogomenu1" d="M-64.3,346.8c0.9-0.3,4.1-0.7,5.4-0.7c-0.7,0.5-1.5,1.4-1.5,1.4l1.5,1c-1,0-3.8,0.3-4.6,0.5
			c0.2-0.3,1-1.4,1-1.4L-64.3,346.8z"/>
		<path class="stlogomenu1" d="M-57.7,346.2c1,0,4.5,0.4,5,0.5c-0.7,0.4-1.8,0.9-1.8,0.9l1.5,1.4c-1-0.2-3.5-0.5-4.7-0.5
			c0.2-0.2,1.3-1.1,1.3-1.1L-57.7,346.2z"/>
		<path class="stlogomenu1" d="M-51,347c0.8,0.2,4.1,1.2,4.6,1.4c-0.8,0.2-1.8,0.4-1.8,0.4l1.2,1.8c-1-0.5-3.5-1.2-4.4-1.4
			c0.7-0.3,1.7-0.8,1.7-0.8L-51,347z"/>
		<path class="stlogomenu1" d="M-70.2,349.2c0,0.1,0,0.8,0.1,1c0.1,0.2,0.8,0.7,0.8,0.7l0.8-1.3L-70.2,349.2z"/>
		<path class="stlogomenu1" d="M-45.9,348.7c0,0.1,0,0.8-0.1,1c-0.1,0.2-0.6,0.6-0.6,0.6l-0.7-1.2L-45.9,348.7z"/>
		<polygon class="stlogomenu1" points="-64.6,347.4 -65.3,348.4 -64.2,348.9 -63.4,348 		"/>
		<polygon class="stlogomenu1" points="-59.5,347.4 -58.4,346.6 -57.5,347.4 -58.4,348.1 		"/>
		<polygon class="stlogomenu1" points="-53.3,347.8 -51.8,347.1 -50.9,348.2 -52.2,348.8 		"/>
		<path class="stlogomenu1" d="M-67.7,336.3c0,0.8-0.6,1.4-1.4,1.4s-1.4-0.6-1.4-1.4c0-0.8,0.6-1.4,1.4-1.4
			C-68.3,334.9-67.7,335.5-67.7,336.3"/>
		<path class="stlogomenu1" d="M-62.4,334.7c0,0.8-0.6,1.4-1.4,1.4s-1.4-0.6-1.4-1.4c0-0.8,0.6-1.4,1.4-1.4C-63,333.4-62.4,334-62.4,334.7"
			/>
		<path class="stlogomenu1" d="M-57.2,333.3c0,0.8-0.6,1.4-1.4,1.4s-1.4-0.6-1.4-1.4c0-0.8,0.6-1.4,1.4-1.4C-57.8,332-57.2,332.6-57.2,333.3
			"/>
		<path class="stlogomenu1" d="M-51.7,334c0,0.8-0.6,1.4-1.4,1.4s-1.4-0.6-1.4-1.4c0-0.8,0.6-1.4,1.4-1.4C-52.3,332.6-51.7,333.2-51.7,334"
			/>
		<path class="stlogomenu1" d="M-46.7,335.3c0,0.8-0.6,1.4-1.4,1.4c-0.8,0-1.4-0.6-1.4-1.4c0-0.8,0.6-1.4,1.4-1.4S-46.7,334.5-46.7,335.3"/>
	</g>
	<path class="stlogomenu1" d="M-33.3,355.3L-33.3,355.3h-49.5v2v38c0,14.2,13.4,26.1,24.8,29.6l0,0l0,0l0,0l0,0
		c11.3-3.5,24.8-15.4,24.8-29.6L-33.3,355.3L-33.3,355.3z"/>
	<path class="stlogomenu2" d="M-62.9,375.6v10.5h-4.7V381c0-1.8-1-3.2-2.5-3.2s-2.5,1.4-2.5,3.2v5.1h-5v-10.5l1.5-1.7l1.6-8h-0.8v-1.4h-0.8
		v-4.6h2.3v1.7h2v-1.8h3.1v1.8h2.2v-1.8h2.4v4.6H-65v1.4h-1.1l1.7,8L-62.9,375.6z"/>
	<polyline class="stlogomenu3" points="-57.8,362.6 -47.5,362.6 -47.5,369.5 -53.5,369.5 -53.5,381.3 -43.3,381.3 -43.3,373.9 -37.4,373.9 
		-37.4,396.1 -43.1,396.1 -43.1,389.1 -53.4,389.1 -53.4,400.4 -47.5,400.4 -47.5,407.4 -57.8,407.4 	"/>
	<polygon points="-47.1,407.8 -57.8,407.8 -57.8,407 -48,407 -48,400.8 -53.8,400.8 -53.8,388.7 -42.7,388.7 -42.7,395.7 
		-37.8,395.7 -37.8,374.3 -42.9,374.3 -42.9,381.7 -53.9,381.7 -53.9,369.1 -47.9,369.1 -47.9,363 -57.8,363 -57.8,362.2 
		-47.1,362.2 -47.1,369.9 -53.1,369.9 -53.1,380.9 -43.8,380.9 -43.8,373.5 -37,373.5 -37,396.5 -43.5,396.5 -43.5,389.5 -53,389.5 
		-53,400 -47.1,400 	"/>
	<path d="M-33.2,355.1L-33.2,355.1h-49.7v2v38.1c0,14.2,13.5,26.2,24.9,29.7l0,0l0,0l0,0l0,0c11.4-3.5,24.9-15.5,24.9-29.7
		L-33.2,355.1L-33.2,355.1z M-34.3,395.6c0,11.4-11.8,24.2-23.8,28.3c-11.9-4.2-23.8-16.9-23.8-28.3v-39.4l0,0h47.5l0,0L-34.3,395.6
		L-34.3,395.6z"/>
	<rect x="-59.1" y="355.9" width="1.3" height="68"/>
	<rect x="-62" y="386.3" width="0.7" height="36.3"/>
	<rect x="-65.5" y="386.3" width="0.7" height="34.9"/>
	<rect x="-68.9" y="386.3" width="0.7" height="32.5"/>
	<rect x="-82.1" y="386" width="23.4" height="1.3"/>
	<rect x="-72.4" y="386.3" width="0.7" height="29.7"/>
	<rect x="-75.8" y="386.3" width="0.7" height="25.8"/>
	<rect x="-79.3" y="386.3" width="0.7" height="20.9"/>
	<path d="M-64.3,374l-1.7-7.9h1.1v-1.5h0.8v-5h-2.8v1.8h-1.8v-1.8h-3.5v1.7h-1.6v-1.8h-2.7v5h0.8v1.4h0.8l-1.4,7.7l-1.6,2v10.5h5.4
		v-5.3c0-1.7,1-3,2.3-3s2.3,1.3,2.3,3v5.3h5.1v-10.3L-64.3,374z M-76,364.3v-4.2h1.9v1.8h2.4v-1.8h2.7v1.8h2.6v-1.8h2v4.2H-76z
		 M-75.1,365.7v-1h9.9v1H-75.1z M-74.3,366.1h8l1.6,7.6h-10.9L-74.3,366.1z M-75.7,374.1h11l1.1,1.3h-13.3L-75.7,374.1z M-63.1,386
		h-4.3v-4.9c0-2-1.1-3.4-2.7-3.4s-2.7,1.4-2.7,3.4v4.9h-4.5v-10.2h14.2V386z"/>
	<path d="M-67.6,386.2v-5.1c0-1.8-1-3.2-2.5-3.2s-2.5,1.4-2.5,3.2v5.1"/>
	<path d="M-62.9,385.1c-1.7,0.2-0.8,0-1.8,0.1c0,0.2,0.9,0.4,1.8,0.3"/>
	<path d="M-62.8,383.8c-1.7,0.2-0.4-0.2-2.6,0.2c0,0.2,0.5,0.5,2.5,0.3"/>
	<path d="M-62.8,382.6c-1.7,0.2-0.6-0.2-2.8,0.2c0,0.2,0.7,0.5,2.8,0.3"/>
	<path d="M-62.7,381.4c-1.7,0.2-1.6-0.1-3.8,0.2c0,0.2,1.7,0.4,3.8,0.2"/>
	<path d="M-62.8,380.2c-1.7,0.2-1.3-0.2-3.5,0.2c0,0.2,1.5,0.4,3.5,0.2"/>
	<path d="M-62.8,378.9c-1.7,0.2-0.9-0.2-3.1,0.2c0,0.2,1,0.4,3,0.2"/>
	<path d="M-62.7,377.7c-1.7,0.2-0.9-0.2-3.1,0.2c0,0.2,1,0.4,3,0.2"/>
	<path d="M-62.7,376.5c-1.7,0.2-1.3-0.2-3.5,0.2c0,0.2,1.5,0.4,3.5,0.2"/>
	<path d="M-64.7,372.6c-1,0.1-1.7,0.1-3.2,0.2c0,0.2,1.1,0.4,3.1,0.2"/>
	<path d="M-65.1,371.5c-1.7,0.2-1.9-0.1-4.1,0.3c0,0.2,2.1,0.4,4.1,0.2"/>
	<path d="M-65.3,370.3c-1.3,0.1-1.5-0.1-3.2,0.2c0,0.2,1.1,0.5,3.1,0.3"/>
	<path d="M-64.2,363.4c-1.3,0.1-2.1,0-2.3,0.2c0,0.2,0.3,0.3,2.2,0.3"/>
	<path d="M-64.2,362.4c-0.5,0,0-0.2-1.7,0.1c0,0.2,0.1,0.3,1.7,0.4"/>
	<path d="M-65.7,369.1c-0.8,0.3-1.6-0.2-3.8,0.2c0,0.2,1.7,0.4,3.7,0.2"/>
	<path d="M-65.9,368c-1.7,0.2-3.4,0.1-3.5,0.2c0,0.2,1.5,0.4,3.5,0.2"/>
	<path d="M-66,366.8c-1.7,0.2-4.1,0-4.2,0.3c0,0.3,2.1,0.4,4.2,0.2"/>
</g>
<g id="chiengauchemenu">
	<path d="M-101.6,339.7c0.8,0.2,1.5,0.5,2.1,0.9c0.7,0.3,1.7,0.3,1.8,1.2c-0.8,0.4-2.6-0.6-3,0.9c-0.6-0.7-1.5-1.2-2.7-0.6
		c0.1-1.4,1.3-0.8,1.8-1.2C-101.9,340.5-101.9,340.2-101.6,339.7"/>
	<path d="M-75.2,352.6c-3.2,0.4-5.9-0.4-8.3,0.6c-1.2,1.3-1.9,4.4-3.6,5.2c0.1-1,0.1-2.4-0.3-3.2c0.8,0,0.4-1.5,0.1-1.7
		c-0.3-0.3-0.7,0.1-0.7-0.3c-0.4-1.4-0.9-3.4-1.9-6.1c-1.1-2.7-2.4-3.9-3.2-4.9c1.7-0.1,3.9,1.5,5.2,0.8c-0.9-2.4-3.9-2.6-5.9-3.9
		c1.1-0.7,3-0.6,3.6-1c0.6-0.4,0.6-1.1,0.6-1.5c-1.6-0.1-4.6-0.4-6.4,0.2c-0.9,0.3-1.3,1.5-2.1,1.5c-1.3,0-2.6,0-3.9,0
		c-1.2,1-2.2,2.1-3.9,2.7c-2.5,0.5-4.2,0.5-5.7,0.8c0.8,3.2,6,2.3,7.8,4.2c0.9,0,2.2,0.2,3.2,0.6c1.1,0.4,2,1.6,2.4,2.5
		c0.4,0.9,0.8,2.3,0.8,2.3c-0.7,0.7,0.7,2.1,0.7,3.5c-0.6,0.1-0.4,0-0.6,0.3c-0.2,0.3-0.1,1.4-0.2,2.3c-0.3,2.4-1.5,4.7-2.6,6
		c-1.4,1.7-5.2,4.8-6,5.4s-5.3,2.9-6.2,3.5c-1,0.6-4.7,3.2-5.7,4.4c-1,1.1-1.9,1.9-2.4,3s-0.6,1.9-1.4,2.4c-0.6,0.5-1,0.6-1.8,0.3
		c-1.7-0.9-2.7-2.1-3.6-3.9c-0.6-2.3-0.9-4.9-0.3-7.4c0.1-0.4,1-2.8,1.2-3.3c0.1-0.3,1.1-2.2,1.2-2.4c0.2-0.3,1.5-2,1.8-2.4
		c1.6-1.9,4.2-3.6,6.4-3.6c0.8,0,2.7,0.3,3.8,1.2c0.3-0.4,0.2-0.8-0.3-1.2c-0.9-0.7-1.9-1.3-3.1-1.4c-2.8-0.1-4.9,1.5-5.9,2.2
		c-0.9,0.8-2.5,2.3-3.6,4c-1.1,1.6-2.6,5-3,6.8c-0.4,1.8-0.3,2.9-0.4,4.5c0.1,2.6,1.2,4.7,2.2,6c1,1.3,3.2,2.8,5,2.3
		c0.3,0.6,1,1.2,1.6,2.8c0.6,1.6,0.4,4,0.2,7c-0.6,2.8-2.9,3.8-4.7,5.5c-0.2,0.2-1.2,0.7-1.6,1.1c-0.3,0.5-0.7,2.6-1.2,3.9
		c-0.9,2.5-2.2,4.7-3.4,7c0.6,1.9-0.1,5.2,1.2,6.4c1.4,0.7,3.2-0.1,4.8-0.1c0.4-2.4-1.6-2.3-2.7-3.3c0.3-3.4,3.6-9.6,3.6-10.7
		c0.6-0.4,5-3.5,7.7-5.4c2.6-1.9,4.4-4,5.4-6.5c0.5,0.1,5.3,2,6.4,3.4c1.1,1.4,0.3,6.7-0.2,9.7c0.3,0,1.1,1.1,2,1.8
		c0.9,0.7,5.4,4.5,7.5,8.1c0.7,0.1,1.1,0.5,2.1,0.3l0,0c0.8,0.1,2-0.7,2.7-0.6c-0.3-0.8-1.4-2.2-2.4-2.4l0,0
		c-2.9-1.6-5.7-4.9-7.8-7.4c0.2-0.8,1-2.3,1.3-3.1c0.9-2.3,1.5-3.4,1.9-6.2c0.1-1,0-2.9-0.4-4.3c-0.4-1.3-2.2-3.4-3.5-5
		c-1.6-1.7-4.2-2.9-4.7-3.4c-0.1-1.7-0.2-2.2,0.7-3c1.7-1.1,4.1-0.8,6.6-1.4c2.5-0.5,4.9-1.6,6.1-2.5c1.2-0.9,3.5-3.2,4.1-4
		c0.3,0.6,1.3,0.7,1.8,0.8c1.4-0.1,1.6-0.8,2.1-1.6c0,0,1-5.2,1.4-8.5s1-6.7,1-6.7l0.9-0.3l2.9,0.2l3.2-0.8
		C-74.7,354.3-74.7,353-75.2,352.6 M-88.1,356.3c0,0-4.1-0.4-4.6,0.1c-1.4,0.4-3.8,1.4-3.9-0.9c2.2,1,7-0.6,7.9-0.9
		C-88.7,355-88.1,356.3-88.1,356.3 M-96.1,353.1c0.4,0,2.6-0.1,3-0.3c1.2-0.1,2.8-0.6,3.4-0.8c0.7,0.3,0.8,1.1,0.9,2
		c-2,0.4-4.3,1.7-6.9,1.2C-96,354.5-95.9,354.3-96.1,353.1 M-92.1,350.8l1.2-0.5c0,0,0.7-0.4,1.2-0.4c-0.4,1.2-4.8,2.6-6.5,2.1
		C-94.6,351.3-92.1,350.8-92.1,350.8 M-95.6,338.3c0-1.3,2.3-0.9,3.5-1.2C-92.6,338.6-94.4,338.4-95.6,338.3 M-98.2,346
		c0-0.1-0.1-0.4-0.1-0.6c0-0.5-0.3-0.4-1.3-0.4s-0.7-0.9-1.7-0.8c0.1,1.2-1.9,0.6-2.1,0.8c-0.1-0.4-2.3-1.3-4.7-1.6
		c-0.8-0.1-2.2-0.5-2.1-1.3c4-0.2,7.1-0.9,8.6-3.2c2,0.1,4.5-0.3,5.7,0.6c-0.4,0.4-1.7,0.1-1.5,1.2c1.1,0.8,1.8-0.8,3-0.9
		c1.4,0.7,3.6,1,5.1,2.4c-1.3-0.2-2.3-0.9-3.6-1.2c-1-0.2-1.3,0.3-1.8,0.6c-0.1-0.4-0.4-0.6-0.9-0.6c0.3,1.1,0,0.7,0.3,1.8
		c1.1,0,1-0.1,1.2,0.6c1.4,1.3,2.5,2.7,2.7,4.8c-0.2,0.9,0.7,0.3,0.9,1.2c0.1,0.3-1.2,0.8-2.4,1.2c-1.2,0.4-1.7,0.7-3,0.6
		C-96.7,351-97.8,347.8-98.2,346 M-102.6,386.1c0.5,0.5,2.5,2.6,3.5,5.3s-0.4,6.8-1.3,9.3s-1.5,4-1.5,4c-0.6,0.9-1.3,0.4-1.8-0.3
		c-0.4-0.7,0-1.5,0-1.9c0,0,0.7-5.1,0.5-6.3c-0.2-1.7-1-3.4-3-4.5c-1.9-1.1-3.7-1.4-3.7-1.7c2.5-2.2,3-5.2,3.5-6.6
		C-105.6,383.7-103.1,385.7-102.6,386.1 M-78.8,354.8c-1.2,0.4-3-1.2-4.5,0.2c0.2,2.2-2.3,15.7-4.2,14.4c-0.3-0.2-1.2-1.4-2.3-1.1
		c0.5,3.3-6,7.9-12,8.1c-6,0.2-6,3-6.8,3.7c-0.6,0.1-1.1-0.1-1.5-1.2c-1,0.9,0.1,3.1,0.3,4.5c0.5,5.5-2.7,7.1-3.3,7.1
		c0.9,2.9-4.7,7.4-6.9,8.6c-2.2,1.2-3.8,2.9-4.6,3.2c-0.3,0.7-3.2,8.5-3.4,9c-0.4,1-0.6,2.5-0.4,2.9c0.5,0.5,1.3,0.7,2.3,1.4
		c-0.1,1-1.6,0.8-2.6,0.8c-1.9-0.1-0.5-1.9-1.4-2.2c-0.1-1.2-0.2-1.8-0.2-3.1c0.2-1.5,1.2-2.5,1.8-3.7l1.4-2.9
		c0.5-1.1,0.8-3.1,1.5-4.3c0.8-0.4,4-3,4.7-3.8c0.6-0.8,1.6-2.9,2-4.7c0.4-1.8,0.4-3.2,0.3-4.2c-0.1-1-0.8-3.1-1.2-3.8
		c0-0.6,1-0.2,0.9-0.9c-2.3,0,0.8-5.1,1-5.3c0.1-0.1,2.3-2.1,3.9-3.3c1.6-1.2,6.5-3.4,7.8-3.9c1.3-0.7,3.5-2.7,4.6-3.7
		c1.6-1.4,2.7-3.1,3.4-3.9c0.6-0.8,1.7-4,2.1-5.1c0.4,0.3,1.1,0.3,1.8,0.3c0.7,0,1.3-0.6,1.6-0.5c1-0.6,5.1-0.1,4.4,0.2
		c0.3,2.4-3.2,6.5-3.4,6.5c-0.2-0.1,0.5,0.7,1.3,0.3c-0.1-0.9,3.9-4.7,4.3-5.5s1.4-3,1.6-3.3c0.7-1.2,1.4-2.5,3.3-2.4
		c1.8,0.1,3.4,0,4.4,0s1.3,0,1.3,0.9C-76.2,354.8-78.6,354.9-78.8,354.8"/>
	<path d="M-104.3,383.7c-1.3,2.7-2,3.3-2.7,5.6c0.4-0.9,1.9-2.7,3.1-5.3"/>
	<path d="M-103.4,384.6c-1.3,2.7-2.5,3.5-2.4,4.4c0.4-0.9,1.6-1.5,2.8-4.1"/>
	<path d="M-102.5,385.3c-1.3,2.7-1.3,1.6-2,3.9c0.2,0,1-1.2,2.4-3.6"/>
	<path d="M-101.6,386.2c-1.3,2.7-0.7,0.4-1.4,2.7c0.2,0,0.3,0.1,1.7-2.3"/>
	<path d="M-105.4,383.4c-1.3,2.7-2.1,3.9-2.8,6.1c0.4-0.9,2.3-3.1,3.4-5.8"/>
	<path d="M-95.1,343.9c0.5-0.3,2.3,0.3,2.2-0.7C-93.5,343.8-95.2,342.9-95.1,343.9"/>
	<path d="M-94.6,344.8c0.5-0.3,2.3,0.3,2.2-0.7C-93,344.7-94.7,343.8-94.6,344.8"/>
	<path d="M-94.1,345.7c0.5-0.3,2.3,0.3,2.2-0.7C-92.5,345.7-94.2,344.7-94.1,345.7"/>
	<path d="M-93.6,346.7c0.5-0.3,2.3,0.3,2.2-0.7C-92,346.6-93.7,345.7-93.6,346.7"/>
	<path d="M-90,358c0.5-0.3,2.3,0.3,2.2-0.7C-88.4,357.9-90.1,357-90,358"/>
	<path d="M-93,347.6c0.5-0.3,2.3,0.3,2.2-0.7C-91.4,347.5-93.1,346.6-93,347.6"/>
	<path d="M-92.4,348.5c0.5-0.3,2,0.3,1.9-0.7C-91.1,348.5-92.5,347.5-92.4,348.5"/>
	<path d="M-91.8,349.4c0.5-0.3,2,0.3,1.8-0.7C-90.5,349.4-91.9,348.4-91.8,349.4"/>
	<path d="M-119.2,399.4c-0.8,0-2.9-0.6-3.3,0.4C-121.4,399.2-118.9,400.4-119.2,399.4"/>
	<path d="M-118.3,398.3c-0.8,0-2.9-0.6-3.3,0.4C-120.5,398.1-118,399.3-118.3,398.3"/>
	<path d="M-116.9,397.1c-0.8,0-2.9-0.6-3.3,0.4C-119.1,396.9-116.6,398.1-116.9,397.1"/>
	<path d="M-115.3,395.9c-0.8,0-2.9-0.6-3.3,0.4C-117.5,395.8-115,396.9-115.3,395.9"/>
	<path d="M-114.7,394.6c-0.8,0-2.9-0.6-3.3,0.4C-116.9,394.4-114.4,395.6-114.7,394.6"/>
	<path d="M-113.6,393.3c-0.8,0-2.9-0.6-3.3,0.4C-115.8,393.1-113.3,394.3-113.6,393.3"/>
	<path d="M-112.8,391.9c-0.8,0-2.9-0.6-3.3,0.4C-115.1,391.7-112.5,392.9-112.8,391.9"/>
	<path d="M-112.6,390.6c-0.8,0-2.9-0.6-3.3,0.4C-114.8,390.4-112.3,391.6-112.6,390.6"/>
	<path d="M-93.7,374.1c0-0.6,1.2-1.9,0.3-2.2C-93.1,372.6-94.7,373.8-93.7,374.1"/>
	<path d="M-92.3,373.3c0-0.6,1.2-1.9,0.3-2.2C-91.6,371.8-93.2,373-92.3,373.3"/>
	<path d="M-100.5,394.8c0.5-0.3,2.3,0.3,2.2-0.6C-98.9,394.7-100.5,393.8-100.5,394.8"/>
	<path d="M-100.6,395.7c0.5-0.3,2.3,0.3,2.2-0.6C-99,395.7-100.7,394.7-100.6,395.7"/>
	<path d="M-100.8,396.7c0.5-0.3,2.3,0.3,2.2-0.6C-99.2,396.7-100.9,395.7-100.8,396.7"/>
	<path d="M-98.8,397.3c-0.5,0.3-2.2-0.4-2.2,0.6C-100.4,397.3-98.7,398.3-98.8,397.3"/>
	<path d="M-101.4,399c0.5-0.3,2.3,0.3,2.2-0.6C-99.8,399-101.5,398-101.4,399"/>
	<path d="M-99.4,399.6c-0.5,0.3-2.3-0.3-2.2,0.6C-101,399.6-99.3,400.6-99.4,399.6"/>
	<path d="M-101.9,401.2c0.5-0.3,2.3,0.3,2.2-0.6C-100.3,401.2-102,400.2-101.9,401.2"/>
	<path d="M-99.9,401.8c-0.5,0.3-2.3-0.3-2.2,0.6C-101.5,401.8-99.8,402.8-99.9,401.8"/>
	<path d="M-102.7,403.6c0.4-0.2,1.9,0.3,1.8-0.5C-101.4,403.5-102.7,402.7-102.7,403.6"/>
	<path d="M-101,404c-0.4,0.2-1.9-0.3-1.8,0.5C-102.4,404.1-101,404.9-101,404"/>
	<path d="M-103.8,377c0.3-0.7,1.8-2.4,1.1-3.1C-102.7,375-104.8,376.8-103.8,377"/>
	<path d="M-110,379.8c0.1-0.8,1.2-2.8,0.2-3.3C-109.4,377.7-111,380-110,379.8"/>
	<path d="M-108.7,380.3c0.1-0.8,1.1-3.8,0.2-4.4C-108.2,377-109.7,380.4-108.7,380.3"/>
	<path d="M-102.2,377c0.3-0.7,1.8-2.4,1.1-3.1C-101.1,375.1-103.2,376.9-102.2,377"/>
	<path d="M-100.6,376.8c0.3-0.7,1.8-2.4,1.1-3.1C-99.4,374.8-101.6,376.6-100.6,376.8"/>
	<path d="M-99,376.5c0.3-0.7,1.8-2.4,1.1-3.1C-97.8,374.5-100,376.3-99,376.5"/>
	<path d="M-87.5,358.4c-0.8,0.1-2.8-0.1-3.3,0.6C-89.9,358.7-87.1,359.3-87.5,358.4"/>
	<path d="M-88.1,359.4c-0.8,0.1-2.6,0-3.2,0.4C-90.5,359.9-87.7,360.3-88.1,359.4"/>
	<path d="M-88.8,360.5c-0.8,0.1-3-0.3-3.2,0.7C-91.1,360.6-88.4,361.5-88.8,360.5"/>
	<path d="M-89.5,361.7c-0.8,0.1-3-0.3-3.2,0.7C-91.8,361.8-89.1,362.6-89.5,361.7"/>
	<path d="M-93.2,363.5c0.8-0.1,3,0.3,3.2-0.7C-90.9,363.4-93.6,362.5-93.2,363.5"/>
	<path d="M-90.4,364c-0.8,0.1-3-0.3-3.2,0.7C-92.7,364.1-90,365-90.4,364"/>
	<path d="M-97.4,375.9c0.3-0.7,1.8-2.4,1.1-3.1C-96.3,374-98.4,375.7-97.4,375.9"/>
	<path d="M-95.7,375.3c0.3-0.7,1.8-2.4,1.1-3.1C-94.5,373.4-96.7,375.2-95.7,375.3"/>
	<path d="M-104.3,373.9c-0.6,0.8-1.8,3.4-1.4,4.3C-105.4,376.8-104.2,375.4-104.3,373.9"/>
	<path d="M-106.4,374.7c-0.5,0.8-1.3,3.1-0.9,4.1C-107,378.4-106.3,376.2-106.4,374.7"/>
</g>
<g id="chiendroitemenu">
	<path d="M-14.8,339.7c-0.8,0.2-1.5,0.5-2.1,0.9c-0.7,0.3-1.7,0.3-1.8,1.2c0.8,0.4,2.6-0.6,3,0.9c0.6-0.7,1.5-1.2,2.7-0.6
		c-0.1-1.4-1.3-0.8-1.8-1.2C-14.4,340.5-14.4,340.2-14.8,339.7"/>
	<path d="M-41.2,354.7l3.2,0.8l2.9-0.2l0.9,0.3c0,0,0.6,3.5,1,6.7c0.4,3.3,1.4,8.5,1.4,8.5c0.6,0.8,0.7,1.5,2.1,1.6
		c0.5-0.2,1.5-0.3,1.8-0.8c0.6,0.8,2.8,3.1,4.1,4c1.2,0.9,3.7,2,6.1,2.5c2.5,0.5,5,0.3,6.6,1.4c0.9,0.8,0.8,1.2,0.7,3
		c-0.6,0.5-3.1,1.7-4.7,3.4c-1.3,1.6-3.1,3.7-3.5,5s-0.6,3.3-0.4,4.3c0.4,2.8,1,3.9,1.9,6.2c0.4,0.8,1.1,2.3,1.3,3.1
		c-2.1,2.4-4.9,5.7-7.8,7.3l0,0c-1,0.2-2.1,1.6-2.4,2.4c0.7-0.1,1.9,0.7,2.7,0.6l0,0c1,0.2,1.4-0.2,2.1-0.3c2-3.5,6.5-7.4,7.5-8.1
		c0.9-0.7,1.8-1.8,2-1.8c-0.5-3-1.3-8.3-0.2-9.7s6-3.3,6.4-3.4c1,2.4,2.8,4.5,5.4,6.4c2.6,1.9,7.1,5,7.7,5.4c0,1.1,3.3,7.3,3.6,10.7
		c-1,1-3,0.9-2.7,3.3c1.6,0,3.3,0.8,4.8,0.1c1.2-1.2,0.6-4.5,1.2-6.4c-1.1-2.3-2.4-4.5-3.4-7c-0.5-1.3-0.8-3.4-1.2-3.9
		c-0.3-0.5-1.3-1-1.6-1.1c-1.7-1.6-4.1-2.7-4.7-5.5c-0.2-3-0.4-5.4,0.2-7c0.6-1.6,1.3-2.1,1.6-2.8c1.8,0.5,3.9-1,5-2.3
		c1-1.3,2.1-3.4,2.2-6c-0.1-1.6,0-2.6-0.4-4.5c-0.4-1.8-1.9-5.2-3-6.8c-1.1-1.7-2.7-3.2-3.6-4c-0.9-0.8-3.1-2.4-5.9-2.2
		c-1.2,0.1-2.2,0.6-3.1,1.4c-0.5,0.4-0.6,0.9-0.3,1.2c1.2-0.9,3.1-1.2,3.8-1.2c2.1,0,4.8,1.7,6.4,3.6c0.3,0.3,1.6,2.1,1.8,2.4
		c0.1,0.2,1.1,2.1,1.2,2.4c0.2,0.5,1.1,2.9,1.2,3.3c0.7,2.5,0.3,5.1-0.3,7.4c-0.9,1.7-1.8,3-3.6,3.9C6,382.6,5.6,382.5,5,382
		c-0.7-0.6-0.9-1.3-1.4-2.4c-0.5-1.1-1.4-1.8-2.4-3c-1-1.1-4.8-3.8-5.8-4.4c-1-0.6-5.4-2.9-6.2-3.5c-0.8-0.6-4.5-3.7-6-5.4
		c-1.1-1.2-2.3-3.6-2.6-6c-0.1-0.9,0-2-0.2-2.3c-0.2-0.3,0-0.2-0.6-0.3c0-1.4,1.4-2.8,0.7-3.5c0,0,0.4-1.4,0.8-2.3
		c0.4-0.9,1.3-2.1,2.4-2.5c1.1-0.4,2.3-0.6,3.2-0.6c1.7-1.9,7-1,7.8-4.2c-1.5-0.3-3.2-0.3-5.7-0.8c-1.6-0.5-2.7-1.7-3.9-2.7
		c-1.3,0-2.6,0-3.9,0c-0.8,0-1.2-1.2-2.1-1.5c-1.8-0.6-4.7-0.3-6.4-0.2c0,0.4,0,1.1,0.6,1.5s2.5,0.4,3.6,1c-2,1.3-5.1,1.5-5.9,3.9
		c1.3,0.7,3.5-0.9,5.2-0.8c-0.8,0.9-2.1,2.2-3.2,4.9c-1.1,2.7-1.5,4.7-1.9,6.1c-0.1,0.4-0.4,0.1-0.7,0.3c-0.3,0.3-0.6,1.7,0.1,1.7
		c-0.4,0.7-0.4,2.1-0.3,3.2c-1.7-0.8-2.4-3.9-3.6-5.2c-2.5-0.9-5.1-0.2-8.3-0.6C-41.6,353-41.6,354.3-41.2,354.7 M-27.7,354.6
		c0.9,0.3,5.7,1.9,7.9,0.9c-0.1,2.3-2.5,1.3-3.9,0.9c-0.5-0.5-4.6-0.1-4.6-0.1S-27.6,355-27.7,354.6 M-20.7,355.2
		c-2.6,0.5-4.8-0.8-6.9-1.2c0.1-0.9,0.2-1.7,0.9-2c0.6,0.2,2.2,0.7,3.4,0.8c0.5,0.2,2.6,0.3,3,0.3
		C-20.4,354.3-20.4,354.5-20.7,355.2 M-20.1,351.9c-1.7,0.6-6.2-0.9-6.5-2.1c0.5,0,1.2,0.4,1.2,0.4l1.2,0.5
		C-24.3,350.8-21.8,351.3-20.1,351.9 M-24.3,337.1c1.3,0.3,3.6-0.1,3.5,1.2C-22,338.4-23.8,338.6-24.3,337.1 M-20.4,351
		c-1.3,0.1-1.8-0.2-3-0.6s-2.5-0.9-2.4-1.2c0.2-0.9,1.1-0.3,0.9-1.2c0.2-2.1,1.3-3.5,2.7-4.8c0.2-0.6,0.1-0.6,1.2-0.6
		c0.3-1.1,0-0.7,0.3-1.8c-0.5,0-0.8,0.2-0.9,0.6c-0.5-0.3-0.8-0.8-1.8-0.6c-1.3,0.3-2.2,1-3.6,1.2c1.5-1.4,3.6-1.7,5.1-2.4
		c1.1,0.1,1.9,1.6,3,0.9c0.2-1.1-1-0.7-1.5-1.2c1.2-0.9,3.7-0.5,5.7-0.6c1.5,2.3,4.6,3,8.6,3.2c0.2,0.9-1.3,1.2-2.1,1.3
		c-2.4,0.3-4.6,1.2-4.7,1.6c-0.2-0.2-2.3,0.4-2.1-0.8c-0.9-0.1-0.7,0.8-1.7,0.8s-1.3-0.1-1.3,0.4c0,0.2-0.1,0.4-0.1,0.6
		C-18.6,347.8-19.6,351-20.4,351 M-9.9,383.5c0.5,1.3,1,4.3,3.5,6.6c-0.1,0.3-1.8,0.6-3.7,1.7s-2.8,2.7-3,4.5
		c-0.1,1.2,0.5,6.3,0.5,6.3c0.1,0.4,0.4,1.2,0,1.9c-0.5,0.7-1.2,1.2-1.8,0.3c0,0-0.6-1.5-1.5-4s-2.3-6.6-1.3-9.3s3-4.8,3.5-5.3
		C-13.3,385.7-10.8,383.7-9.9,383.5 M-41,354.1c0-0.9,0.3-0.9,1.3-0.9s2.6,0,4.4,0c1.8-0.1,2.6,1.2,3.3,2.4c0.2,0.3,1.1,2.6,1.6,3.3
		c0.4,0.8,4.5,4.5,4.3,5.5c0.8,0.4,1.5-0.4,1.3-0.3c-0.1,0.1-3.7-4.1-3.3-6.5c-0.7-0.3,3.4-0.8,4.4-0.2c0.3-0.1,0.9,0.5,1.6,0.5
		c0.7,0,1.4,0,1.8-0.3c0.5,1,1.5,4.3,2.1,5.1c0.7,0.8,1.9,2.5,3.4,3.9c1,1,3.3,3,4.6,3.7c1.2,0.5,6.2,2.8,7.8,3.9
		c1.6,1.2,3.8,3.2,3.9,3.3c0.2,0.2,3.3,5.4,1,5.3c-0.1,0.7,0.9,0.3,0.9,0.9c-0.4,0.7-1.1,2.8-1.2,3.8c-0.1,1-0.1,2.4,0.3,4.2
		c0.4,1.8,1.4,3.9,2,4.7c0.6,0.8,3.9,3.4,4.7,3.8c0.7,1.2,1,3.1,1.5,4.3l1.4,2.9c0.6,1.3,1.5,2.3,1.8,3.7c0,1.3-0.1,1.9-0.2,3.1
		c-0.9,0.3,0.5,2.1-1.4,2.2c-1-0.1-2.6,0.2-2.7-0.8c1-0.7,1.7-0.9,2.3-1.4c0.2-0.4,0-1.9-0.4-2.9c-0.2-0.6-3.1-8.3-3.4-9
		c-0.7-0.3-2.4-2-4.6-3.2c-2.2-1.2-7.7-5.7-6.9-8.6c-0.6,0-3.8-1.6-3.3-7.1c0.2-1.4,1.2-3.6,0.3-4.5c-0.4,1-0.9,1.3-1.5,1.2
		c-0.8-0.7-0.8-3.5-6.8-3.7s-12.5-4.8-12-8.1c-1.2-0.3-2,0.9-2.3,1.1c-1.9,1.3-4.4-12.2-4.2-14.4c-1.5-1.4-3.3,0.2-4.5-0.2
		C-37.8,354.9-40.2,354.8-41,354.1"/>
	<path d="M-12.1,383.7c1.3,2.7,2,3.3,2.7,5.6c-0.4-0.9-1.9-2.7-3.1-5.3"/>
	<path d="M-12.9,384.6c1.3,2.7,2.5,3.5,2.4,4.4c-0.4-0.9-1.6-1.5-2.8-4.1"/>
	<path d="M-13.8,385.3c1.3,2.7,1.3,1.6,2,3.9c-0.2,0-1-1.2-2.4-3.6"/>
	<path d="M-14.8,386.2c1.3,2.7,0.7,0.4,1.4,2.7c-0.2,0-0.3,0.1-1.7-2.3"/>
	<path d="M-10.9,383.4c1.3,2.7,2.1,3.9,2.8,6.1c-0.4-0.9-2.3-3.1-3.4-5.8"/>
	<path d="M-21.2,343.9c-0.5-0.3-2.3,0.3-2.2-0.7C-22.8,343.8-21.1,342.9-21.2,343.9"/>
	<path d="M-21.7,344.8c-0.5-0.3-2.3,0.3-2.2-0.7C-23.3,344.7-21.6,343.8-21.7,344.8"/>
	<path d="M-22.3,345.7c-0.5-0.3-2.3,0.3-2.2-0.7C-23.9,345.7-22.2,344.7-22.3,345.7"/>
	<path d="M-22.8,346.7c-0.5-0.3-2.3,0.3-2.2-0.7C-24.4,346.6-22.7,345.7-22.8,346.7"/>
	<path d="M-26.4,358c-0.5-0.3-2.3,0.3-2.2-0.7C-28,357.9-26.2,357-26.4,358"/>
	<path d="M-23.3,347.6c-0.5-0.3-2.3,0.3-2.2-0.7C-24.9,347.5-23.2,346.6-23.3,347.6"/>
	<path d="M-24,348.5c-0.5-0.3-2,0.3-1.9-0.7C-25.3,348.5-23.9,347.5-24,348.5"/>
	<path d="M-24.5,349.4c-0.5-0.3-2,0.3-1.8-0.7C-25.8,349.4-24.4,348.4-24.5,349.4"/>
	<path d="M2.8,399.4c0.8,0,2.9-0.6,3.3,0.4C5.1,399.2,2.5,400.4,2.8,399.4"/>
	<path d="M1.9,398.3c0.8,0,2.9-0.6,3.3,0.4C4.1,398.1,1.6,399.3,1.9,398.3"/>
	<path d="M0.5,397.1c0.8,0,2.9-0.6,3.3,0.4C2.8,396.9,0.2,398.1,0.5,397.1"/>
	<path d="M-1.1,395.9c0.8,0,2.9-0.6,3.3,0.4C1.1,395.8-1.4,396.9-1.1,395.9"/>
	<path d="M-1.7,394.6c0.8,0,2.9-0.6,3.3,0.4C0.6,394.4-2,395.6-1.7,394.6"/>
	<path d="M-2.8,393.3c0.8,0,2.9-0.6,3.3,0.4C-0.5,393.1-3.1,394.3-2.8,393.3"/>
	<path d="M-3.5,391.9c0.8,0,2.9-0.6,3.3,0.4C-1.3,391.7-3.8,392.9-3.5,391.9"/>
	<path d="M-3.8,390.6c0.8,0,2.9-0.6,3.3,0.4C-1.5,390.4-4.1,391.6-3.8,390.6"/>
	<path d="M-22.7,374.1c0-0.6-1.2-1.9-0.3-2.2C-23.3,372.6-21.7,373.8-22.7,374.1"/>
	<path d="M-24.1,373.3c0-0.6-1.2-1.9-0.3-2.2C-24.7,371.8-23.1,373-24.1,373.3"/>
	<path d="M-15.9,394.8c-0.5-0.3-2.3,0.3-2.2-0.6C-17.5,394.7-15.8,393.8-15.9,394.8"/>
	<path d="M-15.7,395.7c-0.5-0.3-2.3,0.3-2.2-0.6C-17.3,395.7-15.7,394.7-15.7,395.7"/>
	<path d="M-15.6,396.7c-0.5-0.3-2.3,0.3-2.2-0.6C-17.2,396.7-15.5,395.7-15.6,396.7"/>
	<path d="M-17.6,397.3c0.5,0.3,2.3-0.3,2.2,0.6C-16,397.3-17.6,398.3-17.6,397.3"/>
	<path d="M-15,399c-0.5-0.3-2.3,0.3-2.2-0.6C-16.6,399-14.9,398-15,399"/>
	<path d="M-17,399.6c0.5,0.3,2.3-0.3,2.2,0.6C-15.4,399.6-17,400.6-17,399.6"/>
	<path d="M-14.5,401.2c-0.5-0.3-2.3,0.3-2.2-0.6C-16.1,401.2-14.4,400.2-14.5,401.2"/>
	<path d="M-16.5,401.8c0.5,0.3,2.3-0.3,2.2,0.6C-14.9,401.8-16.5,402.8-16.5,401.8"/>
	<path d="M-13.7,403.6c-0.4-0.2-1.9,0.3-1.8-0.5C-15,403.5-13.6,402.7-13.7,403.6"/>
	<path d="M-15.3,404c0.4,0.2,1.9-0.3,1.8,0.5C-14,404.1-15.4,404.9-15.3,404"/>
	<path d="M-12.5,377c-0.3-0.7-1.8-2.4-1.1-3.1C-13.7,375-11.5,376.8-12.5,377"/>
	<path d="M-6.4,379.8c-0.1-0.8-1.2-2.8-0.2-3.3C-7,377.7-5.3,380-6.4,379.8"/>
	<path d="M-7.6,380.3c-0.1-0.8-1.1-3.8-0.2-4.4C-8.2,377-6.6,380.4-7.6,380.3"/>
	<path d="M-14.1,377c-0.3-0.7-1.8-2.4-1.1-3.1C-15.3,375.1-13.1,376.9-14.1,377"/>
	<path d="M-15.8,376.8c-0.3-0.7-1.8-2.4-1.1-3.1C-16.9,374.8-14.8,376.6-15.8,376.8"/>
	<path d="M-17.4,376.5c-0.3-0.7-1.8-2.4-1.1-3.1C-18.5,374.5-16.4,376.3-17.4,376.5"/>
	<path d="M-28.8,358.4c0.8,0.1,2.8-0.1,3.3,0.6C-26.5,358.7-29.2,359.3-28.8,358.4"/>
	<path d="M-28.2,359.4c0.8,0.1,2.6,0,3.2,0.4C-25.8,359.9-28.6,360.3-28.2,359.4"/>
	<path d="M-27.6,360.5c0.8,0.1,3-0.3,3.2,0.7C-25.3,360.6-28,361.5-27.6,360.5"/>
	<path d="M-26.8,361.7c0.8,0.1,3-0.3,3.2,0.7C-24.6,361.8-27.2,362.6-26.8,361.7"/>
	<path d="M-23.2,363.5c-0.8-0.1-3,0.3-3.2-0.7C-25.4,363.4-22.8,362.5-23.2,363.5"/>
	<path d="M-26,364c0.8,0.1,3-0.3,3.2,0.7C-23.7,364.1-26.4,365-26,364"/>
	<path d="M-19,375.9c-0.3-0.7-1.8-2.4-1.1-3.1C-20.1,374-17.9,375.7-19,375.9"/>
	<path d="M-20.7,375.3c-0.3-0.7-1.8-2.4-1.1-3.1C-21.8,373.4-19.7,375.2-20.7,375.3"/>
	<path d="M-12.1,373.9c0.6,0.8,1.8,3.4,1.4,4.3C-10.9,376.8-12.2,375.4-12.1,373.9"/>
	<path d="M-10,374.7c0.5,0.8,1.3,3.1,0.9,4.1C-9.4,378.4-10,376.2-10,374.7"/>
</g>
</svg>
