<?xml version="1.0" encoding="utf-8"?>
<!-- Generator: Adobe Illustrator 19.0.0, SVG Export Plug-In . SVG Version: 6.00 Build 0)  -->
<svg version="1.1" id="Calque_1" xmlns="http://www.w3.org/2000/svg" xmlns:xlink="http://www.w3.org/1999/xlink" x="0px" y="0px"
	 viewBox="0 0 267 56.7" style="enable-background:new 0 0 267 56.7;" xml:space="preserve">
<style type="text/css">
	.st0{fill:#3C3C3B;}
</style>
<g id="XMLID_521_">
	<g id="XMLID_566_">
		<g id="XMLID_587_">
			<path id="XMLID_588_" class="st0" d="M79.5,3.4c0.2-0.2,0.4-0.5,0.6-0.8c0.2-0.3,0.4-0.5,0.6-0.5c0.2,0,0.3,0,0.3,0.1
				c0.1,0.1,0.1,0.4,0.1,0.8l0.3,4.1l0,0.5c0,0.4-0.1,0.5-0.4,0.5c-0.2,0-0.3-0.1-0.4-0.4c-0.4-0.9-1-1.9-1.9-3.1
				C77.7,3.6,76.6,3,75.2,3c-1,0-1.9,0.3-2.6,0.9c-0.7,0.6-1.3,1.4-1.7,2.5c-0.4,1.1-0.6,2.3-0.6,3.8c0,2.5,0.6,4.5,1.7,6
				c1.1,1.5,2.5,2.2,4.1,2.2c1.8,0,3.4-1.1,4.9-3.2c0.2-0.3,0.4-0.4,0.5-0.4c0.3,0,0.4,0.1,0.4,0.4c0,0.6-0.7,1.5-2.1,2.7
				c-1.4,1.3-3.1,1.9-5.2,1.9c-2.7,0-4.9-0.8-6.5-2.5c-1.6-1.7-2.4-3.8-2.4-6.2c0-2.5,0.8-4.6,2.4-6.4c1.6-1.8,3.6-2.7,6.1-2.7
				C76,1.9,77.8,2.4,79.5,3.4z"/>
		</g>
		<g id="XMLID_584_">
			<path id="XMLID_585_" class="st0" d="M97.7,10.1l0.1-4c0-1.1-0.1-1.9-0.3-2.4C97.3,3.3,96.8,3,96.1,3c-0.6,0-0.9-0.2-0.9-0.4
				c0-0.3,0.2-0.4,0.5-0.4c0.4,0,1,0,1.8,0.1c1.1,0,1.6,0.1,1.8,0.1c1.5,0,2.8,0,3.9-0.1c0.2,0,0.4,0,0.4,0c0.3,0,0.5,0.1,0.5,0.4
				c0,0.3-0.2,0.4-0.6,0.4c-0.6,0-1,0.1-1.3,0.2c-0.3,0.2-0.4,0.4-0.5,0.7c-0.1,0.3-0.2,1.5-0.2,3.4c-0.1,2-0.1,3.3-0.1,4.1
				c0,3.1,0,4.9,0.1,5.6c0,0.7,0.2,1.2,0.5,1.4c0.3,0.3,0.7,0.4,1.4,0.4c0.4,0,0.6,0.1,0.6,0.4c0,0.2-0.2,0.3-0.5,0.3
				c-0.1,0-0.3,0-0.7,0l-3.6-0.1c-0.2,0-0.6,0-1.3,0.1c-1.2,0.1-1.9,0.1-2.3,0.1c-0.3,0-0.5-0.1-0.5-0.4c0-0.2,0.1-0.3,0.4-0.3
				c0.6,0,1.1-0.1,1.4-0.3c0.3-0.2,0.5-0.7,0.6-1.5c0.1-0.8,0.2-2.3,0.2-4.7c0-0.2,0-0.6,0-1.1c-1.5,0-2.9-0.1-4-0.1
				c-1.3,0-2.4,0-3.2,0.1c-0.1,1.7-0.1,3.3-0.1,4.8c0,1,0.1,1.7,0.3,2.1c0.2,0.4,0.7,0.6,1.4,0.6c0.3,0,0.5,0.1,0.5,0.4
				c0,0.2-0.2,0.4-0.5,0.4c-0.1,0-0.3,0-0.6,0c-1-0.1-2.1-0.1-3.3-0.1c-0.5,0-1.2,0-2.1,0.1c-0.6,0-1,0.1-1.2,0.1
				c-0.5,0-0.7-0.1-0.7-0.4c0-0.2,0.2-0.3,0.5-0.4c0.7-0.1,1.1-0.2,1.4-0.4c0.2-0.2,0.4-0.6,0.5-1.2c0.1-0.6,0.2-2.3,0.2-5.2
				c0-2.8,0-4.4,0-4.7c0-1.3,0-2.2-0.1-2.8c-0.1-0.6-0.2-1-0.5-1.2C86,3.2,85.7,3,85.2,3c-0.3-0.1-0.6-0.1-0.7-0.2
				c-0.1,0-0.1-0.2-0.1-0.3c0-0.3,0.2-0.4,0.4-0.4c0.4,0,1,0,1.9,0.1c0.5,0,1.1,0,1.7,0l3.7-0.1c0.4,0,0.6,0.1,0.6,0.4
				c0,0.3-0.2,0.4-0.5,0.4c-0.6,0-1,0.1-1.2,0.2c-0.2,0.1-0.4,0.4-0.5,0.8c-0.1,0.4-0.2,1.2-0.2,2.4l0,3.7c1.1,0.1,2.3,0.2,3.6,0.2
				C95.3,10.3,96.6,10.2,97.7,10.1z"/>
		</g>
		<g id="XMLID_580_">
			<path id="XMLID_581_" class="st0" d="M114.4,1.7h0.9c1.2,2.5,2.8,6.4,4.9,11.7c1,2.5,1.6,3.9,2,4.5c0.4,0.5,0.9,0.8,1.7,1
				c0.3,0,0.4,0.1,0.4,0.3c0,0.3-0.2,0.4-0.5,0.4c-0.2,0-0.7,0-1.4-0.1c-0.9-0.1-1.7-0.1-2.3-0.1c-0.6,0-1.4,0-2.3,0.1
				c-0.7,0.1-1.2,0.1-1.4,0.1c-0.4,0-0.6-0.1-0.6-0.4c0-0.2,0.1-0.3,0.4-0.3c1.1-0.1,1.6-0.5,1.6-1.3c0-0.4-0.2-1-0.5-1.9
				c-0.3-0.9-0.6-1.8-1-2.5c-0.6,0-1,0-1.3,0c-1.8,0-3.1,0-4.1,0c-0.8,2.1-1.1,3.4-1.1,4.1c0,0.5,0.2,0.8,0.6,1.1
				c0.4,0.3,0.8,0.4,1.2,0.5c0.3,0,0.5,0.2,0.5,0.4c0,0.2-0.2,0.4-0.5,0.4c-0.1,0-0.5,0-1.1-0.1c-0.8-0.1-1.3-0.1-1.7-0.1
				c-0.7,0-1.3,0-2,0.1c-0.2,0-0.3,0-0.4,0c-0.3,0-0.5-0.1-0.5-0.4c0-0.2,0.1-0.3,0.3-0.4c0.5-0.1,0.9-0.3,1.2-0.5
				c0.3-0.2,0.6-0.6,1-1.2c0.3-0.6,0.8-1.6,1.2-3C110.7,11,112.3,6.9,114.4,1.7z M113.5,6.3l-2.3,5.8l4.6-0.1
				c-0.2-0.7-0.6-1.6-1.1-2.8C114.2,8,113.8,7,113.5,6.3z"/>
		</g>
		<g id="XMLID_577_">
			<path id="XMLID_578_" class="st0" d="M124.1,2.1c4.5,0.1,7.9,0.2,10,0.2c1.6,0,3.5,0,5.4-0.1c0.7,0,1.3-0.1,1.7-0.1
				c0.2,0,0.5,0,0.9,0c0.1,0.4,0.1,1.1,0.2,2.2l0.2,2.1c0,0.3-0.1,0.5-0.4,0.5c-0.2,0-0.4-0.2-0.6-0.6c-0.3-0.7-0.8-1.3-1.3-1.8
				c-0.5-0.5-1.1-0.8-1.8-1c-0.7-0.2-1.8-0.2-3.4-0.2c-0.1,1.3-0.2,3-0.2,5c0,2,0,4,0.1,5.9c0.1,1.9,0.2,3,0.3,3.4
				c0.1,0.4,0.3,0.7,0.6,0.9c0.3,0.2,0.9,0.3,1.9,0.4c0.3,0,0.5,0.1,0.5,0.4c0,0.2-0.1,0.4-0.4,0.4l-0.4,0l-2.7-0.1
				c-2.1,0-3.4,0-3.8,0l-1.6,0.1c-0.1,0-0.4,0-0.8,0c-0.2,0-0.3-0.2-0.3-0.3c0-0.3,0.2-0.4,0.5-0.4c0.8,0,1.4-0.2,1.7-0.5
				c0.4-0.3,0.6-0.8,0.7-1.5c0.1-0.7,0.1-2.2,0.1-4.6c0-3.7-0.1-6.7-0.3-9c-1.4,0-2.5,0.1-3.1,0.2c-0.6,0.1-1.3,0.4-1.8,1
				c-0.6,0.5-1.1,1.2-1.4,2c-0.1,0.3-0.3,0.5-0.5,0.5c-0.3,0-0.4-0.1-0.4-0.4c0-0.1,0.1-0.6,0.2-1.7C123.9,3.7,124,2.8,124.1,2.1z"
				/>
		</g>
		<g id="XMLID_574_">
			<path id="XMLID_575_" class="st0" d="M159.5,2.3c0.3,1.4,0.5,2.7,0.8,4.1c0,0.3-0.1,0.4-0.4,0.4c-0.1,0-0.3-0.1-0.5-0.4
				c-0.9-1.3-1.7-2.2-2.5-2.6c-0.7-0.4-1.8-0.6-3.2-0.6c-0.8,0-1.5,0.1-2.3,0.2c-0.2,1.5-0.2,3.2-0.2,5.1c0,0.3,0,0.8,0,1.6l1,0
				c0.6,0,1.1-0.1,1.6-0.3c0.4-0.2,0.8-0.5,1.1-1.1c0.3-0.6,0.5-0.9,0.5-1.1c0.1-0.3,0.2-0.4,0.4-0.4c0.2,0,0.4,0.1,0.4,0.3
				c0,0.1,0,0.1,0,0.2c-0.1,0.5-0.2,2.2-0.2,4.8c0,0.4,0,0.7,0.1,1c0,0.1,0,0.2,0,0.2c0,0.2-0.1,0.4-0.4,0.4c-0.2,0-0.3-0.2-0.4-0.7
				c-0.2-0.8-0.6-1.4-1.2-1.8c-0.6-0.4-1.6-0.6-2.9-0.7c0,1.5-0.1,2.4-0.1,2.9c0,2,0,3.2,0.1,3.5c0.1,0.4,0.3,0.7,0.7,0.9
				c0.4,0.2,1,0.3,1.9,0.3c3.3,0,5.5-1.1,6.5-3.2c0.1-0.3,0.3-0.4,0.5-0.4c0.3,0,0.4,0.1,0.4,0.3c0,0.1,0,0.3-0.1,0.5l-0.8,3.7
				l-4.7,0c-1.3,0-2.6,0-3.7-0.1c-1.2-0.1-2.1-0.1-2.7-0.1c-0.7,0-1.8,0-3.3,0.1c-0.2,0-0.3,0-0.4,0c-0.4,0-0.6-0.1-0.6-0.4
				c0-0.2,0.2-0.4,0.5-0.4c0.8,0,1.4-0.2,1.7-0.7c0.3-0.5,0.4-1.4,0.4-2.8l0.1-6.7c0-2.3,0-3.7-0.1-4.2c-0.1-0.5-0.2-0.9-0.5-1.1
				c-0.2-0.2-0.7-0.3-1.4-0.4c-0.3,0-0.4-0.2-0.4-0.4c0-0.3,0.2-0.4,0.5-0.4l3.1,0.1L159.5,2.3z"/>
		</g>
		<g id="XMLID_570_">
			<path id="XMLID_571_" class="st0" d="M172,1.7h0.9c1.1,2.5,2.8,6.4,4.9,11.7c1,2.5,1.6,3.9,2,4.5c0.4,0.5,0.9,0.8,1.7,1
				c0.3,0,0.4,0.1,0.4,0.3c0,0.3-0.2,0.4-0.5,0.4c-0.2,0-0.7,0-1.4-0.1c-0.9-0.1-1.7-0.1-2.3-0.1c-0.6,0-1.4,0-2.3,0.1
				c-0.7,0.1-1.2,0.1-1.4,0.1c-0.4,0-0.6-0.1-0.6-0.4c0-0.2,0.1-0.3,0.4-0.3c1.1-0.1,1.6-0.5,1.6-1.3c0-0.4-0.2-1-0.5-1.9
				c-0.3-0.9-0.6-1.8-1-2.5c-0.6,0-1,0-1.3,0c-1.8,0-3.1,0-4.1,0c-0.8,2.1-1.1,3.4-1.1,4.1c0,0.5,0.2,0.8,0.6,1.1
				c0.4,0.3,0.8,0.4,1.2,0.5c0.3,0,0.5,0.2,0.5,0.4c0,0.2-0.2,0.4-0.5,0.4c-0.1,0-0.5,0-1.1-0.1c-0.8-0.1-1.3-0.1-1.7-0.1
				c-0.7,0-1.3,0-2,0.1c-0.2,0-0.3,0-0.4,0c-0.3,0-0.5-0.1-0.5-0.4c0-0.2,0.1-0.3,0.3-0.4c0.5-0.1,0.9-0.3,1.2-0.5
				c0.3-0.2,0.6-0.6,1-1.2c0.3-0.6,0.8-1.6,1.2-3C168.3,11,169.9,6.9,172,1.7z M171.1,6.3l-2.3,5.8l4.6-0.1
				c-0.2-0.7-0.6-1.6-1.1-2.8C171.8,8,171.3,7,171.1,6.3z"/>
		</g>
		<g id="XMLID_567_">
			<path id="XMLID_568_" class="st0" d="M182.7,2.1l4.2,0.1c0.4,0,0.9,0,1.4-0.1c0.8-0.1,1.5-0.1,1.9-0.1c0.4,0,0.7,0.1,0.7,0.4
				c0,0.2-0.2,0.4-0.5,0.4c-0.6,0-1.1,0.3-1.4,0.7c-0.3,0.4-0.5,1.3-0.6,2.5c-0.1,1.3-0.1,2.7-0.1,4.2c0,2.5,0.1,4.1,0.3,5
				c0.2,0.8,0.7,1.5,1.5,2c0.8,0.5,1.8,0.8,3.1,0.8c1.3,0,2.3-0.3,2.9-0.8c0.7-0.6,1.1-1.4,1.4-2.6c0.2-1.2,0.4-3.4,0.4-6.6
				c0-1.9-0.1-3.2-0.4-3.9c-0.3-0.7-0.8-1.1-1.5-1.2c-0.5-0.1-0.8-0.2-0.8-0.5c0-0.3,0.2-0.4,0.6-0.4c0.2,0,0.5,0,1,0.1
				c0.5,0,1,0.1,1.5,0.1c0.5,0,1,0,1.6-0.1c0.5,0,0.8-0.1,0.9-0.1c0.4,0,0.7,0.1,0.7,0.4c0,0.2-0.2,0.3-0.5,0.4
				c-0.4,0-0.8,0.2-1.2,0.6c-0.4,0.4-0.6,1-0.7,1.8c-0.1,0.8-0.2,3-0.2,6.4c0,2.3-0.2,3.9-0.7,4.9c-0.5,1-1.2,1.8-2.4,2.4
				c-1.1,0.6-2.5,0.8-4.2,0.8c-1.3,0-2.4-0.1-3.4-0.4c-1-0.2-1.7-0.6-2.3-1.1c-0.6-0.5-1-1-1.2-1.7c-0.2-0.6-0.4-1.5-0.4-2.8l0.1-7
				c0-1-0.1-1.8-0.2-2.4c-0.1-0.6-0.3-1-0.5-1.2c-0.2-0.2-0.6-0.3-1.1-0.4c-0.3,0-0.5-0.1-0.6-0.1c-0.1-0.1-0.1-0.2-0.1-0.3
				C182.1,2.2,182.3,2.1,182.7,2.1z"/>
		</g>
	</g>
	<g id="XMLID_522_">
		<g id="XMLID_563_">
			<path id="XMLID_564_" class="st0" d="M17.2,37.2l0.7,3.9l0,0.2c0,0.2-0.1,0.4-0.3,0.4c-0.1,0-0.2-0.1-0.4-0.3
				c-0.7-1-1.4-1.9-2.3-2.4c-0.8-0.6-2.2-0.9-4.1-0.9c-1.3,0-2,0.1-2.2,0.4c-0.2,0.3-0.2,2.4-0.2,6.4c1,0,1.7-0.1,2.2-0.2
				c0.5-0.1,0.9-0.4,1.2-0.7c0.3-0.3,0.5-1,0.8-1.9c0.1-0.2,0.2-0.4,0.3-0.4c0.3,0,0.4,0.2,0.4,0.5l-0.1,4.2c0,1.4-0.1,2.2-0.1,2.3
				c-0.1,0.1-0.1,0.2-0.3,0.2c-0.2,0-0.3-0.2-0.4-0.5c-0.1-0.8-0.4-1.5-0.8-1.9c-0.5-0.5-1.5-0.7-3.2-0.7l0,4.8c0,0.9,0.1,1.6,0.2,2
				C8.8,53,9,53.3,9.2,53.5c0.3,0.1,0.7,0.2,1.3,0.2c0.4,0,0.7,0,0.8,0.1c0.1,0,0.2,0.2,0.2,0.3c0,0.3-0.2,0.4-0.6,0.4
				c-0.4,0-1,0-2-0.1c-0.8-0.1-1.5-0.1-1.9-0.1l-4.1,0.1c-0.4,0-0.6-0.1-0.6-0.4c0-0.2,0.3-0.4,0.8-0.4c0.9,0,1.4-0.4,1.6-1.2
				c0.2-0.8,0.3-3.5,0.3-8.2c0-3.1-0.1-4.9-0.3-5.5c-0.2-0.6-0.8-0.9-1.6-0.9l-0.4,0c-0.3,0-0.5-0.1-0.5-0.4c0-0.2,0.2-0.4,0.8-0.4
				H17.2z"/>
		</g>
		<g id="XMLID_559_">
			<path id="XMLID_560_" class="st0" d="M29.9,36.9c1.8,0,3.3,0.4,4.6,1.1c1.3,0.7,2.4,1.7,3.2,3.1c0.8,1.3,1.2,2.8,1.2,4.4
				c0,2.4-0.9,4.6-2.7,6.5c-1.8,1.9-4.1,2.8-6.8,2.8c-2.4,0-4.5-0.8-6.3-2.3c-1.7-1.6-2.6-3.7-2.6-6.3c0-2.5,0.9-4.7,2.7-6.4
				C25,37.8,27.3,36.9,29.9,36.9z M34.5,45.7c0-2.6-0.4-4.6-1.3-6c-0.9-1.3-2-2-3.4-2c-1.4,0-2.5,0.7-3.4,2
				c-0.9,1.3-1.3,3.3-1.3,5.9c0,2.5,0.4,4.5,1.3,5.9c0.9,1.4,2,2.1,3.5,2.1c1.3,0,2.4-0.6,3.3-1.9C34,50.6,34.5,48.5,34.5,45.7z"/>
		</g>
		<g id="XMLID_556_">
			<path id="XMLID_557_" class="st0" d="M42.4,37l4.2,0.1c0.4,0,0.9,0,1.4-0.1c0.8-0.1,1.5-0.1,1.9-0.1c0.4,0,0.7,0.1,0.7,0.4
				c0,0.2-0.2,0.4-0.5,0.4c-0.6,0-1.1,0.3-1.4,0.7c-0.3,0.4-0.5,1.3-0.6,2.5C48,42.2,48,43.6,48,45.1c0,2.5,0.1,4.1,0.4,5
				c0.2,0.8,0.7,1.5,1.5,2c0.8,0.5,1.8,0.8,3.1,0.8c1.3,0,2.3-0.3,2.9-0.8c0.7-0.6,1.1-1.4,1.4-2.6c0.2-1.2,0.4-3.4,0.4-6.6
				c0-1.9-0.2-3.2-0.4-3.9c-0.3-0.7-0.8-1.1-1.5-1.2c-0.5-0.1-0.8-0.2-0.8-0.5c0-0.3,0.2-0.4,0.6-0.4c0.2,0,0.5,0,1,0.1
				c0.5,0,1,0.1,1.5,0.1c0.5,0,1,0,1.6-0.1c0.5,0,0.8-0.1,0.9-0.1c0.4,0,0.7,0.1,0.7,0.4c0,0.2-0.2,0.3-0.5,0.4
				c-0.4,0-0.8,0.2-1.2,0.6c-0.4,0.4-0.6,1-0.7,1.8c-0.1,0.8-0.2,3-0.2,6.4c0,2.3-0.2,3.9-0.7,4.9c-0.5,1-1.2,1.8-2.4,2.4
				c-1.1,0.6-2.5,0.8-4.2,0.8c-1.3,0-2.4-0.1-3.4-0.3c-1-0.2-1.7-0.6-2.3-1.1c-0.6-0.5-1-1-1.2-1.7c-0.2-0.6-0.4-1.5-0.4-2.8l0.1-7
				c0-1-0.1-1.8-0.2-2.4c-0.1-0.6-0.3-1-0.5-1.2c-0.2-0.2-0.6-0.3-1.1-0.4c-0.3,0-0.5-0.1-0.6-0.1c-0.1-0.1-0.1-0.2-0.1-0.3
				C41.9,37.1,42.1,37,42.4,37z"/>
		</g>
		<g id="XMLID_552_">
			<path id="XMLID_553_" class="st0" d="M73.3,45.6c1.2,0.2,2.1,0.5,2.9,1.1c0.8,0.5,1.3,1.6,1.7,3.3c0.4,1.5,0.8,2.5,1.2,3
				c0.4,0.5,1,0.7,1.7,0.8c0.4,0,0.6,0.2,0.6,0.4c0,0.2-0.3,0.4-1,0.4l-5-0.1c-0.5-0.5-0.9-1.5-1.1-2.8c-0.2-1.7-0.5-2.9-0.8-3.6
				c-0.3-0.7-0.7-1.2-1.2-1.5c-0.5-0.3-1.1-0.5-1.8-0.5c-0.2,0-0.5,0-0.8,0c0,3.1,0,5,0,5.7c0,0.7,0.2,1.2,0.4,1.5
				c0.3,0.3,0.8,0.5,1.5,0.5c0.4,0,0.6,0.2,0.6,0.4c0,0.2-0.2,0.4-0.5,0.4l-4-0.1c-0.5,0-1.2,0-2.1,0.1c-0.8,0-1.3,0.1-1.5,0.1
				c-0.4,0-0.5-0.1-0.5-0.4c0-0.2,0.2-0.4,0.5-0.4c0.5,0,0.9-0.1,1.4-0.4c0.4-0.2,0.6-1.3,0.6-3.1l0-2.4l0-4.7
				c0-2.4-0.1-3.9-0.3-4.4c-0.2-0.5-0.8-0.8-1.7-0.8c-0.4,0-0.5-0.1-0.5-0.4c0-0.3,0.2-0.4,0.7-0.4c2.5,0,4.5-0.1,6.2-0.2
				c0.8-0.1,1.4-0.1,2-0.1c2,0,3.5,0.4,4.6,1.2c1.1,0.8,1.7,1.8,1.7,3.1c0,0.9-0.3,1.6-0.8,2.3c-0.5,0.7-1.2,1.2-2,1.5
				C75.3,45.3,74.3,45.5,73.3,45.6z M69.7,45c0.2,0,0.4,0,0.5,0c0.8,0,1.5-0.1,2.3-0.4c0.8-0.3,1.3-0.7,1.6-1.4
				c0.3-0.6,0.5-1.3,0.5-2c0-1.1-0.3-1.9-1-2.5c-0.6-0.6-1.5-0.9-2.5-0.9c-0.4,0-0.9,0.1-1.4,0.2V45z"/>
		</g>
		<g id="XMLID_549_">
			<path id="XMLID_550_" class="st0" d="M96.9,38.3c0.2-0.2,0.4-0.5,0.6-0.8c0.2-0.3,0.4-0.5,0.6-0.5c0.2,0,0.3,0,0.3,0.1
				c0.1,0.1,0.1,0.4,0.1,0.8l0.3,4.1l0,0.5c0,0.3-0.1,0.5-0.4,0.5c-0.2,0-0.3-0.1-0.4-0.4c-0.4-0.9-1-1.9-1.9-3.1
				c-0.9-1.1-2.1-1.7-3.5-1.7c-1,0-1.9,0.3-2.6,0.9c-0.7,0.6-1.3,1.4-1.7,2.5c-0.4,1.1-0.6,2.3-0.6,3.8c0,2.5,0.6,4.5,1.7,6
				c1.1,1.5,2.5,2.2,4.1,2.2c1.8,0,3.4-1.1,4.9-3.2c0.2-0.3,0.4-0.4,0.5-0.4c0.3,0,0.4,0.1,0.4,0.4c0,0.6-0.7,1.5-2.1,2.7
				c-1.4,1.3-3.1,1.9-5.2,1.9c-2.7,0-4.9-0.8-6.5-2.5c-1.6-1.7-2.4-3.8-2.4-6.2c0-2.5,0.8-4.6,2.4-6.4c1.6-1.8,3.6-2.7,6.1-2.7
				C93.3,36.8,95.1,37.3,96.9,38.3z"/>
		</g>
		<g id="XMLID_545_">
			<path id="XMLID_546_" class="st0" d="M109.8,36.6h0.9c1.1,2.5,2.8,6.4,4.9,11.8c1,2.5,1.6,3.9,2,4.5c0.4,0.5,0.9,0.8,1.7,1
				c0.3,0,0.4,0.2,0.4,0.3c0,0.3-0.2,0.4-0.5,0.4c-0.2,0-0.7,0-1.4-0.1c-0.9-0.1-1.7-0.1-2.3-0.1c-0.6,0-1.4,0-2.3,0.1
				c-0.7,0.1-1.2,0.1-1.4,0.1c-0.4,0-0.6-0.1-0.6-0.4c0-0.2,0.1-0.3,0.4-0.3c1.1-0.1,1.6-0.5,1.6-1.3c0-0.3-0.2-1-0.5-1.9
				c-0.3-0.9-0.6-1.8-1-2.5c-0.6,0-1,0-1.3,0c-1.8,0-3.1,0-4.1,0c-0.8,2.1-1.1,3.4-1.1,4.1c0,0.5,0.2,0.8,0.6,1.1
				c0.4,0.3,0.8,0.4,1.2,0.5c0.3,0,0.5,0.2,0.5,0.4c0,0.2-0.2,0.4-0.5,0.4c-0.1,0-0.5,0-1.1-0.1c-0.8-0.1-1.3-0.1-1.7-0.1
				c-0.7,0-1.3,0-2,0.1c-0.2,0-0.3,0-0.4,0c-0.3,0-0.5-0.1-0.5-0.4c0-0.2,0.1-0.3,0.3-0.4c0.5-0.1,0.9-0.3,1.2-0.5
				c0.3-0.2,0.6-0.6,1-1.2c0.3-0.6,0.8-1.6,1.2-3C106,45.9,107.7,41.8,109.8,36.6z M108.9,41.2l-2.3,5.8l4.6-0.1
				c-0.2-0.7-0.6-1.6-1.1-2.8C109.6,42.8,109.1,41.9,108.9,41.2z"/>
		</g>
		<g id="XMLID_542_">
			<path id="XMLID_543_" class="st0" d="M131.9,37.7c0.1-0.1,0.2-0.3,0.3-0.5c0.1-0.3,0.3-0.4,0.4-0.4c0.2,0,0.4,0.2,0.4,0.6
				l0.5,3.6l0.1,0.4c0,0.2-0.1,0.4-0.4,0.4c-0.2,0-0.3,0-0.4-0.1c-0.1-0.1-0.2-0.4-0.4-0.8c-0.4-0.8-1-1.5-1.9-2.1
				c-0.9-0.6-1.7-0.9-2.6-0.9c-0.8,0-1.5,0.2-2.1,0.7c-0.6,0.5-0.8,1.1-0.8,1.8c0,0.6,0.3,1.1,0.8,1.6c0.5,0.5,1.5,0.9,3,1.3
				c2.3,0.7,3.9,1.5,4.7,2.5c0.8,1,1.2,2.1,1.2,3.2c0,1.2-0.3,2.2-0.9,3.1c-0.6,0.8-1.3,1.5-2.2,2c-0.8,0.5-1.9,0.7-3.2,0.7
				c-0.7,0-1.5-0.1-2.3-0.3c-0.8-0.2-1.6-0.5-2.5-1c-0.2,0.2-0.3,0.5-0.4,0.8c-0.1,0.4-0.3,0.5-0.5,0.5c-0.2,0-0.3-0.2-0.4-0.7
				l-0.4-4.7c0-0.2,0-0.3,0-0.4c0-0.2,0.1-0.4,0.4-0.4c0.2,0,0.4,0.2,0.6,0.7c0.5,1.3,1.3,2.4,2.2,3.3c0.9,0.9,2,1.3,3.2,1.3
				c1,0,1.9-0.3,2.5-0.9c0.6-0.6,0.9-1.3,0.9-2.1c0-0.8-0.3-1.4-0.9-2c-0.6-0.5-1.6-1-3.1-1.5c-1.5-0.5-2.6-0.9-3.3-1.4
				c-0.7-0.4-1.3-1-1.7-1.8c-0.4-0.8-0.6-1.5-0.6-2.3c0-1.4,0.5-2.5,1.6-3.5c1.1-1,2.5-1.4,4.3-1.4C129,36.8,130.3,37.1,131.9,37.7z
				"/>
		</g>
		<g id="XMLID_539_">
			<path id="XMLID_540_" class="st0" d="M159.3,45l0.1-4c0-1.1-0.1-1.9-0.3-2.4c-0.2-0.5-0.7-0.7-1.4-0.7c-0.6,0-0.9-0.2-0.9-0.4
				c0-0.3,0.2-0.4,0.5-0.4c0.4,0,1,0,1.8,0.1c1,0,1.6,0.1,1.8,0.1c1.5,0,2.8,0,3.9-0.1c0.2,0,0.4,0,0.4,0c0.3,0,0.5,0.1,0.5,0.4
				c0,0.3-0.2,0.4-0.6,0.4c-0.6,0-1,0.1-1.3,0.2c-0.3,0.2-0.4,0.4-0.5,0.7c-0.1,0.3-0.2,1.5-0.2,3.5c-0.1,2-0.1,3.3-0.1,4.1
				c0,3.1,0,4.9,0.1,5.6c0,0.7,0.2,1.2,0.5,1.4c0.3,0.3,0.7,0.4,1.4,0.4c0.4,0,0.6,0.1,0.6,0.4c0,0.2-0.2,0.3-0.5,0.3
				c-0.1,0-0.3,0-0.7,0l-3.6-0.1c-0.2,0-0.6,0-1.2,0.1c-1.2,0.1-1.9,0.1-2.3,0.1c-0.3,0-0.5-0.1-0.5-0.4c0-0.2,0.1-0.3,0.4-0.3
				c0.6,0,1.1-0.1,1.4-0.3c0.3-0.2,0.5-0.7,0.6-1.5c0.1-0.8,0.2-2.3,0.2-4.7c0-0.2,0-0.6,0-1.1c-1.5,0-2.9-0.1-4-0.1
				c-1.3,0-2.4,0-3.2,0.1c-0.1,1.7-0.1,3.3-0.1,4.8c0,1,0.1,1.7,0.3,2.1c0.2,0.4,0.7,0.6,1.4,0.6c0.3,0,0.5,0.1,0.5,0.4
				c0,0.2-0.2,0.4-0.5,0.4c-0.1,0-0.3,0-0.6,0c-1-0.1-2.1-0.1-3.3-0.1c-0.5,0-1.2,0-2.1,0.1c-0.6,0-1,0.1-1.2,0.1
				c-0.5,0-0.7-0.1-0.7-0.4c0-0.2,0.2-0.3,0.5-0.4c0.7-0.1,1.1-0.2,1.4-0.4c0.2-0.2,0.4-0.6,0.5-1.2c0.1-0.6,0.2-2.3,0.2-5.2
				c0-2.8,0-4.4,0-4.7c0-1.3,0-2.2-0.1-2.8c-0.1-0.6-0.2-1-0.5-1.2c-0.2-0.2-0.6-0.3-1-0.4c-0.3-0.1-0.6-0.1-0.7-0.2
				c-0.1,0-0.1-0.1-0.1-0.3c0-0.3,0.1-0.4,0.4-0.4c0.4,0,1,0,1.9,0.1c0.5,0,1.1,0.1,1.7,0.1l3.7-0.1c0.4,0,0.6,0.1,0.6,0.4
				c0,0.3-0.2,0.4-0.5,0.4c-0.6,0-1,0.1-1.2,0.2c-0.2,0.1-0.4,0.4-0.5,0.8c-0.1,0.4-0.2,1.2-0.2,2.4l0,3.7c1.1,0.1,2.3,0.2,3.6,0.2
				C156.9,45.1,158.1,45.1,159.3,45z"/>
		</g>
		<g id="XMLID_535_">
			<path id="XMLID_536_" class="st0" d="M177.9,36.9c1.8,0,3.3,0.4,4.6,1.1c1.3,0.7,2.4,1.7,3.2,3.1c0.8,1.3,1.2,2.8,1.2,4.4
				c0,2.4-0.9,4.6-2.7,6.5c-1.8,1.9-4.1,2.8-6.8,2.8c-2.4,0-4.5-0.8-6.3-2.3c-1.7-1.6-2.6-3.7-2.6-6.3c0-2.5,0.9-4.7,2.7-6.4
				C173,37.8,175.2,36.9,177.9,36.9z M182.4,45.7c0-2.6-0.4-4.6-1.3-6c-0.9-1.3-2-2-3.4-2c-1.4,0-2.5,0.7-3.4,2
				c-0.9,1.3-1.3,3.3-1.3,5.9c0,2.5,0.4,4.5,1.3,5.9c0.9,1.4,2,2.1,3.5,2.1c1.3,0,2.4-0.6,3.3-1.9C182,50.6,182.4,48.5,182.4,45.7z"
				/>
		</g>
		<g id="XMLID_532_">
			<path id="XMLID_533_" class="st0" d="M200.1,37.7c0.1-0.1,0.2-0.3,0.3-0.5c0.1-0.3,0.3-0.4,0.4-0.4c0.2,0,0.4,0.2,0.4,0.6
				l0.5,3.6l0.1,0.4c0,0.2-0.1,0.4-0.4,0.4c-0.2,0-0.3,0-0.4-0.1c-0.1-0.1-0.2-0.4-0.4-0.8c-0.4-0.8-1-1.5-1.9-2.1
				c-0.9-0.6-1.7-0.9-2.6-0.9c-0.8,0-1.5,0.2-2.1,0.7c-0.6,0.5-0.8,1.1-0.8,1.8c0,0.6,0.3,1.1,0.8,1.6c0.5,0.5,1.5,0.9,3,1.3
				c2.3,0.7,3.9,1.5,4.7,2.5c0.8,1,1.2,2.1,1.2,3.2c0,1.2-0.3,2.2-0.9,3.1c-0.6,0.8-1.3,1.5-2.2,2c-0.8,0.5-1.9,0.7-3.2,0.7
				c-0.7,0-1.5-0.1-2.3-0.3c-0.8-0.2-1.6-0.5-2.5-1c-0.2,0.2-0.3,0.5-0.4,0.8c-0.1,0.4-0.3,0.5-0.5,0.5c-0.2,0-0.3-0.2-0.4-0.7
				l-0.4-4.7c0-0.2,0-0.3,0-0.4c0-0.2,0.1-0.4,0.4-0.4c0.2,0,0.4,0.2,0.5,0.7c0.5,1.3,1.3,2.4,2.2,3.3c0.9,0.9,2,1.3,3.2,1.3
				c1,0,1.9-0.3,2.5-0.9c0.6-0.6,0.9-1.3,0.9-2.1c0-0.8-0.3-1.4-0.9-2c-0.6-0.5-1.6-1-3.1-1.5c-1.5-0.5-2.6-0.9-3.3-1.4
				c-0.7-0.4-1.3-1-1.7-1.8c-0.4-0.8-0.6-1.5-0.6-2.3c0-1.4,0.5-2.5,1.6-3.5c1.1-1,2.5-1.4,4.3-1.4
				C197.1,36.8,198.4,37.1,200.1,37.7z"/>
		</g>
		<g id="XMLID_529_">
			<path id="XMLID_530_" class="st0" d="M206.2,37c4.5,0.1,7.9,0.2,10,0.2c1.6,0,3.5,0,5.4-0.1c0.7,0,1.3-0.1,1.7-0.1
				c0.2,0,0.5,0,0.9,0c0.1,0.4,0.1,1.1,0.2,2.2l0.2,2.1c0,0.3-0.1,0.5-0.4,0.5c-0.2,0-0.4-0.2-0.6-0.6c-0.3-0.7-0.8-1.3-1.3-1.8
				c-0.5-0.5-1.1-0.8-1.8-1c-0.7-0.2-1.8-0.2-3.4-0.2c-0.1,1.3-0.2,3-0.2,5c0,2,0,4,0.1,5.9c0.1,1.9,0.2,3,0.3,3.4
				c0.1,0.4,0.3,0.7,0.6,0.9c0.3,0.2,0.9,0.3,1.9,0.4c0.3,0,0.5,0.1,0.5,0.4c0,0.2-0.1,0.4-0.4,0.4l-0.4,0l-2.7-0.1
				c-2.1,0-3.4,0-3.8,0l-1.6,0.1c-0.1,0-0.4,0-0.8,0c-0.2,0-0.3-0.2-0.3-0.3c0-0.3,0.2-0.4,0.5-0.4c0.8,0,1.4-0.2,1.7-0.5
				c0.4-0.3,0.6-0.8,0.7-1.5c0.1-0.7,0.1-2.2,0.1-4.6c0-3.7-0.1-6.7-0.3-9c-1.4,0-2.5,0.1-3.1,0.2c-0.6,0.1-1.3,0.4-1.8,1
				c-0.6,0.5-1.1,1.2-1.5,2c-0.1,0.3-0.3,0.5-0.5,0.5c-0.3,0-0.4-0.1-0.4-0.4c0-0.1,0.1-0.6,0.2-1.7C205.9,38.5,206,37.7,206.2,37z"
				/>
		</g>
		<g id="XMLID_526_">
			<path id="XMLID_527_" class="st0" d="M241.6,37.2c0.3,1.4,0.6,2.7,0.8,4.1c0,0.3-0.1,0.4-0.4,0.4c-0.1,0-0.3-0.1-0.5-0.4
				c-0.9-1.3-1.7-2.2-2.5-2.6c-0.7-0.4-1.8-0.6-3.2-0.6c-0.8,0-1.5,0.1-2.3,0.2c-0.2,1.5-0.2,3.2-0.2,5.1c0,0.3,0,0.8,0,1.6l1,0
				c0.6,0,1.2-0.1,1.6-0.3c0.4-0.2,0.8-0.5,1.1-1.1c0.3-0.6,0.5-0.9,0.5-1.1c0.1-0.3,0.2-0.4,0.4-0.4c0.2,0,0.4,0.1,0.4,0.3
				c0,0.1,0,0.1,0,0.2c-0.1,0.5-0.2,2.2-0.2,4.8c0,0.4,0,0.7,0.1,1c0,0.1,0,0.2,0,0.2c0,0.2-0.1,0.4-0.4,0.4c-0.2,0-0.3-0.2-0.4-0.7
				c-0.2-0.8-0.6-1.4-1.2-1.8c-0.6-0.4-1.6-0.6-2.9-0.7c0,1.5-0.1,2.4-0.1,2.9c0,2,0,3.2,0.1,3.5c0.1,0.4,0.3,0.7,0.7,0.9
				c0.4,0.2,1,0.3,1.9,0.3c3.3,0,5.5-1.1,6.5-3.2c0.1-0.3,0.3-0.4,0.5-0.4c0.3,0,0.4,0.1,0.4,0.3c0,0.1,0,0.3-0.1,0.5l-0.8,3.7
				l-4.7,0c-1.3,0-2.6,0-3.7-0.1c-1.2-0.1-2.1-0.1-2.7-0.1c-0.7,0-1.8,0-3.3,0.1c-0.2,0-0.3,0-0.4,0c-0.4,0-0.6-0.1-0.6-0.4
				c0-0.2,0.2-0.4,0.5-0.4c0.8,0,1.4-0.2,1.7-0.7c0.3-0.5,0.4-1.4,0.4-2.8l0.1-6.7c0-2.3,0-3.7-0.1-4.2c-0.1-0.5-0.2-0.9-0.4-1.1
				c-0.2-0.2-0.7-0.3-1.4-0.4c-0.3,0-0.4-0.2-0.4-0.4c0-0.3,0.2-0.4,0.5-0.4l3.1,0.1L241.6,37.2z"/>
		</g>
		<g id="XMLID_523_">
			<path id="XMLID_524_" class="st0" d="M250.8,37.1c4.2,4.7,7.6,8.5,10.4,11.4c0-0.6,0-1,0-1.1l0-5.2c0-1.2-0.1-2.1-0.2-2.6
				c-0.1-0.5-0.4-0.9-0.9-1.2c-0.5-0.3-1-0.5-1.6-0.5c-0.3,0-0.5-0.2-0.5-0.4c0-0.3,0.1-0.4,0.4-0.4c0.2,0,0.4,0,0.6,0
				c0.5,0.1,1.2,0.1,2.2,0.1c1.2,0,2.1,0,2.7-0.1c0.3,0,0.5,0,0.7,0c0.3,0,0.5,0.1,0.5,0.4c0,0.2-0.2,0.4-0.7,0.4
				c-0.5,0.1-1.1,0.3-1.5,0.7c-0.5,0.4-0.7,1.2-0.7,2.4l0.1,7.4l-0.1,5.6c0,0.5-0.1,0.7-0.4,0.7c-0.1,0-0.2,0-0.3-0.1
				c-0.1-0.1-0.7-0.7-1.8-1.8c-1.1-1.2-2.7-2.9-4.9-5.4c-2.2-2.4-3.7-4.2-4.5-5.2c0,0.2,0,2.4,0,6.6c0,1.3,0.1,2.3,0.2,3
				c0.1,0.7,0.4,1.3,1,1.6c0.6,0.3,1.1,0.5,1.6,0.5c0.3,0,0.4,0.1,0.4,0.3c0,0.3-0.2,0.4-0.5,0.4c-0.2,0-0.5,0-0.8-0.1
				c-0.5-0.1-1.2-0.1-2-0.1c-1.3,0-2.2,0-2.8,0.1c-0.4,0-0.6,0.1-0.8,0.1c-0.3,0-0.5-0.1-0.5-0.4c0-0.2,0.3-0.3,0.8-0.4
				c1-0.1,1.6-0.4,1.8-1c0.2-0.6,0.4-1.4,0.4-2.5c0-4.5,0-7.2-0.1-8.2c0-1-0.4-1.9-0.9-2.7c-0.6-0.8-1.3-1.3-2.1-1.4
				c-0.3-0.1-0.5-0.2-0.5-0.4c0-0.3,0.2-0.4,0.5-0.4c0.1,0,0.2,0,0.4,0c0.2,0,0.6,0,1.1,0C248.8,37,249.9,37,250.8,37.1z"/>
		</g>
	</g>
</g>
</svg>
