<?xml version="1.0" encoding="utf-8"?>
<!-- Generator: Adobe Illustrator 19.0.0, SVG Export Plug-In . SVG Version: 6.00 Build 0)  -->
<svg version="1.1" id="Calque_1" xmlns="http://www.w3.org/2000/svg" xmlns:xlink="http://www.w3.org/1999/xlink" x="0px" y="0px"
	 viewBox="0 0 357.6 257.6" style="enable-background:new 0 0 357.6 257.6;" xml:space="preserve">
<style type="text/css">
	.stlogo0{fill:#FFFFFF;}
	.stlogo1{fill-rule:evenodd;clip-rule:evenodd;fill:#FFFFFF;}
</style>
<g id="XMLID_565_">
	<g id="XMLID_610_">
		<g id="XMLID_631_">
			<path id="XMLID_632_" class="stlogo0" d="M106.9,187.9c0.2-0.3,0.5-0.6,0.8-1c0.3-0.4,0.6-0.7,0.8-0.7c0.2,0,0.4,0.1,0.4,0.2
				c0.1,0.1,0.1,0.5,0.2,1.1l0.3,5.4l0,0.7c0,0.5-0.2,0.7-0.6,0.7c-0.2,0-0.4-0.2-0.6-0.6c-0.5-1.2-1.3-2.6-2.5-4.1
				c-1.2-1.5-2.8-2.2-4.6-2.2c-1.4,0-2.5,0.4-3.5,1.2c-0.9,0.8-1.7,1.9-2.2,3.3c-0.5,1.4-0.8,3.1-0.8,5c0,3.3,0.7,5.9,2.2,7.9
				c1.5,2,3.3,2.9,5.4,2.9c2.4,0,4.5-1.4,6.5-4.3c0.2-0.3,0.5-0.5,0.7-0.5c0.4,0,0.5,0.2,0.5,0.6c0,0.8-0.9,2-2.7,3.6
				c-1.8,1.7-4.1,2.5-6.8,2.5c-3.6,0-6.4-1.1-8.5-3.3c-2.1-2.2-3.1-5-3.1-8.2c0-3.2,1.1-6,3.2-8.4c2.1-2.4,4.8-3.6,8-3.6
				C102.2,186,104.5,186.6,106.9,187.9z"/>
		</g>
		<g id="XMLID_628_">
			<path id="XMLID_629_" class="stlogo0" d="M130.8,196.7l0.2-5.2c0-1.5-0.1-2.5-0.4-3.1c-0.3-0.6-0.9-0.9-1.9-1c-0.8,0-1.2-0.2-1.2-0.6
				c0-0.4,0.2-0.5,0.7-0.5c0.5,0,1.3,0,2.4,0.1c1.4,0.1,2.2,0.1,2.3,0.1c1.9,0,3.7,0,5.1-0.1c0.3,0,0.5,0,0.6,0
				c0.4,0,0.7,0.2,0.7,0.5c0,0.4-0.2,0.5-0.7,0.6c-0.8,0-1.4,0.1-1.7,0.3c-0.3,0.2-0.6,0.5-0.7,1c-0.1,0.4-0.2,1.9-0.3,4.5
				c-0.1,2.6-0.1,4.4-0.1,5.4c0,4,0,6.5,0.1,7.4c0,0.9,0.3,1.5,0.6,1.9c0.4,0.4,1,0.5,1.8,0.5c0.5,0,0.8,0.2,0.8,0.5
				c0,0.3-0.2,0.4-0.6,0.4c-0.1,0-0.4,0-0.9-0.1l-4.8-0.2c-0.3,0-0.8,0-1.6,0.1c-1.6,0.1-2.6,0.2-3,0.2c-0.4,0-0.6-0.2-0.6-0.5
				c0-0.3,0.2-0.4,0.5-0.4c0.8,0,1.4-0.1,1.8-0.4c0.4-0.3,0.7-0.9,0.8-2c0.2-1,0.3-3.1,0.3-6.2c0-0.3,0-0.8,0-1.4
				c-2-0.1-3.8-0.1-5.3-0.1c-1.8,0-3.2,0.1-4.2,0.2c-0.1,2.3-0.2,4.4-0.2,6.3c0,1.3,0.1,2.3,0.4,2.8c0.3,0.5,0.9,0.8,1.8,0.8
				c0.4,0,0.7,0.2,0.7,0.5c0,0.3-0.2,0.5-0.7,0.5c-0.2,0-0.4,0-0.8-0.1c-1.4-0.1-2.8-0.2-4.3-0.2c-0.7,0-1.6,0-2.8,0.1
				c-0.8,0.1-1.4,0.1-1.6,0.1c-0.6,0-0.9-0.2-0.9-0.5c0-0.3,0.2-0.4,0.7-0.5c0.9-0.1,1.5-0.3,1.8-0.6c0.3-0.3,0.5-0.8,0.7-1.6
				c0.2-0.8,0.2-3.1,0.3-6.8c0-3.7,0-5.8,0-6.1c0-1.7-0.1-2.9-0.2-3.7c-0.1-0.8-0.3-1.3-0.6-1.5c-0.3-0.3-0.7-0.4-1.3-0.5
				c-0.5-0.1-0.7-0.1-0.9-0.2c-0.1-0.1-0.2-0.2-0.2-0.4c0-0.3,0.2-0.5,0.6-0.5c0.5,0,1.3,0,2.5,0.1c0.7,0,1.4,0.1,2.2,0.1l4.9-0.2
				c0.6,0,0.8,0.2,0.8,0.5c0,0.3-0.2,0.5-0.7,0.5c-0.8,0-1.3,0.1-1.6,0.3c-0.3,0.2-0.5,0.5-0.6,1.1c-0.1,0.5-0.2,1.6-0.2,3.1l0,4.9
				c1.5,0.1,3,0.2,4.7,0.2C127.7,196.9,129.3,196.9,130.8,196.7z"/>
		</g>
		<g id="XMLID_624_">
			<path id="XMLID_625_" class="stlogo0" d="M152.8,185.7h1.2c1.5,3.3,3.6,8.4,6.4,15.5c1.3,3.2,2.1,5.2,2.6,5.9
				c0.5,0.7,1.2,1.1,2.3,1.3c0.3,0,0.5,0.2,0.5,0.4c0,0.4-0.2,0.5-0.7,0.5c-0.2,0-0.9,0-1.9-0.1c-1.2-0.1-2.2-0.2-3-0.2
				c-0.8,0-1.8,0-3.1,0.1c-1,0.1-1.6,0.1-1.9,0.1c-0.5,0-0.8-0.2-0.8-0.5c0-0.3,0.2-0.4,0.5-0.4c1.4-0.1,2.1-0.7,2.1-1.7
				c0-0.5-0.2-1.3-0.6-2.5c-0.4-1.2-0.8-2.3-1.3-3.4c-0.7,0-1.3,0-1.7,0c-2.3,0-4.1,0-5.4,0c-1,2.7-1.5,4.5-1.5,5.4
				c0,0.6,0.2,1.1,0.7,1.5c0.5,0.3,1,0.5,1.6,0.6c0.4,0.1,0.7,0.2,0.7,0.5c0,0.3-0.2,0.5-0.7,0.5c-0.2,0-0.7,0-1.4-0.1
				c-1-0.1-1.7-0.1-2.2-0.1c-0.9,0-1.8,0.1-2.6,0.2c-0.2,0-0.4,0-0.5,0c-0.4,0-0.6-0.2-0.6-0.5c0-0.3,0.1-0.4,0.4-0.5
				c0.7-0.2,1.2-0.4,1.6-0.7c0.4-0.3,0.8-0.8,1.3-1.6c0.5-0.8,1-2.1,1.6-3.9C147.9,198,150,192.5,152.8,185.7z M151.6,191.7l-3,7.7
				l6.1-0.1c-0.3-0.9-0.8-2.1-1.5-3.7C152.5,193.9,152,192.6,151.6,191.7z"/>
		</g>
		<g id="XMLID_621_">
			<path id="XMLID_622_" class="stlogo0" d="M165.6,186.2c6,0.2,10.4,0.2,13.2,0.2c2.2,0,4.6-0.1,7.2-0.2c0.9,0,1.7-0.1,2.3-0.1
				c0.2,0,0.6,0,1.2,0c0.1,0.5,0.2,1.4,0.3,2.9l0.3,2.7c0,0.4-0.2,0.7-0.6,0.7c-0.3,0-0.6-0.3-0.8-0.8c-0.4-0.9-1-1.7-1.7-2.4
				c-0.7-0.7-1.5-1.1-2.4-1.3c-0.9-0.2-2.4-0.3-4.5-0.3c-0.2,1.8-0.3,4-0.3,6.6c0,2.7,0.1,5.3,0.2,7.8c0.1,2.5,0.2,4,0.4,4.5
				c0.1,0.5,0.4,0.9,0.8,1.1c0.4,0.2,1.2,0.4,2.5,0.5c0.5,0,0.7,0.2,0.7,0.5c0,0.3-0.2,0.5-0.6,0.5l-0.5,0l-3.6-0.1
				c-2.8,0-4.5,0-5.1,0l-2.2,0.1c-0.2,0-0.5,0-1.1,0c-0.3-0.1-0.4-0.2-0.4-0.4c0-0.3,0.2-0.5,0.7-0.5c1,0,1.8-0.2,2.3-0.6
				c0.5-0.4,0.8-1.1,1-2c0.1-0.9,0.2-2.9,0.2-6c0-4.9-0.1-8.8-0.4-11.9c-1.9,0-3.3,0.1-4.1,0.2c-0.8,0.2-1.7,0.6-2.4,1.3
				c-0.8,0.7-1.4,1.6-1.9,2.7c-0.2,0.4-0.4,0.7-0.7,0.7c-0.4,0-0.6-0.2-0.6-0.5c0-0.1,0.1-0.9,0.2-2.3
				C165.3,188.2,165.4,187.1,165.6,186.2z"/>
		</g>
		<g id="XMLID_618_">
			<path id="XMLID_619_" class="stlogo0" d="M212.3,186.5c0.4,1.8,0.7,3.6,1.1,5.4c0,0.3-0.2,0.5-0.5,0.5c-0.2,0-0.4-0.2-0.6-0.5
				c-1.2-1.7-2.3-2.8-3.2-3.4c-1-0.5-2.4-0.8-4.2-0.8c-1,0-2,0.1-3,0.3c-0.2,2-0.3,4.2-0.3,6.7c0,0.4,0,1.1,0,2.1l1.3,0
				c0.8,0,1.5-0.1,2.1-0.3c0.6-0.2,1.1-0.7,1.5-1.4c0.4-0.7,0.6-1.2,0.7-1.4c0.1-0.4,0.3-0.6,0.5-0.6c0.3,0,0.5,0.1,0.5,0.4
				c0,0.1,0,0.2,0,0.3c-0.1,0.7-0.2,2.8-0.2,6.4c0,0.5,0,0.9,0.1,1.3c0,0.1,0,0.2,0,0.3c0,0.3-0.2,0.5-0.6,0.5
				c-0.3,0-0.4-0.3-0.6-0.9c-0.2-1.1-0.8-1.9-1.6-2.4c-0.8-0.6-2.1-0.8-3.9-0.9c-0.1,1.9-0.1,3.2-0.1,3.8c0,2.6,0,4.2,0.1,4.7
				c0.1,0.5,0.4,0.9,0.9,1.2c0.5,0.3,1.4,0.5,2.6,0.5c4.4,0,7.2-1.4,8.6-4.2c0.2-0.4,0.4-0.6,0.6-0.6c0.3,0,0.5,0.1,0.5,0.4
				c0,0.2,0,0.4-0.1,0.7l-1.1,4.9l-6.2,0c-1.8,0-3.4-0.1-4.9-0.1c-1.5-0.1-2.7-0.1-3.6-0.1c-1,0-2.4,0.1-4.4,0.2c-0.2,0-0.4,0-0.5,0
				c-0.5,0-0.8-0.2-0.8-0.5c0-0.3,0.2-0.5,0.7-0.5c1.1,0,1.9-0.3,2.2-0.9c0.4-0.6,0.6-1.8,0.6-3.7l0.1-8.9c0-3,0-4.9-0.1-5.6
				c-0.1-0.7-0.3-1.2-0.6-1.4c-0.3-0.2-0.9-0.4-1.8-0.6c-0.4,0-0.6-0.2-0.6-0.5c0-0.3,0.2-0.5,0.6-0.5l4.1,0.1L212.3,186.5z"/>
		</g>
		<g id="XMLID_614_">
			<path id="XMLID_615_" class="stlogo0" d="M228.7,185.7h1.2c1.5,3.3,3.7,8.4,6.4,15.5c1.3,3.2,2.2,5.2,2.6,5.9
				c0.5,0.7,1.2,1.1,2.3,1.3c0.3,0,0.5,0.2,0.5,0.4c0,0.4-0.2,0.5-0.7,0.5c-0.2,0-0.9,0-1.9-0.1c-1.2-0.1-2.2-0.2-3-0.2
				c-0.8,0-1.8,0-3.1,0.1c-1,0.1-1.6,0.1-1.9,0.1c-0.5,0-0.8-0.2-0.8-0.5c0-0.3,0.2-0.4,0.6-0.4c1.4-0.1,2.1-0.7,2.1-1.7
				c0-0.5-0.2-1.3-0.6-2.5c-0.4-1.2-0.9-2.3-1.3-3.4c-0.7,0-1.3,0-1.7,0c-2.3,0-4.1,0-5.4,0c-1,2.7-1.5,4.5-1.5,5.4
				c0,0.6,0.2,1.1,0.7,1.5c0.5,0.3,1,0.5,1.6,0.6c0.4,0.1,0.7,0.2,0.7,0.5c0,0.3-0.2,0.5-0.7,0.5c-0.2,0-0.7,0-1.4-0.1
				c-1-0.1-1.7-0.1-2.2-0.1c-0.9,0-1.8,0.1-2.6,0.2c-0.2,0-0.4,0-0.5,0c-0.4,0-0.6-0.2-0.6-0.5c0-0.3,0.1-0.4,0.4-0.5
				c0.7-0.2,1.2-0.4,1.6-0.7c0.4-0.3,0.8-0.8,1.3-1.6c0.5-0.8,1-2.1,1.6-3.9C223.8,198,225.9,192.5,228.7,185.7z M227.5,191.7
				l-3,7.7l6.1-0.1c-0.3-0.9-0.8-2.1-1.5-3.7C228.4,193.9,227.8,192.6,227.5,191.7z"/>
		</g>
		<g id="XMLID_611_">
			<path id="XMLID_612_" class="stlogo0" d="M242.8,186.2l5.5,0.2c0.5,0,1.1,0,1.8-0.1c1.1-0.1,1.9-0.1,2.5-0.1c0.6,0,0.9,0.2,0.9,0.5
				c0,0.3-0.2,0.5-0.7,0.5c-0.8,0-1.4,0.3-1.8,0.9c-0.4,0.5-0.7,1.7-0.8,3.4c-0.1,1.7-0.2,3.6-0.2,5.6c0,3.3,0.2,5.4,0.5,6.6
				c0.3,1.1,1,2,2,2.7c1,0.7,2.4,1,4.1,1c1.7,0,3-0.4,3.9-1.1c0.9-0.7,1.5-1.9,1.8-3.4c0.3-1.6,0.5-4.5,0.5-8.7
				c0-2.5-0.2-4.2-0.6-5.2c-0.4-0.9-1.1-1.5-2-1.6c-0.7-0.1-1-0.3-1-0.6c0-0.3,0.3-0.5,0.8-0.5c0.3,0,0.7,0,1.3,0.1
				c0.6,0.1,1.3,0.1,2,0.1c0.6,0,1.4,0,2.1-0.1c0.6,0,1-0.1,1.2-0.1c0.6,0,0.9,0.2,0.9,0.5c0,0.3-0.2,0.4-0.6,0.5
				c-0.6,0.1-1.1,0.3-1.6,0.8c-0.5,0.5-0.8,1.3-0.9,2.4c-0.1,1.1-0.2,3.9-0.2,8.4c0,3-0.3,5.1-0.9,6.5c-0.6,1.3-1.6,2.4-3.1,3.1
				c-1.5,0.7-3.3,1.1-5.5,1.1c-1.7,0-3.2-0.2-4.5-0.5c-1.3-0.3-2.3-0.8-3-1.4c-0.7-0.6-1.3-1.4-1.6-2.2c-0.3-0.8-0.5-2-0.5-3.6
				l0.1-9.2c0-1.3-0.1-2.3-0.2-3.2c-0.1-0.8-0.4-1.4-0.7-1.6c-0.3-0.3-0.8-0.4-1.4-0.5c-0.4,0-0.7-0.1-0.7-0.2
				c-0.1-0.1-0.1-0.2-0.1-0.4C242,186.3,242.3,186.2,242.8,186.2z"/>
		</g>
	</g>
	<g id="XMLID_566_">
		<g id="XMLID_607_">
			<path id="XMLID_608_" class="stlogo0" d="M24.7,230.5l0.9,5.2l0,0.2c0,0.3-0.1,0.5-0.4,0.5c-0.2,0-0.3-0.1-0.5-0.4
				c-0.9-1.4-1.9-2.4-3-3.2c-1.1-0.8-2.9-1.1-5.4-1.1c-1.7,0-2.7,0.2-2.9,0.5c-0.2,0.4-0.3,3.2-0.3,8.5c1.3,0,2.3-0.1,2.9-0.3
				c0.7-0.2,1.2-0.5,1.6-0.9c0.4-0.4,0.7-1.3,1-2.5c0.1-0.3,0.2-0.5,0.4-0.5c0.3,0,0.5,0.2,0.5,0.7l-0.1,5.5c0,1.9-0.1,2.9-0.2,3.1
				c-0.1,0.1-0.2,0.2-0.4,0.2c-0.3,0-0.5-0.2-0.5-0.7c-0.1-1.1-0.5-1.9-1.1-2.5c-0.6-0.6-2-0.9-4.2-0.9l0,6.4c0,1.3,0.1,2.1,0.3,2.7
				c0.2,0.5,0.4,0.9,0.8,1.1c0.4,0.2,0.9,0.3,1.7,0.3c0.6,0,0.9,0,1,0.1c0.2,0.1,0.2,0.2,0.2,0.4c0,0.4-0.3,0.5-0.8,0.5
				c-0.5,0-1.4,0-2.7-0.1c-1.1-0.1-1.9-0.1-2.5-0.1l-5.4,0.2c-0.5,0-0.8-0.2-0.8-0.5c0-0.3,0.3-0.5,1-0.5c1.2,0,1.9-0.6,2.1-1.6
				c0.2-1,0.3-4.6,0.3-10.9c0-4.1-0.1-6.5-0.4-7.2c-0.3-0.8-1-1.2-2.1-1.2l-0.5,0c-0.4,0-0.6-0.2-0.6-0.5c0-0.3,0.3-0.5,1-0.5H24.7z
				"/>
		</g>
		<g id="XMLID_603_">
			<path id="XMLID_604_" class="stlogo0" d="M41.5,230c2.3,0,4.3,0.5,6.1,1.4c1.7,0.9,3.1,2.3,4.2,4c1.1,1.8,1.6,3.7,1.6,5.8
				c0,3.2-1.2,6.1-3.6,8.5c-2.4,2.5-5.4,3.7-8.9,3.7c-3.2,0-6-1-8.3-3.1c-2.3-2.1-3.4-4.8-3.4-8.3c0-3.3,1.2-6.1,3.6-8.5
				C35,231.2,38,230,41.5,230z M47.5,241.7c0-3.5-0.6-6.1-1.8-7.8c-1.2-1.8-2.7-2.6-4.5-2.6c-1.8,0-3.3,0.9-4.5,2.6
				c-1.2,1.8-1.8,4.4-1.8,7.8c0,3.3,0.6,5.9,1.7,7.7c1.1,1.8,2.6,2.8,4.5,2.8c1.7,0,3.2-0.8,4.4-2.5
				C46.9,248.1,47.5,245.4,47.5,241.7z"/>
		</g>
		<g id="XMLID_600_">
			<path id="XMLID_601_" class="stlogo0" d="M58,230.2l5.5,0.2c0.5,0,1.1,0,1.8-0.1c1.1-0.1,1.9-0.1,2.5-0.1c0.6,0,0.9,0.2,0.9,0.5
				c0,0.3-0.2,0.5-0.7,0.5c-0.8,0-1.4,0.3-1.9,0.9c-0.4,0.5-0.7,1.7-0.8,3.4c-0.1,1.7-0.2,3.6-0.2,5.6c0,3.3,0.2,5.4,0.5,6.6
				c0.3,1.1,1,2,2,2.7c1,0.7,2.4,1,4.1,1c1.7,0,3-0.4,3.9-1.1c0.9-0.7,1.5-1.9,1.8-3.4c0.3-1.6,0.5-4.5,0.5-8.7
				c0-2.5-0.2-4.2-0.6-5.2c-0.4-0.9-1.1-1.5-2-1.6c-0.7-0.1-1-0.3-1-0.6c0-0.3,0.3-0.5,0.8-0.5c0.3,0,0.7,0,1.3,0.1
				c0.6,0.1,1.3,0.1,2,0.1c0.6,0,1.4,0,2.1-0.1c0.6-0.1,1-0.1,1.2-0.1c0.6,0,0.9,0.2,0.9,0.5c0,0.3-0.2,0.4-0.6,0.5
				c-0.6,0.1-1.1,0.3-1.6,0.8c-0.5,0.5-0.8,1.3-0.9,2.4c-0.1,1.1-0.2,3.9-0.2,8.4c0,3-0.3,5.1-0.9,6.5c-0.6,1.3-1.6,2.4-3.1,3.1
				c-1.5,0.7-3.3,1.1-5.5,1.1c-1.7,0-3.2-0.2-4.5-0.5c-1.3-0.3-2.3-0.8-3-1.4c-0.7-0.6-1.3-1.4-1.6-2.2c-0.3-0.8-0.5-2-0.5-3.6
				l0.1-9.2c0-1.3-0.1-2.3-0.2-3.2c-0.1-0.8-0.4-1.4-0.7-1.6c-0.3-0.3-0.8-0.4-1.4-0.5c-0.4,0-0.7-0.1-0.8-0.2
				c-0.1-0.1-0.1-0.2-0.1-0.4C57.2,230.3,57.5,230.2,58,230.2z"/>
		</g>
		<g id="XMLID_596_">
			<path id="XMLID_597_" class="stlogo0" d="M98.6,241.5c1.5,0.2,2.8,0.7,3.8,1.4c1,0.7,1.8,2.1,2.3,4.3c0.5,2,1,3.3,1.5,4
				c0.5,0.6,1.3,1,2.3,1c0.5,0,0.8,0.2,0.8,0.5c0,0.3-0.4,0.5-1.3,0.5l-6.6-0.2c-0.7-0.7-1.2-1.9-1.4-3.7c-0.3-2.3-0.7-3.9-1-4.8
				c-0.3-0.9-0.9-1.6-1.6-2c-0.7-0.4-1.5-0.6-2.4-0.6c-0.3,0-0.6,0-1.1,0.1c0,4,0,6.5,0,7.5c0,0.9,0.2,1.6,0.6,2
				c0.3,0.4,1,0.6,2,0.7c0.5,0,0.8,0.2,0.8,0.5c0,0.3-0.2,0.5-0.7,0.5l-5.3-0.1c-0.7,0-1.6,0-2.7,0.1c-1,0.1-1.7,0.1-1.9,0.1
				c-0.5,0-0.7-0.2-0.7-0.5c0-0.3,0.2-0.5,0.6-0.5c0.6,0,1.2-0.2,1.8-0.5c0.5-0.3,0.8-1.7,0.8-4.1l0-3.2l0-6.2
				c0-3.2-0.1-5.1-0.4-5.8c-0.3-0.7-1-1.1-2.3-1.1c-0.5,0-0.7-0.2-0.7-0.5c0-0.3,0.3-0.5,1-0.5c3.2,0,6-0.1,8.2-0.2
				c1-0.1,1.9-0.1,2.7-0.1c2.6,0,4.6,0.5,6.1,1.6c1.5,1,2.2,2.4,2.2,4.1c0,1.1-0.3,2.1-1,3c-0.7,0.9-1.6,1.6-2.6,2
				C101.3,241.1,100,241.4,98.6,241.5z M93.9,240.8c0.3,0,0.5,0,0.7,0c1,0,2-0.2,3-0.6c1-0.4,1.7-1,2.2-1.8c0.4-0.8,0.6-1.7,0.6-2.6
				c0-1.4-0.4-2.6-1.3-3.4c-0.8-0.8-1.9-1.2-3.3-1.2c-0.6,0-1.2,0.1-1.9,0.3V240.8z"/>
		</g>
		<g id="XMLID_593_">
			<path id="XMLID_594_" class="stlogo0" d="M129.7,231.9c0.2-0.3,0.5-0.6,0.8-1c0.3-0.5,0.6-0.7,0.8-0.7c0.2,0,0.4,0.1,0.4,0.2
				c0.1,0.1,0.1,0.5,0.2,1.1l0.3,5.4l0,0.7c0,0.5-0.2,0.7-0.6,0.7c-0.2,0-0.4-0.2-0.6-0.6c-0.5-1.2-1.3-2.6-2.5-4.1
				c-1.2-1.5-2.8-2.2-4.6-2.2c-1.4,0-2.5,0.4-3.5,1.2c-0.9,0.8-1.7,1.9-2.2,3.3c-0.5,1.4-0.8,3.1-0.8,5c0,3.3,0.7,6,2.2,7.9
				c1.5,2,3.3,2.9,5.4,2.9c2.3,0,4.5-1.4,6.5-4.3c0.2-0.3,0.5-0.5,0.7-0.5c0.4,0,0.5,0.2,0.5,0.6c0,0.8-0.9,2-2.7,3.6
				c-1.8,1.7-4.1,2.5-6.8,2.5c-3.6,0-6.4-1.1-8.5-3.3c-2.1-2.2-3.1-5-3.1-8.2c0-3.2,1.1-6,3.2-8.4c2.1-2.4,4.8-3.6,8-3.6
				C125,230,127.3,230.6,129.7,231.9z"/>
		</g>
		<g id="XMLID_589_">
			<path id="XMLID_590_" class="stlogo0" d="M146.7,229.7h1.2c1.5,3.3,3.7,8.4,6.4,15.5c1.3,3.2,2.1,5.2,2.6,5.9
				c0.5,0.7,1.2,1.1,2.3,1.3c0.3,0.1,0.5,0.2,0.5,0.4c0,0.4-0.2,0.5-0.7,0.5c-0.2,0-0.9,0-1.9-0.1c-1.2-0.1-2.2-0.2-3-0.2
				c-0.8,0-1.8,0-3.1,0.1c-1,0.1-1.6,0.1-1.9,0.1c-0.5,0-0.8-0.2-0.8-0.5c0-0.2,0.2-0.4,0.5-0.4c1.4-0.1,2.1-0.7,2.1-1.7
				c0-0.5-0.2-1.3-0.6-2.5c-0.4-1.2-0.9-2.3-1.3-3.3c-0.7,0-1.3,0-1.7,0c-2.3,0-4.1,0-5.4,0c-1,2.7-1.5,4.5-1.5,5.4
				c0,0.6,0.2,1.1,0.7,1.5c0.5,0.3,1,0.5,1.6,0.6c0.4,0,0.7,0.2,0.7,0.5c0,0.3-0.2,0.5-0.7,0.5c-0.2,0-0.7,0-1.4-0.1
				c-1-0.1-1.7-0.1-2.2-0.1c-0.9,0-1.8,0.1-2.6,0.2c-0.2,0-0.4,0.1-0.5,0.1c-0.4,0-0.6-0.2-0.6-0.5c0-0.3,0.1-0.4,0.4-0.5
				c0.7-0.2,1.2-0.4,1.6-0.7c0.4-0.3,0.8-0.8,1.3-1.6c0.5-0.8,1-2.1,1.6-3.9C141.8,242,143.9,236.6,146.7,229.7z M145.5,235.7
				l-3,7.7l6.1-0.1c-0.3-0.9-0.8-2.1-1.5-3.7C146.4,237.9,145.9,236.6,145.5,235.7z"/>
		</g>
		<g id="XMLID_586_">
			<path id="XMLID_587_" class="stlogo0" d="M175.9,231.1c0.2-0.2,0.3-0.4,0.4-0.7c0.2-0.4,0.4-0.5,0.6-0.5c0.3,0,0.5,0.3,0.6,0.8
				l0.6,4.7l0.1,0.6c0,0.3-0.2,0.5-0.5,0.5c-0.2,0-0.4-0.1-0.5-0.2c-0.1-0.1-0.3-0.5-0.6-1.1c-0.5-1-1.3-1.9-2.4-2.8
				c-1.1-0.8-2.3-1.2-3.4-1.2c-1.1,0-2,0.3-2.8,1c-0.7,0.6-1.1,1.4-1.1,2.4c0,0.8,0.3,1.5,1,2.1c0.7,0.6,2,1.2,4,1.8
				c3.1,0.9,5.2,2,6.2,3.2c1.1,1.3,1.6,2.7,1.6,4.3c0,1.6-0.4,3-1.2,4c-0.8,1.1-1.7,1.9-2.8,2.6c-1.1,0.6-2.5,0.9-4.2,0.9
				c-1,0-2-0.1-3-0.4c-1-0.3-2.1-0.7-3.2-1.3c-0.2,0.3-0.4,0.6-0.6,1c-0.2,0.5-0.4,0.7-0.7,0.7c-0.3,0-0.5-0.3-0.5-0.9l-0.5-6.2
				c0-0.3,0-0.4,0-0.5c0-0.3,0.2-0.5,0.5-0.5c0.3,0,0.5,0.3,0.7,0.9c0.7,1.7,1.7,3.2,2.9,4.3c1.2,1.1,2.6,1.7,4.2,1.7
				c1.4,0,2.4-0.4,3.3-1.2c0.8-0.8,1.2-1.7,1.2-2.7c0-1-0.4-1.9-1.2-2.6c-0.8-0.7-2.2-1.4-4.1-2c-1.9-0.6-3.4-1.2-4.3-1.8
				c-0.9-0.6-1.7-1.4-2.3-2.4c-0.6-1-0.9-2-0.9-3.1c0-1.8,0.7-3.3,2.1-4.6c1.4-1.3,3.3-1.9,5.7-1.9C172,230,173.7,230.3,175.9,231.1
				z"/>
		</g>
		<g id="XMLID_583_">
			<path id="XMLID_584_" class="stlogo0" d="M212,240.7l0.2-5.2c0-1.5-0.2-2.5-0.5-3.1c-0.3-0.6-0.9-0.9-1.9-1c-0.8,0-1.2-0.2-1.2-0.6
				c0-0.4,0.2-0.5,0.7-0.5c0.5,0,1.3,0,2.4,0.1c1.4,0.1,2.2,0.1,2.3,0.1c1.9,0,3.7,0,5.1-0.1c0.3,0,0.5,0,0.6,0
				c0.4,0,0.6,0.2,0.6,0.5c0,0.4-0.2,0.5-0.7,0.6c-0.8,0-1.4,0.1-1.7,0.3c-0.3,0.2-0.6,0.5-0.7,1c-0.1,0.4-0.2,1.9-0.3,4.5
				c-0.1,2.6-0.1,4.4-0.1,5.4c0,4,0,6.5,0.1,7.4c0.1,0.9,0.3,1.5,0.6,1.9c0.4,0.4,1,0.5,1.8,0.5c0.5,0,0.8,0.2,0.8,0.5
				c0,0.3-0.2,0.4-0.6,0.4c-0.1,0-0.4,0-0.9-0.1l-4.8-0.2c-0.3,0-0.8,0-1.6,0.1c-1.6,0.1-2.6,0.2-3,0.2c-0.4,0-0.6-0.2-0.6-0.5
				c0-0.3,0.2-0.4,0.5-0.4c0.8,0,1.4-0.1,1.8-0.4c0.4-0.3,0.7-0.9,0.8-2c0.2-1,0.3-3.1,0.3-6.2c0-0.3,0-0.8,0-1.4
				c-2-0.1-3.8-0.1-5.3-0.1c-1.8,0-3.2,0.1-4.2,0.2c-0.1,2.3-0.2,4.4-0.2,6.3c0,1.3,0.1,2.3,0.4,2.8c0.3,0.5,0.9,0.8,1.8,0.8
				c0.4,0,0.7,0.2,0.7,0.5c0,0.3-0.2,0.5-0.7,0.5c-0.2,0-0.4,0-0.8-0.1c-1.4-0.1-2.8-0.2-4.3-0.2c-0.7,0-1.6,0-2.8,0.1
				c-0.8,0.1-1.4,0.1-1.6,0.1c-0.6,0-0.9-0.2-0.9-0.5c0-0.3,0.2-0.4,0.7-0.5c0.9-0.1,1.5-0.3,1.8-0.6c0.3-0.3,0.5-0.8,0.7-1.6
				c0.2-0.8,0.2-3.1,0.3-6.8c0-3.7,0-5.8,0-6.1c0-1.7-0.1-2.9-0.2-3.7c-0.1-0.8-0.3-1.3-0.6-1.5c-0.3-0.3-0.7-0.4-1.3-0.5
				c-0.5-0.1-0.7-0.1-0.9-0.2c-0.1-0.1-0.2-0.2-0.2-0.4c0-0.3,0.2-0.5,0.6-0.5c0.5,0,1.3,0,2.5,0.1c0.7,0,1.4,0.1,2.2,0.1l4.9-0.2
				c0.6,0,0.8,0.2,0.8,0.5c0,0.3-0.2,0.5-0.7,0.5c-0.8,0-1.3,0.1-1.6,0.3c-0.3,0.2-0.5,0.5-0.6,1.1c-0.1,0.5-0.2,1.6-0.2,3.1l0,4.9
				c1.5,0.1,3,0.2,4.7,0.2C208.8,241,210.4,240.9,212,240.7z"/>
		</g>
		<g id="XMLID_579_">
			<path id="XMLID_580_" class="stlogo0" d="M236.4,230c2.3,0,4.3,0.5,6.1,1.4c1.7,0.9,3.1,2.3,4.2,4c1.1,1.8,1.6,3.7,1.6,5.8
				c0,3.2-1.2,6.1-3.6,8.5c-2.4,2.5-5.4,3.7-8.9,3.7c-3.2,0-6-1-8.3-3.1c-2.3-2.1-3.4-4.8-3.4-8.3c0-3.3,1.2-6.1,3.6-8.5
				C230,231.2,232.9,230,236.4,230z M242.4,241.7c0-3.5-0.6-6.1-1.8-7.8c-1.2-1.8-2.7-2.6-4.5-2.6c-1.8,0-3.3,0.9-4.5,2.6
				c-1.2,1.8-1.8,4.4-1.8,7.8c0,3.3,0.6,5.9,1.7,7.7c1.1,1.8,2.7,2.8,4.6,2.8c1.7,0,3.2-0.8,4.4-2.5
				C241.8,248.1,242.4,245.4,242.4,241.7z"/>
		</g>
		<g id="XMLID_576_">
			<path id="XMLID_577_" class="stlogo0" d="M265.7,231.1c0.2-0.2,0.3-0.4,0.4-0.7c0.2-0.4,0.4-0.5,0.6-0.5c0.3,0,0.5,0.3,0.6,0.8
				l0.6,4.7l0.1,0.6c0,0.3-0.2,0.5-0.5,0.5c-0.2,0-0.4-0.1-0.5-0.2c-0.1-0.1-0.3-0.5-0.6-1.1c-0.5-1-1.3-1.9-2.4-2.8
				c-1.1-0.8-2.3-1.2-3.4-1.2c-1.1,0-2,0.3-2.8,1c-0.7,0.6-1.1,1.4-1.1,2.4c0,0.8,0.3,1.5,1,2.1c0.7,0.6,2,1.2,4,1.8
				c3.1,0.9,5.2,2,6.2,3.2c1.1,1.3,1.6,2.7,1.6,4.3c0,1.6-0.4,3-1.2,4c-0.8,1.1-1.7,1.9-2.8,2.6c-1.1,0.6-2.5,0.9-4.2,0.9
				c-1,0-2-0.1-3-0.4c-1-0.3-2.1-0.7-3.2-1.3c-0.2,0.3-0.4,0.6-0.6,1c-0.2,0.5-0.4,0.7-0.7,0.7c-0.3,0-0.5-0.3-0.5-0.9l-0.5-6.2
				c0-0.3,0-0.4,0-0.5c0-0.3,0.2-0.5,0.5-0.5c0.3,0,0.5,0.3,0.7,0.9c0.7,1.7,1.7,3.2,2.9,4.3c1.2,1.1,2.6,1.7,4.2,1.7
				c1.4,0,2.4-0.4,3.3-1.2c0.8-0.8,1.2-1.7,1.2-2.7c0-1-0.4-1.9-1.2-2.6c-0.8-0.7-2.1-1.4-4.1-2c-1.9-0.6-3.4-1.2-4.3-1.8
				c-0.9-0.6-1.7-1.4-2.3-2.4c-0.6-1-0.9-2-0.9-3.1c0-1.8,0.7-3.3,2.1-4.6c1.4-1.3,3.3-1.9,5.7-1.9
				C261.8,230,263.5,230.3,265.7,231.1z"/>
		</g>
		<g id="XMLID_573_">
			<path id="XMLID_574_" class="stlogo0" d="M273.7,230.2c6,0.2,10.4,0.2,13.2,0.2c2.2,0,4.6-0.1,7.2-0.2c0.9,0,1.7-0.1,2.3-0.1
				c0.2,0,0.6,0,1.2,0c0.1,0.5,0.2,1.4,0.3,2.9l0.3,2.7c0,0.4-0.2,0.7-0.6,0.7c-0.3,0-0.6-0.3-0.8-0.8c-0.4-0.9-1-1.7-1.7-2.4
				c-0.7-0.7-1.5-1.1-2.4-1.3c-0.9-0.2-2.4-0.3-4.5-0.3c-0.2,1.8-0.3,4-0.3,6.6c0,2.7,0,5.3,0.2,7.8c0.1,2.5,0.2,4,0.4,4.5
				c0.2,0.5,0.4,0.9,0.8,1.1c0.4,0.2,1.2,0.4,2.5,0.5c0.4,0,0.7,0.2,0.7,0.5c0,0.3-0.2,0.5-0.6,0.5l-0.5,0l-3.6-0.1
				c-2.8,0-4.5,0-5.1,0l-2.2,0.1c-0.2,0-0.5,0-1.1,0c-0.3-0.1-0.4-0.2-0.4-0.4c0-0.3,0.2-0.5,0.7-0.5c1,0,1.8-0.2,2.3-0.6
				c0.5-0.4,0.8-1.1,1-2c0.1-0.9,0.2-2.9,0.2-6c0-4.9-0.2-8.8-0.5-11.9c-1.9,0-3.3,0.1-4.1,0.2c-0.8,0.2-1.7,0.6-2.4,1.3
				c-0.8,0.7-1.4,1.6-1.9,2.7c-0.2,0.4-0.4,0.7-0.7,0.7c-0.4,0-0.6-0.2-0.6-0.5c0-0.1,0.1-0.9,0.2-2.3
				C273.4,232.3,273.5,231.1,273.7,230.2z"/>
		</g>
		<g id="XMLID_570_">
			<path id="XMLID_571_" class="stlogo0" d="M320.4,230.5c0.4,1.8,0.7,3.6,1.1,5.4c0,0.3-0.2,0.5-0.5,0.5c-0.2,0-0.4-0.2-0.6-0.5
				c-1.2-1.7-2.3-2.8-3.2-3.4c-1-0.6-2.4-0.8-4.2-0.8c-1,0-2,0.1-3,0.3c-0.2,2-0.3,4.2-0.3,6.7c0,0.4,0,1.1,0,2.1l1.3,0
				c0.8,0,1.5-0.1,2.1-0.3c0.6-0.2,1.1-0.7,1.5-1.4c0.4-0.7,0.6-1.2,0.7-1.4c0.1-0.4,0.3-0.5,0.5-0.5c0.3,0,0.5,0.1,0.5,0.4
				c0,0.1,0,0.2,0,0.3c-0.1,0.7-0.2,2.8-0.2,6.4c0,0.5,0,0.9,0.1,1.3c0,0.1,0,0.2,0,0.3c0,0.3-0.2,0.5-0.5,0.5
				c-0.3,0-0.5-0.3-0.6-0.9c-0.2-1.1-0.8-1.9-1.6-2.4c-0.8-0.6-2.1-0.8-3.9-0.9c-0.1,1.9-0.1,3.2-0.1,3.8c0,2.6,0,4.2,0.1,4.7
				c0.1,0.5,0.4,0.9,0.9,1.2c0.5,0.3,1.4,0.5,2.6,0.5c4.4,0,7.2-1.4,8.6-4.2c0.2-0.4,0.4-0.6,0.6-0.6c0.3,0,0.5,0.1,0.5,0.4
				c0,0.2,0,0.4-0.1,0.7l-1.1,4.9l-6.2,0c-1.8,0-3.4-0.1-4.9-0.1c-1.5-0.1-2.7-0.1-3.6-0.1c-1,0-2.4,0.1-4.3,0.2c-0.2,0-0.4,0-0.5,0
				c-0.5,0-0.8-0.2-0.8-0.5c0-0.3,0.2-0.5,0.7-0.5c1.1,0,1.9-0.3,2.2-0.9c0.4-0.6,0.6-1.8,0.6-3.7l0.1-8.9c0-3,0-4.9-0.1-5.6
				c-0.1-0.7-0.3-1.2-0.6-1.4c-0.3-0.2-0.9-0.4-1.8-0.6c-0.4,0-0.5-0.2-0.5-0.5c0-0.3,0.2-0.5,0.6-0.5l4.1,0.1L320.4,230.5z"/>
		</g>
		<g id="XMLID_567_">
			<path id="XMLID_568_" class="stlogo0" d="M332.6,230.3c5.5,6.3,10.1,11.3,13.7,15c0-0.8,0-1.3,0-1.5l0-6.8c0-1.6-0.1-2.8-0.3-3.4
				c-0.2-0.7-0.6-1.2-1.2-1.6c-0.6-0.4-1.3-0.6-2.1-0.7c-0.4,0-0.6-0.2-0.6-0.5c0-0.3,0.2-0.5,0.6-0.5c0.2,0,0.5,0,0.8,0.1
				c0.7,0.1,1.6,0.1,2.9,0.1c1.6,0,2.8,0,3.6-0.1c0.3,0,0.6,0,0.9,0c0.4,0,0.7,0.2,0.7,0.5c0,0.3-0.3,0.5-0.9,0.6
				c-0.7,0.1-1.4,0.4-2,0.9c-0.6,0.5-0.9,1.6-0.9,3.2l0.1,9.7l-0.1,7.3c0,0.6-0.2,0.9-0.6,0.9c-0.1,0-0.2,0-0.4-0.1
				c-0.1-0.1-0.9-0.9-2.4-2.4c-1.4-1.5-3.6-3.9-6.4-7.1c-2.8-3.2-4.8-5.5-6-6.9c0,0.3,0,3.2,0,8.7c0,1.7,0.1,3,0.2,4
				c0.1,1,0.6,1.7,1.3,2.1c0.8,0.4,1.4,0.6,2,0.6c0.4,0,0.6,0.1,0.6,0.4c0,0.3-0.2,0.5-0.6,0.5c-0.3,0-0.6,0-1-0.1
				c-0.7-0.1-1.6-0.1-2.6-0.1c-1.7,0-2.9,0.1-3.7,0.2c-0.5,0.1-0.8,0.1-1,0.1c-0.4,0-0.7-0.2-0.7-0.6c0-0.3,0.4-0.4,1.1-0.5
				c1.3-0.1,2.1-0.6,2.4-1.3c0.3-0.8,0.5-1.9,0.5-3.2c0-5.9,0-9.5-0.1-10.9c-0.1-1.3-0.5-2.5-1.2-3.6c-0.8-1.1-1.7-1.7-2.8-1.9
				c-0.4-0.1-0.7-0.3-0.7-0.5c0-0.4,0.2-0.6,0.7-0.6c0.1,0,0.3,0,0.5,0c0.3,0,0.7,0,1.4,0C329.9,230.3,331.3,230.3,332.6,230.3z"/>
		</g>
	</g>
</g>
<g id="XMLID_211_">
	<g id="XMLID_560_">
		<g id="XMLID_563_">
			<path id="XMLID_564_" class="stlogo0" d="M176.4,141.7c-2.4-2-7.4-2.4-12.6,0.8c-5.1,3.1-8.7,4.6-12.6,4.6c-3.8,0-8-3.5-10.9-6.6
				c6.7-0.2,11.9-3.4,13.2-9.3c0.8-4-0.2-8-2.4-11.2c-1.5-2.2-4.6-4.5-8.1-5c-2.5-0.3-4.3,0.1-6.2,1.7c-3.1,2.6-3.6,5.3-3.6,7
				c0,2.2,0.7,4.5,2.3,5.8c1.6,1.3,5.5,2.3,7.8,0.4c2.2-1.9,2.7-5.4,0.4-7c-1.5-1-2.8-1-4.1,0c-0.8,0.6-1.2,1.5-1,2.4
				c0.1,0.8,0.4,1.4,1.1,1.7c0.2,0.1,0.6,0.2,0.8,0.2c0.7,0,1.3-0.6,1.3-1.3c0-0.7-0.2-1.1-0.8-1.3c-0.7-0.2-1.1,0.4-1.1,0.4
				c-0.2-1.7,2.2-1.9,3-1.1c1,1,0.8,2.6,0.2,4c-0.3,0.7-1,1.2-2,1.4c-1.6,0.4-3.4,0-4.6-0.9c-1-0.8-2.1-2.5-2.2-4.5
				c0-2.1,0.4-4.5,2.5-6.2c1.6-1.3,4.1-2.1,6.1-1.8c3,0.4,6.2,3.3,7.5,5.1c2,2.9,2.3,6,1.6,9.6c-1.3,6.1-5.2,8.4-12.1,9
				c-2.9-3.3-4.4-5.6-8.8-5.7c-4.4-0.1-6.4,2.4-9.2,4.6c-4.3,3.4-6.5,3-8.3,2.4c-1.7-0.5-2.9-2-2.3-3.7c0.3,0.5,1.2,0.7,1.3,0.7
				c0.7,0,1.3-0.6,1.3-1.3c0-0.7-0.6-1.3-1.3-1.3c-0.3,0-0.5,0.1-0.7,0.3c0,0-0.1,0.1-0.2,0.1c0,0,0,0,0,0c-1,1-1.6,2.2-1.5,3.4
				c0.1,1.3,1,3.4,4.4,3.6c3.5,0.2,7.1-3.1,7.1-3.1c-1.8,4.9,1.2,8.9,5.3,8.9c0.1,0,0.2,0,0.3,0c2.1,0,3.1-0.5,4-1.6
				c0.9-1,1.4-1.9,1.4-3c0-2.1-1.3-3-2.5-3c-0.7,0-1.3,0.6-1.3,1.3c0,0.7,0.6,1.3,1.3,1.3c0.3,0,1-0.3,1.4-1
				c0.5,1.3-0.6,2.9-1.1,3.3c-0.5,0.5-1.8,0.9-3.4,0.7c-2.6-0.3-4.5-1.9-4.7-4.9c-0.2-2.6,1.4-3.8,2.3-4.4c1.6-1.1,3.9-2.1,7.1-1.8
				c2.9,0.4,4.7,2,7.4,4.9c0,0,0,0.1,0.1,0.1c3.4,3.7,7,8.2,11.8,8.2c4.2,0,7.8-2.5,13.1-5.8c4.5-2.8,9.2-2.3,11.3-0.3
				c1.8,1.7,2.5,4.1,1.7,5.8c-1.1,2.2-3.1,2.6-4.5,2.1c-1.4-0.5-2.4-2.7-1.2-3.9c0.1,0.9,0.9,1.5,1.5,1.5c0.9,0,1.6-0.7,1.6-1.6
				c0-0.9-0.7-1.6-1.6-1.6c-3.5-0.2-4.1,5-1.1,6.4c2.9,1.4,4.8-0.5,6-2.8C179,146.4,178.9,143.8,176.4,141.7z"/>
		</g>
		<g id="XMLID_561_">
			<path id="XMLID_562_" class="stlogo0" d="M180.4,141.7c2.4-2,7.4-2.4,12.6,0.8c5.1,3.1,8.7,4.6,12.6,4.6c3.8,0,8-3.5,10.9-6.6
				c-6.7-0.2-11.9-3.4-13.2-9.3c-0.8-4,0.2-8,2.4-11.2c1.5-2.2,4.6-4.5,8-5c2.5-0.3,4.3,0.1,6.2,1.7c3.1,2.6,3.6,5.3,3.6,7
				c0,2.2-0.7,4.5-2.3,5.8c-1.6,1.3-5.5,2.3-7.8,0.4c-2.2-1.9-2.7-5.4-0.4-7c1.5-1,2.7-1,4.1,0c0.8,0.6,1.2,1.5,1,2.4
				c-0.1,0.8-0.4,1.4-1.1,1.7c-0.2,0.1-0.6,0.2-0.8,0.2c-0.7,0-1.3-0.6-1.3-1.3c0-0.7,0.2-1.1,0.8-1.3c0.7-0.2,1.1,0.4,1.1,0.4
				c0.2-1.7-2.2-1.9-3-1.1c-1,1-0.8,2.6-0.2,4c0.3,0.7,1,1.2,2,1.4c1.6,0.4,3.4,0,4.6-0.9c1-0.8,2.1-2.5,2.2-4.5
				c0-2.1-0.4-4.5-2.5-6.2c-1.6-1.3-4.1-2.1-6.1-1.8c-3,0.4-6.2,3.3-7.5,5.1c-2,2.9-2.3,6-1.6,9.6c1.3,6.1,5.2,8.4,12.1,9
				c2.9-3.3,4.4-5.6,8.8-5.7c4.4-0.1,6.4,2.4,9.2,4.6c4.3,3.4,6.5,3,8.3,2.4c1.7-0.5,2.9-2,2.3-3.7c-0.3,0.5-1.2,0.7-1.3,0.7
				c-0.7,0-1.3-0.6-1.3-1.3c0-0.7,0.6-1.3,1.3-1.3c0.3,0,0.5,0.1,0.7,0.3c0,0,0.1,0.1,0.2,0.1c0,0,0,0,0,0c1,1,1.6,2.2,1.5,3.4
				c-0.1,1.3-1,3.4-4.4,3.6c-3.5,0.2-7.1-3.1-7.1-3.1c1.8,4.9-1.2,8.9-5.3,8.9c-0.1,0-0.2,0-0.3,0c-2.1,0-3.1-0.5-4-1.6
				c-0.9-1-1.4-1.9-1.4-3c0-2.1,1.3-3,2.5-3c0.7,0,1.3,0.6,1.3,1.3c0,0.7-0.6,1.3-1.3,1.3c-0.2,0-1-0.3-1.4-1
				c-0.5,1.3,0.6,2.9,1.1,3.3c0.5,0.5,1.8,0.9,3.4,0.7c2.6-0.3,4.5-1.9,4.7-4.9c0.2-2.6-1.4-3.8-2.2-4.4c-1.6-1.1-3.9-2.1-7.1-1.8
				c-2.9,0.4-4.7,2-7.4,4.9c0,0,0,0.1-0.1,0.1c-3.4,3.7-7,8.2-11.8,8.2c-4.2,0-7.8-2.5-13.1-5.8c-4.5-2.8-9.2-2.3-11.3-0.3
				c-1.8,1.7-2.5,4.1-1.7,5.8c1.1,2.2,3.1,2.6,4.5,2.1c1.4-0.5,2.4-2.7,1.2-3.9c-0.1,0.9-0.9,1.5-1.5,1.5c-0.9,0-1.6-0.7-1.6-1.6
				c0-0.9,0.7-1.6,1.6-1.6c3.5-0.2,4.1,5,1.1,6.4c-2.9,1.4-4.8-0.5-6-2.8C177.8,146.4,177.8,143.8,180.4,141.7z"/>
		</g>
	</g>
	<g id="XMLID_515_">
		<polygon id="XMLID_559_" class="stlogo0" points="178.1,31.6 178.1,31.6 178.1,31.6 		"/>
		<path id="XMLID_545_" class="stlogo0" d="M202.5,17.8c-0.7,1.4-4.1,3.1-5,3.6c-0.9,0.5-1.6,0.7-1.3-0.8c0.3-1.5,0.6-3.2,1.4-5.3
			c-0.4-0.1-0.7-0.2-1-0.4c-0.9,1.7-3.6,3.5-4.3,4.4c-0.8,1-1.9,1.1-1.7-0.8c0.2-1.9,0.8-4.2,1.3-6.2c-0.6,0-1.1-0.2-1.5-0.6
			c-1,1.9-2.7,4.1-3.6,5.5c-0.9,1.4-2.3,1.7-2.3-0.3c0-1.9,0.2-3.7,0.5-6.5c0,0,0,0,0,0c-0.4,0-0.7-0.1-1.1-0.3
			c-0.3,1.6-1.2,3.5-2.1,5.9c-1,2.7-2.1,0.8-2.4-0.7c-0.3-1.4-0.7-3.2-1.1-6c-0.3,0.1-0.7,0.2-1,0.2c-0.2,0-0.4-0.1-0.5-0.1
			c-0.1,1.3-0.5,3.8-0.9,6.5c-0.5,3.1-1.9,1.7-2.4,0.1c-0.4-1.2-1.3-3.4-1.8-5.2c-0.4,0.4-1,0.6-1.6,0.6c0,0-0.1,0-0.1,0
			c0.1,1.7,0,4.7,0,5.9c0,1.4-0.7,1.9-1.9,0.7c-1.1-1-2.7-3.5-3.5-5.2c-0.4,0.4-0.9,0.6-1.4,0.7c0.5,1.2,1,3.7,1.3,5.3
			c0.3,1.9-0.8,1.8-1.9,0.9c-1-0.9-3.2-3.6-4-5.4c-0.3,0.5-0.8,0.9-1.3,1.1c1.2,2.1,1.9,6.2,1.5,6.7c-0.4,0.5-1.2-0.6-2.7-1.6
			c-1.5-1-2.5-2-2.5-3.3l0,0c-0.2,0.9-0.8,1.5-1.6,1.8l-0.1,0.1c1-0.2,1.9,0.9,3.1,2.2c1.2,1.3,3.5,3.9,3.5,3.9
			c-0.4,0.6-0.8,2-0.3,2.9c0.6,0.9,1.7,0.5,2,1.1c0.3,0.6-0.5,0.8-0.2,1.4c0.3,0.5,1.2,0,1.2,0.8c-0.1,0.8-1,1.9,0,2.7
			c1,0.7,2.8,0.5,5.9-0.6c3-1.1,7.9-2,10.7-2l0,0h0h0c2.9,0,7.7,0.8,10.7,2c3,1.1,4.9,1.3,5.9,0.6c1-0.7,0.1-1.9,0-2.7
			c-0.1-0.8,0.9-0.2,1.2-0.8c0.3-0.5-0.5-0.8-0.2-1.4c0.3-0.6,1.4-0.1,2-1.1c0.6-0.9,0.1-2.3-0.3-2.9c0,0,2.3-2.5,3.5-3.9
			c1.3-1.4,2.1-2.4,3.1-2.2C203.3,19.1,202.7,18.5,202.5,17.8z M161.3,28.5c0.7-0.3,5.5-1.9,7-2.2c-0.5,0.8-1.4,2.1-1.4,2.1l2.4,1
			c0,0-5.1,1.6-6,1.9c0.1-0.5,1.1-2.1,1.1-2.1L161.3,28.5z M188,27.8l-1.7,0.8l-1.5-1.3l2-1L188,27.8z M188,26.1
			c1.1,0.2,5.7,1.6,6.4,1.9c-1.1,0.3-2.5,0.6-2.5,0.6l1.7,2.5c-1.5-0.7-4.9-1.7-6.2-2c0.9-0.4,2.3-1.1,2.3-1.1L188,26.1z
			 M183.1,26.8l2.1,2c-1.4-0.3-4.8-0.7-6.5-0.7c0.3-0.2,1.8-1.6,1.8-1.6l-1.8-1.6c1.4,0,6.2,0.5,6.9,0.7
			C184.6,26.2,183.1,26.8,183.1,26.8z M178.9,26.6l-1.3,1.1l-1.4-0.9l1.4-1.2L178.9,26.6z M174.9,26.8l2.1,1.5
			c-1.4,0.1-5.2,0.5-6.3,0.8c0.2-0.4,1.4-1.9,1.4-1.9l-2.5-1.3c1.2-0.4,5.7-0.9,7.5-0.9C176.1,25.7,174.9,26.8,174.9,26.8z
			 M170.8,27.4l-1,1.2l-1.6-0.6l1-1.4L170.8,27.4z M161.4,30.5c-0.2-0.3-0.1-1.2-0.1-1.3l2.2,0.5l-1,1.9
			C162.5,31.4,161.6,30.8,161.4,30.5z M193.2,33.6c-1.9-0.6-7.4-2.8-14.9-2.9c-7.4,0.1-13,2.3-14.9,2.9c-1.3,0.4-2.2-0.6-1-1.2
			c2-0.9,8.3-3,15.2-3.2c0.1,0,0.1,0,0.1,0c0.2,0,0.4,0,0.5,0c0.2,0,0.3,0,0.5,0c0,0,0,0,0.1,0c7,0.2,13.2,2.3,15.2,3.2
			C195.4,32.9,194.5,34,193.2,33.6z M194.9,29.8c-0.2,0.3-0.9,0.9-0.9,0.9l-0.9-1.7l1.9-0.6C195,28.6,195,29.5,194.9,29.8z
			 M195.5,27.4c-2.2-0.7-8.6-3.3-17.2-3.4c-8.6,0.1-15,2.7-17.2,3.4c-1.2,0.4-2-0.6-1.2-0.9c2.4-1,9.6-3.5,17.6-3.8
			c0.1,0,0.1,0,0.1,0c0.2,0,0.4,0,0.6,0c0.2,0,0.4,0,0.6,0c0,0,0,0,0.1,0c8,0.3,15.2,2.8,17.6,3.8C197.5,26.9,196.9,27.9,195.5,27.4
			z M195.4,24.2c-1.9-0.1-1.2-2.7-1.1-3.5c-1.9,1.3-3.3,2.7-4.6,2.3c-1.3-0.3-1.3-2.9-1.3-3.7c-0.7,0.9-1.7,2.9-3.2,2.7
			c-1.6-0.2-1.9-2.5-1.9-3.5c-1.1,1.4-1,2.8-2.6,2.7c-1.6,0-2.3-1.9-2.5-3.2c-0.5,1.7-0.9,3.4-2.2,3.5c-1.3,0.1-2.2-1.5-2.7-2.3
			c-0.6,2.1-1,3-2.5,3.2c-1.5,0.2-2.7-0.7-3.4-2c-0.2,1.6-0.4,2.9-1.6,3.3c-1.2,0.4-2.6-0.7-3.3-1.5c-0.4,1.3-0.9,2.7-2.3,2.8
			c-1.3,0.1-2.5-2-2.9-2.7c1.3,0.7,2.3,1.5,3.2,0.7c0.9-0.8-0.2-3.8-0.7-5.1c1.2,1.5,2.8,4.3,5.1,3.3c1.5-0.6,0.4-4.7,0.2-5.4
			c1,1.6,3.1,4.3,5.2,4c2.1-0.2,1.3-4.9,1.3-5.9c0.9,2.5,1.6,4.9,3.6,4.9c2,0,2.7-4.6,2.8-6.2c0.5,3.5,1.2,5.6,2.9,5.7
			c1.7,0.1,2.9-3.1,3.4-4.4c0,3.4-0.2,4.8,1.4,5.3c1.6,0.4,4-2.7,4.6-4c-0.4,3.8-0.6,5,0.4,5.5c0.9,0.5,3.9-0.8,5.4-3.3
			c-0.2,2.2-0.9,4.6,0.3,5.4c1.1,0.8,2.2-0.4,3.1-0.9C197.9,23.4,197.2,24.3,195.4,24.2z"/>
		<path id="XMLID_542_" class="stlogo0" d="M158.7,14.1c0,0.1,0.1,0.3,0.2,0.4c0.2-0.4,0.4-0.8,0.4-1.2c0-1.4-1.1-2.5-2.5-2.5
			c-1.4,0-2.5,1.1-2.5,2.5c0,1.4,1.1,2.5,2.5,2.5c0.3,0,0.5-0.1,0.8-0.2c0,0-0.1-0.1-0.1-0.2C158,14.7,158.7,14.1,158.7,14.1z
			 M156.7,15.1c-1,0-1.9-0.9-1.9-1.9c0-1,0.8-1.9,1.9-1.9c1.1,0,1.9,0.9,1.9,1.9C158.6,14.3,157.8,15.1,156.7,15.1z"/>
		<path id="XMLID_541_" class="stlogo0" d="M158.8,14.5c-0.1-0.1-0.1-0.3-0.2-0.4c0,0-0.7,0.5-1.3,1.4c0,0,0.1,0.1,0.1,0.2
			C158.1,15.4,158.5,15,158.8,14.5z"/>
		<path id="XMLID_540_" class="stlogo0" d="M163.3,13.1c-0.1,0-0.2,0.1-0.3,0.1c-1.1,0-1.9-0.9-1.9-1.9c0-1,0.8-1.9,1.9-1.9
			c1,0,1.9,0.9,1.9,1.9c0,0.4-0.2,0.8-0.4,1.1c0.1,0.2,0.2,0.4,0.3,0.7c0.4-0.4,0.7-1,0.7-1.7c0-1.4-1.1-2.5-2.5-2.5
			c-1.4,0-2.5,1.1-2.5,2.5c0,1.4,1.1,2.5,2.5,2.5c0.1,0,0.2-0.1,0.4-0.1c-0.1-0.2-0.1-0.3-0.2-0.4C163.2,13.2,163.3,13.2,163.3,13.1
			z"/>
		<path id="XMLID_539_" class="stlogo0" d="M164.8,13c-0.1-0.2-0.2-0.5-0.3-0.7c-0.3,0.4-0.7,0.7-1.2,0.8c0,0.1-0.1,0.1-0.1,0.2
			c0.1,0.1,0.1,0.3,0.2,0.4C163.9,13.6,164.4,13.4,164.8,13z"/>
		<path id="XMLID_536_" class="stlogo0" d="M153.9,17c0-1.4-1.1-2.5-2.5-2.5c-1.4,0-2.5,1.1-2.5,2.5c0,1.4,1.1,2.5,2.5,2.5
			c0.3,0,0.5-0.1,0.8-0.2l1.6-1.8C153.8,17.3,153.9,17.1,153.9,17z M151.4,18.9c-1,0-1.9-0.9-1.9-1.9c0-1.1,0.8-1.9,1.9-1.9
			c1.1,0,1.9,0.8,1.9,1.9C153.3,18,152.5,18.9,151.4,18.9z"/>
		<path id="XMLID_535_" class="stlogo0" d="M153.8,17.5l-1.6,1.8C153,19,153.6,18.3,153.8,17.5z"/>
		<path id="XMLID_534_" class="stlogo0" d="M168.4,9.1c0-1.1,0.9-1.9,1.9-1.9s1.9,0.8,1.9,1.9c0,0.5-0.2,1-0.5,1.3
			c0,0.2,0.1,0.4,0.2,0.6c0.5-0.5,0.9-1.1,0.9-1.9c0-1.4-1.1-2.5-2.5-2.5c-1.4,0-2.5,1.1-2.5,2.5c0,1.3,1.1,2.4,2.4,2.5
			c0-0.2,0-0.5,0-0.6C169.1,10.9,168.4,10.1,168.4,9.1z"/>
		<path id="XMLID_533_" class="stlogo0" d="M171.8,11c-0.1-0.2-0.1-0.4-0.2-0.6c-0.3,0.4-0.8,0.6-1.4,0.6c-0.1,0-0.1,0-0.2,0
			c0,0.2,0,0.4,0,0.6c0,0,0.1,0,0.1,0C170.9,11.6,171.4,11.4,171.8,11z"/>
		<path id="XMLID_532_" class="stlogo0" d="M177.2,9c-0.9-0.1-1.6-0.9-1.6-1.8c0-1.1,0.9-1.9,1.9-1.9c1,0,1.9,0.8,1.9,1.9
			c0,0.8-0.5,1.5-1.2,1.7c0.1,0,0.2,0,0.2,0c0,0.2,0.1,0.4,0.1,0.6c0.9-0.4,1.5-1.2,1.5-2.3c0-1.4-1.1-2.5-2.5-2.5
			c-1.4,0-2.5,1.1-2.5,2.5c0,1.2,0.8,2.1,1.9,2.4c0-0.2,0-0.4,0-0.5C177,9,177.1,9,177.2,9z"/>
		<path id="XMLID_531_" class="stlogo0" d="M178.5,9.5c0-0.2-0.1-0.4-0.1-0.6c0,0-0.1,0-0.2,0C178,9,177.8,9,177.5,9
			c-0.1,0-0.2,0-0.3-0.1C177.1,9,177,9,177,9c0,0.1,0,0.3,0,0.5c0.2,0,0.3,0.1,0.5,0.1C177.9,9.7,178.2,9.6,178.5,9.5z"/>
		<path id="XMLID_528_" class="stlogo0" d="M185.2,10c0,0.2,0,0.3-0.1,0.5c1.4,0,2.5-1.1,2.5-2.5c0-1.4-1.1-2.5-2.5-2.5
			c-1.4,0-2.5,1.1-2.5,2.5c0,1,0.6,1.8,1.4,2.2c0-0.2,0.1-0.3,0.1-0.5C184.6,9.9,185.2,10,185.2,10z M183.2,8c0-1,0.9-1.9,1.9-1.9
			c1.1,0,1.9,0.9,1.9,1.9c0,1.1-0.8,1.9-1.9,1.9C184.1,10,183.2,9.1,183.2,8z"/>
		<path id="XMLID_527_" class="stlogo0" d="M185.2,10.5c0-0.2,0-0.3,0.1-0.5c0,0-0.7-0.2-1-0.3c0,0.2-0.1,0.3-0.1,0.5
			C184.4,10.4,184.8,10.5,185.2,10.5C185.2,10.5,185.2,10.5,185.2,10.5z"/>
		<path id="XMLID_524_" class="stlogo0" d="M192.1,12.1c0,0.1,0,0.1,0,0.2c0,0,0,0,0,0c1.4,0,2.5-1.1,2.5-2.5c0-1.4-1.1-2.5-2.5-2.5
			c-1.4,0-2.5,1.1-2.5,2.5c0,0.8,0.4,1.5,1,1.9c0-0.1,0.1-0.1,0.1-0.2C191.2,11.6,192.1,12.1,192.1,12.1z M190.2,9.8
			c0-1,0.9-1.9,1.9-1.9c1.1,0,1.9,0.9,1.9,1.9c0,1-0.8,1.9-1.9,1.9C191,11.7,190.2,10.9,190.2,9.8z"/>
		<path id="XMLID_523_" class="stlogo0" d="M192.1,12.1c0,0-0.9-0.5-1.4-0.6c0,0.1-0.1,0.1-0.1,0.2c0.4,0.3,0.9,0.6,1.5,0.6
			C192.1,12.3,192.1,12.2,192.1,12.1z"/>
		<path id="XMLID_520_" class="stlogo0" d="M197.8,15.1c0,0.1,0,0.1-0.1,0.2c0.2,0,0.3,0.1,0.5,0.1c1.4,0,2.5-1.1,2.5-2.5
			c0-1.4-1.1-2.5-2.5-2.5c-1.4,0-2.5,1.1-2.5,2.5c0,0.8,0.4,1.5,1,2c0.1-0.1,0.1-0.2,0.2-0.3C198.4,14.8,197.8,15.1,197.8,15.1z
			 M196.3,12.9c0-1,0.8-1.9,1.9-1.9c1,0,1.9,0.9,1.9,1.9c0,1-0.9,1.9-1.9,1.9C197.2,14.8,196.3,14,196.3,12.9z"/>
		<path id="XMLID_519_" class="stlogo0" d="M197.8,15.1c0,0,0.6-0.4-0.9-0.5c0,0.1-0.1,0.2-0.2,0.3c0.3,0.2,0.6,0.4,1,0.4
			C197.7,15.3,197.8,15.2,197.8,15.1z"/>
		<path id="XMLID_518_" class="stlogo0" d="M204.8,14.5c-1.4,0-2.5,1.1-2.5,2.5c0,0.3,0.1,0.6,0.2,0.8c0-0.1,0.1-0.1,0.1-0.1
			c0.2-0.4,0.3-0.6,0.4-0.6c0,0,0-0.1,0-0.1c0-1.1,0.8-1.9,1.9-1.9c1.1,0,1.9,0.8,1.9,1.9c0,1-0.9,1.9-1.9,1.9
			c-0.5,0-0.9-0.2-1.2-0.5l0.3,0.9h0c0.3,0.1,0.5,0.2,0.8,0.2c1.4,0,2.5-1.1,2.5-2.5C207.3,15.6,206.2,14.5,204.8,14.5z"/>
		<path id="XMLID_517_" class="stlogo0" d="M203.6,18.4c-0.4-0.3-0.6-0.8-0.6-1.3c-0.1,0-0.2,0.2-0.4,0.6c0,0-0.1,0.1-0.1,0.1
			c0.2,0.7,0.8,1.2,1.5,1.5h0L203.6,18.4z"/>
	</g>
	<g id="XMLID_512_">
		<polyline id="XMLID_514_" class="stlogo0" points="178.5,52.2 192.8,52.2 192.8,61.7 184.5,61.7 184.5,78.1 198.6,78.1 198.6,67.8 
			206.8,67.8 206.8,98.7 198.9,98.7 198.9,89 184.6,89 184.6,104.6 192.7,104.6 192.7,114.4 178.5,114.4 		"/>
		<polygon id="XMLID_513_" class="stlogo0" points="193.4,115 178.5,115 178.5,113.7 192.1,113.7 192.1,105.2 184,105.2 184,88.3 
			199.5,88.3 199.5,98 206.2,98 206.2,68.5 199.2,68.5 199.2,78.8 183.9,78.8 183.9,61.1 192.2,61.1 192.2,52.9 178.5,52.9 
			178.5,51.6 193.5,51.6 193.5,62.4 185.1,62.4 185.1,77.5 197.9,77.5 197.9,67.2 207.4,67.2 207.4,99.3 198.2,99.3 198.2,89.6 
			185.2,89.6 185.2,103.9 193.4,103.9 		"/>
	</g>
	<path id="XMLID_508_" class="stlogo0" d="M212.6,41.9L212.6,41.9l-68.9,0c0,0,0,1,0,2.7c0,10.7,0,49.5,0,52.9
		c0,19.7,18.7,36.3,34.5,41.2v0h0h0l0,0c15.8-4.9,34.5-21.4,34.5-41.2C212.6,93.6,212.6,41.9,212.6,41.9L212.6,41.9z M211,97.9
		c0,15.9-16.4,33.5-32.9,39.3c-16.5-5.8-32.9-23.4-32.9-39.3c0-13.2,0-54.6,0-54.6l0,0h65.9l0,0C211,43.3,211,84.8,211,97.9z"/>
	<g id="XMLID_505_">
		<rect id="XMLID_507_" x="176.8" y="43" class="stlogo0" width="1.9" height="94.2"/>
	</g>
	<g id="XMLID_503_">
		<rect id="XMLID_504_" x="172.7" y="85.1" class="stlogo0" width="1" height="50.3"/>
	</g>
	<g id="XMLID_500_">
		<rect id="XMLID_502_" x="167.9" y="85.1" class="stlogo0" width="1" height="48.4"/>
	</g>
	<g id="XMLID_498_">
		<rect id="XMLID_499_" x="163.1" y="85.1" class="stlogo0" width="1" height="45.1"/>
	</g>
	<g id="XMLID_495_">
		<rect id="XMLID_497_" x="144.9" y="84.6" class="stlogo0" width="32.4" height="1.9"/>
	</g>
	<g id="XMLID_493_">
		<rect id="XMLID_494_" x="158.3" y="85.1" class="stlogo0" width="1" height="41.2"/>
	</g>
	<g id="XMLID_490_">
		<rect id="XMLID_492_" x="153.6" y="85.1" class="stlogo0" width="1" height="35.7"/>
	</g>
	<g id="XMLID_487_">
		<rect id="XMLID_489_" x="148.8" y="85.1" class="stlogo0" width="1" height="28.9"/>
	</g>
	<g id="XMLID_477_">
		<path id="XMLID_478_" class="stlogo0" d="M169.6,68l-2.3-10.9h1.5v-2h1.2v-7h-3.9v2.5h-2.5v-2.5h-4.9v2.4h-2.2v-2.4h-3.7v7h1.2v2h1.1
			l-1.9,10.7l-2.3,2.7v14.6h7.5v-7.4c0-2.4,1.3-4.2,3.2-4.2c1.8,0,3.2,1.7,3.2,4.2v7.4h7.1V70.6L169.6,68z M153.3,54.6v-5.9h2.6v2.4
			h3.3v-2.4h3.7v2.5h3.6v-2.5h2.7v5.9L153.3,54.6z M154.5,56.6v-1.4l13.7,0v1.4H154.5z M155.6,57.1h11l2.2,10.5h-15.1L155.6,57.1z
			 M153.7,68.2h15.3l1.6,1.8h-18.4L153.7,68.2z M171.2,84.6h-6v-6.8c0-2.7-1.6-4.7-3.7-4.7c-2.2,0-3.7,2-3.7,4.7v6.8h-6.3v-14h19.7
			V84.6z"/>
	</g>
	<g id="XMLID_474_">
		<path id="XMLID_476_" class="stlogo0" d="M165,84.9c0,0,0-4.8,0-7.1c0-2.5-1.4-4.4-3.5-4.4h0c-2.1,0-3.5,2-3.5,4.4c0,2.3,0,7.1,0,7.1"
			/>
	</g>
	<g id="XMLID_472_">
		<path id="XMLID_473_" class="stlogo0" d="M165,84.9c0,0,0-4.8,0-7.1c0-2.5-1.4-4.4-3.5-4.4h0c-2.1,0-3.5,2-3.5,4.4c0,2.3,0,7.1,0,7.1"
			/>
	</g>
	<g id="XMLID_470_">
		<path id="XMLID_471_" class="stlogo1" d="M171.5,83.4c-2.3,0.3-1.1,0-2.5,0.1c0,0.3,1.2,0.5,2.4,0.5"/>
	</g>
	<g id="XMLID_468_">
		<path id="XMLID_469_" class="stlogo1" d="M171.5,81.6c-2.3,0.3-0.5-0.3-3.6,0.2c0,0.3,0.7,0.6,3.5,0.4"/>
	</g>
	<g id="XMLID_466_">
		<path id="XMLID_467_" class="stlogo1" d="M171.6,79.9c-2.3,0.2-0.8-0.3-3.9,0.3c0,0.3,1,0.6,3.8,0.4"/>
	</g>
	<g id="XMLID_464_">
		<path id="XMLID_465_" class="stlogo1" d="M171.7,78.2c-2.3,0.3-2.2-0.2-5.3,0.3c0,0.3,2.4,0.5,5.2,0.3"/>
	</g>
	<g id="XMLID_462_">
		<path id="XMLID_463_" class="stlogo1" d="M171.6,76.5c-2.3,0.3-1.8-0.2-4.9,0.3c0,0.3,2,0.6,4.8,0.3"/>
	</g>
	<g id="XMLID_460_">
		<path id="XMLID_461_" class="stlogo1" d="M171.6,74.8c-2.3,0.3-1.2-0.2-4.2,0.3c0,0.3,1.4,0.6,4.2,0.3"/>
	</g>
	<g id="XMLID_458_">
		<path id="XMLID_459_" class="stlogo1" d="M171.7,73.2c-2.3,0.3-1.2-0.3-4.3,0.3c0,0.3,1.4,0.6,4.2,0.3"/>
	</g>
	<g id="XMLID_456_">
		<path id="XMLID_457_" class="stlogo1" d="M171.7,71.5c-2.3,0.2-1.8-0.2-4.9,0.3c0,0.3,2,0.6,4.8,0.3"/>
	</g>
	<g id="XMLID_454_">
		<path id="XMLID_455_" class="stlogo1" d="M168.9,66.1c-1.4,0.1-2.3,0.1-4.4,0.3c0,0.3,1.5,0.6,4.4,0.3"/>
	</g>
	<g id="XMLID_452_">
		<path id="XMLID_453_" class="stlogo1" d="M168.4,64.5c-2.3,0.3-2.7-0.1-5.8,0.4c0,0.3,2.9,0.5,5.7,0.2"/>
	</g>
	<g id="XMLID_450_">
		<path id="XMLID_451_" class="stlogo1" d="M168.1,62.9c-1.7,0.1-2-0.1-4.4,0.2c0,0.3,1.6,0.6,4.4,0.4"/>
	</g>
	<g id="XMLID_448_">
		<path id="XMLID_449_" class="stlogo1" d="M169.6,53.3c-1.7,0.1-2.8,0-3.1,0.2c0,0.3,0.4,0.4,3.1,0.4"/>
	</g>
	<g id="XMLID_446_">
		<path id="XMLID_447_" class="stlogo1" d="M169.6,51.9c-0.7,0,0-0.3-2.4,0.1c0,0.3,0.2,0.5,2.4,0.5"/>
	</g>
	<g id="XMLID_444_">
		<path id="XMLID_445_" class="stlogo1" d="M167.6,61.3c-1.1,0.4-2.2-0.2-5.2,0.3c0,0.3,2.4,0.6,5.2,0.3"/>
	</g>
	<g id="XMLID_442_">
		<path id="XMLID_443_" class="stlogo1" d="M167.3,59.6c-2.3,0.2-4.7,0.1-4.9,0.3c0,0.3,2,0.6,4.8,0.3"/>
	</g>
	<g id="XMLID_440_">
		<path id="XMLID_441_" class="stlogo1" d="M167.2,58c-2.3,0.2-5.6-0.1-5.8,0.3c0.1,0.4,3,0.5,5.8,0.3"/>
	</g>
	<g id="XMLID_324_">
		<g id="XMLID_427_">
			<g id="XMLID_438_">
				<path id="XMLID_439_" class="stlogo1" d="M118,20.9c1.1,0.3,2.1,0.7,2.9,1.2c1,0.4,2.4,0.4,2.5,1.7c-1.2,0.6-3.7-0.8-4.1,1.2
					c-0.9-0.9-2.1-1.7-3.7-0.8c0.1-1.9,1.8-1.1,2.5-1.6C117.5,21.9,117.5,21.5,118,20.9z"/>
			</g>
			<g id="XMLID_428_">
				<path id="XMLID_429_" class="stlogo1" d="M154.7,38.7c-4.5,0.6-8.1-0.5-11.5,0.8c-1.6,1.8-2.6,6.2-5,7.2c0.2-1.4,0.1-3.4-0.4-4.4
					c1.1,0,0.6-2.1,0.2-2.4c-0.4-0.4-0.9,0.1-1-0.5c-0.6-2-1.2-4.7-2.7-8.4c-1.5-3.7-3.3-5.4-4.5-6.8c2.3-0.1,5.4,2.1,7.2,1.2
					c-1.2-3.3-5.5-3.6-8.2-5.4c1.6-0.9,4.2-0.8,5-1.4c0.9-0.6,0.9-1.6,0.9-2.1c-2.3-0.2-6.3-0.6-8.8,0.2c-1.3,0.4-1.8,2.1-2.9,2.1
					c-1.8,0-3.6,0-5.4,0c-1.6,1.4-3.1,2.9-5.4,3.7c-3.5,0.7-5.9,0.7-7.9,1.1c1.1,4.4,8.3,3.1,10.8,5.8c1.2,0,3,0.3,4.5,0.8
					c1.5,0.5,2.7,2.2,3.3,3.5c0.6,1.3,1.1,3.2,1.1,3.2c-1,1,0.9,2.9,1,4.8c-0.8,0.1-0.5,0-0.8,0.4c-0.3,0.4-0.1,2-0.3,3.2
					c-0.5,3.3-2.1,6.6-3.6,8.3c-2,2.4-7.2,6.7-8.3,7.4c-1.1,0.8-7.3,4-8.6,4.8c-1.3,0.8-6.6,4.5-8,6c-1.4,1.6-2.6,2.6-3.3,4.1
					c-0.7,1.5-0.9,2.6-1.9,3.4c-0.8,0.6-1.4,0.8-2.5,0.4c-2.4-1.2-3.7-3-4.9-5.4c-0.9-3.2-1.3-6.8-0.4-10.3c0.1-0.5,1.4-3.9,1.7-4.5
					c0.2-0.4,1.5-3,1.7-3.3c0.2-0.4,2.1-2.8,2.5-3.3c2.2-2.6,5.9-5,8.8-5c1.1,0,3.7,0.4,5.3,1.6c0.4-0.5,0.3-1.1-0.4-1.7
					c-1.3-1-2.7-1.8-4.3-1.9c-3.9-0.2-6.8,2.1-8.1,3.1c-1.3,1.1-3.5,3.2-5,5.5C83,56.8,81,61.5,80.4,64c-0.6,2.5-0.4,4-0.6,6.2
					c0.2,3.7,1.7,6.5,3.1,8.3c1.4,1.8,4.4,3.9,6.9,3.2c0.4,0.9,1.3,1.6,2.2,3.9c0.8,2.2,0.6,5.6,0.3,9.8c-0.9,3.8-4.1,5.3-6.5,7.6
					c-0.3,0.3-1.7,0.9-2.2,1.6c-0.4,0.7-0.9,3.6-1.6,5.4c-1.3,3.5-3.1,6.5-4.7,9.8c0.8,2.6-0.1,7.2,1.6,8.9c2,1,4.4-0.2,6.6-0.2
					c0.5-3.3-2.3-3.2-3.7-4.6c0.4-4.7,5-13.3,5-14.8c0.8-0.6,6.9-4.9,10.6-7.5c3.7-2.6,6.1-5.6,7.5-8.9c0.6,0.1,7.4,2.8,8.9,4.7
					c1.5,1.9,0.4,9.3-0.3,13.4c0.4,0,1.5,1.5,2.8,2.4c1.3,1,7.5,6.3,10.3,11.2c1,0.1,1.5,0.7,2.9,0.4c0,0,0,0,0,0
					c1.2,0.2,2.8-1,3.7-0.8c-0.4-1.1-2-3.1-3.3-3.3c0,0,0,0,0,0c-4.1-2.3-7.9-6.8-10.9-10.2c0.3-1.1,1.3-3.1,1.8-4.3
					c1.2-3.2,2.1-4.7,2.6-8.6c0.2-1.4,0-4.1-0.6-5.9c-0.6-1.9-3-4.7-4.9-6.9c-2.2-2.4-5.8-4-6.5-4.8c-0.1-2.4-0.2-3,1-4.1
					c2.3-1.5,5.7-1.2,9.2-1.9c3.5-0.7,6.9-2.2,8.5-3.5c1.7-1.2,4.8-4.5,5.6-5.6c0.4,0.8,1.7,0.9,2.5,1.2c1.9-0.1,2.2-1.1,3-2.2
					c0,0,1.4-7.2,2-11.7c0.6-4.5,1.4-9.3,1.4-9.3l1.3-0.4l4.1,0.3l4.4-1.2C155.2,41,155.2,39.2,154.7,38.7z M136.7,43.9
					c0,0-5.7-0.6-6.4,0.1c-1.9,0.5-5.3,2-5.4-1.3c3,1.4,9.8-0.8,11-1.2C135.9,42,136.7,43.9,136.7,43.9z M125.6,39.4
					c0.6,0,3.5-0.1,4.2-0.4c1.7-0.1,3.8-0.8,4.7-1.1c0.9,0.4,1.1,1.5,1.2,2.8c-2.8,0.5-6,2.3-9.5,1.6
					C125.8,41.3,125.9,41,125.6,39.4z M131.2,36.2l1.6-0.7c0,0,0.9-0.6,1.6-0.6c-0.5,1.6-6.7,3.7-9.1,2.9
					C127.7,36.9,131.2,36.2,131.2,36.2z M126.4,18.9c-0.1-1.9,3.1-1.2,4.9-1.7C130.5,19.3,128,19,126.4,18.9z M122.7,29.5
					c0-0.2-0.1-0.5-0.1-0.8c0-0.7-0.5-0.6-1.8-0.6c-1.3,0-1-1.3-2.3-1.1c0.2,1.7-2.6,0.8-3,1.1c-0.1-0.6-3.2-1.9-6.5-2.3
					c-1.1-0.1-3.1-0.6-2.8-1.8c5.5-0.3,9.8-1.2,12-4.4c2.8,0.1,6.2-0.4,7.8,0.8c-0.6,0.6-2.4,0.1-2.1,1.6c1.5,1.1,2.5-1.1,4.1-1.2
					c2,1,5,1.4,7,3.3c-1.9-0.3-3.2-1.2-4.9-1.7c-1.4-0.3-1.7,0.4-2.5,0.8c-0.2-0.5-0.5-0.8-1.2-0.8c0.4,1.5,0.1,1,0.4,2.5
					c1.6-0.1,1.4-0.1,1.7,0.8c1.9,1.8,3.5,3.7,3.7,6.6c-0.3,1.3,0.9,0.4,1.2,1.6c0.1,0.4-1.7,1.2-3.3,1.7c-1.6,0.5-2.3,1-4.1,0.8
					C124.7,36.5,123.3,32,122.7,29.5z M116.7,85.1c0.7,0.6,3.5,3.6,4.9,7.4c1.3,3.8-0.6,9.5-1.9,12.9c-1.3,3.4-2.1,5.5-2.1,5.5
					c-0.8,1.2-1.8,0.5-2.5-0.5c-0.6-0.9-0.1-2,0.1-2.6c0,0,0.9-7,0.7-8.7c-0.3-2.4-1.4-4.7-4.1-6.2c-2.7-1.6-5.1-1.9-5.2-2.4
					c3.4-3.1,4.1-7.3,4.8-9.1C112.5,81.9,116,84.5,116.7,85.1z M149.6,41.8c-1.6,0.5-4.2-1.6-6.2,0.3c0.3,3-3.2,21.8-5.8,20
					c-0.5-0.3-1.6-1.9-3.2-1.5c0.6,4.6-8.4,10.9-16.7,11.2c-8.3,0.3-8.3,4.2-9.4,5.1c-0.8,0.2-1.5-0.2-2-1.6
					c-1.3,1.2,0.1,4.3,0.4,6.2c0.7,7.6-3.8,9.8-4.6,9.9c1.2,4-6.5,10.2-9.5,11.9c-3,1.7-5.3,4-6.3,4.5c-0.4,1-4.4,11.8-4.7,12.5
					c-0.5,1.4-0.9,3.5-0.6,4c0.7,0.6,1.8,0.9,3.2,1.9c-0.1,1.4-2.2,1.1-3.7,1.1c-2.6-0.2-0.7-2.6-2-3.1c-0.2-1.7-0.3-2.6-0.3-4.3
					c0.3-2,1.6-3.4,2.4-5.2l2-4c0.7-1.6,1.1-4.3,2.1-5.9c1-0.5,5.6-4.1,6.5-5.3c0.9-1.1,2.2-4,2.8-6.5c0.6-2.5,0.5-4.5,0.4-5.8
					c-0.1-1.4-1.1-4.3-1.7-5.3c0-0.8,1.4-0.3,1.2-1.2c-3.2,0.1,1.1-7.1,1.4-7.4c0.2-0.1,3.2-3,5.5-4.6c2.2-1.6,9.1-4.8,10.8-5.5
					c1.8-1,4.9-3.7,6.4-5.2c2.2-1.9,3.7-4.3,4.8-5.5c0.9-1.1,2.3-5.6,3-7c0.5,0.5,1.5,0.5,2.5,0.4c1,0,1.9-0.8,2.2-0.8
					c1.4-0.8,7.1-0.2,6.1,0.3c0.4,3.3-4.5,9-4.6,9c-0.3-0.1,0.6,0.9,1.8,0.4c-0.2-1.3,5.4-6.5,6-7.6c0.6-1.1,1.9-4.2,2.2-4.6
					c0.9-1.7,2-3.4,4.5-3.3c2.5,0.1,4.7,0,6.1,0.1c1.4,0,1.8,0,1.9,1.2C153.3,41.8,149.9,41.8,149.6,41.8z"/>
			</g>
		</g>
		<g id="XMLID_425_">
			<path id="XMLID_426_" class="stlogo1" d="M114.3,81.8c-1.8,3.7-2.7,4.6-3.7,7.7c0.6-1.2,2.7-3.8,4.2-7.4"/>
		</g>
		<g id="XMLID_423_">
			<path id="XMLID_424_" class="stlogo1" d="M115.5,83.1c-1.8,3.7-3.5,4.9-3.3,6.1c0.6-1.2,2.3-2.1,3.8-5.7"/>
		</g>
		<g id="XMLID_421_">
			<path id="XMLID_422_" class="stlogo1" d="M116.7,84c-1.8,3.7-1.8,2.3-2.8,5.3c0.3,0,1.4-1.7,3.3-5"/>
		</g>
		<g id="XMLID_419_">
			<path id="XMLID_420_" class="stlogo1" d="M118,85.3c-1.8,3.7-1,0.6-2,3.7c0.3,0,0.5,0.1,2.4-3.2"/>
		</g>
		<g id="XMLID_417_">
			<path id="XMLID_418_" class="stlogo1" d="M112.7,81.4c-1.8,3.7-2.9,5.3-3.9,8.4c0.6-1.2,3.2-4.4,4.7-8"/>
		</g>
		<g id="XMLID_415_">
			<path id="XMLID_416_" class="stlogo1" d="M127,26.6c0.7-0.4,3.1,0.4,3-1C129.2,26.5,126.8,25.2,127,26.6z"/>
		</g>
		<g id="XMLID_413_">
			<path id="XMLID_414_" class="stlogo1" d="M127.7,27.9c0.7-0.4,3.1,0.4,3-1C129.9,27.8,127.5,26.5,127.7,27.9z"/>
		</g>
		<g id="XMLID_411_">
			<path id="XMLID_412_" class="stlogo1" d="M128.4,29.2c0.7-0.4,3.1,0.4,3-1C130.6,29.1,128.3,27.8,128.4,29.2z"/>
		</g>
		<g id="XMLID_409_">
			<path id="XMLID_410_" class="stlogo1" d="M129.1,30.5c0.7-0.4,3.1,0.4,3-1C131.4,30.4,129,29.1,129.1,30.5z"/>
		</g>
		<g id="XMLID_407_">
			<path id="XMLID_408_" class="stlogo1" d="M134.1,46.2c0.7-0.4,3.1,0.4,3-1C136.3,46.1,133.9,44.8,134.1,46.2z"/>
		</g>
		<g id="XMLID_405_">
			<path id="XMLID_406_" class="stlogo1" d="M129.9,31.8c0.7-0.4,3.1,0.4,3-1C132.1,31.7,129.7,30.4,129.9,31.8z"/>
		</g>
		<g id="XMLID_403_">
			<path id="XMLID_404_" class="stlogo1" d="M130.8,33c0.7-0.4,2.7,0.4,2.6-1C132.6,33,130.7,31.6,130.8,33z"/>
		</g>
		<g id="XMLID_401_">
			<path id="XMLID_402_" class="stlogo1" d="M131.5,34.3c0.7-0.4,2.7,0.4,2.6-1C133.3,34.2,131.4,32.9,131.5,34.3z"/>
		</g>
		<g id="XMLID_395_">
			<path id="XMLID_398_" class="stlogo1" d="M93.7,103.6c-1.1,0.1-4.1-0.9-4.5,0.5C90.5,103.3,94.1,104.9,93.7,103.6z"/>
		</g>
		<g id="XMLID_393_">
			<path id="XMLID_394_" class="stlogo1" d="M94.9,102c-1.1,0.1-4.1-0.9-4.5,0.5C91.8,101.8,95.3,103.4,94.9,102z"/>
		</g>
		<g id="XMLID_391_">
			<path id="XMLID_392_" class="stlogo1" d="M96.8,100.4c-1.1,0.1-4.1-0.9-4.5,0.5C93.7,100.2,97.2,101.8,96.8,100.4z"/>
		</g>
		<g id="XMLID_389_">
			<path id="XMLID_390_" class="stlogo1" d="M99.1,98.8c-1.1,0.1-4.1-0.9-4.5,0.5C96,98.5,99.5,100.1,99.1,98.8z"/>
		</g>
		<g id="XMLID_387_">
			<path id="XMLID_388_" class="stlogo1" d="M99.9,96.9c-1.1,0.1-4.1-0.9-4.5,0.5C96.8,96.7,100.3,98.3,99.9,96.9z"/>
		</g>
		<g id="XMLID_385_">
			<path id="XMLID_386_" class="stlogo1" d="M101.4,95.2c-1.1,0.1-4.1-0.9-4.5,0.5C98.3,94.9,101.8,96.5,101.4,95.2z"/>
		</g>
		<g id="XMLID_383_">
			<path id="XMLID_384_" class="stlogo1" d="M102.4,93.2c-1.1,0.1-4.1-0.9-4.5,0.5C99.3,92.9,102.8,94.5,102.4,93.2z"/>
		</g>
		<g id="XMLID_381_">
			<path id="XMLID_382_" class="stlogo1" d="M102.8,91.3c-1.1,0.1-4.1-0.9-4.5,0.5C99.7,91.1,103.2,92.7,102.8,91.3z"/>
		</g>
		<g id="XMLID_379_">
			<path id="XMLID_380_" class="stlogo1" d="M128.9,68.5c0-0.8,1.7-2.7,0.4-3.1C129.8,66.5,127.6,68.1,128.9,68.5z"/>
		</g>
		<g id="XMLID_377_">
			<path id="XMLID_378_" class="stlogo1" d="M130.9,67.4c0-0.8,1.7-2.7,0.4-3.1C131.8,65.3,129.6,66.9,130.9,67.4z"/>
		</g>
		<g id="XMLID_375_">
			<path id="XMLID_376_" class="stlogo1" d="M119.6,97.1c0.7-0.4,3.1,0.5,3-0.9C121.8,97.1,119.5,95.7,119.6,97.1z"/>
		</g>
		<g id="XMLID_373_">
			<path id="XMLID_374_" class="stlogo1" d="M119.4,98.4c0.8-0.4,3.1,0.5,3-0.9C121.6,98.4,119.3,97,119.4,98.4z"/>
		</g>
		<g id="XMLID_371_">
			<path id="XMLID_372_" class="stlogo1" d="M119.1,99.8c0.7-0.4,3.1,0.5,3-0.9C121.4,99.8,119,98.4,119.1,99.8z"/>
		</g>
		<g id="XMLID_369_">
			<path id="XMLID_370_" class="stlogo1" d="M121.9,100.6c-0.8,0.4-3.1-0.5-3,0.9C119.7,100.7,122,102,121.9,100.6z"/>
		</g>
		<g id="XMLID_367_">
			<path id="XMLID_368_" class="stlogo1" d="M118.3,103c0.8-0.4,3.1,0.5,3-0.9C120.5,103,118.2,101.6,118.3,103z"/>
		</g>
		<g id="XMLID_365_">
			<path id="XMLID_366_" class="stlogo1" d="M121.1,103.8c-0.8,0.4-3.1-0.5-3,0.9C118.8,103.8,121.2,105.2,121.1,103.8z"/>
		</g>
		<g id="XMLID_363_">
			<path id="XMLID_364_" class="stlogo1" d="M117.6,106.1c0.7-0.4,3.1,0.5,3-0.9C119.8,106.1,117.5,104.7,117.6,106.1z"/>
		</g>
		<g id="XMLID_361_">
			<path id="XMLID_362_" class="stlogo1" d="M120.4,106.9c-0.8,0.4-3.1-0.5-3,0.9C118.1,106.9,120.5,108.3,120.4,106.9z"/>
		</g>
		<g id="XMLID_359_">
			<path id="XMLID_360_" class="stlogo1" d="M116.5,109.3c0.6-0.3,2.6,0.4,2.5-0.7C118.3,109.3,116.4,108.2,116.5,109.3z"/>
		</g>
		<g id="XMLID_357_">
			<path id="XMLID_358_" class="stlogo1" d="M118.8,110c-0.6,0.3-2.6-0.4-2.5,0.7C117,110,118.9,111.1,118.8,110z"/>
		</g>
		<g id="XMLID_355_">
			<path id="XMLID_356_" class="stlogo1" d="M114.9,72.5c0.4-1,2.5-3.3,1.5-4.3C116.5,69.8,113.5,72.3,114.9,72.5z"/>
		</g>
		<g id="XMLID_353_">
			<path id="XMLID_354_" class="stlogo1" d="M106.4,76.5c0.1-1,1.6-3.8,0.3-4.6C107.2,73.5,104.9,76.6,106.4,76.5z"/>
		</g>
		<g id="XMLID_351_">
			<path id="XMLID_352_" class="stlogo1" d="M108.1,77.1c0.1-1.1,1.6-5.3,0.3-6C108.9,72.5,106.7,77.2,108.1,77.1z"/>
		</g>
		<g id="XMLID_349_">
			<path id="XMLID_350_" class="stlogo1" d="M117.2,72.6c0.4-1,2.5-3.3,1.5-4.3C118.7,69.9,115.8,72.3,117.2,72.6z"/>
		</g>
		<g id="XMLID_347_">
			<path id="XMLID_348_" class="stlogo1" d="M119.4,72.2c0.4-1,2.5-3.3,1.5-4.3C121,69.5,118,72,119.4,72.2z"/>
		</g>
		<g id="XMLID_345_">
			<path id="XMLID_346_" class="stlogo1" d="M121.6,71.8c0.4-1,2.5-3.3,1.5-4.3C123.2,69.1,120.2,71.5,121.6,71.8z"/>
		</g>
		<g id="XMLID_343_">
			<path id="XMLID_344_" class="stlogo1" d="M137.5,46.8c-1,0.2-3.8-0.1-4.5,0.8C134.2,47.2,138,48.1,137.5,46.8z"/>
		</g>
		<g id="XMLID_341_">
			<path id="XMLID_342_" class="stlogo1" d="M136.7,48.1c-1,0.2-3.6,0-4.4,0.5C133.3,48.8,137.2,49.4,136.7,48.1z"/>
		</g>
		<g id="XMLID_339_">
			<path id="XMLID_340_" class="stlogo1" d="M135.7,49.7c-1,0.2-4.1-0.4-4.5,1C132.6,49.8,136.3,51,135.7,49.7z"/>
		</g>
		<g id="XMLID_337_">
			<path id="XMLID_338_" class="stlogo1" d="M134.7,51.3c-1,0.2-4.1-0.4-4.5,1C131.6,51.4,135.3,52.6,134.7,51.3z"/>
		</g>
		<g id="XMLID_335_">
			<path id="XMLID_336_" class="stlogo1" d="M129.7,53.8c1-0.2,4.1,0.4,4.5-1C132.8,53.7,129.1,52.5,129.7,53.8z"/>
		</g>
		<g id="XMLID_333_">
			<path id="XMLID_334_" class="stlogo1" d="M133.5,54.5c-1,0.2-4.1-0.4-4.5,1C130.4,54.6,134.1,55.8,133.5,54.5z"/>
		</g>
		<g id="XMLID_331_">
			<path id="XMLID_332_" class="stlogo1" d="M123.8,71c0.4-1,2.5-3.3,1.5-4.3C125.4,68.3,122.4,70.8,123.8,71z"/>
		</g>
		<g id="XMLID_329_">
			<path id="XMLID_330_" class="stlogo1" d="M126.2,70.2c0.4-1,2.6-3.3,1.5-4.3C127.8,67.5,124.8,70,126.2,70.2z"/>
		</g>
		<g id="XMLID_327_">
			<path id="XMLID_328_" class="stlogo1" d="M114.3,68.2c-0.8,1.1-2.5,4.6-2,5.9C112.7,72.3,114.4,70.3,114.3,68.2z"/>
		</g>
		<g id="XMLID_325_">
			<path id="XMLID_326_" class="stlogo1" d="M111.4,69.4c-0.7,1.2-1.9,4.3-1.3,5.6C110.5,74.4,111.4,71.4,111.4,69.4z"/>
		</g>
	</g>
	<g id="XMLID_212_">
		<g id="XMLID_311_">
			<g id="XMLID_322_">
				<path id="XMLID_323_" class="stlogo1" d="M238.3,20.9c-1.1,0.3-2.1,0.7-2.9,1.2c-1,0.4-2.4,0.4-2.5,1.7c1.2,0.6,3.7-0.8,4.1,1.2
					c0.9-0.9,2.1-1.7,3.7-0.8c-0.1-1.9-1.8-1.1-2.5-1.6C238.8,21.9,238.8,21.5,238.3,20.9z"/>
			</g>
			<g id="XMLID_312_">
				<path id="XMLID_313_" class="stlogo1" d="M201.7,41.6l4.4,1.2l4.1-0.3l1.3,0.4c0,0,0.8,4.8,1.4,9.3c0.6,4.5,2,11.7,2,11.7
					c0.8,1.1,1,2.1,3,2.2c0.7-0.3,2.1-0.4,2.5-1.2c0.8,1.1,3.9,4.3,5.6,5.6c1.7,1.3,5.1,2.7,8.5,3.5c3.5,0.7,6.9,0.4,9.2,1.9
					c1.3,1.1,1.1,1.7,1,4.1c-0.8,0.7-4.4,2.4-6.5,4.8c-1.8,2.3-4.3,5.1-4.9,6.9c-0.6,1.9-0.8,4.5-0.6,5.9c0.5,3.9,1.4,5.4,2.6,8.6
					c0.5,1.1,1.5,3.2,1.8,4.3c-2.9,3.4-6.8,7.9-10.9,10.2c0,0,0,0,0,0c-1.4,0.2-2.9,2.2-3.3,3.3c0.9-0.2,2.6,0.9,3.7,0.8
					c0,0,0,0,0,0c1.3,0.2,1.9-0.3,2.9-0.4c2.8-4.9,9-10.2,10.3-11.2c1.3-1,2.4-2.4,2.8-2.4c-0.7-4.1-1.8-11.5-0.3-13.4
					c1.5-1.9,8.3-4.6,8.9-4.7c1.4,3.4,3.9,6.3,7.5,8.9c3.7,2.6,9.8,6.9,10.6,7.5c0,1.5,4.6,10.2,5,14.8c-1.4,1.3-4.2,1.3-3.7,4.6
					c2.2,0,4.6,1.2,6.6,0.2c1.7-1.7,0.8-6.3,1.6-8.9c-1.6-3.2-3.4-6.3-4.7-9.8c-0.7-1.8-1.1-4.7-1.6-5.4c-0.4-0.7-1.8-1.3-2.2-1.6
					c-2.4-2.2-5.6-3.7-6.5-7.6c-0.3-4.2-0.5-7.5,0.3-9.8c0.8-2.2,1.7-3,2.2-3.9c2.5,0.6,5.5-1.4,6.9-3.2c1.4-1.8,2.9-4.7,3.1-8.3
					c-0.2-2.2,0-3.6-0.6-6.2c-0.6-2.5-2.6-7.2-4.2-9.5c-1.5-2.3-3.7-4.4-5-5.5c-1.3-1.1-4.3-3.3-8.1-3.1c-1.6,0.1-3.1,0.9-4.3,1.9
					c-0.7,0.6-0.8,1.2-0.4,1.7c1.6-1.2,4.3-1.6,5.3-1.6c2.9,0,6.6,2.3,8.8,5c0.4,0.5,2.2,2.9,2.5,3.3c0.2,0.3,1.5,2.9,1.7,3.3
					c0.3,0.6,1.5,4,1.7,4.5c0.9,3.5,0.5,7.1-0.4,10.3c-1.2,2.4-2.5,4.2-4.9,5.4c-1.1,0.4-1.6,0.2-2.5-0.4c-1-0.8-1.2-1.9-1.9-3.4
					c-0.7-1.5-1.9-2.5-3.3-4.1c-1.4-1.5-6.6-5.2-8-6c-1.3-0.8-7.6-4-8.6-4.8c-1.1-0.8-6.3-5.1-8.3-7.4c-1.5-1.7-3.1-5-3.6-8.3
					c-0.2-1.2,0-2.8-0.3-3.2c-0.3-0.4,0-0.3-0.8-0.4c0-2,2-3.9,1-4.8c0,0,0.5-1.9,1.1-3.2c0.6-1.3,1.8-2.9,3.3-3.5
					c1.5-0.5,3.2-0.8,4.5-0.8c2.4-2.6,9.7-1.4,10.7-5.8c-2.1-0.4-4.5-0.4-7.9-1.1c-2.3-0.8-3.7-2.3-5.4-3.7c-1.8,0-3.6,0-5.4,0
					c-1.1,0.1-1.6-1.6-2.9-2.1c-2.5-0.8-6.5-0.4-8.8-0.2c0,0.5,0,1.5,0.9,2.1c0.9,0.6,3.5,0.5,5,1.4c-2.8,1.8-7,2.1-8.2,5.4
					c1.8,0.9,4.9-1.3,7.2-1.2c-1.1,1.3-3,3.1-4.5,6.8c-1.5,3.7-2.1,6.5-2.7,8.4c-0.1,0.6-0.6,0.1-1,0.5c-0.4,0.4-0.9,2.4,0.2,2.4
					c-0.5,1-0.6,2.9-0.4,4.4c-2.4-1.1-3.3-5.4-5-7.2c-3.4-1.3-7.1-0.2-11.5-0.8C201.1,39.2,201.1,41,201.7,41.6z M220.5,41.5
					c1.2,0.4,7.9,2.6,11,1.2c-0.1,3.2-3.4,1.8-5.4,1.3c-0.7-0.7-6.4-0.1-6.4-0.1S220.5,42,220.5,41.5z M230.2,42.3
					c-3.6,0.7-6.7-1.1-9.5-1.6c0.1-1.2,0.3-2.3,1.2-2.8c0.9,0.3,3,1,4.7,1.1c0.6,0.3,3.6,0.4,4.2,0.4
					C230.5,41,230.6,41.3,230.2,42.3z M231,37.8c-2.4,0.8-8.5-1.2-9.1-2.9c0.7,0,1.6,0.6,1.6,0.6l1.6,0.7
					C225.2,36.2,228.6,36.9,231,37.8z M225.1,17.3c1.8,0.5,5-0.2,4.9,1.7C228.4,19,225.9,19.3,225.1,17.3z M230.6,36.5
					c-1.8,0.2-2.5-0.3-4.1-0.8c-1.6-0.5-3.5-1.2-3.3-1.7c0.3-1.3,1.5-0.4,1.2-1.6c0.2-2.9,1.8-4.8,3.7-6.6c0.3-0.9,0.1-0.9,1.7-0.8
					c0.4-1.5,0-1,0.4-2.5c-0.7,0-1.1,0.3-1.2,0.8c-0.7-0.4-1-1.1-2.5-0.8c-1.7,0.5-3.1,1.3-4.9,1.7c2-1.9,5-2.3,7-3.3
					c1.6,0.1,2.7,2.3,4.1,1.2c0.3-1.5-1.5-1-2.1-1.6c1.6-1.3,5.1-0.7,7.8-0.8c2.1,3.2,6.4,4.1,12,4.4c0.2,1.2-1.8,1.7-2.9,1.8
					c-3.3,0.4-6.4,1.7-6.5,2.3c-0.3-0.3-3.2,0.6-3-1.1c-1.3-0.2-1,1-2.3,1.1c-1.3,0-1.8-0.1-1.8,0.6c0,0.3-0.1,0.6-0.1,0.8
					C233,32,231.6,36.5,230.6,36.5z M245,81.5c0.7,1.8,1.4,6,4.8,9.1c-0.1,0.5-2.5,0.8-5.2,2.4c-2.7,1.5-3.8,3.8-4.1,6.2
					c-0.2,1.7,0.7,8.7,0.7,8.7c0.1,0.6,0.6,1.7,0,2.6c-0.8,1-1.7,1.7-2.5,0.5c0,0-0.8-2.1-2.1-5.5c-1.3-3.4-3.2-9.1-1.9-12.9
					c1.3-3.8,4.1-6.7,4.9-7.4C240.4,84.5,243.9,81.9,245,81.5z M202,40.7c0-1.2,0.4-1.2,1.9-1.2c1.4,0,3.6,0,6.2-0.1
					c2.5-0.1,3.6,1.6,4.5,3.3c0.3,0.5,1.6,3.6,2.2,4.6c0.6,1.1,6.2,6.3,6,7.6c1.1,0.5,2-0.5,1.8-0.4c-0.2,0.1-5.1-5.7-4.6-9
					c-1-0.5,4.7-1.2,6.1-0.3c0.3-0.1,1.2,0.8,2.2,0.8c1,0.1,2,0.1,2.5-0.4c0.6,1.4,2.1,6,3,7c1,1.1,2.6,3.5,4.8,5.5
					c1.4,1.4,4.5,4.2,6.4,5.2c1.7,0.7,8.6,3.8,10.8,5.5c2.2,1.7,5.3,4.5,5.5,4.6c0.3,0.2,4.6,7.4,1.4,7.4c-0.1,1,1.2,0.5,1.2,1.2
					c-0.6,1-1.6,3.9-1.7,5.3c-0.1,1.4-0.1,3.4,0.4,5.8c0.6,2.5,1.9,5.3,2.8,6.5c0.9,1.1,5.4,4.7,6.5,5.3c1,1.6,1.4,4.3,2.1,5.9l2,4
					c0.8,1.8,2.1,3.2,2.4,5.2c0,1.7-0.1,2.6-0.3,4.3c-1.3,0.4,0.6,2.9-2,3.1c-1.4-0.1-3.5,0.2-3.7-1.1c1.4-1,2.4-1.3,3.2-1.9
					c0.3-0.5,0-2.7-0.6-4c-0.3-0.8-4.3-11.5-4.7-12.5c-1-0.5-3.3-2.8-6.3-4.5c-3-1.7-10.7-7.9-9.5-11.9c-0.8-0.1-5.3-2.2-4.6-9.9
					c0.3-1.9,1.7-4.9,0.4-6.2c-0.6,1.4-1.2,1.8-2,1.6c-1.1-0.9-1.1-4.9-9.4-5.1c-8.3-0.3-17.3-6.6-16.7-11.2
					c-1.6-0.4-2.8,1.2-3.2,1.5c-2.6,1.8-6.1-16.9-5.8-20c-2-1.9-4.6,0.3-6.2-0.3C206.4,41.8,203.1,41.8,202,40.7z"/>
			</g>
		</g>
		<g id="XMLID_309_">
			<path id="XMLID_310_" class="stlogo1" d="M242.1,81.8c1.8,3.7,2.7,4.6,3.7,7.7c-0.6-1.2-2.7-3.8-4.2-7.4"/>
		</g>
		<g id="XMLID_307_">
			<path id="XMLID_308_" class="stlogo1" d="M240.9,83.1c1.8,3.7,3.5,4.9,3.3,6.1c-0.6-1.2-2.3-2.1-3.8-5.7"/>
		</g>
		<g id="XMLID_305_">
			<path id="XMLID_306_" class="stlogo1" d="M239.7,84c1.8,3.7,1.8,2.3,2.8,5.3c-0.3,0-1.4-1.7-3.3-5"/>
		</g>
		<g id="XMLID_303_">
			<path id="XMLID_304_" class="stlogo1" d="M238.3,85.3c1.8,3.7,1,0.6,2,3.7c-0.3,0-0.5,0.1-2.4-3.2"/>
		</g>
		<g id="XMLID_301_">
			<path id="XMLID_302_" class="stlogo1" d="M243.7,81.4c1.8,3.7,2.9,5.3,3.9,8.4c-0.6-1.2-3.1-4.4-4.7-8"/>
		</g>
		<g id="XMLID_299_">
			<path id="XMLID_300_" class="stlogo1" d="M229.4,26.6c-0.7-0.4-3.1,0.4-3-1C227.2,26.5,229.6,25.2,229.4,26.6z"/>
		</g>
		<g id="XMLID_297_">
			<path id="XMLID_298_" class="stlogo1" d="M228.7,27.9c-0.7-0.4-3.1,0.4-3-1C226.5,27.8,228.8,26.5,228.7,27.9z"/>
		</g>
		<g id="XMLID_295_">
			<path id="XMLID_296_" class="stlogo1" d="M227.9,29.2c-0.7-0.4-3.1,0.4-3-1C225.7,29.1,228.1,27.8,227.9,29.2z"/>
		</g>
		<g id="XMLID_293_">
			<path id="XMLID_294_" class="stlogo1" d="M227.2,30.5c-0.7-0.4-3.1,0.4-3-1C225,30.4,227.4,29.1,227.2,30.5z"/>
		</g>
		<g id="XMLID_291_">
			<path id="XMLID_292_" class="stlogo1" d="M222.3,46.2c-0.7-0.4-3.1,0.4-3-1C220.1,46.1,222.4,44.8,222.3,46.2z"/>
		</g>
		<g id="XMLID_289_">
			<path id="XMLID_290_" class="stlogo1" d="M226.5,31.8c-0.7-0.4-3.1,0.4-3-1C224.3,31.7,226.7,30.4,226.5,31.8z"/>
		</g>
		<g id="XMLID_287_">
			<path id="XMLID_288_" class="stlogo1" d="M225.6,33c-0.7-0.4-2.7,0.4-2.6-1C223.8,33,225.7,31.6,225.6,33z"/>
		</g>
		<g id="XMLID_285_">
			<path id="XMLID_286_" class="stlogo1" d="M224.8,34.3c-0.7-0.4-2.7,0.4-2.6-1C223.1,34.2,225,32.9,224.8,34.3z"/>
		</g>
		<g id="XMLID_283_">
			<path id="XMLID_284_" class="stlogo1" d="M262.7,103.6c1.1,0.1,4.1-0.9,4.5,0.5C265.8,103.3,262.3,104.9,262.7,103.6z"/>
		</g>
		<g id="XMLID_281_">
			<path id="XMLID_282_" class="stlogo1" d="M261.5,102c1.1,0.1,4.1-0.9,4.5,0.5C264.6,101.8,261.1,103.4,261.5,102z"/>
		</g>
		<g id="XMLID_279_">
			<path id="XMLID_280_" class="stlogo1" d="M259.5,100.4c1.1,0.1,4.1-0.9,4.5,0.5C262.7,100.2,259.1,101.8,259.5,100.4z"/>
		</g>
		<g id="XMLID_277_">
			<path id="XMLID_278_" class="stlogo1" d="M257.3,98.8c1.1,0.1,4.1-0.9,4.5,0.5C260.4,98.5,256.9,100.1,257.3,98.8z"/>
		</g>
		<g id="XMLID_275_">
			<path id="XMLID_276_" class="stlogo1" d="M256.5,96.9c1.1,0.1,4.1-0.9,4.5,0.5C259.6,96.7,256.1,98.3,256.5,96.9z"/>
		</g>
		<g id="XMLID_273_">
			<path id="XMLID_274_" class="stlogo1" d="M255,95.2c1.1,0.1,4.1-0.9,4.5,0.5C258.1,94.9,254.6,96.5,255,95.2z"/>
		</g>
		<g id="XMLID_271_">
			<path id="XMLID_272_" class="stlogo1" d="M253.9,93.2c1.1,0.1,4.1-0.9,4.5,0.5C257.1,92.9,253.5,94.5,253.9,93.2z"/>
		</g>
		<g id="XMLID_269_">
			<path id="XMLID_270_" class="stlogo1" d="M253.6,91.3c1.1,0.1,4.1-0.9,4.5,0.5C256.7,91.1,253.2,92.7,253.6,91.3z"/>
		</g>
		<g id="XMLID_267_">
			<path id="XMLID_268_" class="stlogo1" d="M227.4,68.5c0.1-0.8-1.7-2.7-0.4-3.1C226.6,66.5,228.8,68.1,227.4,68.5z"/>
		</g>
		<g id="XMLID_265_">
			<path id="XMLID_266_" class="stlogo1" d="M225.4,67.4c0.1-0.8-1.7-2.7-0.4-3.1C224.6,65.3,226.8,66.9,225.4,67.4z"/>
		</g>
		<g id="XMLID_263_">
			<path id="XMLID_264_" class="stlogo1" d="M236.8,97.1c-0.7-0.4-3.1,0.5-3-0.9C234.6,97.1,236.9,95.7,236.8,97.1z"/>
		</g>
		<g id="XMLID_261_">
			<path id="XMLID_262_" class="stlogo1" d="M237,98.4c-0.8-0.4-3.1,0.5-3-0.9C234.8,98.4,237.1,97,237,98.4z"/>
		</g>
		<g id="XMLID_259_">
			<path id="XMLID_260_" class="stlogo1" d="M237.2,99.8c-0.7-0.4-3.1,0.5-3-0.9C235,99.8,237.4,98.4,237.2,99.8z"/>
		</g>
		<g id="XMLID_257_">
			<path id="XMLID_258_" class="stlogo1" d="M234.5,100.6c0.7,0.4,3.1-0.5,3,0.9C236.7,100.7,234.4,102,234.5,100.6z"/>
		</g>
		<g id="XMLID_255_">
			<path id="XMLID_256_" class="stlogo1" d="M238.1,103c-0.8-0.4-3.1,0.5-3-0.9C235.9,103,238.2,101.6,238.1,103z"/>
		</g>
		<g id="XMLID_253_">
			<path id="XMLID_254_" class="stlogo1" d="M235.3,103.8c0.8,0.4,3.1-0.5,3,0.9C237.5,103.8,235.2,105.2,235.3,103.8z"/>
		</g>
		<g id="XMLID_251_">
			<path id="XMLID_252_" class="stlogo1" d="M238.8,106.1c-0.7-0.4-3.1,0.5-3-0.9C236.6,106.1,238.9,104.7,238.8,106.1z"/>
		</g>
		<g id="XMLID_249_">
			<path id="XMLID_250_" class="stlogo1" d="M236,106.9c0.7,0.4,3.1-0.5,3,0.9C238.2,106.9,235.9,108.3,236,106.9z"/>
		</g>
		<g id="XMLID_247_">
			<path id="XMLID_248_" class="stlogo1" d="M239.9,109.3c-0.6-0.3-2.6,0.4-2.5-0.7C238,109.3,240,108.2,239.9,109.3z"/>
		</g>
		<g id="XMLID_245_">
			<path id="XMLID_246_" class="stlogo1" d="M237.6,110c0.6,0.3,2.6-0.4,2.5,0.7C239.4,110,237.5,111.1,237.6,110z"/>
		</g>
		<g id="XMLID_243_">
			<path id="XMLID_244_" class="stlogo1" d="M241.5,72.5c-0.4-1-2.5-3.3-1.5-4.3C239.9,69.8,242.8,72.3,241.5,72.5z"/>
		</g>
		<g id="XMLID_241_">
			<path id="XMLID_242_" class="stlogo1" d="M250,76.5c-0.1-1-1.6-3.8-0.3-4.6C249.2,73.5,251.4,76.6,250,76.5z"/>
		</g>
		<g id="XMLID_239_">
			<path id="XMLID_240_" class="stlogo1" d="M248.2,77.1c-0.1-1.1-1.6-5.3-0.3-6C247.5,72.5,249.7,77.2,248.2,77.1z"/>
		</g>
		<g id="XMLID_237_">
			<path id="XMLID_238_" class="stlogo1" d="M239.2,72.6c-0.4-1-2.5-3.3-1.5-4.3C237.6,69.9,240.6,72.3,239.2,72.6z"/>
		</g>
		<g id="XMLID_235_">
			<path id="XMLID_236_" class="stlogo1" d="M236.9,72.2c-0.4-1-2.5-3.3-1.5-4.3C235.4,69.5,238.3,72,236.9,72.2z"/>
		</g>
		<g id="XMLID_233_">
			<path id="XMLID_234_" class="stlogo1" d="M234.7,71.8c-0.4-1-2.5-3.3-1.5-4.3C233.2,69.1,236.1,71.5,234.7,71.8z"/>
		</g>
		<g id="XMLID_231_">
			<path id="XMLID_232_" class="stlogo1" d="M218.9,46.8c1,0.2,3.8-0.1,4.5,0.8C222.1,47.2,218.3,48.1,218.9,46.8z"/>
		</g>
		<g id="XMLID_229_">
			<path id="XMLID_230_" class="stlogo1" d="M219.7,48.1c1,0.2,3.6,0,4.4,0.5C223,48.8,219.1,49.4,219.7,48.1z"/>
		</g>
		<g id="XMLID_227_">
			<path id="XMLID_228_" class="stlogo1" d="M220.6,49.7c1,0.2,4.1-0.4,4.5,1C223.8,49.8,220.1,51,220.6,49.7z"/>
		</g>
		<g id="XMLID_225_">
			<path id="XMLID_226_" class="stlogo1" d="M221.7,51.3c1,0.2,4.1-0.4,4.5,1C224.8,51.4,221.1,52.6,221.7,51.3z"/>
		</g>
		<g id="XMLID_223_">
			<path id="XMLID_224_" class="stlogo1" d="M226.7,53.8c-1-0.2-4.1,0.4-4.5-1C223.6,53.7,227.3,52.5,226.7,53.8z"/>
		</g>
		<g id="XMLID_221_">
			<path id="XMLID_222_" class="stlogo1" d="M222.8,54.5c1,0.2,4.1-0.4,4.5,1C226,54.6,222.3,55.8,222.8,54.5z"/>
		</g>
		<g id="XMLID_219_">
			<path id="XMLID_220_" class="stlogo1" d="M232.6,71c-0.4-1-2.5-3.3-1.5-4.3C231,68.3,234,70.8,232.6,71z"/>
		</g>
		<g id="XMLID_217_">
			<path id="XMLID_218_" class="stlogo1" d="M230.2,70.2c-0.4-1-2.5-3.3-1.5-4.3C228.6,67.5,231.6,70,230.2,70.2z"/>
		</g>
		<g id="XMLID_215_">
			<path id="XMLID_216_" class="stlogo1" d="M242.1,68.2c0.8,1.1,2.5,4.6,2,5.9C243.7,72.3,242,70.3,242.1,68.2z"/>
		</g>
		<g id="XMLID_213_">
			<path id="XMLID_214_" class="stlogo1" d="M245,69.4c0.7,1.2,1.9,4.3,1.3,5.6C245.8,74.4,244.9,71.4,245,69.4z"/>
		</g>
	</g>
</g>
</svg>
