<?xml version="1.0" encoding="utf-8"?>
<!-- Generator: Adobe Illustrator 19.0.0, SVG Export Plug-In . SVG Version: 6.00 Build 0)  -->
<svg version="1.1" id="Calque_1" xmlns="http://www.w3.org/2000/svg" xmlns:xlink="http://www.w3.org/1999/xlink" x="0px" y="0px"
	 viewBox="0 0 19.3 12.5" style="enable-background:new 0 0 19.3 12.5;" xml:space="preserve">
<style type="text/css">
	.st0{fill:#FFFFFF;}
</style>
<path id="XMLID_211_" class="st0" d="M5.9,6.2C4.3,5.4,2.6,4.3,2,3.7C1.4,3.2,1,2.7,0.7,2.2C0.4,1.6,0.3,1.2,0.3,0.9
	c0-0.2,0.1-0.3,0.2-0.5C0.6,0.3,0.8,0.2,1,0.2c0.2,0,0.5,0.1,0.9,0.3C3.1,1.4,4.2,2,5.2,2.5C6.1,3,7.2,3.4,8.6,3.9
	c1.3,0.4,2.9,0.8,4.6,1.1c1.8,0.3,5.4,0.8,5.6,0.9C19,6,19.1,6.1,19.1,6.2c0,0.2-0.1,0.3-0.4,0.4c-0.3,0.1-3.6,0.5-5.4,0.8
	C11.6,7.8,10,8.1,8.6,8.6C7.3,9,6.2,9.4,5.2,9.9c-0.9,0.5-2,1.1-3.3,2c-0.3,0.2-0.6,0.3-0.9,0.3c-0.2,0-0.4-0.1-0.6-0.2
	c-0.1-0.1-0.2-0.3-0.2-0.5c0-0.4,0.2-0.9,0.7-1.6c0.5-0.7,1-1.2,1.6-1.7C3.2,7.8,4.7,6.9,5.9,6.2z"/>
</svg>
